%TF.GenerationSoftware,KiCad,Pcbnew,8.0.7-1.fc41*%
%TF.CreationDate,2025-04-02T21:27:31-07:00*%
%TF.ProjectId,EP-Booster,45502d42-6f6f-4737-9465-722e6b696361,rev?*%
%TF.SameCoordinates,Original*%
%TF.FileFunction,Drillmap*%
%TF.FilePolarity,Positive*%
%FSLAX45Y45*%
G04 Gerber Fmt 4.5, Leading zero omitted, Abs format (unit mm)*
G04 Created by KiCad (PCBNEW 8.0.7-1.fc41) date 2025-04-02 21:27:31*
%MOMM*%
%LPD*%
G01*
G04 APERTURE LIST*
%ADD10C,0.050000*%
%ADD11C,0.200000*%
%ADD12C,0.100000*%
%ADD13C,0.110000*%
%ADD14C,0.120000*%
%ADD15C,0.150000*%
%ADD16C,0.220000*%
G04 APERTURE END LIST*
D10*
X12100000Y-2300000D02*
X16525000Y-2300000D01*
X16525000Y-10125000D01*
X12100000Y-10125000D01*
X12100000Y-2300000D01*
D11*
D12*
X12254000Y-5835000D02*
X12334000Y-5915000D01*
X12334000Y-5835000D02*
X12254000Y-5915000D01*
X12273000Y-5360000D02*
X12353000Y-5440000D01*
X12353000Y-5360000D02*
X12273000Y-5440000D01*
X12304000Y-4360000D02*
X12384000Y-4440000D01*
X12384000Y-4360000D02*
X12304000Y-4440000D01*
X12535000Y-6335000D02*
X12615000Y-6415000D01*
X12615000Y-6335000D02*
X12535000Y-6415000D01*
X12735000Y-6804000D02*
X12815000Y-6884000D01*
X12815000Y-6804000D02*
X12735000Y-6884000D01*
X12735000Y-7566000D02*
X12815000Y-7646000D01*
X12815000Y-7566000D02*
X12735000Y-7646000D01*
X12789489Y-3610000D02*
X12869489Y-3690000D01*
X12869489Y-3610000D02*
X12789489Y-3690000D01*
X13016000Y-5835000D02*
X13096000Y-5915000D01*
X13096000Y-5835000D02*
X13016000Y-5915000D01*
X13035000Y-5360000D02*
X13115000Y-5440000D01*
X13115000Y-5360000D02*
X13035000Y-5440000D01*
X13035000Y-6335000D02*
X13115000Y-6415000D01*
X13115000Y-6335000D02*
X13035000Y-6415000D01*
X13039489Y-3610000D02*
X13119489Y-3690000D01*
X13119489Y-3610000D02*
X13039489Y-3690000D01*
X13066000Y-4360000D02*
X13146000Y-4440000D01*
X13146000Y-4360000D02*
X13066000Y-4440000D01*
X13130511Y-6810000D02*
X13210511Y-6890000D01*
X13210511Y-6810000D02*
X13130511Y-6890000D01*
X13380511Y-6810000D02*
X13460511Y-6890000D01*
X13460511Y-6810000D02*
X13380511Y-6890000D01*
X13532000Y-7339489D02*
X13612000Y-7419489D01*
X13612000Y-7339489D02*
X13532000Y-7419489D01*
X13532000Y-7839489D02*
X13612000Y-7919489D01*
X13612000Y-7839489D02*
X13532000Y-7919489D01*
X13535000Y-5435000D02*
X13615000Y-5515000D01*
X13615000Y-5435000D02*
X13535000Y-5515000D01*
X13535000Y-6197000D02*
X13615000Y-6277000D01*
X13615000Y-6197000D02*
X13535000Y-6277000D01*
X14010000Y-6810000D02*
X14090000Y-6890000D01*
X14090000Y-6810000D02*
X14010000Y-6890000D01*
X14135167Y-5488978D02*
X14215167Y-5568978D01*
X14215167Y-5488978D02*
X14135167Y-5568978D01*
X14135167Y-5738977D02*
X14215167Y-5818977D01*
X14215167Y-5738977D02*
X14135167Y-5818977D01*
X14260000Y-6810000D02*
X14340000Y-6890000D01*
X14340000Y-6810000D02*
X14260000Y-6890000D01*
X14294000Y-7339489D02*
X14374000Y-7419489D01*
X14374000Y-7339489D02*
X14294000Y-7419489D01*
X14294000Y-7839489D02*
X14374000Y-7919489D01*
X14374000Y-7839489D02*
X14294000Y-7919489D01*
X14735000Y-6504000D02*
X14815000Y-6584000D01*
X14815000Y-6504000D02*
X14735000Y-6584000D01*
X14735000Y-7266000D02*
X14815000Y-7346000D01*
X14815000Y-7266000D02*
X14735000Y-7346000D01*
X14735000Y-7529000D02*
X14815000Y-7609000D01*
X14815000Y-7529000D02*
X14735000Y-7609000D01*
X14735000Y-8291000D02*
X14815000Y-8371000D01*
X14815000Y-8291000D02*
X14735000Y-8371000D01*
X14735333Y-5440000D02*
X14815333Y-5520000D01*
X14815333Y-5440000D02*
X14735333Y-5520000D01*
X14735333Y-6202000D02*
X14815333Y-6282000D01*
X14815333Y-6202000D02*
X14735333Y-6282000D01*
X15110000Y-7535000D02*
X15190000Y-7615000D01*
X15190000Y-7535000D02*
X15110000Y-7615000D01*
X15110000Y-8297000D02*
X15190000Y-8377000D01*
X15190000Y-8297000D02*
X15110000Y-8377000D01*
X15240000Y-5440000D02*
X15320000Y-5520000D01*
X15320000Y-5440000D02*
X15240000Y-5520000D01*
X15240000Y-6202000D02*
X15320000Y-6282000D01*
X15320000Y-6202000D02*
X15240000Y-6282000D01*
X15285000Y-6610000D02*
X15365000Y-6690000D01*
X15365000Y-6610000D02*
X15285000Y-6690000D01*
X15285000Y-7110000D02*
X15365000Y-7190000D01*
X15365000Y-7110000D02*
X15285000Y-7190000D01*
X15379000Y-5010000D02*
X15459000Y-5090000D01*
X15459000Y-5010000D02*
X15379000Y-5090000D01*
X15505511Y-3660000D02*
X15585511Y-3740000D01*
X15585511Y-3660000D02*
X15505511Y-3740000D01*
X15660000Y-5429000D02*
X15740000Y-5509000D01*
X15740000Y-5429000D02*
X15660000Y-5509000D01*
X15660000Y-6191000D02*
X15740000Y-6271000D01*
X15740000Y-6191000D02*
X15660000Y-6271000D01*
X15755511Y-3660000D02*
X15835511Y-3740000D01*
X15835511Y-3660000D02*
X15755511Y-3740000D01*
X15785000Y-6528000D02*
X15865000Y-6608000D01*
X15865000Y-6528000D02*
X15785000Y-6608000D01*
X15785000Y-7290000D02*
X15865000Y-7370000D01*
X15865000Y-7290000D02*
X15785000Y-7370000D01*
X16039000Y-6528000D02*
X16119000Y-6608000D01*
X16119000Y-6528000D02*
X16039000Y-6608000D01*
X16039000Y-7290000D02*
X16119000Y-7370000D01*
X16119000Y-7290000D02*
X16039000Y-7370000D01*
X16135000Y-5435000D02*
X16215000Y-5515000D01*
X16215000Y-5435000D02*
X16135000Y-5515000D01*
X16135000Y-6197000D02*
X16215000Y-6277000D01*
X16215000Y-6197000D02*
X16135000Y-6277000D01*
X16141000Y-5010000D02*
X16221000Y-5090000D01*
X16221000Y-5010000D02*
X16141000Y-5090000D01*
X16160000Y-3954000D02*
X16240000Y-4034000D01*
X16240000Y-3954000D02*
X16160000Y-4034000D01*
X16160000Y-4716000D02*
X16240000Y-4796000D01*
X16240000Y-4716000D02*
X16160000Y-4796000D01*
D13*
X13593000Y-8300000D02*
G75*
G02*
X13483000Y-8300000I-55000J0D01*
G01*
X13483000Y-8300000D02*
G75*
G02*
X13593000Y-8300000I55000J0D01*
G01*
X13880000Y-8825000D02*
G75*
G02*
X13770000Y-8825000I-55000J0D01*
G01*
X13770000Y-8825000D02*
G75*
G02*
X13880000Y-8825000I55000J0D01*
G01*
X14355000Y-8300000D02*
G75*
G02*
X14245000Y-8300000I-55000J0D01*
G01*
X14245000Y-8300000D02*
G75*
G02*
X14355000Y-8300000I55000J0D01*
G01*
X14896000Y-8825000D02*
G75*
G02*
X14786000Y-8825000I-55000J0D01*
G01*
X14786000Y-8825000D02*
G75*
G02*
X14896000Y-8825000I55000J0D01*
G01*
D14*
X13800000Y-3090000D02*
X13800000Y-3210000D01*
X13740000Y-3150000D02*
X13860000Y-3150000D01*
X14300000Y-3090000D02*
X14300000Y-3210000D01*
X14240000Y-3150000D02*
X14360000Y-3150000D01*
X14800000Y-3090000D02*
X14800000Y-3210000D01*
X14740000Y-3150000D02*
X14860000Y-3150000D01*
D15*
X12653033Y-9753034D02*
X12653033Y-9646967D01*
X12546966Y-9646967D01*
X12546966Y-9753034D01*
X12653033Y-9753034D01*
X13156605Y-9753034D02*
X13156605Y-9646967D01*
X13050538Y-9646967D01*
X13050538Y-9753034D01*
X13156605Y-9753034D01*
X13660176Y-9753034D02*
X13660176Y-9646967D01*
X13554109Y-9646967D01*
X13554109Y-9753034D01*
X13660176Y-9753034D01*
X14163748Y-9753034D02*
X14163748Y-9646967D01*
X14057681Y-9646967D01*
X14057681Y-9753034D01*
X14163748Y-9753034D01*
X14667319Y-9753034D02*
X14667319Y-9646967D01*
X14561252Y-9646967D01*
X14561252Y-9753034D01*
X14667319Y-9753034D01*
X15170890Y-9753034D02*
X15170890Y-9646967D01*
X15064823Y-9646967D01*
X15064823Y-9753034D01*
X15170890Y-9753034D01*
X15674462Y-9753034D02*
X15674462Y-9646967D01*
X15568395Y-9646967D01*
X15568395Y-9753034D01*
X15674462Y-9753034D01*
X16178033Y-9753034D02*
X16178033Y-9646967D01*
X16071966Y-9646967D01*
X16071966Y-9753034D01*
X16178033Y-9753034D01*
D16*
X12375000Y-2810000D02*
X12485000Y-2700000D01*
X12375000Y-2590000D01*
X12265000Y-2700000D01*
X12375000Y-2810000D01*
X12375000Y-8985000D02*
X12485000Y-8875000D01*
X12375000Y-8765000D01*
X12265000Y-8875000D01*
X12375000Y-8985000D01*
X16225000Y-2810000D02*
X16335000Y-2700000D01*
X16225000Y-2590000D01*
X16115000Y-2700000D01*
X16225000Y-2810000D01*
X16225000Y-8985000D02*
X16335000Y-8875000D01*
X16225000Y-8765000D01*
X16115000Y-8875000D01*
X16225000Y-8985000D01*
D11*
X12358277Y-10438984D02*
X12358277Y-10238984D01*
X12358277Y-10238984D02*
X12405896Y-10238984D01*
X12405896Y-10238984D02*
X12434467Y-10248508D01*
X12434467Y-10248508D02*
X12453515Y-10267555D01*
X12453515Y-10267555D02*
X12463039Y-10286603D01*
X12463039Y-10286603D02*
X12472562Y-10324698D01*
X12472562Y-10324698D02*
X12472562Y-10353270D01*
X12472562Y-10353270D02*
X12463039Y-10391365D01*
X12463039Y-10391365D02*
X12453515Y-10410412D01*
X12453515Y-10410412D02*
X12434467Y-10429460D01*
X12434467Y-10429460D02*
X12405896Y-10438984D01*
X12405896Y-10438984D02*
X12358277Y-10438984D01*
X12558277Y-10438984D02*
X12558277Y-10305650D01*
X12558277Y-10343746D02*
X12567801Y-10324698D01*
X12567801Y-10324698D02*
X12577324Y-10315174D01*
X12577324Y-10315174D02*
X12596372Y-10305650D01*
X12596372Y-10305650D02*
X12615420Y-10305650D01*
X12682086Y-10438984D02*
X12682086Y-10305650D01*
X12682086Y-10238984D02*
X12672562Y-10248508D01*
X12672562Y-10248508D02*
X12682086Y-10258031D01*
X12682086Y-10258031D02*
X12691610Y-10248508D01*
X12691610Y-10248508D02*
X12682086Y-10238984D01*
X12682086Y-10238984D02*
X12682086Y-10258031D01*
X12805896Y-10438984D02*
X12786848Y-10429460D01*
X12786848Y-10429460D02*
X12777324Y-10410412D01*
X12777324Y-10410412D02*
X12777324Y-10238984D01*
X12910658Y-10438984D02*
X12891610Y-10429460D01*
X12891610Y-10429460D02*
X12882086Y-10410412D01*
X12882086Y-10410412D02*
X12882086Y-10238984D01*
X13139229Y-10438984D02*
X13139229Y-10238984D01*
X13139229Y-10238984D02*
X13205896Y-10381841D01*
X13205896Y-10381841D02*
X13272562Y-10238984D01*
X13272562Y-10238984D02*
X13272562Y-10438984D01*
X13453515Y-10438984D02*
X13453515Y-10334222D01*
X13453515Y-10334222D02*
X13443991Y-10315174D01*
X13443991Y-10315174D02*
X13424943Y-10305650D01*
X13424943Y-10305650D02*
X13386848Y-10305650D01*
X13386848Y-10305650D02*
X13367801Y-10315174D01*
X13453515Y-10429460D02*
X13434467Y-10438984D01*
X13434467Y-10438984D02*
X13386848Y-10438984D01*
X13386848Y-10438984D02*
X13367801Y-10429460D01*
X13367801Y-10429460D02*
X13358277Y-10410412D01*
X13358277Y-10410412D02*
X13358277Y-10391365D01*
X13358277Y-10391365D02*
X13367801Y-10372317D01*
X13367801Y-10372317D02*
X13386848Y-10362793D01*
X13386848Y-10362793D02*
X13434467Y-10362793D01*
X13434467Y-10362793D02*
X13453515Y-10353270D01*
X13548753Y-10305650D02*
X13548753Y-10505650D01*
X13548753Y-10315174D02*
X13567801Y-10305650D01*
X13567801Y-10305650D02*
X13605896Y-10305650D01*
X13605896Y-10305650D02*
X13624943Y-10315174D01*
X13624943Y-10315174D02*
X13634467Y-10324698D01*
X13634467Y-10324698D02*
X13643991Y-10343746D01*
X13643991Y-10343746D02*
X13643991Y-10400889D01*
X13643991Y-10400889D02*
X13634467Y-10419936D01*
X13634467Y-10419936D02*
X13624943Y-10429460D01*
X13624943Y-10429460D02*
X13605896Y-10438984D01*
X13605896Y-10438984D02*
X13567801Y-10438984D01*
X13567801Y-10438984D02*
X13548753Y-10429460D01*
X13729705Y-10419936D02*
X13739229Y-10429460D01*
X13739229Y-10429460D02*
X13729705Y-10438984D01*
X13729705Y-10438984D02*
X13720182Y-10429460D01*
X13720182Y-10429460D02*
X13729705Y-10419936D01*
X13729705Y-10419936D02*
X13729705Y-10438984D01*
X13729705Y-10315174D02*
X13739229Y-10324698D01*
X13739229Y-10324698D02*
X13729705Y-10334222D01*
X13729705Y-10334222D02*
X13720182Y-10324698D01*
X13720182Y-10324698D02*
X13729705Y-10315174D01*
X13729705Y-10315174D02*
X13729705Y-10334222D01*
D12*
X12017500Y-10727500D02*
X12097500Y-10807500D01*
X12097500Y-10727500D02*
X12017500Y-10807500D01*
D11*
X12396372Y-10658984D02*
X12415420Y-10658984D01*
X12415420Y-10658984D02*
X12434467Y-10668508D01*
X12434467Y-10668508D02*
X12443991Y-10678031D01*
X12443991Y-10678031D02*
X12453515Y-10697079D01*
X12453515Y-10697079D02*
X12463039Y-10735174D01*
X12463039Y-10735174D02*
X12463039Y-10782793D01*
X12463039Y-10782793D02*
X12453515Y-10820889D01*
X12453515Y-10820889D02*
X12443991Y-10839936D01*
X12443991Y-10839936D02*
X12434467Y-10849460D01*
X12434467Y-10849460D02*
X12415420Y-10858984D01*
X12415420Y-10858984D02*
X12396372Y-10858984D01*
X12396372Y-10858984D02*
X12377324Y-10849460D01*
X12377324Y-10849460D02*
X12367801Y-10839936D01*
X12367801Y-10839936D02*
X12358277Y-10820889D01*
X12358277Y-10820889D02*
X12348753Y-10782793D01*
X12348753Y-10782793D02*
X12348753Y-10735174D01*
X12348753Y-10735174D02*
X12358277Y-10697079D01*
X12358277Y-10697079D02*
X12367801Y-10678031D01*
X12367801Y-10678031D02*
X12377324Y-10668508D01*
X12377324Y-10668508D02*
X12396372Y-10658984D01*
X12548753Y-10839936D02*
X12558277Y-10849460D01*
X12558277Y-10849460D02*
X12548753Y-10858984D01*
X12548753Y-10858984D02*
X12539229Y-10849460D01*
X12539229Y-10849460D02*
X12548753Y-10839936D01*
X12548753Y-10839936D02*
X12548753Y-10858984D01*
X12672562Y-10744698D02*
X12653515Y-10735174D01*
X12653515Y-10735174D02*
X12643991Y-10725650D01*
X12643991Y-10725650D02*
X12634467Y-10706603D01*
X12634467Y-10706603D02*
X12634467Y-10697079D01*
X12634467Y-10697079D02*
X12643991Y-10678031D01*
X12643991Y-10678031D02*
X12653515Y-10668508D01*
X12653515Y-10668508D02*
X12672562Y-10658984D01*
X12672562Y-10658984D02*
X12710658Y-10658984D01*
X12710658Y-10658984D02*
X12729705Y-10668508D01*
X12729705Y-10668508D02*
X12739229Y-10678031D01*
X12739229Y-10678031D02*
X12748753Y-10697079D01*
X12748753Y-10697079D02*
X12748753Y-10706603D01*
X12748753Y-10706603D02*
X12739229Y-10725650D01*
X12739229Y-10725650D02*
X12729705Y-10735174D01*
X12729705Y-10735174D02*
X12710658Y-10744698D01*
X12710658Y-10744698D02*
X12672562Y-10744698D01*
X12672562Y-10744698D02*
X12653515Y-10754222D01*
X12653515Y-10754222D02*
X12643991Y-10763746D01*
X12643991Y-10763746D02*
X12634467Y-10782793D01*
X12634467Y-10782793D02*
X12634467Y-10820889D01*
X12634467Y-10820889D02*
X12643991Y-10839936D01*
X12643991Y-10839936D02*
X12653515Y-10849460D01*
X12653515Y-10849460D02*
X12672562Y-10858984D01*
X12672562Y-10858984D02*
X12710658Y-10858984D01*
X12710658Y-10858984D02*
X12729705Y-10849460D01*
X12729705Y-10849460D02*
X12739229Y-10839936D01*
X12739229Y-10839936D02*
X12748753Y-10820889D01*
X12748753Y-10820889D02*
X12748753Y-10782793D01*
X12748753Y-10782793D02*
X12739229Y-10763746D01*
X12739229Y-10763746D02*
X12729705Y-10754222D01*
X12729705Y-10754222D02*
X12710658Y-10744698D01*
X12872562Y-10658984D02*
X12891610Y-10658984D01*
X12891610Y-10658984D02*
X12910658Y-10668508D01*
X12910658Y-10668508D02*
X12920182Y-10678031D01*
X12920182Y-10678031D02*
X12929705Y-10697079D01*
X12929705Y-10697079D02*
X12939229Y-10735174D01*
X12939229Y-10735174D02*
X12939229Y-10782793D01*
X12939229Y-10782793D02*
X12929705Y-10820889D01*
X12929705Y-10820889D02*
X12920182Y-10839936D01*
X12920182Y-10839936D02*
X12910658Y-10849460D01*
X12910658Y-10849460D02*
X12891610Y-10858984D01*
X12891610Y-10858984D02*
X12872562Y-10858984D01*
X12872562Y-10858984D02*
X12853515Y-10849460D01*
X12853515Y-10849460D02*
X12843991Y-10839936D01*
X12843991Y-10839936D02*
X12834467Y-10820889D01*
X12834467Y-10820889D02*
X12824943Y-10782793D01*
X12824943Y-10782793D02*
X12824943Y-10735174D01*
X12824943Y-10735174D02*
X12834467Y-10697079D01*
X12834467Y-10697079D02*
X12843991Y-10678031D01*
X12843991Y-10678031D02*
X12853515Y-10668508D01*
X12853515Y-10668508D02*
X12872562Y-10658984D01*
X13063039Y-10658984D02*
X13082086Y-10658984D01*
X13082086Y-10658984D02*
X13101134Y-10668508D01*
X13101134Y-10668508D02*
X13110658Y-10678031D01*
X13110658Y-10678031D02*
X13120182Y-10697079D01*
X13120182Y-10697079D02*
X13129705Y-10735174D01*
X13129705Y-10735174D02*
X13129705Y-10782793D01*
X13129705Y-10782793D02*
X13120182Y-10820889D01*
X13120182Y-10820889D02*
X13110658Y-10839936D01*
X13110658Y-10839936D02*
X13101134Y-10849460D01*
X13101134Y-10849460D02*
X13082086Y-10858984D01*
X13082086Y-10858984D02*
X13063039Y-10858984D01*
X13063039Y-10858984D02*
X13043991Y-10849460D01*
X13043991Y-10849460D02*
X13034467Y-10839936D01*
X13034467Y-10839936D02*
X13024943Y-10820889D01*
X13024943Y-10820889D02*
X13015420Y-10782793D01*
X13015420Y-10782793D02*
X13015420Y-10735174D01*
X13015420Y-10735174D02*
X13024943Y-10697079D01*
X13024943Y-10697079D02*
X13034467Y-10678031D01*
X13034467Y-10678031D02*
X13043991Y-10668508D01*
X13043991Y-10668508D02*
X13063039Y-10658984D01*
X13215420Y-10858984D02*
X13215420Y-10725650D01*
X13215420Y-10744698D02*
X13224943Y-10735174D01*
X13224943Y-10735174D02*
X13243991Y-10725650D01*
X13243991Y-10725650D02*
X13272563Y-10725650D01*
X13272563Y-10725650D02*
X13291610Y-10735174D01*
X13291610Y-10735174D02*
X13301134Y-10754222D01*
X13301134Y-10754222D02*
X13301134Y-10858984D01*
X13301134Y-10754222D02*
X13310658Y-10735174D01*
X13310658Y-10735174D02*
X13329705Y-10725650D01*
X13329705Y-10725650D02*
X13358277Y-10725650D01*
X13358277Y-10725650D02*
X13377324Y-10735174D01*
X13377324Y-10735174D02*
X13386848Y-10754222D01*
X13386848Y-10754222D02*
X13386848Y-10858984D01*
X13482086Y-10858984D02*
X13482086Y-10725650D01*
X13482086Y-10744698D02*
X13491610Y-10735174D01*
X13491610Y-10735174D02*
X13510658Y-10725650D01*
X13510658Y-10725650D02*
X13539229Y-10725650D01*
X13539229Y-10725650D02*
X13558277Y-10735174D01*
X13558277Y-10735174D02*
X13567801Y-10754222D01*
X13567801Y-10754222D02*
X13567801Y-10858984D01*
X13567801Y-10754222D02*
X13577324Y-10735174D01*
X13577324Y-10735174D02*
X13596372Y-10725650D01*
X13596372Y-10725650D02*
X13624943Y-10725650D01*
X13624943Y-10725650D02*
X13643991Y-10735174D01*
X13643991Y-10735174D02*
X13653515Y-10754222D01*
X13653515Y-10754222D02*
X13653515Y-10858984D01*
X14043991Y-10649460D02*
X13872563Y-10906603D01*
X14301134Y-10658984D02*
X14320182Y-10658984D01*
X14320182Y-10658984D02*
X14339229Y-10668508D01*
X14339229Y-10668508D02*
X14348753Y-10678031D01*
X14348753Y-10678031D02*
X14358277Y-10697079D01*
X14358277Y-10697079D02*
X14367801Y-10735174D01*
X14367801Y-10735174D02*
X14367801Y-10782793D01*
X14367801Y-10782793D02*
X14358277Y-10820889D01*
X14358277Y-10820889D02*
X14348753Y-10839936D01*
X14348753Y-10839936D02*
X14339229Y-10849460D01*
X14339229Y-10849460D02*
X14320182Y-10858984D01*
X14320182Y-10858984D02*
X14301134Y-10858984D01*
X14301134Y-10858984D02*
X14282086Y-10849460D01*
X14282086Y-10849460D02*
X14272563Y-10839936D01*
X14272563Y-10839936D02*
X14263039Y-10820889D01*
X14263039Y-10820889D02*
X14253515Y-10782793D01*
X14253515Y-10782793D02*
X14253515Y-10735174D01*
X14253515Y-10735174D02*
X14263039Y-10697079D01*
X14263039Y-10697079D02*
X14272563Y-10678031D01*
X14272563Y-10678031D02*
X14282086Y-10668508D01*
X14282086Y-10668508D02*
X14301134Y-10658984D01*
X14453515Y-10839936D02*
X14463039Y-10849460D01*
X14463039Y-10849460D02*
X14453515Y-10858984D01*
X14453515Y-10858984D02*
X14443991Y-10849460D01*
X14443991Y-10849460D02*
X14453515Y-10839936D01*
X14453515Y-10839936D02*
X14453515Y-10858984D01*
X14586848Y-10658984D02*
X14605896Y-10658984D01*
X14605896Y-10658984D02*
X14624944Y-10668508D01*
X14624944Y-10668508D02*
X14634467Y-10678031D01*
X14634467Y-10678031D02*
X14643991Y-10697079D01*
X14643991Y-10697079D02*
X14653515Y-10735174D01*
X14653515Y-10735174D02*
X14653515Y-10782793D01*
X14653515Y-10782793D02*
X14643991Y-10820889D01*
X14643991Y-10820889D02*
X14634467Y-10839936D01*
X14634467Y-10839936D02*
X14624944Y-10849460D01*
X14624944Y-10849460D02*
X14605896Y-10858984D01*
X14605896Y-10858984D02*
X14586848Y-10858984D01*
X14586848Y-10858984D02*
X14567801Y-10849460D01*
X14567801Y-10849460D02*
X14558277Y-10839936D01*
X14558277Y-10839936D02*
X14548753Y-10820889D01*
X14548753Y-10820889D02*
X14539229Y-10782793D01*
X14539229Y-10782793D02*
X14539229Y-10735174D01*
X14539229Y-10735174D02*
X14548753Y-10697079D01*
X14548753Y-10697079D02*
X14558277Y-10678031D01*
X14558277Y-10678031D02*
X14567801Y-10668508D01*
X14567801Y-10668508D02*
X14586848Y-10658984D01*
X14720182Y-10658984D02*
X14843991Y-10658984D01*
X14843991Y-10658984D02*
X14777325Y-10735174D01*
X14777325Y-10735174D02*
X14805896Y-10735174D01*
X14805896Y-10735174D02*
X14824944Y-10744698D01*
X14824944Y-10744698D02*
X14834467Y-10754222D01*
X14834467Y-10754222D02*
X14843991Y-10773270D01*
X14843991Y-10773270D02*
X14843991Y-10820889D01*
X14843991Y-10820889D02*
X14834467Y-10839936D01*
X14834467Y-10839936D02*
X14824944Y-10849460D01*
X14824944Y-10849460D02*
X14805896Y-10858984D01*
X14805896Y-10858984D02*
X14748753Y-10858984D01*
X14748753Y-10858984D02*
X14729706Y-10849460D01*
X14729706Y-10849460D02*
X14720182Y-10839936D01*
X15034467Y-10858984D02*
X14920182Y-10858984D01*
X14977325Y-10858984D02*
X14977325Y-10658984D01*
X14977325Y-10658984D02*
X14958277Y-10687555D01*
X14958277Y-10687555D02*
X14939229Y-10706603D01*
X14939229Y-10706603D02*
X14920182Y-10716127D01*
X15215420Y-10658984D02*
X15120182Y-10658984D01*
X15120182Y-10658984D02*
X15110658Y-10754222D01*
X15110658Y-10754222D02*
X15120182Y-10744698D01*
X15120182Y-10744698D02*
X15139229Y-10735174D01*
X15139229Y-10735174D02*
X15186848Y-10735174D01*
X15186848Y-10735174D02*
X15205896Y-10744698D01*
X15205896Y-10744698D02*
X15215420Y-10754222D01*
X15215420Y-10754222D02*
X15224944Y-10773270D01*
X15224944Y-10773270D02*
X15224944Y-10820889D01*
X15224944Y-10820889D02*
X15215420Y-10839936D01*
X15215420Y-10839936D02*
X15205896Y-10849460D01*
X15205896Y-10849460D02*
X15186848Y-10858984D01*
X15186848Y-10858984D02*
X15139229Y-10858984D01*
X15139229Y-10858984D02*
X15120182Y-10849460D01*
X15120182Y-10849460D02*
X15110658Y-10839936D01*
X15301134Y-10658984D02*
X15301134Y-10697079D01*
X15377325Y-10658984D02*
X15377325Y-10697079D01*
X15672563Y-10935174D02*
X15663039Y-10925650D01*
X15663039Y-10925650D02*
X15643991Y-10897079D01*
X15643991Y-10897079D02*
X15634468Y-10878031D01*
X15634468Y-10878031D02*
X15624944Y-10849460D01*
X15624944Y-10849460D02*
X15615420Y-10801841D01*
X15615420Y-10801841D02*
X15615420Y-10763746D01*
X15615420Y-10763746D02*
X15624944Y-10716127D01*
X15624944Y-10716127D02*
X15634468Y-10687555D01*
X15634468Y-10687555D02*
X15643991Y-10668508D01*
X15643991Y-10668508D02*
X15663039Y-10639936D01*
X15663039Y-10639936D02*
X15672563Y-10630412D01*
X15843991Y-10658984D02*
X15748753Y-10658984D01*
X15748753Y-10658984D02*
X15739229Y-10754222D01*
X15739229Y-10754222D02*
X15748753Y-10744698D01*
X15748753Y-10744698D02*
X15767801Y-10735174D01*
X15767801Y-10735174D02*
X15815420Y-10735174D01*
X15815420Y-10735174D02*
X15834468Y-10744698D01*
X15834468Y-10744698D02*
X15843991Y-10754222D01*
X15843991Y-10754222D02*
X15853515Y-10773270D01*
X15853515Y-10773270D02*
X15853515Y-10820889D01*
X15853515Y-10820889D02*
X15843991Y-10839936D01*
X15843991Y-10839936D02*
X15834468Y-10849460D01*
X15834468Y-10849460D02*
X15815420Y-10858984D01*
X15815420Y-10858984D02*
X15767801Y-10858984D01*
X15767801Y-10858984D02*
X15748753Y-10849460D01*
X15748753Y-10849460D02*
X15739229Y-10839936D01*
X15977325Y-10658984D02*
X15996372Y-10658984D01*
X15996372Y-10658984D02*
X16015420Y-10668508D01*
X16015420Y-10668508D02*
X16024944Y-10678031D01*
X16024944Y-10678031D02*
X16034468Y-10697079D01*
X16034468Y-10697079D02*
X16043991Y-10735174D01*
X16043991Y-10735174D02*
X16043991Y-10782793D01*
X16043991Y-10782793D02*
X16034468Y-10820889D01*
X16034468Y-10820889D02*
X16024944Y-10839936D01*
X16024944Y-10839936D02*
X16015420Y-10849460D01*
X16015420Y-10849460D02*
X15996372Y-10858984D01*
X15996372Y-10858984D02*
X15977325Y-10858984D01*
X15977325Y-10858984D02*
X15958277Y-10849460D01*
X15958277Y-10849460D02*
X15948753Y-10839936D01*
X15948753Y-10839936D02*
X15939229Y-10820889D01*
X15939229Y-10820889D02*
X15929706Y-10782793D01*
X15929706Y-10782793D02*
X15929706Y-10735174D01*
X15929706Y-10735174D02*
X15939229Y-10697079D01*
X15939229Y-10697079D02*
X15948753Y-10678031D01*
X15948753Y-10678031D02*
X15958277Y-10668508D01*
X15958277Y-10668508D02*
X15977325Y-10658984D01*
X16282087Y-10858984D02*
X16282087Y-10658984D01*
X16367801Y-10858984D02*
X16367801Y-10754222D01*
X16367801Y-10754222D02*
X16358277Y-10735174D01*
X16358277Y-10735174D02*
X16339230Y-10725650D01*
X16339230Y-10725650D02*
X16310658Y-10725650D01*
X16310658Y-10725650D02*
X16291610Y-10735174D01*
X16291610Y-10735174D02*
X16282087Y-10744698D01*
X16491610Y-10858984D02*
X16472563Y-10849460D01*
X16472563Y-10849460D02*
X16463039Y-10839936D01*
X16463039Y-10839936D02*
X16453515Y-10820889D01*
X16453515Y-10820889D02*
X16453515Y-10763746D01*
X16453515Y-10763746D02*
X16463039Y-10744698D01*
X16463039Y-10744698D02*
X16472563Y-10735174D01*
X16472563Y-10735174D02*
X16491610Y-10725650D01*
X16491610Y-10725650D02*
X16520182Y-10725650D01*
X16520182Y-10725650D02*
X16539230Y-10735174D01*
X16539230Y-10735174D02*
X16548753Y-10744698D01*
X16548753Y-10744698D02*
X16558277Y-10763746D01*
X16558277Y-10763746D02*
X16558277Y-10820889D01*
X16558277Y-10820889D02*
X16548753Y-10839936D01*
X16548753Y-10839936D02*
X16539230Y-10849460D01*
X16539230Y-10849460D02*
X16520182Y-10858984D01*
X16520182Y-10858984D02*
X16491610Y-10858984D01*
X16672563Y-10858984D02*
X16653515Y-10849460D01*
X16653515Y-10849460D02*
X16643991Y-10830412D01*
X16643991Y-10830412D02*
X16643991Y-10658984D01*
X16824944Y-10849460D02*
X16805896Y-10858984D01*
X16805896Y-10858984D02*
X16767801Y-10858984D01*
X16767801Y-10858984D02*
X16748753Y-10849460D01*
X16748753Y-10849460D02*
X16739230Y-10830412D01*
X16739230Y-10830412D02*
X16739230Y-10754222D01*
X16739230Y-10754222D02*
X16748753Y-10735174D01*
X16748753Y-10735174D02*
X16767801Y-10725650D01*
X16767801Y-10725650D02*
X16805896Y-10725650D01*
X16805896Y-10725650D02*
X16824944Y-10735174D01*
X16824944Y-10735174D02*
X16834468Y-10754222D01*
X16834468Y-10754222D02*
X16834468Y-10773270D01*
X16834468Y-10773270D02*
X16739230Y-10792317D01*
X16910658Y-10849460D02*
X16929706Y-10858984D01*
X16929706Y-10858984D02*
X16967801Y-10858984D01*
X16967801Y-10858984D02*
X16986849Y-10849460D01*
X16986849Y-10849460D02*
X16996373Y-10830412D01*
X16996373Y-10830412D02*
X16996373Y-10820889D01*
X16996373Y-10820889D02*
X16986849Y-10801841D01*
X16986849Y-10801841D02*
X16967801Y-10792317D01*
X16967801Y-10792317D02*
X16939230Y-10792317D01*
X16939230Y-10792317D02*
X16920182Y-10782793D01*
X16920182Y-10782793D02*
X16910658Y-10763746D01*
X16910658Y-10763746D02*
X16910658Y-10754222D01*
X16910658Y-10754222D02*
X16920182Y-10735174D01*
X16920182Y-10735174D02*
X16939230Y-10725650D01*
X16939230Y-10725650D02*
X16967801Y-10725650D01*
X16967801Y-10725650D02*
X16986849Y-10735174D01*
X17063039Y-10935174D02*
X17072563Y-10925650D01*
X17072563Y-10925650D02*
X17091611Y-10897079D01*
X17091611Y-10897079D02*
X17101134Y-10878031D01*
X17101134Y-10878031D02*
X17110658Y-10849460D01*
X17110658Y-10849460D02*
X17120182Y-10801841D01*
X17120182Y-10801841D02*
X17120182Y-10763746D01*
X17120182Y-10763746D02*
X17110658Y-10716127D01*
X17110658Y-10716127D02*
X17101134Y-10687555D01*
X17101134Y-10687555D02*
X17091611Y-10668508D01*
X17091611Y-10668508D02*
X17072563Y-10639936D01*
X17072563Y-10639936D02*
X17063039Y-10630412D01*
D13*
X12097500Y-11031500D02*
G75*
G02*
X11987500Y-11031500I-55000J0D01*
G01*
X11987500Y-11031500D02*
G75*
G02*
X12097500Y-11031500I55000J0D01*
G01*
D11*
X12463039Y-11122984D02*
X12348753Y-11122984D01*
X12405896Y-11122984D02*
X12405896Y-10922984D01*
X12405896Y-10922984D02*
X12386848Y-10951555D01*
X12386848Y-10951555D02*
X12367801Y-10970603D01*
X12367801Y-10970603D02*
X12348753Y-10980127D01*
X12548753Y-11103936D02*
X12558277Y-11113460D01*
X12558277Y-11113460D02*
X12548753Y-11122984D01*
X12548753Y-11122984D02*
X12539229Y-11113460D01*
X12539229Y-11113460D02*
X12548753Y-11103936D01*
X12548753Y-11103936D02*
X12548753Y-11122984D01*
X12748753Y-11122984D02*
X12634467Y-11122984D01*
X12691610Y-11122984D02*
X12691610Y-10922984D01*
X12691610Y-10922984D02*
X12672562Y-10951555D01*
X12672562Y-10951555D02*
X12653515Y-10970603D01*
X12653515Y-10970603D02*
X12634467Y-10980127D01*
X12872562Y-10922984D02*
X12891610Y-10922984D01*
X12891610Y-10922984D02*
X12910658Y-10932508D01*
X12910658Y-10932508D02*
X12920182Y-10942031D01*
X12920182Y-10942031D02*
X12929705Y-10961079D01*
X12929705Y-10961079D02*
X12939229Y-10999174D01*
X12939229Y-10999174D02*
X12939229Y-11046793D01*
X12939229Y-11046793D02*
X12929705Y-11084889D01*
X12929705Y-11084889D02*
X12920182Y-11103936D01*
X12920182Y-11103936D02*
X12910658Y-11113460D01*
X12910658Y-11113460D02*
X12891610Y-11122984D01*
X12891610Y-11122984D02*
X12872562Y-11122984D01*
X12872562Y-11122984D02*
X12853515Y-11113460D01*
X12853515Y-11113460D02*
X12843991Y-11103936D01*
X12843991Y-11103936D02*
X12834467Y-11084889D01*
X12834467Y-11084889D02*
X12824943Y-11046793D01*
X12824943Y-11046793D02*
X12824943Y-10999174D01*
X12824943Y-10999174D02*
X12834467Y-10961079D01*
X12834467Y-10961079D02*
X12843991Y-10942031D01*
X12843991Y-10942031D02*
X12853515Y-10932508D01*
X12853515Y-10932508D02*
X12872562Y-10922984D01*
X13063039Y-10922984D02*
X13082086Y-10922984D01*
X13082086Y-10922984D02*
X13101134Y-10932508D01*
X13101134Y-10932508D02*
X13110658Y-10942031D01*
X13110658Y-10942031D02*
X13120182Y-10961079D01*
X13120182Y-10961079D02*
X13129705Y-10999174D01*
X13129705Y-10999174D02*
X13129705Y-11046793D01*
X13129705Y-11046793D02*
X13120182Y-11084889D01*
X13120182Y-11084889D02*
X13110658Y-11103936D01*
X13110658Y-11103936D02*
X13101134Y-11113460D01*
X13101134Y-11113460D02*
X13082086Y-11122984D01*
X13082086Y-11122984D02*
X13063039Y-11122984D01*
X13063039Y-11122984D02*
X13043991Y-11113460D01*
X13043991Y-11113460D02*
X13034467Y-11103936D01*
X13034467Y-11103936D02*
X13024943Y-11084889D01*
X13024943Y-11084889D02*
X13015420Y-11046793D01*
X13015420Y-11046793D02*
X13015420Y-10999174D01*
X13015420Y-10999174D02*
X13024943Y-10961079D01*
X13024943Y-10961079D02*
X13034467Y-10942031D01*
X13034467Y-10942031D02*
X13043991Y-10932508D01*
X13043991Y-10932508D02*
X13063039Y-10922984D01*
X13215420Y-11122984D02*
X13215420Y-10989650D01*
X13215420Y-11008698D02*
X13224943Y-10999174D01*
X13224943Y-10999174D02*
X13243991Y-10989650D01*
X13243991Y-10989650D02*
X13272563Y-10989650D01*
X13272563Y-10989650D02*
X13291610Y-10999174D01*
X13291610Y-10999174D02*
X13301134Y-11018222D01*
X13301134Y-11018222D02*
X13301134Y-11122984D01*
X13301134Y-11018222D02*
X13310658Y-10999174D01*
X13310658Y-10999174D02*
X13329705Y-10989650D01*
X13329705Y-10989650D02*
X13358277Y-10989650D01*
X13358277Y-10989650D02*
X13377324Y-10999174D01*
X13377324Y-10999174D02*
X13386848Y-11018222D01*
X13386848Y-11018222D02*
X13386848Y-11122984D01*
X13482086Y-11122984D02*
X13482086Y-10989650D01*
X13482086Y-11008698D02*
X13491610Y-10999174D01*
X13491610Y-10999174D02*
X13510658Y-10989650D01*
X13510658Y-10989650D02*
X13539229Y-10989650D01*
X13539229Y-10989650D02*
X13558277Y-10999174D01*
X13558277Y-10999174D02*
X13567801Y-11018222D01*
X13567801Y-11018222D02*
X13567801Y-11122984D01*
X13567801Y-11018222D02*
X13577324Y-10999174D01*
X13577324Y-10999174D02*
X13596372Y-10989650D01*
X13596372Y-10989650D02*
X13624943Y-10989650D01*
X13624943Y-10989650D02*
X13643991Y-10999174D01*
X13643991Y-10999174D02*
X13653515Y-11018222D01*
X13653515Y-11018222D02*
X13653515Y-11122984D01*
X14043991Y-10913460D02*
X13872563Y-11170603D01*
X14301134Y-10922984D02*
X14320182Y-10922984D01*
X14320182Y-10922984D02*
X14339229Y-10932508D01*
X14339229Y-10932508D02*
X14348753Y-10942031D01*
X14348753Y-10942031D02*
X14358277Y-10961079D01*
X14358277Y-10961079D02*
X14367801Y-10999174D01*
X14367801Y-10999174D02*
X14367801Y-11046793D01*
X14367801Y-11046793D02*
X14358277Y-11084889D01*
X14358277Y-11084889D02*
X14348753Y-11103936D01*
X14348753Y-11103936D02*
X14339229Y-11113460D01*
X14339229Y-11113460D02*
X14320182Y-11122984D01*
X14320182Y-11122984D02*
X14301134Y-11122984D01*
X14301134Y-11122984D02*
X14282086Y-11113460D01*
X14282086Y-11113460D02*
X14272563Y-11103936D01*
X14272563Y-11103936D02*
X14263039Y-11084889D01*
X14263039Y-11084889D02*
X14253515Y-11046793D01*
X14253515Y-11046793D02*
X14253515Y-10999174D01*
X14253515Y-10999174D02*
X14263039Y-10961079D01*
X14263039Y-10961079D02*
X14272563Y-10942031D01*
X14272563Y-10942031D02*
X14282086Y-10932508D01*
X14282086Y-10932508D02*
X14301134Y-10922984D01*
X14453515Y-11103936D02*
X14463039Y-11113460D01*
X14463039Y-11113460D02*
X14453515Y-11122984D01*
X14453515Y-11122984D02*
X14443991Y-11113460D01*
X14443991Y-11113460D02*
X14453515Y-11103936D01*
X14453515Y-11103936D02*
X14453515Y-11122984D01*
X14586848Y-10922984D02*
X14605896Y-10922984D01*
X14605896Y-10922984D02*
X14624944Y-10932508D01*
X14624944Y-10932508D02*
X14634467Y-10942031D01*
X14634467Y-10942031D02*
X14643991Y-10961079D01*
X14643991Y-10961079D02*
X14653515Y-10999174D01*
X14653515Y-10999174D02*
X14653515Y-11046793D01*
X14653515Y-11046793D02*
X14643991Y-11084889D01*
X14643991Y-11084889D02*
X14634467Y-11103936D01*
X14634467Y-11103936D02*
X14624944Y-11113460D01*
X14624944Y-11113460D02*
X14605896Y-11122984D01*
X14605896Y-11122984D02*
X14586848Y-11122984D01*
X14586848Y-11122984D02*
X14567801Y-11113460D01*
X14567801Y-11113460D02*
X14558277Y-11103936D01*
X14558277Y-11103936D02*
X14548753Y-11084889D01*
X14548753Y-11084889D02*
X14539229Y-11046793D01*
X14539229Y-11046793D02*
X14539229Y-10999174D01*
X14539229Y-10999174D02*
X14548753Y-10961079D01*
X14548753Y-10961079D02*
X14558277Y-10942031D01*
X14558277Y-10942031D02*
X14567801Y-10932508D01*
X14567801Y-10932508D02*
X14586848Y-10922984D01*
X14824944Y-10989650D02*
X14824944Y-11122984D01*
X14777325Y-10913460D02*
X14729706Y-11056317D01*
X14729706Y-11056317D02*
X14853515Y-11056317D01*
X14910658Y-10922984D02*
X15034467Y-10922984D01*
X15034467Y-10922984D02*
X14967801Y-10999174D01*
X14967801Y-10999174D02*
X14996372Y-10999174D01*
X14996372Y-10999174D02*
X15015420Y-11008698D01*
X15015420Y-11008698D02*
X15024944Y-11018222D01*
X15024944Y-11018222D02*
X15034467Y-11037270D01*
X15034467Y-11037270D02*
X15034467Y-11084889D01*
X15034467Y-11084889D02*
X15024944Y-11103936D01*
X15024944Y-11103936D02*
X15015420Y-11113460D01*
X15015420Y-11113460D02*
X14996372Y-11122984D01*
X14996372Y-11122984D02*
X14939229Y-11122984D01*
X14939229Y-11122984D02*
X14920182Y-11113460D01*
X14920182Y-11113460D02*
X14910658Y-11103936D01*
X15101134Y-10922984D02*
X15224944Y-10922984D01*
X15224944Y-10922984D02*
X15158277Y-10999174D01*
X15158277Y-10999174D02*
X15186848Y-10999174D01*
X15186848Y-10999174D02*
X15205896Y-11008698D01*
X15205896Y-11008698D02*
X15215420Y-11018222D01*
X15215420Y-11018222D02*
X15224944Y-11037270D01*
X15224944Y-11037270D02*
X15224944Y-11084889D01*
X15224944Y-11084889D02*
X15215420Y-11103936D01*
X15215420Y-11103936D02*
X15205896Y-11113460D01*
X15205896Y-11113460D02*
X15186848Y-11122984D01*
X15186848Y-11122984D02*
X15129706Y-11122984D01*
X15129706Y-11122984D02*
X15110658Y-11113460D01*
X15110658Y-11113460D02*
X15101134Y-11103936D01*
X15301134Y-10922984D02*
X15301134Y-10961079D01*
X15377325Y-10922984D02*
X15377325Y-10961079D01*
X15672563Y-11199174D02*
X15663039Y-11189650D01*
X15663039Y-11189650D02*
X15643991Y-11161079D01*
X15643991Y-11161079D02*
X15634468Y-11142031D01*
X15634468Y-11142031D02*
X15624944Y-11113460D01*
X15624944Y-11113460D02*
X15615420Y-11065841D01*
X15615420Y-11065841D02*
X15615420Y-11027746D01*
X15615420Y-11027746D02*
X15624944Y-10980127D01*
X15624944Y-10980127D02*
X15634468Y-10951555D01*
X15634468Y-10951555D02*
X15643991Y-10932508D01*
X15643991Y-10932508D02*
X15663039Y-10903936D01*
X15663039Y-10903936D02*
X15672563Y-10894412D01*
X15834468Y-10989650D02*
X15834468Y-11122984D01*
X15786848Y-10913460D02*
X15739229Y-11056317D01*
X15739229Y-11056317D02*
X15863039Y-11056317D01*
X16091610Y-11122984D02*
X16091610Y-10922984D01*
X16177325Y-11122984D02*
X16177325Y-11018222D01*
X16177325Y-11018222D02*
X16167801Y-10999174D01*
X16167801Y-10999174D02*
X16148753Y-10989650D01*
X16148753Y-10989650D02*
X16120182Y-10989650D01*
X16120182Y-10989650D02*
X16101134Y-10999174D01*
X16101134Y-10999174D02*
X16091610Y-11008698D01*
X16301134Y-11122984D02*
X16282087Y-11113460D01*
X16282087Y-11113460D02*
X16272563Y-11103936D01*
X16272563Y-11103936D02*
X16263039Y-11084889D01*
X16263039Y-11084889D02*
X16263039Y-11027746D01*
X16263039Y-11027746D02*
X16272563Y-11008698D01*
X16272563Y-11008698D02*
X16282087Y-10999174D01*
X16282087Y-10999174D02*
X16301134Y-10989650D01*
X16301134Y-10989650D02*
X16329706Y-10989650D01*
X16329706Y-10989650D02*
X16348753Y-10999174D01*
X16348753Y-10999174D02*
X16358277Y-11008698D01*
X16358277Y-11008698D02*
X16367801Y-11027746D01*
X16367801Y-11027746D02*
X16367801Y-11084889D01*
X16367801Y-11084889D02*
X16358277Y-11103936D01*
X16358277Y-11103936D02*
X16348753Y-11113460D01*
X16348753Y-11113460D02*
X16329706Y-11122984D01*
X16329706Y-11122984D02*
X16301134Y-11122984D01*
X16482087Y-11122984D02*
X16463039Y-11113460D01*
X16463039Y-11113460D02*
X16453515Y-11094412D01*
X16453515Y-11094412D02*
X16453515Y-10922984D01*
X16634468Y-11113460D02*
X16615420Y-11122984D01*
X16615420Y-11122984D02*
X16577325Y-11122984D01*
X16577325Y-11122984D02*
X16558277Y-11113460D01*
X16558277Y-11113460D02*
X16548753Y-11094412D01*
X16548753Y-11094412D02*
X16548753Y-11018222D01*
X16548753Y-11018222D02*
X16558277Y-10999174D01*
X16558277Y-10999174D02*
X16577325Y-10989650D01*
X16577325Y-10989650D02*
X16615420Y-10989650D01*
X16615420Y-10989650D02*
X16634468Y-10999174D01*
X16634468Y-10999174D02*
X16643991Y-11018222D01*
X16643991Y-11018222D02*
X16643991Y-11037270D01*
X16643991Y-11037270D02*
X16548753Y-11056317D01*
X16720182Y-11113460D02*
X16739230Y-11122984D01*
X16739230Y-11122984D02*
X16777325Y-11122984D01*
X16777325Y-11122984D02*
X16796373Y-11113460D01*
X16796373Y-11113460D02*
X16805896Y-11094412D01*
X16805896Y-11094412D02*
X16805896Y-11084889D01*
X16805896Y-11084889D02*
X16796373Y-11065841D01*
X16796373Y-11065841D02*
X16777325Y-11056317D01*
X16777325Y-11056317D02*
X16748753Y-11056317D01*
X16748753Y-11056317D02*
X16729706Y-11046793D01*
X16729706Y-11046793D02*
X16720182Y-11027746D01*
X16720182Y-11027746D02*
X16720182Y-11018222D01*
X16720182Y-11018222D02*
X16729706Y-10999174D01*
X16729706Y-10999174D02*
X16748753Y-10989650D01*
X16748753Y-10989650D02*
X16777325Y-10989650D01*
X16777325Y-10989650D02*
X16796373Y-10999174D01*
X16872563Y-11199174D02*
X16882087Y-11189650D01*
X16882087Y-11189650D02*
X16901134Y-11161079D01*
X16901134Y-11161079D02*
X16910658Y-11142031D01*
X16910658Y-11142031D02*
X16920182Y-11113460D01*
X16920182Y-11113460D02*
X16929706Y-11065841D01*
X16929706Y-11065841D02*
X16929706Y-11027746D01*
X16929706Y-11027746D02*
X16920182Y-10980127D01*
X16920182Y-10980127D02*
X16910658Y-10951555D01*
X16910658Y-10951555D02*
X16901134Y-10932508D01*
X16901134Y-10932508D02*
X16882087Y-10903936D01*
X16882087Y-10903936D02*
X16872563Y-10894412D01*
D14*
X12037500Y-11235500D02*
X12037500Y-11355500D01*
X11977500Y-11295500D02*
X12097500Y-11295500D01*
D11*
X12463039Y-11386984D02*
X12348753Y-11386984D01*
X12405896Y-11386984D02*
X12405896Y-11186984D01*
X12405896Y-11186984D02*
X12386848Y-11215555D01*
X12386848Y-11215555D02*
X12367801Y-11234603D01*
X12367801Y-11234603D02*
X12348753Y-11244127D01*
X12548753Y-11367936D02*
X12558277Y-11377460D01*
X12558277Y-11377460D02*
X12548753Y-11386984D01*
X12548753Y-11386984D02*
X12539229Y-11377460D01*
X12539229Y-11377460D02*
X12548753Y-11367936D01*
X12548753Y-11367936D02*
X12548753Y-11386984D01*
X12634467Y-11206031D02*
X12643991Y-11196508D01*
X12643991Y-11196508D02*
X12663039Y-11186984D01*
X12663039Y-11186984D02*
X12710658Y-11186984D01*
X12710658Y-11186984D02*
X12729705Y-11196508D01*
X12729705Y-11196508D02*
X12739229Y-11206031D01*
X12739229Y-11206031D02*
X12748753Y-11225079D01*
X12748753Y-11225079D02*
X12748753Y-11244127D01*
X12748753Y-11244127D02*
X12739229Y-11272698D01*
X12739229Y-11272698D02*
X12624943Y-11386984D01*
X12624943Y-11386984D02*
X12748753Y-11386984D01*
X12872562Y-11186984D02*
X12891610Y-11186984D01*
X12891610Y-11186984D02*
X12910658Y-11196508D01*
X12910658Y-11196508D02*
X12920182Y-11206031D01*
X12920182Y-11206031D02*
X12929705Y-11225079D01*
X12929705Y-11225079D02*
X12939229Y-11263174D01*
X12939229Y-11263174D02*
X12939229Y-11310793D01*
X12939229Y-11310793D02*
X12929705Y-11348888D01*
X12929705Y-11348888D02*
X12920182Y-11367936D01*
X12920182Y-11367936D02*
X12910658Y-11377460D01*
X12910658Y-11377460D02*
X12891610Y-11386984D01*
X12891610Y-11386984D02*
X12872562Y-11386984D01*
X12872562Y-11386984D02*
X12853515Y-11377460D01*
X12853515Y-11377460D02*
X12843991Y-11367936D01*
X12843991Y-11367936D02*
X12834467Y-11348888D01*
X12834467Y-11348888D02*
X12824943Y-11310793D01*
X12824943Y-11310793D02*
X12824943Y-11263174D01*
X12824943Y-11263174D02*
X12834467Y-11225079D01*
X12834467Y-11225079D02*
X12843991Y-11206031D01*
X12843991Y-11206031D02*
X12853515Y-11196508D01*
X12853515Y-11196508D02*
X12872562Y-11186984D01*
X13063039Y-11186984D02*
X13082086Y-11186984D01*
X13082086Y-11186984D02*
X13101134Y-11196508D01*
X13101134Y-11196508D02*
X13110658Y-11206031D01*
X13110658Y-11206031D02*
X13120182Y-11225079D01*
X13120182Y-11225079D02*
X13129705Y-11263174D01*
X13129705Y-11263174D02*
X13129705Y-11310793D01*
X13129705Y-11310793D02*
X13120182Y-11348888D01*
X13120182Y-11348888D02*
X13110658Y-11367936D01*
X13110658Y-11367936D02*
X13101134Y-11377460D01*
X13101134Y-11377460D02*
X13082086Y-11386984D01*
X13082086Y-11386984D02*
X13063039Y-11386984D01*
X13063039Y-11386984D02*
X13043991Y-11377460D01*
X13043991Y-11377460D02*
X13034467Y-11367936D01*
X13034467Y-11367936D02*
X13024943Y-11348888D01*
X13024943Y-11348888D02*
X13015420Y-11310793D01*
X13015420Y-11310793D02*
X13015420Y-11263174D01*
X13015420Y-11263174D02*
X13024943Y-11225079D01*
X13024943Y-11225079D02*
X13034467Y-11206031D01*
X13034467Y-11206031D02*
X13043991Y-11196508D01*
X13043991Y-11196508D02*
X13063039Y-11186984D01*
X13215420Y-11386984D02*
X13215420Y-11253650D01*
X13215420Y-11272698D02*
X13224943Y-11263174D01*
X13224943Y-11263174D02*
X13243991Y-11253650D01*
X13243991Y-11253650D02*
X13272563Y-11253650D01*
X13272563Y-11253650D02*
X13291610Y-11263174D01*
X13291610Y-11263174D02*
X13301134Y-11282222D01*
X13301134Y-11282222D02*
X13301134Y-11386984D01*
X13301134Y-11282222D02*
X13310658Y-11263174D01*
X13310658Y-11263174D02*
X13329705Y-11253650D01*
X13329705Y-11253650D02*
X13358277Y-11253650D01*
X13358277Y-11253650D02*
X13377324Y-11263174D01*
X13377324Y-11263174D02*
X13386848Y-11282222D01*
X13386848Y-11282222D02*
X13386848Y-11386984D01*
X13482086Y-11386984D02*
X13482086Y-11253650D01*
X13482086Y-11272698D02*
X13491610Y-11263174D01*
X13491610Y-11263174D02*
X13510658Y-11253650D01*
X13510658Y-11253650D02*
X13539229Y-11253650D01*
X13539229Y-11253650D02*
X13558277Y-11263174D01*
X13558277Y-11263174D02*
X13567801Y-11282222D01*
X13567801Y-11282222D02*
X13567801Y-11386984D01*
X13567801Y-11282222D02*
X13577324Y-11263174D01*
X13577324Y-11263174D02*
X13596372Y-11253650D01*
X13596372Y-11253650D02*
X13624943Y-11253650D01*
X13624943Y-11253650D02*
X13643991Y-11263174D01*
X13643991Y-11263174D02*
X13653515Y-11282222D01*
X13653515Y-11282222D02*
X13653515Y-11386984D01*
X14043991Y-11177460D02*
X13872563Y-11434603D01*
X14301134Y-11186984D02*
X14320182Y-11186984D01*
X14320182Y-11186984D02*
X14339229Y-11196508D01*
X14339229Y-11196508D02*
X14348753Y-11206031D01*
X14348753Y-11206031D02*
X14358277Y-11225079D01*
X14358277Y-11225079D02*
X14367801Y-11263174D01*
X14367801Y-11263174D02*
X14367801Y-11310793D01*
X14367801Y-11310793D02*
X14358277Y-11348888D01*
X14358277Y-11348888D02*
X14348753Y-11367936D01*
X14348753Y-11367936D02*
X14339229Y-11377460D01*
X14339229Y-11377460D02*
X14320182Y-11386984D01*
X14320182Y-11386984D02*
X14301134Y-11386984D01*
X14301134Y-11386984D02*
X14282086Y-11377460D01*
X14282086Y-11377460D02*
X14272563Y-11367936D01*
X14272563Y-11367936D02*
X14263039Y-11348888D01*
X14263039Y-11348888D02*
X14253515Y-11310793D01*
X14253515Y-11310793D02*
X14253515Y-11263174D01*
X14253515Y-11263174D02*
X14263039Y-11225079D01*
X14263039Y-11225079D02*
X14272563Y-11206031D01*
X14272563Y-11206031D02*
X14282086Y-11196508D01*
X14282086Y-11196508D02*
X14301134Y-11186984D01*
X14453515Y-11367936D02*
X14463039Y-11377460D01*
X14463039Y-11377460D02*
X14453515Y-11386984D01*
X14453515Y-11386984D02*
X14443991Y-11377460D01*
X14443991Y-11377460D02*
X14453515Y-11367936D01*
X14453515Y-11367936D02*
X14453515Y-11386984D01*
X14586848Y-11186984D02*
X14605896Y-11186984D01*
X14605896Y-11186984D02*
X14624944Y-11196508D01*
X14624944Y-11196508D02*
X14634467Y-11206031D01*
X14634467Y-11206031D02*
X14643991Y-11225079D01*
X14643991Y-11225079D02*
X14653515Y-11263174D01*
X14653515Y-11263174D02*
X14653515Y-11310793D01*
X14653515Y-11310793D02*
X14643991Y-11348888D01*
X14643991Y-11348888D02*
X14634467Y-11367936D01*
X14634467Y-11367936D02*
X14624944Y-11377460D01*
X14624944Y-11377460D02*
X14605896Y-11386984D01*
X14605896Y-11386984D02*
X14586848Y-11386984D01*
X14586848Y-11386984D02*
X14567801Y-11377460D01*
X14567801Y-11377460D02*
X14558277Y-11367936D01*
X14558277Y-11367936D02*
X14548753Y-11348888D01*
X14548753Y-11348888D02*
X14539229Y-11310793D01*
X14539229Y-11310793D02*
X14539229Y-11263174D01*
X14539229Y-11263174D02*
X14548753Y-11225079D01*
X14548753Y-11225079D02*
X14558277Y-11206031D01*
X14558277Y-11206031D02*
X14567801Y-11196508D01*
X14567801Y-11196508D02*
X14586848Y-11186984D01*
X14824944Y-11253650D02*
X14824944Y-11386984D01*
X14777325Y-11177460D02*
X14729706Y-11320317D01*
X14729706Y-11320317D02*
X14853515Y-11320317D01*
X14910658Y-11186984D02*
X15043991Y-11186984D01*
X15043991Y-11186984D02*
X14958277Y-11386984D01*
X15110658Y-11206031D02*
X15120182Y-11196508D01*
X15120182Y-11196508D02*
X15139229Y-11186984D01*
X15139229Y-11186984D02*
X15186848Y-11186984D01*
X15186848Y-11186984D02*
X15205896Y-11196508D01*
X15205896Y-11196508D02*
X15215420Y-11206031D01*
X15215420Y-11206031D02*
X15224944Y-11225079D01*
X15224944Y-11225079D02*
X15224944Y-11244127D01*
X15224944Y-11244127D02*
X15215420Y-11272698D01*
X15215420Y-11272698D02*
X15101134Y-11386984D01*
X15101134Y-11386984D02*
X15224944Y-11386984D01*
X15301134Y-11186984D02*
X15301134Y-11225079D01*
X15377325Y-11186984D02*
X15377325Y-11225079D01*
X15672563Y-11463174D02*
X15663039Y-11453650D01*
X15663039Y-11453650D02*
X15643991Y-11425079D01*
X15643991Y-11425079D02*
X15634468Y-11406031D01*
X15634468Y-11406031D02*
X15624944Y-11377460D01*
X15624944Y-11377460D02*
X15615420Y-11329841D01*
X15615420Y-11329841D02*
X15615420Y-11291746D01*
X15615420Y-11291746D02*
X15624944Y-11244127D01*
X15624944Y-11244127D02*
X15634468Y-11215555D01*
X15634468Y-11215555D02*
X15643991Y-11196508D01*
X15643991Y-11196508D02*
X15663039Y-11167936D01*
X15663039Y-11167936D02*
X15672563Y-11158412D01*
X15729706Y-11186984D02*
X15853515Y-11186984D01*
X15853515Y-11186984D02*
X15786848Y-11263174D01*
X15786848Y-11263174D02*
X15815420Y-11263174D01*
X15815420Y-11263174D02*
X15834468Y-11272698D01*
X15834468Y-11272698D02*
X15843991Y-11282222D01*
X15843991Y-11282222D02*
X15853515Y-11301269D01*
X15853515Y-11301269D02*
X15853515Y-11348888D01*
X15853515Y-11348888D02*
X15843991Y-11367936D01*
X15843991Y-11367936D02*
X15834468Y-11377460D01*
X15834468Y-11377460D02*
X15815420Y-11386984D01*
X15815420Y-11386984D02*
X15758277Y-11386984D01*
X15758277Y-11386984D02*
X15739229Y-11377460D01*
X15739229Y-11377460D02*
X15729706Y-11367936D01*
X16091610Y-11386984D02*
X16091610Y-11186984D01*
X16177325Y-11386984D02*
X16177325Y-11282222D01*
X16177325Y-11282222D02*
X16167801Y-11263174D01*
X16167801Y-11263174D02*
X16148753Y-11253650D01*
X16148753Y-11253650D02*
X16120182Y-11253650D01*
X16120182Y-11253650D02*
X16101134Y-11263174D01*
X16101134Y-11263174D02*
X16091610Y-11272698D01*
X16301134Y-11386984D02*
X16282087Y-11377460D01*
X16282087Y-11377460D02*
X16272563Y-11367936D01*
X16272563Y-11367936D02*
X16263039Y-11348888D01*
X16263039Y-11348888D02*
X16263039Y-11291746D01*
X16263039Y-11291746D02*
X16272563Y-11272698D01*
X16272563Y-11272698D02*
X16282087Y-11263174D01*
X16282087Y-11263174D02*
X16301134Y-11253650D01*
X16301134Y-11253650D02*
X16329706Y-11253650D01*
X16329706Y-11253650D02*
X16348753Y-11263174D01*
X16348753Y-11263174D02*
X16358277Y-11272698D01*
X16358277Y-11272698D02*
X16367801Y-11291746D01*
X16367801Y-11291746D02*
X16367801Y-11348888D01*
X16367801Y-11348888D02*
X16358277Y-11367936D01*
X16358277Y-11367936D02*
X16348753Y-11377460D01*
X16348753Y-11377460D02*
X16329706Y-11386984D01*
X16329706Y-11386984D02*
X16301134Y-11386984D01*
X16482087Y-11386984D02*
X16463039Y-11377460D01*
X16463039Y-11377460D02*
X16453515Y-11358412D01*
X16453515Y-11358412D02*
X16453515Y-11186984D01*
X16634468Y-11377460D02*
X16615420Y-11386984D01*
X16615420Y-11386984D02*
X16577325Y-11386984D01*
X16577325Y-11386984D02*
X16558277Y-11377460D01*
X16558277Y-11377460D02*
X16548753Y-11358412D01*
X16548753Y-11358412D02*
X16548753Y-11282222D01*
X16548753Y-11282222D02*
X16558277Y-11263174D01*
X16558277Y-11263174D02*
X16577325Y-11253650D01*
X16577325Y-11253650D02*
X16615420Y-11253650D01*
X16615420Y-11253650D02*
X16634468Y-11263174D01*
X16634468Y-11263174D02*
X16643991Y-11282222D01*
X16643991Y-11282222D02*
X16643991Y-11301269D01*
X16643991Y-11301269D02*
X16548753Y-11320317D01*
X16720182Y-11377460D02*
X16739230Y-11386984D01*
X16739230Y-11386984D02*
X16777325Y-11386984D01*
X16777325Y-11386984D02*
X16796373Y-11377460D01*
X16796373Y-11377460D02*
X16805896Y-11358412D01*
X16805896Y-11358412D02*
X16805896Y-11348888D01*
X16805896Y-11348888D02*
X16796373Y-11329841D01*
X16796373Y-11329841D02*
X16777325Y-11320317D01*
X16777325Y-11320317D02*
X16748753Y-11320317D01*
X16748753Y-11320317D02*
X16729706Y-11310793D01*
X16729706Y-11310793D02*
X16720182Y-11291746D01*
X16720182Y-11291746D02*
X16720182Y-11282222D01*
X16720182Y-11282222D02*
X16729706Y-11263174D01*
X16729706Y-11263174D02*
X16748753Y-11253650D01*
X16748753Y-11253650D02*
X16777325Y-11253650D01*
X16777325Y-11253650D02*
X16796373Y-11263174D01*
X16872563Y-11463174D02*
X16882087Y-11453650D01*
X16882087Y-11453650D02*
X16901134Y-11425079D01*
X16901134Y-11425079D02*
X16910658Y-11406031D01*
X16910658Y-11406031D02*
X16920182Y-11377460D01*
X16920182Y-11377460D02*
X16929706Y-11329841D01*
X16929706Y-11329841D02*
X16929706Y-11291746D01*
X16929706Y-11291746D02*
X16920182Y-11244127D01*
X16920182Y-11244127D02*
X16910658Y-11215555D01*
X16910658Y-11215555D02*
X16901134Y-11196508D01*
X16901134Y-11196508D02*
X16882087Y-11167936D01*
X16882087Y-11167936D02*
X16872563Y-11158412D01*
D15*
X12075533Y-11612533D02*
X12075533Y-11506466D01*
X11969466Y-11506466D01*
X11969466Y-11612533D01*
X12075533Y-11612533D01*
D11*
X12463039Y-11650984D02*
X12348753Y-11650984D01*
X12405896Y-11650984D02*
X12405896Y-11450984D01*
X12405896Y-11450984D02*
X12386848Y-11479555D01*
X12386848Y-11479555D02*
X12367801Y-11498603D01*
X12367801Y-11498603D02*
X12348753Y-11508127D01*
X12548753Y-11631936D02*
X12558277Y-11641460D01*
X12558277Y-11641460D02*
X12548753Y-11650984D01*
X12548753Y-11650984D02*
X12539229Y-11641460D01*
X12539229Y-11641460D02*
X12548753Y-11631936D01*
X12548753Y-11631936D02*
X12548753Y-11650984D01*
X12739229Y-11450984D02*
X12643991Y-11450984D01*
X12643991Y-11450984D02*
X12634467Y-11546222D01*
X12634467Y-11546222D02*
X12643991Y-11536698D01*
X12643991Y-11536698D02*
X12663039Y-11527174D01*
X12663039Y-11527174D02*
X12710658Y-11527174D01*
X12710658Y-11527174D02*
X12729705Y-11536698D01*
X12729705Y-11536698D02*
X12739229Y-11546222D01*
X12739229Y-11546222D02*
X12748753Y-11565269D01*
X12748753Y-11565269D02*
X12748753Y-11612888D01*
X12748753Y-11612888D02*
X12739229Y-11631936D01*
X12739229Y-11631936D02*
X12729705Y-11641460D01*
X12729705Y-11641460D02*
X12710658Y-11650984D01*
X12710658Y-11650984D02*
X12663039Y-11650984D01*
X12663039Y-11650984D02*
X12643991Y-11641460D01*
X12643991Y-11641460D02*
X12634467Y-11631936D01*
X12872562Y-11450984D02*
X12891610Y-11450984D01*
X12891610Y-11450984D02*
X12910658Y-11460508D01*
X12910658Y-11460508D02*
X12920182Y-11470031D01*
X12920182Y-11470031D02*
X12929705Y-11489079D01*
X12929705Y-11489079D02*
X12939229Y-11527174D01*
X12939229Y-11527174D02*
X12939229Y-11574793D01*
X12939229Y-11574793D02*
X12929705Y-11612888D01*
X12929705Y-11612888D02*
X12920182Y-11631936D01*
X12920182Y-11631936D02*
X12910658Y-11641460D01*
X12910658Y-11641460D02*
X12891610Y-11650984D01*
X12891610Y-11650984D02*
X12872562Y-11650984D01*
X12872562Y-11650984D02*
X12853515Y-11641460D01*
X12853515Y-11641460D02*
X12843991Y-11631936D01*
X12843991Y-11631936D02*
X12834467Y-11612888D01*
X12834467Y-11612888D02*
X12824943Y-11574793D01*
X12824943Y-11574793D02*
X12824943Y-11527174D01*
X12824943Y-11527174D02*
X12834467Y-11489079D01*
X12834467Y-11489079D02*
X12843991Y-11470031D01*
X12843991Y-11470031D02*
X12853515Y-11460508D01*
X12853515Y-11460508D02*
X12872562Y-11450984D01*
X13063039Y-11450984D02*
X13082086Y-11450984D01*
X13082086Y-11450984D02*
X13101134Y-11460508D01*
X13101134Y-11460508D02*
X13110658Y-11470031D01*
X13110658Y-11470031D02*
X13120182Y-11489079D01*
X13120182Y-11489079D02*
X13129705Y-11527174D01*
X13129705Y-11527174D02*
X13129705Y-11574793D01*
X13129705Y-11574793D02*
X13120182Y-11612888D01*
X13120182Y-11612888D02*
X13110658Y-11631936D01*
X13110658Y-11631936D02*
X13101134Y-11641460D01*
X13101134Y-11641460D02*
X13082086Y-11650984D01*
X13082086Y-11650984D02*
X13063039Y-11650984D01*
X13063039Y-11650984D02*
X13043991Y-11641460D01*
X13043991Y-11641460D02*
X13034467Y-11631936D01*
X13034467Y-11631936D02*
X13024943Y-11612888D01*
X13024943Y-11612888D02*
X13015420Y-11574793D01*
X13015420Y-11574793D02*
X13015420Y-11527174D01*
X13015420Y-11527174D02*
X13024943Y-11489079D01*
X13024943Y-11489079D02*
X13034467Y-11470031D01*
X13034467Y-11470031D02*
X13043991Y-11460508D01*
X13043991Y-11460508D02*
X13063039Y-11450984D01*
X13215420Y-11650984D02*
X13215420Y-11517650D01*
X13215420Y-11536698D02*
X13224943Y-11527174D01*
X13224943Y-11527174D02*
X13243991Y-11517650D01*
X13243991Y-11517650D02*
X13272563Y-11517650D01*
X13272563Y-11517650D02*
X13291610Y-11527174D01*
X13291610Y-11527174D02*
X13301134Y-11546222D01*
X13301134Y-11546222D02*
X13301134Y-11650984D01*
X13301134Y-11546222D02*
X13310658Y-11527174D01*
X13310658Y-11527174D02*
X13329705Y-11517650D01*
X13329705Y-11517650D02*
X13358277Y-11517650D01*
X13358277Y-11517650D02*
X13377324Y-11527174D01*
X13377324Y-11527174D02*
X13386848Y-11546222D01*
X13386848Y-11546222D02*
X13386848Y-11650984D01*
X13482086Y-11650984D02*
X13482086Y-11517650D01*
X13482086Y-11536698D02*
X13491610Y-11527174D01*
X13491610Y-11527174D02*
X13510658Y-11517650D01*
X13510658Y-11517650D02*
X13539229Y-11517650D01*
X13539229Y-11517650D02*
X13558277Y-11527174D01*
X13558277Y-11527174D02*
X13567801Y-11546222D01*
X13567801Y-11546222D02*
X13567801Y-11650984D01*
X13567801Y-11546222D02*
X13577324Y-11527174D01*
X13577324Y-11527174D02*
X13596372Y-11517650D01*
X13596372Y-11517650D02*
X13624943Y-11517650D01*
X13624943Y-11517650D02*
X13643991Y-11527174D01*
X13643991Y-11527174D02*
X13653515Y-11546222D01*
X13653515Y-11546222D02*
X13653515Y-11650984D01*
X14043991Y-11441460D02*
X13872563Y-11698603D01*
X14301134Y-11450984D02*
X14320182Y-11450984D01*
X14320182Y-11450984D02*
X14339229Y-11460508D01*
X14339229Y-11460508D02*
X14348753Y-11470031D01*
X14348753Y-11470031D02*
X14358277Y-11489079D01*
X14358277Y-11489079D02*
X14367801Y-11527174D01*
X14367801Y-11527174D02*
X14367801Y-11574793D01*
X14367801Y-11574793D02*
X14358277Y-11612888D01*
X14358277Y-11612888D02*
X14348753Y-11631936D01*
X14348753Y-11631936D02*
X14339229Y-11641460D01*
X14339229Y-11641460D02*
X14320182Y-11650984D01*
X14320182Y-11650984D02*
X14301134Y-11650984D01*
X14301134Y-11650984D02*
X14282086Y-11641460D01*
X14282086Y-11641460D02*
X14272563Y-11631936D01*
X14272563Y-11631936D02*
X14263039Y-11612888D01*
X14263039Y-11612888D02*
X14253515Y-11574793D01*
X14253515Y-11574793D02*
X14253515Y-11527174D01*
X14253515Y-11527174D02*
X14263039Y-11489079D01*
X14263039Y-11489079D02*
X14272563Y-11470031D01*
X14272563Y-11470031D02*
X14282086Y-11460508D01*
X14282086Y-11460508D02*
X14301134Y-11450984D01*
X14453515Y-11631936D02*
X14463039Y-11641460D01*
X14463039Y-11641460D02*
X14453515Y-11650984D01*
X14453515Y-11650984D02*
X14443991Y-11641460D01*
X14443991Y-11641460D02*
X14453515Y-11631936D01*
X14453515Y-11631936D02*
X14453515Y-11650984D01*
X14586848Y-11450984D02*
X14605896Y-11450984D01*
X14605896Y-11450984D02*
X14624944Y-11460508D01*
X14624944Y-11460508D02*
X14634467Y-11470031D01*
X14634467Y-11470031D02*
X14643991Y-11489079D01*
X14643991Y-11489079D02*
X14653515Y-11527174D01*
X14653515Y-11527174D02*
X14653515Y-11574793D01*
X14653515Y-11574793D02*
X14643991Y-11612888D01*
X14643991Y-11612888D02*
X14634467Y-11631936D01*
X14634467Y-11631936D02*
X14624944Y-11641460D01*
X14624944Y-11641460D02*
X14605896Y-11650984D01*
X14605896Y-11650984D02*
X14586848Y-11650984D01*
X14586848Y-11650984D02*
X14567801Y-11641460D01*
X14567801Y-11641460D02*
X14558277Y-11631936D01*
X14558277Y-11631936D02*
X14548753Y-11612888D01*
X14548753Y-11612888D02*
X14539229Y-11574793D01*
X14539229Y-11574793D02*
X14539229Y-11527174D01*
X14539229Y-11527174D02*
X14548753Y-11489079D01*
X14548753Y-11489079D02*
X14558277Y-11470031D01*
X14558277Y-11470031D02*
X14567801Y-11460508D01*
X14567801Y-11460508D02*
X14586848Y-11450984D01*
X14834467Y-11450984D02*
X14739229Y-11450984D01*
X14739229Y-11450984D02*
X14729706Y-11546222D01*
X14729706Y-11546222D02*
X14739229Y-11536698D01*
X14739229Y-11536698D02*
X14758277Y-11527174D01*
X14758277Y-11527174D02*
X14805896Y-11527174D01*
X14805896Y-11527174D02*
X14824944Y-11536698D01*
X14824944Y-11536698D02*
X14834467Y-11546222D01*
X14834467Y-11546222D02*
X14843991Y-11565269D01*
X14843991Y-11565269D02*
X14843991Y-11612888D01*
X14843991Y-11612888D02*
X14834467Y-11631936D01*
X14834467Y-11631936D02*
X14824944Y-11641460D01*
X14824944Y-11641460D02*
X14805896Y-11650984D01*
X14805896Y-11650984D02*
X14758277Y-11650984D01*
X14758277Y-11650984D02*
X14739229Y-11641460D01*
X14739229Y-11641460D02*
X14729706Y-11631936D01*
X14939229Y-11650984D02*
X14977325Y-11650984D01*
X14977325Y-11650984D02*
X14996372Y-11641460D01*
X14996372Y-11641460D02*
X15005896Y-11631936D01*
X15005896Y-11631936D02*
X15024944Y-11603365D01*
X15024944Y-11603365D02*
X15034467Y-11565269D01*
X15034467Y-11565269D02*
X15034467Y-11489079D01*
X15034467Y-11489079D02*
X15024944Y-11470031D01*
X15024944Y-11470031D02*
X15015420Y-11460508D01*
X15015420Y-11460508D02*
X14996372Y-11450984D01*
X14996372Y-11450984D02*
X14958277Y-11450984D01*
X14958277Y-11450984D02*
X14939229Y-11460508D01*
X14939229Y-11460508D02*
X14929706Y-11470031D01*
X14929706Y-11470031D02*
X14920182Y-11489079D01*
X14920182Y-11489079D02*
X14920182Y-11536698D01*
X14920182Y-11536698D02*
X14929706Y-11555746D01*
X14929706Y-11555746D02*
X14939229Y-11565269D01*
X14939229Y-11565269D02*
X14958277Y-11574793D01*
X14958277Y-11574793D02*
X14996372Y-11574793D01*
X14996372Y-11574793D02*
X15015420Y-11565269D01*
X15015420Y-11565269D02*
X15024944Y-11555746D01*
X15024944Y-11555746D02*
X15034467Y-11536698D01*
X15224944Y-11650984D02*
X15110658Y-11650984D01*
X15167801Y-11650984D02*
X15167801Y-11450984D01*
X15167801Y-11450984D02*
X15148753Y-11479555D01*
X15148753Y-11479555D02*
X15129706Y-11498603D01*
X15129706Y-11498603D02*
X15110658Y-11508127D01*
X15301134Y-11450984D02*
X15301134Y-11489079D01*
X15377325Y-11450984D02*
X15377325Y-11489079D01*
X15672563Y-11727174D02*
X15663039Y-11717650D01*
X15663039Y-11717650D02*
X15643991Y-11689079D01*
X15643991Y-11689079D02*
X15634468Y-11670031D01*
X15634468Y-11670031D02*
X15624944Y-11641460D01*
X15624944Y-11641460D02*
X15615420Y-11593841D01*
X15615420Y-11593841D02*
X15615420Y-11555746D01*
X15615420Y-11555746D02*
X15624944Y-11508127D01*
X15624944Y-11508127D02*
X15634468Y-11479555D01*
X15634468Y-11479555D02*
X15643991Y-11460508D01*
X15643991Y-11460508D02*
X15663039Y-11431936D01*
X15663039Y-11431936D02*
X15672563Y-11422412D01*
X15777325Y-11536698D02*
X15758277Y-11527174D01*
X15758277Y-11527174D02*
X15748753Y-11517650D01*
X15748753Y-11517650D02*
X15739229Y-11498603D01*
X15739229Y-11498603D02*
X15739229Y-11489079D01*
X15739229Y-11489079D02*
X15748753Y-11470031D01*
X15748753Y-11470031D02*
X15758277Y-11460508D01*
X15758277Y-11460508D02*
X15777325Y-11450984D01*
X15777325Y-11450984D02*
X15815420Y-11450984D01*
X15815420Y-11450984D02*
X15834468Y-11460508D01*
X15834468Y-11460508D02*
X15843991Y-11470031D01*
X15843991Y-11470031D02*
X15853515Y-11489079D01*
X15853515Y-11489079D02*
X15853515Y-11498603D01*
X15853515Y-11498603D02*
X15843991Y-11517650D01*
X15843991Y-11517650D02*
X15834468Y-11527174D01*
X15834468Y-11527174D02*
X15815420Y-11536698D01*
X15815420Y-11536698D02*
X15777325Y-11536698D01*
X15777325Y-11536698D02*
X15758277Y-11546222D01*
X15758277Y-11546222D02*
X15748753Y-11555746D01*
X15748753Y-11555746D02*
X15739229Y-11574793D01*
X15739229Y-11574793D02*
X15739229Y-11612888D01*
X15739229Y-11612888D02*
X15748753Y-11631936D01*
X15748753Y-11631936D02*
X15758277Y-11641460D01*
X15758277Y-11641460D02*
X15777325Y-11650984D01*
X15777325Y-11650984D02*
X15815420Y-11650984D01*
X15815420Y-11650984D02*
X15834468Y-11641460D01*
X15834468Y-11641460D02*
X15843991Y-11631936D01*
X15843991Y-11631936D02*
X15853515Y-11612888D01*
X15853515Y-11612888D02*
X15853515Y-11574793D01*
X15853515Y-11574793D02*
X15843991Y-11555746D01*
X15843991Y-11555746D02*
X15834468Y-11546222D01*
X15834468Y-11546222D02*
X15815420Y-11536698D01*
X16091610Y-11650984D02*
X16091610Y-11450984D01*
X16177325Y-11650984D02*
X16177325Y-11546222D01*
X16177325Y-11546222D02*
X16167801Y-11527174D01*
X16167801Y-11527174D02*
X16148753Y-11517650D01*
X16148753Y-11517650D02*
X16120182Y-11517650D01*
X16120182Y-11517650D02*
X16101134Y-11527174D01*
X16101134Y-11527174D02*
X16091610Y-11536698D01*
X16301134Y-11650984D02*
X16282087Y-11641460D01*
X16282087Y-11641460D02*
X16272563Y-11631936D01*
X16272563Y-11631936D02*
X16263039Y-11612888D01*
X16263039Y-11612888D02*
X16263039Y-11555746D01*
X16263039Y-11555746D02*
X16272563Y-11536698D01*
X16272563Y-11536698D02*
X16282087Y-11527174D01*
X16282087Y-11527174D02*
X16301134Y-11517650D01*
X16301134Y-11517650D02*
X16329706Y-11517650D01*
X16329706Y-11517650D02*
X16348753Y-11527174D01*
X16348753Y-11527174D02*
X16358277Y-11536698D01*
X16358277Y-11536698D02*
X16367801Y-11555746D01*
X16367801Y-11555746D02*
X16367801Y-11612888D01*
X16367801Y-11612888D02*
X16358277Y-11631936D01*
X16358277Y-11631936D02*
X16348753Y-11641460D01*
X16348753Y-11641460D02*
X16329706Y-11650984D01*
X16329706Y-11650984D02*
X16301134Y-11650984D01*
X16482087Y-11650984D02*
X16463039Y-11641460D01*
X16463039Y-11641460D02*
X16453515Y-11622412D01*
X16453515Y-11622412D02*
X16453515Y-11450984D01*
X16634468Y-11641460D02*
X16615420Y-11650984D01*
X16615420Y-11650984D02*
X16577325Y-11650984D01*
X16577325Y-11650984D02*
X16558277Y-11641460D01*
X16558277Y-11641460D02*
X16548753Y-11622412D01*
X16548753Y-11622412D02*
X16548753Y-11546222D01*
X16548753Y-11546222D02*
X16558277Y-11527174D01*
X16558277Y-11527174D02*
X16577325Y-11517650D01*
X16577325Y-11517650D02*
X16615420Y-11517650D01*
X16615420Y-11517650D02*
X16634468Y-11527174D01*
X16634468Y-11527174D02*
X16643991Y-11546222D01*
X16643991Y-11546222D02*
X16643991Y-11565269D01*
X16643991Y-11565269D02*
X16548753Y-11584317D01*
X16720182Y-11641460D02*
X16739230Y-11650984D01*
X16739230Y-11650984D02*
X16777325Y-11650984D01*
X16777325Y-11650984D02*
X16796373Y-11641460D01*
X16796373Y-11641460D02*
X16805896Y-11622412D01*
X16805896Y-11622412D02*
X16805896Y-11612888D01*
X16805896Y-11612888D02*
X16796373Y-11593841D01*
X16796373Y-11593841D02*
X16777325Y-11584317D01*
X16777325Y-11584317D02*
X16748753Y-11584317D01*
X16748753Y-11584317D02*
X16729706Y-11574793D01*
X16729706Y-11574793D02*
X16720182Y-11555746D01*
X16720182Y-11555746D02*
X16720182Y-11546222D01*
X16720182Y-11546222D02*
X16729706Y-11527174D01*
X16729706Y-11527174D02*
X16748753Y-11517650D01*
X16748753Y-11517650D02*
X16777325Y-11517650D01*
X16777325Y-11517650D02*
X16796373Y-11527174D01*
X16872563Y-11727174D02*
X16882087Y-11717650D01*
X16882087Y-11717650D02*
X16901134Y-11689079D01*
X16901134Y-11689079D02*
X16910658Y-11670031D01*
X16910658Y-11670031D02*
X16920182Y-11641460D01*
X16920182Y-11641460D02*
X16929706Y-11593841D01*
X16929706Y-11593841D02*
X16929706Y-11555746D01*
X16929706Y-11555746D02*
X16920182Y-11508127D01*
X16920182Y-11508127D02*
X16910658Y-11479555D01*
X16910658Y-11479555D02*
X16901134Y-11460508D01*
X16901134Y-11460508D02*
X16882087Y-11431936D01*
X16882087Y-11431936D02*
X16872563Y-11422412D01*
X11997500Y-11929500D02*
X12097500Y-11829500D01*
X11997500Y-11729500D01*
X11897500Y-11829500D01*
X11997500Y-11929500D01*
X12348753Y-11740031D02*
X12358277Y-11730508D01*
X12358277Y-11730508D02*
X12377324Y-11720984D01*
X12377324Y-11720984D02*
X12424943Y-11720984D01*
X12424943Y-11720984D02*
X12443991Y-11730508D01*
X12443991Y-11730508D02*
X12453515Y-11740031D01*
X12453515Y-11740031D02*
X12463039Y-11759079D01*
X12463039Y-11759079D02*
X12463039Y-11778127D01*
X12463039Y-11778127D02*
X12453515Y-11806698D01*
X12453515Y-11806698D02*
X12339229Y-11920984D01*
X12339229Y-11920984D02*
X12463039Y-11920984D01*
X12548753Y-11901936D02*
X12558277Y-11911460D01*
X12558277Y-11911460D02*
X12548753Y-11920984D01*
X12548753Y-11920984D02*
X12539229Y-11911460D01*
X12539229Y-11911460D02*
X12548753Y-11901936D01*
X12548753Y-11901936D02*
X12548753Y-11920984D01*
X12634467Y-11740031D02*
X12643991Y-11730508D01*
X12643991Y-11730508D02*
X12663039Y-11720984D01*
X12663039Y-11720984D02*
X12710658Y-11720984D01*
X12710658Y-11720984D02*
X12729705Y-11730508D01*
X12729705Y-11730508D02*
X12739229Y-11740031D01*
X12739229Y-11740031D02*
X12748753Y-11759079D01*
X12748753Y-11759079D02*
X12748753Y-11778127D01*
X12748753Y-11778127D02*
X12739229Y-11806698D01*
X12739229Y-11806698D02*
X12624943Y-11920984D01*
X12624943Y-11920984D02*
X12748753Y-11920984D01*
X12872562Y-11720984D02*
X12891610Y-11720984D01*
X12891610Y-11720984D02*
X12910658Y-11730508D01*
X12910658Y-11730508D02*
X12920182Y-11740031D01*
X12920182Y-11740031D02*
X12929705Y-11759079D01*
X12929705Y-11759079D02*
X12939229Y-11797174D01*
X12939229Y-11797174D02*
X12939229Y-11844793D01*
X12939229Y-11844793D02*
X12929705Y-11882888D01*
X12929705Y-11882888D02*
X12920182Y-11901936D01*
X12920182Y-11901936D02*
X12910658Y-11911460D01*
X12910658Y-11911460D02*
X12891610Y-11920984D01*
X12891610Y-11920984D02*
X12872562Y-11920984D01*
X12872562Y-11920984D02*
X12853515Y-11911460D01*
X12853515Y-11911460D02*
X12843991Y-11901936D01*
X12843991Y-11901936D02*
X12834467Y-11882888D01*
X12834467Y-11882888D02*
X12824943Y-11844793D01*
X12824943Y-11844793D02*
X12824943Y-11797174D01*
X12824943Y-11797174D02*
X12834467Y-11759079D01*
X12834467Y-11759079D02*
X12843991Y-11740031D01*
X12843991Y-11740031D02*
X12853515Y-11730508D01*
X12853515Y-11730508D02*
X12872562Y-11720984D01*
X13063039Y-11720984D02*
X13082086Y-11720984D01*
X13082086Y-11720984D02*
X13101134Y-11730508D01*
X13101134Y-11730508D02*
X13110658Y-11740031D01*
X13110658Y-11740031D02*
X13120182Y-11759079D01*
X13120182Y-11759079D02*
X13129705Y-11797174D01*
X13129705Y-11797174D02*
X13129705Y-11844793D01*
X13129705Y-11844793D02*
X13120182Y-11882888D01*
X13120182Y-11882888D02*
X13110658Y-11901936D01*
X13110658Y-11901936D02*
X13101134Y-11911460D01*
X13101134Y-11911460D02*
X13082086Y-11920984D01*
X13082086Y-11920984D02*
X13063039Y-11920984D01*
X13063039Y-11920984D02*
X13043991Y-11911460D01*
X13043991Y-11911460D02*
X13034467Y-11901936D01*
X13034467Y-11901936D02*
X13024943Y-11882888D01*
X13024943Y-11882888D02*
X13015420Y-11844793D01*
X13015420Y-11844793D02*
X13015420Y-11797174D01*
X13015420Y-11797174D02*
X13024943Y-11759079D01*
X13024943Y-11759079D02*
X13034467Y-11740031D01*
X13034467Y-11740031D02*
X13043991Y-11730508D01*
X13043991Y-11730508D02*
X13063039Y-11720984D01*
X13215420Y-11920984D02*
X13215420Y-11787650D01*
X13215420Y-11806698D02*
X13224943Y-11797174D01*
X13224943Y-11797174D02*
X13243991Y-11787650D01*
X13243991Y-11787650D02*
X13272563Y-11787650D01*
X13272563Y-11787650D02*
X13291610Y-11797174D01*
X13291610Y-11797174D02*
X13301134Y-11816222D01*
X13301134Y-11816222D02*
X13301134Y-11920984D01*
X13301134Y-11816222D02*
X13310658Y-11797174D01*
X13310658Y-11797174D02*
X13329705Y-11787650D01*
X13329705Y-11787650D02*
X13358277Y-11787650D01*
X13358277Y-11787650D02*
X13377324Y-11797174D01*
X13377324Y-11797174D02*
X13386848Y-11816222D01*
X13386848Y-11816222D02*
X13386848Y-11920984D01*
X13482086Y-11920984D02*
X13482086Y-11787650D01*
X13482086Y-11806698D02*
X13491610Y-11797174D01*
X13491610Y-11797174D02*
X13510658Y-11787650D01*
X13510658Y-11787650D02*
X13539229Y-11787650D01*
X13539229Y-11787650D02*
X13558277Y-11797174D01*
X13558277Y-11797174D02*
X13567801Y-11816222D01*
X13567801Y-11816222D02*
X13567801Y-11920984D01*
X13567801Y-11816222D02*
X13577324Y-11797174D01*
X13577324Y-11797174D02*
X13596372Y-11787650D01*
X13596372Y-11787650D02*
X13624943Y-11787650D01*
X13624943Y-11787650D02*
X13643991Y-11797174D01*
X13643991Y-11797174D02*
X13653515Y-11816222D01*
X13653515Y-11816222D02*
X13653515Y-11920984D01*
X14043991Y-11711460D02*
X13872563Y-11968603D01*
X14301134Y-11720984D02*
X14320182Y-11720984D01*
X14320182Y-11720984D02*
X14339229Y-11730508D01*
X14339229Y-11730508D02*
X14348753Y-11740031D01*
X14348753Y-11740031D02*
X14358277Y-11759079D01*
X14358277Y-11759079D02*
X14367801Y-11797174D01*
X14367801Y-11797174D02*
X14367801Y-11844793D01*
X14367801Y-11844793D02*
X14358277Y-11882888D01*
X14358277Y-11882888D02*
X14348753Y-11901936D01*
X14348753Y-11901936D02*
X14339229Y-11911460D01*
X14339229Y-11911460D02*
X14320182Y-11920984D01*
X14320182Y-11920984D02*
X14301134Y-11920984D01*
X14301134Y-11920984D02*
X14282086Y-11911460D01*
X14282086Y-11911460D02*
X14272563Y-11901936D01*
X14272563Y-11901936D02*
X14263039Y-11882888D01*
X14263039Y-11882888D02*
X14253515Y-11844793D01*
X14253515Y-11844793D02*
X14253515Y-11797174D01*
X14253515Y-11797174D02*
X14263039Y-11759079D01*
X14263039Y-11759079D02*
X14272563Y-11740031D01*
X14272563Y-11740031D02*
X14282086Y-11730508D01*
X14282086Y-11730508D02*
X14301134Y-11720984D01*
X14453515Y-11901936D02*
X14463039Y-11911460D01*
X14463039Y-11911460D02*
X14453515Y-11920984D01*
X14453515Y-11920984D02*
X14443991Y-11911460D01*
X14443991Y-11911460D02*
X14453515Y-11901936D01*
X14453515Y-11901936D02*
X14453515Y-11920984D01*
X14586848Y-11720984D02*
X14605896Y-11720984D01*
X14605896Y-11720984D02*
X14624944Y-11730508D01*
X14624944Y-11730508D02*
X14634467Y-11740031D01*
X14634467Y-11740031D02*
X14643991Y-11759079D01*
X14643991Y-11759079D02*
X14653515Y-11797174D01*
X14653515Y-11797174D02*
X14653515Y-11844793D01*
X14653515Y-11844793D02*
X14643991Y-11882888D01*
X14643991Y-11882888D02*
X14634467Y-11901936D01*
X14634467Y-11901936D02*
X14624944Y-11911460D01*
X14624944Y-11911460D02*
X14605896Y-11920984D01*
X14605896Y-11920984D02*
X14586848Y-11920984D01*
X14586848Y-11920984D02*
X14567801Y-11911460D01*
X14567801Y-11911460D02*
X14558277Y-11901936D01*
X14558277Y-11901936D02*
X14548753Y-11882888D01*
X14548753Y-11882888D02*
X14539229Y-11844793D01*
X14539229Y-11844793D02*
X14539229Y-11797174D01*
X14539229Y-11797174D02*
X14548753Y-11759079D01*
X14548753Y-11759079D02*
X14558277Y-11740031D01*
X14558277Y-11740031D02*
X14567801Y-11730508D01*
X14567801Y-11730508D02*
X14586848Y-11720984D01*
X14767801Y-11806698D02*
X14748753Y-11797174D01*
X14748753Y-11797174D02*
X14739229Y-11787650D01*
X14739229Y-11787650D02*
X14729706Y-11768603D01*
X14729706Y-11768603D02*
X14729706Y-11759079D01*
X14729706Y-11759079D02*
X14739229Y-11740031D01*
X14739229Y-11740031D02*
X14748753Y-11730508D01*
X14748753Y-11730508D02*
X14767801Y-11720984D01*
X14767801Y-11720984D02*
X14805896Y-11720984D01*
X14805896Y-11720984D02*
X14824944Y-11730508D01*
X14824944Y-11730508D02*
X14834467Y-11740031D01*
X14834467Y-11740031D02*
X14843991Y-11759079D01*
X14843991Y-11759079D02*
X14843991Y-11768603D01*
X14843991Y-11768603D02*
X14834467Y-11787650D01*
X14834467Y-11787650D02*
X14824944Y-11797174D01*
X14824944Y-11797174D02*
X14805896Y-11806698D01*
X14805896Y-11806698D02*
X14767801Y-11806698D01*
X14767801Y-11806698D02*
X14748753Y-11816222D01*
X14748753Y-11816222D02*
X14739229Y-11825746D01*
X14739229Y-11825746D02*
X14729706Y-11844793D01*
X14729706Y-11844793D02*
X14729706Y-11882888D01*
X14729706Y-11882888D02*
X14739229Y-11901936D01*
X14739229Y-11901936D02*
X14748753Y-11911460D01*
X14748753Y-11911460D02*
X14767801Y-11920984D01*
X14767801Y-11920984D02*
X14805896Y-11920984D01*
X14805896Y-11920984D02*
X14824944Y-11911460D01*
X14824944Y-11911460D02*
X14834467Y-11901936D01*
X14834467Y-11901936D02*
X14843991Y-11882888D01*
X14843991Y-11882888D02*
X14843991Y-11844793D01*
X14843991Y-11844793D02*
X14834467Y-11825746D01*
X14834467Y-11825746D02*
X14824944Y-11816222D01*
X14824944Y-11816222D02*
X14805896Y-11806698D01*
X15015420Y-11720984D02*
X14977325Y-11720984D01*
X14977325Y-11720984D02*
X14958277Y-11730508D01*
X14958277Y-11730508D02*
X14948753Y-11740031D01*
X14948753Y-11740031D02*
X14929706Y-11768603D01*
X14929706Y-11768603D02*
X14920182Y-11806698D01*
X14920182Y-11806698D02*
X14920182Y-11882888D01*
X14920182Y-11882888D02*
X14929706Y-11901936D01*
X14929706Y-11901936D02*
X14939229Y-11911460D01*
X14939229Y-11911460D02*
X14958277Y-11920984D01*
X14958277Y-11920984D02*
X14996372Y-11920984D01*
X14996372Y-11920984D02*
X15015420Y-11911460D01*
X15015420Y-11911460D02*
X15024944Y-11901936D01*
X15024944Y-11901936D02*
X15034467Y-11882888D01*
X15034467Y-11882888D02*
X15034467Y-11835269D01*
X15034467Y-11835269D02*
X15024944Y-11816222D01*
X15024944Y-11816222D02*
X15015420Y-11806698D01*
X15015420Y-11806698D02*
X14996372Y-11797174D01*
X14996372Y-11797174D02*
X14958277Y-11797174D01*
X14958277Y-11797174D02*
X14939229Y-11806698D01*
X14939229Y-11806698D02*
X14929706Y-11816222D01*
X14929706Y-11816222D02*
X14920182Y-11835269D01*
X15205896Y-11720984D02*
X15167801Y-11720984D01*
X15167801Y-11720984D02*
X15148753Y-11730508D01*
X15148753Y-11730508D02*
X15139229Y-11740031D01*
X15139229Y-11740031D02*
X15120182Y-11768603D01*
X15120182Y-11768603D02*
X15110658Y-11806698D01*
X15110658Y-11806698D02*
X15110658Y-11882888D01*
X15110658Y-11882888D02*
X15120182Y-11901936D01*
X15120182Y-11901936D02*
X15129706Y-11911460D01*
X15129706Y-11911460D02*
X15148753Y-11920984D01*
X15148753Y-11920984D02*
X15186848Y-11920984D01*
X15186848Y-11920984D02*
X15205896Y-11911460D01*
X15205896Y-11911460D02*
X15215420Y-11901936D01*
X15215420Y-11901936D02*
X15224944Y-11882888D01*
X15224944Y-11882888D02*
X15224944Y-11835269D01*
X15224944Y-11835269D02*
X15215420Y-11816222D01*
X15215420Y-11816222D02*
X15205896Y-11806698D01*
X15205896Y-11806698D02*
X15186848Y-11797174D01*
X15186848Y-11797174D02*
X15148753Y-11797174D01*
X15148753Y-11797174D02*
X15129706Y-11806698D01*
X15129706Y-11806698D02*
X15120182Y-11816222D01*
X15120182Y-11816222D02*
X15110658Y-11835269D01*
X15301134Y-11720984D02*
X15301134Y-11759079D01*
X15377325Y-11720984D02*
X15377325Y-11759079D01*
X15672563Y-11997174D02*
X15663039Y-11987650D01*
X15663039Y-11987650D02*
X15643991Y-11959079D01*
X15643991Y-11959079D02*
X15634468Y-11940031D01*
X15634468Y-11940031D02*
X15624944Y-11911460D01*
X15624944Y-11911460D02*
X15615420Y-11863841D01*
X15615420Y-11863841D02*
X15615420Y-11825746D01*
X15615420Y-11825746D02*
X15624944Y-11778127D01*
X15624944Y-11778127D02*
X15634468Y-11749555D01*
X15634468Y-11749555D02*
X15643991Y-11730508D01*
X15643991Y-11730508D02*
X15663039Y-11701936D01*
X15663039Y-11701936D02*
X15672563Y-11692412D01*
X15834468Y-11787650D02*
X15834468Y-11920984D01*
X15786848Y-11711460D02*
X15739229Y-11854317D01*
X15739229Y-11854317D02*
X15863039Y-11854317D01*
X16091610Y-11920984D02*
X16091610Y-11720984D01*
X16177325Y-11920984D02*
X16177325Y-11816222D01*
X16177325Y-11816222D02*
X16167801Y-11797174D01*
X16167801Y-11797174D02*
X16148753Y-11787650D01*
X16148753Y-11787650D02*
X16120182Y-11787650D01*
X16120182Y-11787650D02*
X16101134Y-11797174D01*
X16101134Y-11797174D02*
X16091610Y-11806698D01*
X16301134Y-11920984D02*
X16282087Y-11911460D01*
X16282087Y-11911460D02*
X16272563Y-11901936D01*
X16272563Y-11901936D02*
X16263039Y-11882888D01*
X16263039Y-11882888D02*
X16263039Y-11825746D01*
X16263039Y-11825746D02*
X16272563Y-11806698D01*
X16272563Y-11806698D02*
X16282087Y-11797174D01*
X16282087Y-11797174D02*
X16301134Y-11787650D01*
X16301134Y-11787650D02*
X16329706Y-11787650D01*
X16329706Y-11787650D02*
X16348753Y-11797174D01*
X16348753Y-11797174D02*
X16358277Y-11806698D01*
X16358277Y-11806698D02*
X16367801Y-11825746D01*
X16367801Y-11825746D02*
X16367801Y-11882888D01*
X16367801Y-11882888D02*
X16358277Y-11901936D01*
X16358277Y-11901936D02*
X16348753Y-11911460D01*
X16348753Y-11911460D02*
X16329706Y-11920984D01*
X16329706Y-11920984D02*
X16301134Y-11920984D01*
X16482087Y-11920984D02*
X16463039Y-11911460D01*
X16463039Y-11911460D02*
X16453515Y-11892412D01*
X16453515Y-11892412D02*
X16453515Y-11720984D01*
X16634468Y-11911460D02*
X16615420Y-11920984D01*
X16615420Y-11920984D02*
X16577325Y-11920984D01*
X16577325Y-11920984D02*
X16558277Y-11911460D01*
X16558277Y-11911460D02*
X16548753Y-11892412D01*
X16548753Y-11892412D02*
X16548753Y-11816222D01*
X16548753Y-11816222D02*
X16558277Y-11797174D01*
X16558277Y-11797174D02*
X16577325Y-11787650D01*
X16577325Y-11787650D02*
X16615420Y-11787650D01*
X16615420Y-11787650D02*
X16634468Y-11797174D01*
X16634468Y-11797174D02*
X16643991Y-11816222D01*
X16643991Y-11816222D02*
X16643991Y-11835269D01*
X16643991Y-11835269D02*
X16548753Y-11854317D01*
X16720182Y-11911460D02*
X16739230Y-11920984D01*
X16739230Y-11920984D02*
X16777325Y-11920984D01*
X16777325Y-11920984D02*
X16796373Y-11911460D01*
X16796373Y-11911460D02*
X16805896Y-11892412D01*
X16805896Y-11892412D02*
X16805896Y-11882888D01*
X16805896Y-11882888D02*
X16796373Y-11863841D01*
X16796373Y-11863841D02*
X16777325Y-11854317D01*
X16777325Y-11854317D02*
X16748753Y-11854317D01*
X16748753Y-11854317D02*
X16729706Y-11844793D01*
X16729706Y-11844793D02*
X16720182Y-11825746D01*
X16720182Y-11825746D02*
X16720182Y-11816222D01*
X16720182Y-11816222D02*
X16729706Y-11797174D01*
X16729706Y-11797174D02*
X16748753Y-11787650D01*
X16748753Y-11787650D02*
X16777325Y-11787650D01*
X16777325Y-11787650D02*
X16796373Y-11797174D01*
X16872563Y-11997174D02*
X16882087Y-11987650D01*
X16882087Y-11987650D02*
X16901134Y-11959079D01*
X16901134Y-11959079D02*
X16910658Y-11940031D01*
X16910658Y-11940031D02*
X16920182Y-11911460D01*
X16920182Y-11911460D02*
X16929706Y-11863841D01*
X16929706Y-11863841D02*
X16929706Y-11825746D01*
X16929706Y-11825746D02*
X16920182Y-11778127D01*
X16920182Y-11778127D02*
X16910658Y-11749555D01*
X16910658Y-11749555D02*
X16901134Y-11730508D01*
X16901134Y-11730508D02*
X16882087Y-11701936D01*
X16882087Y-11701936D02*
X16872563Y-11692412D01*
M02*
