%TF.GenerationSoftware,KiCad,Pcbnew,8.0.7-1.fc41*%
%TF.CreationDate,2025-04-02T21:22:15-07:00*%
%TF.ProjectId,EP-Booster,45502d42-6f6f-4737-9465-722e6b696361,rev?*%
%TF.SameCoordinates,Original*%
%TF.FileFunction,Soldermask,Top*%
%TF.FilePolarity,Negative*%
%FSLAX46Y46*%
G04 Gerber Fmt 4.6, Leading zero omitted, Abs format (unit mm)*
G04 Created by KiCad (PCBNEW 8.0.7-1.fc41) date 2025-04-02 21:22:15*
%MOMM*%
%LPD*%
G01*
G04 APERTURE LIST*
G04 Aperture macros list*
%AMRoundRect*
0 Rectangle with rounded corners*
0 $1 Rounding radius*
0 $2 $3 $4 $5 $6 $7 $8 $9 X,Y pos of 4 corners*
0 Add a 4 corners polygon primitive as box body*
4,1,4,$2,$3,$4,$5,$6,$7,$8,$9,$2,$3,0*
0 Add four circle primitives for the rounded corners*
1,1,$1+$1,$2,$3*
1,1,$1+$1,$4,$5*
1,1,$1+$1,$6,$7*
1,1,$1+$1,$8,$9*
0 Add four rect primitives between the rounded corners*
20,1,$1+$1,$2,$3,$4,$5,0*
20,1,$1+$1,$4,$5,$6,$7,0*
20,1,$1+$1,$6,$7,$8,$9,0*
20,1,$1+$1,$8,$9,$2,$3,0*%
G04 Aperture macros list end*
%ADD10C,3.800000*%
%ADD11C,2.600000*%
%ADD12RoundRect,0.150000X-0.150000X0.587500X-0.150000X-0.587500X0.150000X-0.587500X0.150000X0.587500X0*%
%ADD13C,1.600000*%
%ADD14O,1.600000X1.600000*%
%ADD15R,2.200000X2.200000*%
%ADD16O,2.200000X2.200000*%
%ADD17R,1.600000X1.600000*%
%ADD18RoundRect,0.102000X0.700000X-0.500000X0.700000X0.500000X-0.700000X0.500000X-0.700000X-0.500000X0*%
%ADD19R,3.000000X3.000000*%
%ADD20C,3.000000*%
G04 APERTURE END LIST*
D10*
%TO.C,H12*%
X162250000Y-88750000D03*
%TD*%
%TO.C,H11*%
X123750000Y-88750000D03*
%TD*%
%TO.C,H10*%
X162250000Y-27000000D03*
%TD*%
%TO.C,H9*%
X123750000Y-27000000D03*
%TD*%
%TO.C,H2*%
X126000000Y-97000000D03*
D11*
X126000000Y-97000000D03*
%TD*%
D10*
%TO.C,H3*%
X161250000Y-97000000D03*
D11*
X161250000Y-97000000D03*
%TD*%
D12*
%TO.C,Q2*%
X156700000Y-44812500D03*
X154800000Y-44812500D03*
X155750000Y-46687500D03*
%TD*%
D10*
%TO.C,H8*%
X146142856Y-97000000D03*
D11*
X146142856Y-97000000D03*
%TD*%
D13*
%TO.C,R14*%
X154190000Y-50500000D03*
D14*
X161810000Y-50500000D03*
%TD*%
D13*
%TO.C,C3*%
X125750000Y-63750000D03*
X130750000Y-63750000D03*
%TD*%
D10*
%TO.C,H1*%
X151178570Y-97000000D03*
D11*
X151178570Y-97000000D03*
%TD*%
D13*
%TO.C,R6*%
X122940000Y-58750000D03*
D14*
X130560000Y-58750000D03*
%TD*%
D13*
%TO.C,R2*%
X151500000Y-75750000D03*
D14*
X151500000Y-83370000D03*
%TD*%
D15*
%TO.C,D2*%
X143000000Y-83000000D03*
D16*
X135380000Y-83000000D03*
%TD*%
D13*
%TO.C,R15*%
X161750000Y-54750000D03*
D14*
X161750000Y-62370000D03*
%TD*%
D17*
%TO.C,C2*%
X143000000Y-68500000D03*
D13*
X140500000Y-68500000D03*
%TD*%
D10*
%TO.C,H5*%
X131035714Y-97000000D03*
D11*
X131035714Y-97000000D03*
%TD*%
D10*
%TO.C,H7*%
X141107142Y-97000000D03*
D11*
X141107142Y-97000000D03*
%TD*%
D13*
%TO.C,R12*%
X147750000Y-73060000D03*
D14*
X147750000Y-65440000D03*
%TD*%
%TO.C,R13*%
X162000000Y-47560000D03*
D13*
X162000000Y-39940000D03*
%TD*%
%TO.C,R3*%
X135720000Y-73794888D03*
D14*
X143340000Y-73794888D03*
%TD*%
D13*
%TO.C,R9*%
X135750000Y-62370000D03*
D14*
X135750000Y-54750000D03*
%TD*%
D13*
%TO.C,R1*%
X147750000Y-75690000D03*
D14*
X147750000Y-83310000D03*
%TD*%
D17*
%TO.C,SW1*%
X158250000Y-73300000D03*
D14*
X160790000Y-73300000D03*
X160790000Y-65680000D03*
X158250000Y-65680000D03*
%TD*%
D13*
%TO.C,R11*%
X152800000Y-54800000D03*
D14*
X152800000Y-62420000D03*
%TD*%
D13*
%TO.C,R4*%
X143340000Y-78794888D03*
D14*
X135720000Y-78794888D03*
%TD*%
D18*
%TO.C,Q1*%
X130850000Y-50200000D03*
X130850000Y-48300000D03*
X128650000Y-49250000D03*
%TD*%
D17*
%TO.C,C7*%
X128294888Y-36500000D03*
D13*
X130794888Y-36500000D03*
%TD*%
%TO.C,R10*%
X147753332Y-62420000D03*
D14*
X147753332Y-54800000D03*
%TD*%
D13*
%TO.C,R8*%
X131060000Y-44000000D03*
D14*
X123440000Y-44000000D03*
%TD*%
D13*
%TO.C,R5*%
X127750000Y-68440000D03*
D14*
X127750000Y-76060000D03*
%TD*%
D10*
%TO.C,H6*%
X136071428Y-97000000D03*
D11*
X136071428Y-97000000D03*
%TD*%
D15*
%TO.C,D1*%
X138250000Y-88250000D03*
D16*
X148410000Y-88250000D03*
%TD*%
D10*
%TO.C,H4*%
X156214284Y-97000000D03*
D11*
X156214284Y-97000000D03*
%TD*%
D13*
%TO.C,R7*%
X130750000Y-54000000D03*
D14*
X123130000Y-54000000D03*
%TD*%
D13*
%TO.C,C6*%
X155455112Y-37000000D03*
D17*
X157955112Y-37000000D03*
%TD*%
%TO.C,C1*%
X134205113Y-68500000D03*
D13*
X131705113Y-68500000D03*
%TD*%
D19*
%TO.C,RV1*%
X138000000Y-31500000D03*
D20*
X143000000Y-31500000D03*
X148000000Y-31500000D03*
%TD*%
D13*
%TO.C,C5*%
X153250000Y-71500000D03*
X153250000Y-66500000D03*
%TD*%
%TO.C,R16*%
X157000000Y-62310000D03*
D14*
X157000000Y-54690000D03*
%TD*%
D17*
%TO.C,C4*%
X141751666Y-55289775D03*
D13*
X141751666Y-57789775D03*
%TD*%
M02*
