%TF.GenerationSoftware,KiCad,Pcbnew,8.0.7-1.fc41*%
%TF.CreationDate,2025-04-02T21:19:11-07:00*%
%TF.ProjectId,EP-Booster,45502d42-6f6f-4737-9465-722e6b696361,rev?*%
%TF.SameCoordinates,Original*%
%TF.FileFunction,Copper,L1,Top*%
%TF.FilePolarity,Positive*%
%FSLAX46Y46*%
G04 Gerber Fmt 4.6, Leading zero omitted, Abs format (unit mm)*
G04 Created by KiCad (PCBNEW 8.0.7-1.fc41) date 2025-04-02 21:19:11*
%MOMM*%
%LPD*%
G01*
G04 APERTURE LIST*
G04 Aperture macros list*
%AMRoundRect*
0 Rectangle with rounded corners*
0 $1 Rounding radius*
0 $2 $3 $4 $5 $6 $7 $8 $9 X,Y pos of 4 corners*
0 Add a 4 corners polygon primitive as box body*
4,1,4,$2,$3,$4,$5,$6,$7,$8,$9,$2,$3,0*
0 Add four circle primitives for the rounded corners*
1,1,$1+$1,$2,$3*
1,1,$1+$1,$4,$5*
1,1,$1+$1,$6,$7*
1,1,$1+$1,$8,$9*
0 Add four rect primitives between the rounded corners*
20,1,$1+$1,$2,$3,$4,$5,0*
20,1,$1+$1,$4,$5,$6,$7,0*
20,1,$1+$1,$6,$7,$8,$9,0*
20,1,$1+$1,$8,$9,$2,$3,0*%
G04 Aperture macros list end*
%TA.AperFunction,ComponentPad*%
%ADD10C,3.800000*%
%TD*%
%TA.AperFunction,ConnectorPad*%
%ADD11C,3.800000*%
%TD*%
%TA.AperFunction,ComponentPad*%
%ADD12C,2.600000*%
%TD*%
%TA.AperFunction,SMDPad,CuDef*%
%ADD13RoundRect,0.150000X-0.150000X0.587500X-0.150000X-0.587500X0.150000X-0.587500X0.150000X0.587500X0*%
%TD*%
%TA.AperFunction,ComponentPad*%
%ADD14C,1.600000*%
%TD*%
%TA.AperFunction,ComponentPad*%
%ADD15O,1.600000X1.600000*%
%TD*%
%TA.AperFunction,ComponentPad*%
%ADD16R,2.200000X2.200000*%
%TD*%
%TA.AperFunction,ComponentPad*%
%ADD17O,2.200000X2.200000*%
%TD*%
%TA.AperFunction,ComponentPad*%
%ADD18R,1.600000X1.600000*%
%TD*%
%TA.AperFunction,SMDPad,CuDef*%
%ADD19R,1.400000X1.000000*%
%TD*%
%TA.AperFunction,ComponentPad*%
%ADD20R,3.000000X3.000000*%
%TD*%
%TA.AperFunction,ComponentPad*%
%ADD21C,3.000000*%
%TD*%
%TA.AperFunction,Conductor*%
%ADD22C,0.200000*%
%TD*%
G04 APERTURE END LIST*
D10*
%TO.P,H12,1,1*%
%TO.N,Earth*%
X162250000Y-88750000D03*
%TD*%
%TO.P,H11,1,1*%
%TO.N,Earth*%
X123750000Y-88750000D03*
%TD*%
%TO.P,H10,1,1*%
%TO.N,Earth*%
X162250000Y-27000000D03*
%TD*%
%TO.P,H9,1,1*%
%TO.N,Earth*%
X123750000Y-27000000D03*
%TD*%
D11*
%TO.P,H2,1,1*%
%TO.N,Net-(C3-Pad1)*%
X126000000Y-97000000D03*
D12*
X126000000Y-97000000D03*
%TD*%
D11*
%TO.P,H3,1,1*%
%TO.N,/SWB2*%
X161250000Y-97000000D03*
D12*
X161250000Y-97000000D03*
%TD*%
D13*
%TO.P,Q2,1,B*%
%TO.N,/SWA2*%
X156700000Y-44812500D03*
%TO.P,Q2,2,E*%
%TO.N,Net-(Q2-E)*%
X154800000Y-44812500D03*
%TO.P,Q2,3,C*%
%TO.N,/VA*%
X155750000Y-46687500D03*
%TD*%
D11*
%TO.P,H8,1,1*%
%TO.N,Earth*%
X146142856Y-97000000D03*
D12*
X146142856Y-97000000D03*
%TD*%
D14*
%TO.P,R14,1*%
%TO.N,Net-(C6-Pad2)*%
X154190000Y-50500000D03*
D15*
%TO.P,R14,2*%
%TO.N,/SWB1*%
X161810000Y-50500000D03*
%TD*%
D14*
%TO.P,C3,1*%
%TO.N,Net-(C3-Pad1)*%
X125750000Y-63750000D03*
%TO.P,C3,2*%
%TO.N,Net-(C3-Pad2)*%
X130750000Y-63750000D03*
%TD*%
D11*
%TO.P,H1,1,1*%
%TO.N,Net-(D2-K)*%
X151178570Y-97000000D03*
D12*
X151178570Y-97000000D03*
%TD*%
D14*
%TO.P,R6,1*%
%TO.N,Net-(C3-Pad2)*%
X122940000Y-58750000D03*
D15*
%TO.P,R6,2*%
%TO.N,Net-(Q1-Pad3)*%
X130560000Y-58750000D03*
%TD*%
D14*
%TO.P,R2,1*%
%TO.N,/VA*%
X151500000Y-75750000D03*
D15*
%TO.P,R2,2*%
%TO.N,Net-(D1-K)*%
X151500000Y-83370000D03*
%TD*%
D16*
%TO.P,D2,1,K*%
%TO.N,Net-(D2-K)*%
X143000000Y-83000000D03*
D17*
%TO.P,D2,2,A*%
%TO.N,Net-(D2-A)*%
X135380000Y-83000000D03*
%TD*%
D14*
%TO.P,R15,1*%
%TO.N,/SWB1*%
X161750000Y-54750000D03*
D15*
%TO.P,R15,2*%
%TO.N,/SWB2*%
X161750000Y-62370000D03*
%TD*%
D18*
%TO.P,C2,1*%
%TO.N,/VB*%
X143000000Y-68500000D03*
D14*
%TO.P,C2,2*%
%TO.N,Earth*%
X140500000Y-68500000D03*
%TD*%
D11*
%TO.P,H5,1,1*%
%TO.N,Earth*%
X131035714Y-97000000D03*
D12*
X131035714Y-97000000D03*
%TD*%
D11*
%TO.P,H7,1,1*%
%TO.N,+9V*%
X141107142Y-97000000D03*
D12*
X141107142Y-97000000D03*
%TD*%
D14*
%TO.P,R12,1*%
%TO.N,/VB*%
X147750000Y-73060000D03*
D15*
%TO.P,R12,2*%
%TO.N,/SWA2*%
X147750000Y-65440000D03*
%TD*%
%TO.P,R13,2*%
%TO.N,Earth*%
X162000000Y-47560000D03*
D14*
%TO.P,R13,1*%
%TO.N,Net-(Q2-E)*%
X162000000Y-39940000D03*
%TD*%
%TO.P,R3,1*%
%TO.N,/VA*%
X135720000Y-73794888D03*
D15*
%TO.P,R3,2*%
%TO.N,/VB*%
X143340000Y-73794888D03*
%TD*%
D14*
%TO.P,R9,1*%
%TO.N,/VA*%
X135750000Y-62370000D03*
D15*
%TO.P,R9,2*%
%TO.N,Net-(C4-Pad1)*%
X135750000Y-54750000D03*
%TD*%
D14*
%TO.P,R1,1*%
%TO.N,/VA*%
X147750000Y-75690000D03*
D15*
%TO.P,R1,2*%
%TO.N,Net-(D2-A)*%
X147750000Y-83310000D03*
%TD*%
D18*
%TO.P,SW1,1*%
%TO.N,/SWA2*%
X158250000Y-73300000D03*
D15*
%TO.P,SW1,2*%
%TO.N,/SWB1*%
X160790000Y-73300000D03*
%TO.P,SW1,3*%
%TO.N,/SWB2*%
X160790000Y-65680000D03*
%TO.P,SW1,4*%
%TO.N,/SWA1*%
X158250000Y-65680000D03*
%TD*%
D14*
%TO.P,R11,1*%
%TO.N,/SWA1*%
X152800000Y-54800000D03*
D15*
%TO.P,R11,2*%
%TO.N,/SWA2*%
X152800000Y-62420000D03*
%TD*%
D14*
%TO.P,R4,1*%
%TO.N,/VB*%
X143340000Y-78794888D03*
D15*
%TO.P,R4,2*%
%TO.N,Earth*%
X135720000Y-78794888D03*
%TD*%
D19*
%TO.P,Q1,1*%
%TO.N,Net-(C4-Pad1)*%
X130850000Y-50200000D03*
%TO.P,Q1,2*%
%TO.N,Net-(C7-Pad1)*%
X130850000Y-48300000D03*
%TO.P,Q1,3*%
%TO.N,Net-(Q1-Pad3)*%
X128650000Y-49250000D03*
%TD*%
D18*
%TO.P,C7,1*%
%TO.N,Net-(C7-Pad1)*%
X128294888Y-36500000D03*
D14*
%TO.P,C7,2*%
%TO.N,Net-(C7-Pad2)*%
X130794888Y-36500000D03*
%TD*%
%TO.P,R10,1*%
%TO.N,Net-(C4-Pad2)*%
X147753332Y-62420000D03*
D15*
%TO.P,R10,2*%
%TO.N,/SWA1*%
X147753332Y-54800000D03*
%TD*%
D14*
%TO.P,R8,1*%
%TO.N,Net-(C7-Pad1)*%
X131060000Y-44000000D03*
D15*
%TO.P,R8,2*%
%TO.N,Earth*%
X123440000Y-44000000D03*
%TD*%
D14*
%TO.P,R5,1*%
%TO.N,Net-(C3-Pad1)*%
X127750000Y-68440000D03*
D15*
%TO.P,R5,2*%
%TO.N,Earth*%
X127750000Y-76060000D03*
%TD*%
D11*
%TO.P,H6,1,1*%
%TO.N,Earth*%
X136071428Y-97000000D03*
D12*
X136071428Y-97000000D03*
%TD*%
D16*
%TO.P,D1,1,K*%
%TO.N,Net-(D1-K)*%
X138250000Y-88250000D03*
D17*
%TO.P,D1,2,A*%
%TO.N,+9V*%
X148410000Y-88250000D03*
%TD*%
D11*
%TO.P,H4,1,1*%
%TO.N,Earth*%
X156214284Y-97000000D03*
D12*
X156214284Y-97000000D03*
%TD*%
D14*
%TO.P,R7,1*%
%TO.N,Net-(Q1-Pad3)*%
X130750000Y-54000000D03*
D15*
%TO.P,R7,2*%
%TO.N,Earth*%
X123130000Y-54000000D03*
%TD*%
D14*
%TO.P,C6,2*%
%TO.N,Net-(C6-Pad2)*%
X155455112Y-37000000D03*
D18*
%TO.P,C6,1*%
%TO.N,Net-(Q2-E)*%
X157955112Y-37000000D03*
%TD*%
%TO.P,C1,1*%
%TO.N,/VA*%
X134205113Y-68500000D03*
D14*
%TO.P,C1,2*%
%TO.N,Earth*%
X131705113Y-68500000D03*
%TD*%
D20*
%TO.P,RV1,1,1*%
%TO.N,Net-(C7-Pad2)*%
X138000000Y-31500000D03*
D21*
%TO.P,RV1,2,2*%
X143000000Y-31500000D03*
%TO.P,RV1,3,3*%
%TO.N,Earth*%
X148000000Y-31500000D03*
%TD*%
D14*
%TO.P,C5,1*%
%TO.N,/SWA2*%
X153250000Y-71500000D03*
%TO.P,C5,2*%
%TO.N,Earth*%
X153250000Y-66500000D03*
%TD*%
%TO.P,R16,1*%
%TO.N,/SWB2*%
X157000000Y-62310000D03*
D15*
%TO.P,R16,2*%
%TO.N,Earth*%
X157000000Y-54690000D03*
%TD*%
D18*
%TO.P,C4,1*%
%TO.N,Net-(C4-Pad1)*%
X141751666Y-55289775D03*
D14*
%TO.P,C4,2*%
%TO.N,Net-(C4-Pad2)*%
X141751666Y-57789775D03*
%TD*%
D22*
%TO.N,Net-(C7-Pad2)*%
X134464466Y-35035534D02*
G75*
G02*
X130928932Y-36500023I-3535566J3535534D01*
G01*
X138000000Y-31500000D02*
X143000000Y-31500000D01*
X130794888Y-36500000D02*
X130928932Y-36500000D01*
X134464466Y-35035534D02*
X138000000Y-31500000D01*
%TO.N,/VA*%
X144785534Y-57964466D02*
G75*
G03*
X146250023Y-54428932I-3535534J3535566D01*
G01*
X154883568Y-46687500D02*
G75*
G03*
X151348050Y-48151982I32J-5000000D01*
G01*
X141844466Y-60905534D02*
G75*
G02*
X138308932Y-62370023I-3535566J3535534D01*
G01*
X144785534Y-57964466D02*
X141844466Y-60905534D01*
X155750000Y-46687500D02*
X154883568Y-46687500D01*
X146250000Y-53250000D02*
X146250000Y-54428932D01*
X151348034Y-48151966D02*
X146250000Y-53250000D01*
X138308932Y-62370000D02*
X135750000Y-62370000D01*
%TO.N,Net-(D1-K)*%
X146953096Y-86785534D02*
G75*
G02*
X143417562Y-88249973I-3535496J3535534D01*
G01*
X138250000Y-88250000D02*
X143417562Y-88250000D01*
X146953096Y-86785534D02*
X150368630Y-83370000D01*
X150368630Y-83370000D02*
X151500000Y-83370000D01*
X151500000Y-83750000D02*
X151500000Y-83370000D01*
%TO.N,Net-(D2-A)*%
X139951068Y-85500000D02*
G75*
G02*
X136415550Y-84035518I32J5000000D01*
G01*
X147024466Y-84035534D02*
G75*
G02*
X143488932Y-85500023I-3535566J3535534D01*
G01*
%TO.N,/SWA2*%
X151785534Y-67445534D02*
G75*
G02*
X153250023Y-70981068I-3535534J-3535566D01*
G01*
%TO.N,/VA*%
X134255534Y-68550421D02*
G75*
G02*
X135720032Y-72085955I-3535534J-3535579D01*
G01*
%TO.N,Net-(C3-Pad2)*%
X126475534Y-62285534D02*
G75*
G03*
X130011068Y-63750023I3535566J3535534D01*
G01*
%TO.N,Net-(Q1-Pad3)*%
X130114466Y-53364466D02*
G75*
G02*
X128649977Y-49828932I3535534J3535566D01*
G01*
%TO.N,Net-(Q2-E)*%
X156490646Y-43121854D02*
G75*
G03*
X157955123Y-39586320I-3535546J3535554D01*
G01*
%TO.N,/SWA2*%
X154378932Y-71500000D02*
G75*
G02*
X157914450Y-72964482I-32J-5000000D01*
G01*
%TO.N,Net-(C3-Pad1)*%
X130500000Y-76571068D02*
G75*
G03*
X129035518Y-73035550I-5000000J-32D01*
G01*
%TO.N,/SWA2*%
X154264466Y-55869899D02*
G75*
G03*
X152800023Y-59405433I3535534J-3535501D01*
G01*
X156700000Y-51363297D02*
G75*
G02*
X155235535Y-54898832I-5000000J-3D01*
G01*
%TO.N,/VA*%
X139686180Y-75690000D02*
G75*
G02*
X136150656Y-74225524I20J5000000D01*
G01*
%TO.N,Net-(C7-Pad1)*%
X129759354Y-42699354D02*
G75*
G02*
X128294877Y-39163820I3535546J3535554D01*
G01*
%TO.N,/VA*%
X134285534Y-68419579D02*
G75*
G03*
X135750032Y-64884045I-3535534J3535579D01*
G01*
%TO.N,Net-(C3-Pad1)*%
X127750000Y-67821068D02*
G75*
G03*
X126285518Y-64285550I-5000000J-32D01*
G01*
X130500000Y-90428932D02*
G75*
G02*
X129035518Y-93964450I-5000000J32D01*
G01*
X127750000Y-71750000D02*
X129035534Y-73035534D01*
X127750000Y-68440000D02*
X127750000Y-71750000D01*
X130500000Y-76571068D02*
X130500000Y-90428932D01*
X129035534Y-93964466D02*
X126000000Y-97000000D01*
%TO.N,Net-(C7-Pad1)*%
X130850000Y-48300000D02*
X130850000Y-44210000D01*
X130850000Y-44210000D02*
X131060000Y-44000000D01*
%TO.N,Net-(D2-A)*%
X135380000Y-83000000D02*
X136415534Y-84035534D01*
X139951068Y-85500000D02*
X143488932Y-85500000D01*
X147024466Y-84035534D02*
X147750000Y-83310000D01*
%TO.N,+9V*%
X148410000Y-88250000D02*
X141107142Y-95552858D01*
X141107142Y-95552858D02*
X141107142Y-97000000D01*
%TO.N,Net-(D1-K)*%
X151084466Y-83785534D02*
X151500000Y-83370000D01*
%TO.N,/SWB1*%
X161810000Y-50500000D02*
X161810000Y-54690000D01*
X161810000Y-54690000D02*
X161750000Y-54750000D01*
%TO.N,/SWB2*%
X161750000Y-62370000D02*
X161750000Y-64720000D01*
X161750000Y-64720000D02*
X160790000Y-65680000D01*
X157000000Y-62310000D02*
X161690000Y-62310000D01*
X161690000Y-62310000D02*
X161750000Y-62370000D01*
X161250000Y-97000000D02*
X161250000Y-96000000D01*
X161250000Y-96000000D02*
X161890000Y-95360000D01*
%TO.N,/SWA2*%
X153250000Y-71500000D02*
X154378932Y-71500000D01*
X157914466Y-72964466D02*
X158250000Y-73300000D01*
X149780000Y-65440000D02*
X151785534Y-67445534D01*
X153250000Y-70981068D02*
X153250000Y-71500000D01*
X147750000Y-65440000D02*
X149780000Y-65440000D01*
X149780000Y-65440000D02*
X152800000Y-62420000D01*
X156700000Y-44812500D02*
X156700000Y-51363297D01*
X155235534Y-54898831D02*
X154264466Y-55869899D01*
X152800000Y-59405433D02*
X152800000Y-62420000D01*
%TO.N,Net-(Q2-E)*%
X157955112Y-37000000D02*
X157955112Y-39586320D01*
X156490646Y-43121854D02*
X154800000Y-44812500D01*
X157955112Y-37000000D02*
X159060000Y-37000000D01*
X159060000Y-37000000D02*
X162000000Y-39940000D01*
%TO.N,Net-(C7-Pad1)*%
X128294888Y-36500000D02*
X128294888Y-39163820D01*
X129759354Y-42699354D02*
X131060000Y-44000000D01*
%TO.N,/VA*%
X147750000Y-75690000D02*
X151440000Y-75690000D01*
X151440000Y-75690000D02*
X151500000Y-75750000D01*
X135720000Y-73794888D02*
X136150646Y-74225534D01*
X139686180Y-75690000D02*
X147750000Y-75690000D01*
X135720000Y-73794888D02*
X135720000Y-72085955D01*
X134255534Y-68550421D02*
X134205113Y-68500000D01*
X135750000Y-62370000D02*
X135750000Y-64884045D01*
X134285534Y-68419579D02*
X134205113Y-68500000D01*
%TO.N,Net-(C4-Pad1)*%
X135750000Y-54750000D02*
X141211891Y-54750000D01*
X141211891Y-54750000D02*
X141751666Y-55289775D01*
X130850000Y-50200000D02*
X131200000Y-50200000D01*
X131200000Y-50200000D02*
X135750000Y-54750000D01*
%TO.N,Net-(Q1-Pad3)*%
X128650000Y-49250000D02*
X128650000Y-49828932D01*
X130114466Y-53364466D02*
X130750000Y-54000000D01*
X130560000Y-58750000D02*
X130560000Y-54190000D01*
X130560000Y-54190000D02*
X130750000Y-54000000D01*
%TO.N,Net-(C3-Pad2)*%
X130750000Y-63750000D02*
X130011068Y-63750000D01*
X126475534Y-62285534D02*
X122940000Y-58750000D01*
%TO.N,Net-(C3-Pad1)*%
X127750000Y-68440000D02*
X127750000Y-67821068D01*
X126285534Y-64285534D02*
X125750000Y-63750000D01*
%TD*%
%TA.AperFunction,Conductor*%
%TO.N,Earth*%
G36*
X164942539Y-23270185D02*
G01*
X164988294Y-23322989D01*
X164999500Y-23374500D01*
X164999500Y-100875500D01*
X164979815Y-100942539D01*
X164927011Y-100988294D01*
X164875500Y-100999500D01*
X121374500Y-100999500D01*
X121307461Y-100979815D01*
X121261706Y-100927011D01*
X121250500Y-100875500D01*
X121250500Y-89606797D01*
X121270185Y-89539758D01*
X121322989Y-89494003D01*
X121392147Y-89484059D01*
X121455703Y-89513084D01*
X121492431Y-89568479D01*
X121514125Y-89635247D01*
X121514127Y-89635252D01*
X121642704Y-89908491D01*
X121642707Y-89908497D01*
X121804516Y-90163469D01*
X121885311Y-90261133D01*
X122813708Y-89332736D01*
X122910967Y-89466602D01*
X123033398Y-89589033D01*
X123167262Y-89686290D01*
X122236564Y-90616987D01*
X122236565Y-90616989D01*
X122461461Y-90780385D01*
X122461479Y-90780397D01*
X122726109Y-90925878D01*
X122726117Y-90925882D01*
X123006889Y-91037047D01*
X123006892Y-91037048D01*
X123299399Y-91112150D01*
X123598995Y-91149999D01*
X123599007Y-91150000D01*
X123900993Y-91150000D01*
X123901004Y-91149999D01*
X124200600Y-91112150D01*
X124493107Y-91037048D01*
X124493110Y-91037047D01*
X124773882Y-90925882D01*
X124773890Y-90925878D01*
X125038520Y-90780397D01*
X125038530Y-90780390D01*
X125263433Y-90616987D01*
X125263434Y-90616987D01*
X124332737Y-89686290D01*
X124466602Y-89589033D01*
X124589033Y-89466602D01*
X124686290Y-89332737D01*
X125614687Y-90261134D01*
X125695486Y-90163464D01*
X125857292Y-89908497D01*
X125857295Y-89908491D01*
X125985872Y-89635252D01*
X125985874Y-89635247D01*
X126079194Y-89348040D01*
X126135783Y-89051390D01*
X126135784Y-89051383D01*
X126154745Y-88750005D01*
X126154745Y-88749994D01*
X126135784Y-88448616D01*
X126135783Y-88448609D01*
X126079194Y-88151959D01*
X125985874Y-87864752D01*
X125985872Y-87864747D01*
X125857295Y-87591508D01*
X125857292Y-87591502D01*
X125695483Y-87336530D01*
X125614686Y-87238864D01*
X124686289Y-88167261D01*
X124589033Y-88033398D01*
X124466602Y-87910967D01*
X124332736Y-87813709D01*
X125263434Y-86883011D01*
X125263433Y-86883009D01*
X125038538Y-86719614D01*
X125038520Y-86719602D01*
X124773890Y-86574121D01*
X124773882Y-86574117D01*
X124493110Y-86462952D01*
X124493107Y-86462951D01*
X124200600Y-86387849D01*
X123901004Y-86350000D01*
X123598995Y-86350000D01*
X123299399Y-86387849D01*
X123006892Y-86462951D01*
X123006889Y-86462952D01*
X122726117Y-86574117D01*
X122726109Y-86574121D01*
X122461476Y-86719604D01*
X122461471Y-86719607D01*
X122236565Y-86883010D01*
X122236564Y-86883011D01*
X123167262Y-87813709D01*
X123033398Y-87910967D01*
X122910967Y-88033398D01*
X122813709Y-88167262D01*
X121885311Y-87238864D01*
X121804520Y-87336525D01*
X121804518Y-87336528D01*
X121642707Y-87591502D01*
X121642704Y-87591508D01*
X121514127Y-87864747D01*
X121514125Y-87864752D01*
X121492431Y-87931520D01*
X121452993Y-87989196D01*
X121388635Y-88016394D01*
X121319788Y-88004479D01*
X121268313Y-87957235D01*
X121250500Y-87893202D01*
X121250500Y-75809999D01*
X126471127Y-75809999D01*
X126471128Y-75810000D01*
X127434314Y-75810000D01*
X127429920Y-75814394D01*
X127377259Y-75905606D01*
X127350000Y-76007339D01*
X127350000Y-76112661D01*
X127377259Y-76214394D01*
X127429920Y-76305606D01*
X127434314Y-76310000D01*
X126471128Y-76310000D01*
X126523730Y-76506317D01*
X126523734Y-76506326D01*
X126619865Y-76712482D01*
X126750342Y-76898820D01*
X126911179Y-77059657D01*
X127097517Y-77190134D01*
X127303673Y-77286265D01*
X127303682Y-77286269D01*
X127499999Y-77338872D01*
X127500000Y-77338871D01*
X127500000Y-76375686D01*
X127504394Y-76380080D01*
X127595606Y-76432741D01*
X127697339Y-76460000D01*
X127802661Y-76460000D01*
X127904394Y-76432741D01*
X127995606Y-76380080D01*
X128000000Y-76375686D01*
X128000000Y-77338872D01*
X128196317Y-77286269D01*
X128196326Y-77286265D01*
X128402482Y-77190134D01*
X128588820Y-77059657D01*
X128749657Y-76898820D01*
X128880134Y-76712482D01*
X128976265Y-76506326D01*
X128976269Y-76506317D01*
X129028872Y-76310000D01*
X128065686Y-76310000D01*
X128070080Y-76305606D01*
X128122741Y-76214394D01*
X128150000Y-76112661D01*
X128150000Y-76007339D01*
X128122741Y-75905606D01*
X128070080Y-75814394D01*
X128065686Y-75810000D01*
X129028872Y-75810000D01*
X129028872Y-75809999D01*
X128976269Y-75613682D01*
X128976265Y-75613673D01*
X128880134Y-75407517D01*
X128749657Y-75221179D01*
X128588820Y-75060342D01*
X128402482Y-74929865D01*
X128196328Y-74833734D01*
X128000000Y-74781127D01*
X128000000Y-75744314D01*
X127995606Y-75739920D01*
X127904394Y-75687259D01*
X127802661Y-75660000D01*
X127697339Y-75660000D01*
X127595606Y-75687259D01*
X127504394Y-75739920D01*
X127500000Y-75744314D01*
X127500000Y-74781127D01*
X127303671Y-74833734D01*
X127097517Y-74929865D01*
X126911179Y-75060342D01*
X126750342Y-75221179D01*
X126619865Y-75407517D01*
X126523734Y-75613673D01*
X126523730Y-75613682D01*
X126471127Y-75809999D01*
X121250500Y-75809999D01*
X121250500Y-58749998D01*
X121634532Y-58749998D01*
X121634532Y-58750001D01*
X121654364Y-58976686D01*
X121654366Y-58976697D01*
X121713258Y-59196488D01*
X121713261Y-59196497D01*
X121809431Y-59402732D01*
X121809432Y-59402734D01*
X121939954Y-59589141D01*
X122100858Y-59750045D01*
X122100861Y-59750047D01*
X122287266Y-59880568D01*
X122493504Y-59976739D01*
X122713308Y-60035635D01*
X122875230Y-60049801D01*
X122939998Y-60055468D01*
X122940000Y-60055468D01*
X122940002Y-60055468D01*
X122996673Y-60050509D01*
X123166692Y-60035635D01*
X123262932Y-60009847D01*
X123332781Y-60011510D01*
X123382706Y-60041941D01*
X125594452Y-62253687D01*
X125627937Y-62315010D01*
X125622953Y-62384702D01*
X125581081Y-62440635D01*
X125528304Y-62463484D01*
X125523309Y-62464364D01*
X125303511Y-62523258D01*
X125303502Y-62523261D01*
X125097267Y-62619431D01*
X125097265Y-62619432D01*
X124910858Y-62749954D01*
X124749954Y-62910858D01*
X124619432Y-63097265D01*
X124619431Y-63097267D01*
X124523261Y-63303502D01*
X124523258Y-63303511D01*
X124464366Y-63523302D01*
X124464364Y-63523313D01*
X124444532Y-63749998D01*
X124444532Y-63750001D01*
X124464364Y-63976686D01*
X124464366Y-63976697D01*
X124523258Y-64196488D01*
X124523261Y-64196497D01*
X124619431Y-64402732D01*
X124619432Y-64402734D01*
X124749954Y-64589141D01*
X124910858Y-64750045D01*
X124910861Y-64750047D01*
X125097266Y-64880568D01*
X125303504Y-64976739D01*
X125303509Y-64976740D01*
X125303511Y-64976741D01*
X125306508Y-64977544D01*
X125523308Y-65035635D01*
X125685230Y-65049801D01*
X125749998Y-65055468D01*
X125750000Y-65055468D01*
X125750002Y-65055468D01*
X125806673Y-65050509D01*
X125976692Y-65035635D01*
X126042767Y-65017930D01*
X126112613Y-65019593D01*
X126170476Y-65058755D01*
X126173198Y-65062174D01*
X126350575Y-65293332D01*
X126356771Y-65302182D01*
X126557178Y-65616754D01*
X126562585Y-65626120D01*
X126576730Y-65653291D01*
X126734809Y-65956955D01*
X126739381Y-65966759D01*
X126882117Y-66311348D01*
X126885817Y-66321513D01*
X126997976Y-66677230D01*
X127000775Y-66687679D01*
X127081507Y-67051824D01*
X127083386Y-67062477D01*
X127104505Y-67222883D01*
X127093740Y-67291918D01*
X127052689Y-67340644D01*
X126910859Y-67439953D01*
X126749954Y-67600858D01*
X126619432Y-67787265D01*
X126619431Y-67787267D01*
X126523261Y-67993502D01*
X126523258Y-67993511D01*
X126464366Y-68213302D01*
X126464364Y-68213313D01*
X126444532Y-68439998D01*
X126444532Y-68440001D01*
X126464364Y-68666686D01*
X126464366Y-68666697D01*
X126523258Y-68886488D01*
X126523261Y-68886497D01*
X126619431Y-69092732D01*
X126619432Y-69092734D01*
X126749954Y-69279141D01*
X126910858Y-69440045D01*
X126910861Y-69440047D01*
X127096624Y-69570118D01*
X127140248Y-69624693D01*
X127149500Y-69671692D01*
X127149500Y-71663330D01*
X127149499Y-71663348D01*
X127149499Y-71829054D01*
X127149498Y-71829054D01*
X127152371Y-71839777D01*
X127190423Y-71981785D01*
X127204351Y-72005909D01*
X127269477Y-72118712D01*
X127269481Y-72118717D01*
X127388349Y-72237585D01*
X127388355Y-72237590D01*
X128591403Y-73440639D01*
X128608995Y-73458231D01*
X128612736Y-73462138D01*
X128709915Y-73568190D01*
X128866562Y-73739138D01*
X128873512Y-73747421D01*
X128987040Y-73895373D01*
X129100566Y-74043321D01*
X129106771Y-74052182D01*
X129162171Y-74139141D01*
X129306358Y-74365468D01*
X129307178Y-74366754D01*
X129312587Y-74376123D01*
X129484809Y-74706955D01*
X129489381Y-74716759D01*
X129632117Y-75061348D01*
X129635817Y-75071513D01*
X129747976Y-75427230D01*
X129750775Y-75437679D01*
X129831507Y-75801824D01*
X129833386Y-75812477D01*
X129882071Y-76182259D01*
X129883014Y-76193035D01*
X129899382Y-76567865D01*
X129899500Y-76573275D01*
X129899500Y-90426220D01*
X129899382Y-90431630D01*
X129882992Y-90806962D01*
X129882049Y-90817738D01*
X129833364Y-91187518D01*
X129831486Y-91198171D01*
X129750755Y-91562314D01*
X129747955Y-91572763D01*
X129635796Y-91928479D01*
X129632096Y-91938645D01*
X129489361Y-92283231D01*
X129484789Y-92293034D01*
X129312568Y-92623865D01*
X129307159Y-92633234D01*
X129106753Y-92947804D01*
X129100549Y-92956664D01*
X128938715Y-93167570D01*
X128873499Y-93252560D01*
X128866545Y-93260847D01*
X128612381Y-93538216D01*
X128608642Y-93542121D01*
X128559363Y-93591402D01*
X128559361Y-93591404D01*
X127285446Y-94865317D01*
X127224123Y-94898802D01*
X127154431Y-94893818D01*
X127138028Y-94886298D01*
X127024103Y-94823667D01*
X127024095Y-94823663D01*
X126743265Y-94712475D01*
X126743262Y-94712474D01*
X126450695Y-94637357D01*
X126151036Y-94599500D01*
X126151027Y-94599500D01*
X125848973Y-94599500D01*
X125848963Y-94599500D01*
X125549304Y-94637357D01*
X125256737Y-94712474D01*
X125256734Y-94712475D01*
X124975904Y-94823663D01*
X124975903Y-94823664D01*
X124711205Y-94969184D01*
X124711193Y-94969191D01*
X124466846Y-95146719D01*
X124466836Y-95146727D01*
X124246652Y-95353494D01*
X124054111Y-95586236D01*
X123892268Y-95841261D01*
X123892265Y-95841267D01*
X123763661Y-96114563D01*
X123763659Y-96114568D01*
X123670320Y-96401835D01*
X123613719Y-96698546D01*
X123613718Y-96698553D01*
X123594754Y-96999994D01*
X123594754Y-97000005D01*
X123613718Y-97301446D01*
X123613719Y-97301453D01*
X123670320Y-97598164D01*
X123763659Y-97885431D01*
X123763661Y-97885436D01*
X123892265Y-98158732D01*
X123892268Y-98158738D01*
X124054111Y-98413763D01*
X124246652Y-98646505D01*
X124466836Y-98853272D01*
X124466846Y-98853280D01*
X124711193Y-99030808D01*
X124711198Y-99030810D01*
X124711205Y-99030816D01*
X124975896Y-99176332D01*
X124975901Y-99176334D01*
X124975903Y-99176335D01*
X124975904Y-99176336D01*
X125256734Y-99287524D01*
X125256737Y-99287525D01*
X125354259Y-99312564D01*
X125549302Y-99362642D01*
X125696039Y-99381179D01*
X125848963Y-99400499D01*
X125848969Y-99400499D01*
X125848973Y-99400500D01*
X125848975Y-99400500D01*
X126151025Y-99400500D01*
X126151027Y-99400500D01*
X126151032Y-99400499D01*
X126151036Y-99400499D01*
X126230591Y-99390448D01*
X126450698Y-99362642D01*
X126743262Y-99287525D01*
X126744467Y-99287048D01*
X127024095Y-99176336D01*
X127024096Y-99176335D01*
X127024094Y-99176335D01*
X127024104Y-99176332D01*
X127288795Y-99030816D01*
X127533162Y-98853274D01*
X127753349Y-98646504D01*
X127945885Y-98413768D01*
X128107733Y-98158736D01*
X128236341Y-97885430D01*
X128329681Y-97598160D01*
X128386280Y-97301457D01*
X128391483Y-97218767D01*
X128394352Y-97173157D01*
X128418206Y-97107485D01*
X128473779Y-97065136D01*
X128543425Y-97059554D01*
X128605033Y-97092512D01*
X128639043Y-97153546D01*
X128641862Y-97173156D01*
X128649929Y-97301383D01*
X128649930Y-97301390D01*
X128706519Y-97598040D01*
X128799839Y-97885247D01*
X128799841Y-97885252D01*
X128928418Y-98158491D01*
X128928421Y-98158497D01*
X129090230Y-98413469D01*
X129171025Y-98511133D01*
X130358135Y-97324024D01*
X130371073Y-97355258D01*
X130453151Y-97478097D01*
X130557617Y-97582563D01*
X130680456Y-97664641D01*
X130711689Y-97677578D01*
X129522278Y-98866987D01*
X129522279Y-98866989D01*
X129747175Y-99030385D01*
X129747193Y-99030397D01*
X130011823Y-99175878D01*
X130011831Y-99175882D01*
X130292603Y-99287047D01*
X130292606Y-99287048D01*
X130585113Y-99362150D01*
X130884709Y-99399999D01*
X130884721Y-99400000D01*
X131186707Y-99400000D01*
X131186718Y-99399999D01*
X131486314Y-99362150D01*
X131778821Y-99287048D01*
X131778824Y-99287047D01*
X132059596Y-99175882D01*
X132059604Y-99175878D01*
X132324234Y-99030397D01*
X132324244Y-99030390D01*
X132549147Y-98866987D01*
X132549148Y-98866987D01*
X131359738Y-97677578D01*
X131390972Y-97664641D01*
X131513811Y-97582563D01*
X131618277Y-97478097D01*
X131700355Y-97355258D01*
X131713292Y-97324025D01*
X132900401Y-98511134D01*
X132981200Y-98413464D01*
X133143006Y-98158497D01*
X133143009Y-98158491D01*
X133271586Y-97885252D01*
X133271588Y-97885247D01*
X133364908Y-97598040D01*
X133421497Y-97301390D01*
X133421498Y-97301383D01*
X133429816Y-97169174D01*
X133453671Y-97103503D01*
X133509243Y-97061154D01*
X133578890Y-97055572D01*
X133640498Y-97088531D01*
X133674507Y-97149565D01*
X133677326Y-97169174D01*
X133685643Y-97301383D01*
X133685644Y-97301390D01*
X133742233Y-97598040D01*
X133835553Y-97885247D01*
X133835555Y-97885252D01*
X133964132Y-98158491D01*
X133964135Y-98158497D01*
X134125944Y-98413469D01*
X134206739Y-98511133D01*
X135393849Y-97324024D01*
X135406787Y-97355258D01*
X135488865Y-97478097D01*
X135593331Y-97582563D01*
X135716170Y-97664641D01*
X135747403Y-97677578D01*
X134557992Y-98866987D01*
X134557993Y-98866989D01*
X134782889Y-99030385D01*
X134782907Y-99030397D01*
X135047537Y-99175878D01*
X135047545Y-99175882D01*
X135328317Y-99287047D01*
X135328320Y-99287048D01*
X135620827Y-99362150D01*
X135920423Y-99399999D01*
X135920435Y-99400000D01*
X136222421Y-99400000D01*
X136222432Y-99399999D01*
X136522028Y-99362150D01*
X136814535Y-99287048D01*
X136814538Y-99287047D01*
X137095310Y-99175882D01*
X137095318Y-99175878D01*
X137359948Y-99030397D01*
X137359958Y-99030390D01*
X137584861Y-98866987D01*
X137584862Y-98866987D01*
X136395452Y-97677578D01*
X136426686Y-97664641D01*
X136549525Y-97582563D01*
X136653991Y-97478097D01*
X136736069Y-97355258D01*
X136749006Y-97324025D01*
X137936115Y-98511134D01*
X138016914Y-98413464D01*
X138178720Y-98158497D01*
X138178723Y-98158491D01*
X138307300Y-97885252D01*
X138307302Y-97885247D01*
X138400622Y-97598040D01*
X138457211Y-97301390D01*
X138457212Y-97301382D01*
X138465279Y-97173157D01*
X138489133Y-97107485D01*
X138544706Y-97065136D01*
X138614352Y-97059554D01*
X138675960Y-97092512D01*
X138709970Y-97153546D01*
X138712789Y-97173156D01*
X138720860Y-97301446D01*
X138720861Y-97301453D01*
X138777462Y-97598164D01*
X138870801Y-97885431D01*
X138870803Y-97885436D01*
X138999407Y-98158732D01*
X138999410Y-98158738D01*
X139161253Y-98413763D01*
X139353794Y-98646505D01*
X139573978Y-98853272D01*
X139573988Y-98853280D01*
X139818335Y-99030808D01*
X139818340Y-99030810D01*
X139818347Y-99030816D01*
X140083038Y-99176332D01*
X140083043Y-99176334D01*
X140083045Y-99176335D01*
X140083046Y-99176336D01*
X140363876Y-99287524D01*
X140363879Y-99287525D01*
X140461401Y-99312564D01*
X140656444Y-99362642D01*
X140803181Y-99381179D01*
X140956105Y-99400499D01*
X140956111Y-99400499D01*
X140956115Y-99400500D01*
X140956117Y-99400500D01*
X141258167Y-99400500D01*
X141258169Y-99400500D01*
X141258174Y-99400499D01*
X141258178Y-99400499D01*
X141337733Y-99390448D01*
X141557840Y-99362642D01*
X141850404Y-99287525D01*
X141851609Y-99287048D01*
X142131237Y-99176336D01*
X142131238Y-99176335D01*
X142131236Y-99176335D01*
X142131246Y-99176332D01*
X142395937Y-99030816D01*
X142640304Y-98853274D01*
X142860491Y-98646504D01*
X143053027Y-98413768D01*
X143214875Y-98158736D01*
X143343483Y-97885430D01*
X143436823Y-97598160D01*
X143493422Y-97301457D01*
X143498625Y-97218767D01*
X143501494Y-97173157D01*
X143525348Y-97107485D01*
X143580921Y-97065136D01*
X143650567Y-97059554D01*
X143712175Y-97092512D01*
X143746185Y-97153546D01*
X143749004Y-97173156D01*
X143757071Y-97301383D01*
X143757072Y-97301390D01*
X143813661Y-97598040D01*
X143906981Y-97885247D01*
X143906983Y-97885252D01*
X144035560Y-98158491D01*
X144035563Y-98158497D01*
X144197372Y-98413469D01*
X144278167Y-98511133D01*
X145465277Y-97324024D01*
X145478215Y-97355258D01*
X145560293Y-97478097D01*
X145664759Y-97582563D01*
X145787598Y-97664641D01*
X145818831Y-97677578D01*
X144629420Y-98866987D01*
X144629421Y-98866989D01*
X144854317Y-99030385D01*
X144854335Y-99030397D01*
X145118965Y-99175878D01*
X145118973Y-99175882D01*
X145399745Y-99287047D01*
X145399748Y-99287048D01*
X145692255Y-99362150D01*
X145991851Y-99399999D01*
X145991863Y-99400000D01*
X146293849Y-99400000D01*
X146293860Y-99399999D01*
X146593456Y-99362150D01*
X146885963Y-99287048D01*
X146885966Y-99287047D01*
X147166738Y-99175882D01*
X147166746Y-99175878D01*
X147431376Y-99030397D01*
X147431386Y-99030390D01*
X147656289Y-98866987D01*
X147656290Y-98866987D01*
X146466880Y-97677578D01*
X146498114Y-97664641D01*
X146620953Y-97582563D01*
X146725419Y-97478097D01*
X146807497Y-97355258D01*
X146820434Y-97324025D01*
X148007543Y-98511134D01*
X148088342Y-98413464D01*
X148250148Y-98158497D01*
X148250151Y-98158491D01*
X148378728Y-97885252D01*
X148378730Y-97885247D01*
X148472050Y-97598040D01*
X148528639Y-97301390D01*
X148528640Y-97301382D01*
X148536707Y-97173157D01*
X148560561Y-97107485D01*
X148616134Y-97065136D01*
X148685780Y-97059554D01*
X148747388Y-97092512D01*
X148781398Y-97153546D01*
X148784217Y-97173156D01*
X148792288Y-97301446D01*
X148792289Y-97301453D01*
X148848890Y-97598164D01*
X148942229Y-97885431D01*
X148942231Y-97885436D01*
X149070835Y-98158732D01*
X149070838Y-98158738D01*
X149232681Y-98413763D01*
X149425222Y-98646505D01*
X149645406Y-98853272D01*
X149645416Y-98853280D01*
X149889763Y-99030808D01*
X149889768Y-99030810D01*
X149889775Y-99030816D01*
X150154466Y-99176332D01*
X150154471Y-99176334D01*
X150154473Y-99176335D01*
X150154474Y-99176336D01*
X150435304Y-99287524D01*
X150435307Y-99287525D01*
X150532829Y-99312564D01*
X150727872Y-99362642D01*
X150874609Y-99381179D01*
X151027533Y-99400499D01*
X151027539Y-99400499D01*
X151027543Y-99400500D01*
X151027545Y-99400500D01*
X151329595Y-99400500D01*
X151329597Y-99400500D01*
X151329602Y-99400499D01*
X151329606Y-99400499D01*
X151409161Y-99390448D01*
X151629268Y-99362642D01*
X151921832Y-99287525D01*
X151923037Y-99287048D01*
X152202665Y-99176336D01*
X152202666Y-99176335D01*
X152202664Y-99176335D01*
X152202674Y-99176332D01*
X152467365Y-99030816D01*
X152711732Y-98853274D01*
X152931919Y-98646504D01*
X153124455Y-98413768D01*
X153286303Y-98158736D01*
X153414911Y-97885430D01*
X153508251Y-97598160D01*
X153564850Y-97301457D01*
X153570053Y-97218767D01*
X153572922Y-97173157D01*
X153596776Y-97107485D01*
X153652349Y-97065136D01*
X153721995Y-97059554D01*
X153783603Y-97092512D01*
X153817613Y-97153546D01*
X153820432Y-97173156D01*
X153828499Y-97301383D01*
X153828500Y-97301390D01*
X153885089Y-97598040D01*
X153978409Y-97885247D01*
X153978411Y-97885252D01*
X154106988Y-98158491D01*
X154106991Y-98158497D01*
X154268800Y-98413469D01*
X154349595Y-98511133D01*
X155536705Y-97324024D01*
X155549643Y-97355258D01*
X155631721Y-97478097D01*
X155736187Y-97582563D01*
X155859026Y-97664641D01*
X155890259Y-97677578D01*
X154700848Y-98866987D01*
X154700849Y-98866989D01*
X154925745Y-99030385D01*
X154925763Y-99030397D01*
X155190393Y-99175878D01*
X155190401Y-99175882D01*
X155471173Y-99287047D01*
X155471176Y-99287048D01*
X155763683Y-99362150D01*
X156063279Y-99399999D01*
X156063291Y-99400000D01*
X156365277Y-99400000D01*
X156365288Y-99399999D01*
X156664884Y-99362150D01*
X156957391Y-99287048D01*
X156957394Y-99287047D01*
X157238166Y-99175882D01*
X157238174Y-99175878D01*
X157502804Y-99030397D01*
X157502814Y-99030390D01*
X157727717Y-98866987D01*
X157727718Y-98866987D01*
X156538308Y-97677578D01*
X156569542Y-97664641D01*
X156692381Y-97582563D01*
X156796847Y-97478097D01*
X156878925Y-97355258D01*
X156891862Y-97324024D01*
X158078971Y-98511134D01*
X158159770Y-98413464D01*
X158321576Y-98158497D01*
X158321579Y-98158491D01*
X158450156Y-97885252D01*
X158450158Y-97885247D01*
X158543478Y-97598040D01*
X158600067Y-97301390D01*
X158600068Y-97301382D01*
X158608136Y-97173141D01*
X158631990Y-97107469D01*
X158687563Y-97065120D01*
X158757209Y-97059538D01*
X158818817Y-97092496D01*
X158852827Y-97153530D01*
X158855646Y-97173140D01*
X158863718Y-97301446D01*
X158863719Y-97301453D01*
X158920320Y-97598164D01*
X159013659Y-97885431D01*
X159013661Y-97885436D01*
X159142265Y-98158732D01*
X159142268Y-98158738D01*
X159304111Y-98413763D01*
X159496652Y-98646505D01*
X159716836Y-98853272D01*
X159716846Y-98853280D01*
X159961193Y-99030808D01*
X159961198Y-99030810D01*
X159961205Y-99030816D01*
X160225896Y-99176332D01*
X160225901Y-99176334D01*
X160225903Y-99176335D01*
X160225904Y-99176336D01*
X160506734Y-99287524D01*
X160506737Y-99287525D01*
X160604259Y-99312564D01*
X160799302Y-99362642D01*
X160946039Y-99381179D01*
X161098963Y-99400499D01*
X161098969Y-99400499D01*
X161098973Y-99400500D01*
X161098975Y-99400500D01*
X161401025Y-99400500D01*
X161401027Y-99400500D01*
X161401032Y-99400499D01*
X161401036Y-99400499D01*
X161480591Y-99390448D01*
X161700698Y-99362642D01*
X161993262Y-99287525D01*
X161994467Y-99287048D01*
X162274095Y-99176336D01*
X162274096Y-99176335D01*
X162274094Y-99176335D01*
X162274104Y-99176332D01*
X162538795Y-99030816D01*
X162783162Y-98853274D01*
X163003349Y-98646504D01*
X163195885Y-98413768D01*
X163357733Y-98158736D01*
X163486341Y-97885430D01*
X163579681Y-97598160D01*
X163636280Y-97301457D01*
X163636281Y-97301445D01*
X163655246Y-97000005D01*
X163655246Y-96999994D01*
X163636281Y-96698553D01*
X163636280Y-96698546D01*
X163636280Y-96698543D01*
X163579681Y-96401840D01*
X163486341Y-96114570D01*
X163357733Y-95841264D01*
X163275573Y-95711800D01*
X163195888Y-95586236D01*
X163003347Y-95353494D01*
X162783163Y-95146727D01*
X162783153Y-95146719D01*
X162538806Y-94969191D01*
X162538799Y-94969186D01*
X162538795Y-94969184D01*
X162274104Y-94823668D01*
X162274101Y-94823666D01*
X162274096Y-94823664D01*
X162274095Y-94823663D01*
X161993265Y-94712475D01*
X161993262Y-94712474D01*
X161700695Y-94637357D01*
X161401036Y-94599500D01*
X161401027Y-94599500D01*
X161098973Y-94599500D01*
X161098963Y-94599500D01*
X160799304Y-94637357D01*
X160506737Y-94712474D01*
X160506734Y-94712475D01*
X160225904Y-94823663D01*
X160225903Y-94823664D01*
X159961205Y-94969184D01*
X159961193Y-94969191D01*
X159716846Y-95146719D01*
X159716836Y-95146727D01*
X159496652Y-95353494D01*
X159304111Y-95586236D01*
X159142268Y-95841261D01*
X159142265Y-95841267D01*
X159013661Y-96114563D01*
X159013659Y-96114568D01*
X158920320Y-96401835D01*
X158863719Y-96698546D01*
X158863718Y-96698553D01*
X158855646Y-96826859D01*
X158831791Y-96892530D01*
X158776218Y-96934879D01*
X158706572Y-96940461D01*
X158644964Y-96907502D01*
X158610955Y-96846468D01*
X158608136Y-96826858D01*
X158600068Y-96698617D01*
X158600067Y-96698609D01*
X158543478Y-96401959D01*
X158450158Y-96114752D01*
X158450156Y-96114747D01*
X158321579Y-95841508D01*
X158321576Y-95841502D01*
X158159767Y-95586530D01*
X158078970Y-95488864D01*
X156891861Y-96675974D01*
X156878925Y-96644742D01*
X156796847Y-96521903D01*
X156692381Y-96417437D01*
X156569542Y-96335359D01*
X156538308Y-96322421D01*
X157727718Y-95133011D01*
X157727717Y-95133009D01*
X157502822Y-94969614D01*
X157502804Y-94969602D01*
X157238174Y-94824121D01*
X157238166Y-94824117D01*
X156957394Y-94712952D01*
X156957391Y-94712951D01*
X156664884Y-94637849D01*
X156365288Y-94600000D01*
X156063279Y-94600000D01*
X155763683Y-94637849D01*
X155471176Y-94712951D01*
X155471173Y-94712952D01*
X155190401Y-94824117D01*
X155190393Y-94824121D01*
X154925760Y-94969604D01*
X154925755Y-94969607D01*
X154700849Y-95133010D01*
X154700848Y-95133011D01*
X155890259Y-96322421D01*
X155859026Y-96335359D01*
X155736187Y-96417437D01*
X155631721Y-96521903D01*
X155549643Y-96644742D01*
X155536705Y-96675974D01*
X154349595Y-95488864D01*
X154268804Y-95586525D01*
X154268802Y-95586528D01*
X154106991Y-95841502D01*
X154106988Y-95841508D01*
X153978411Y-96114747D01*
X153978409Y-96114752D01*
X153885089Y-96401959D01*
X153828500Y-96698609D01*
X153828499Y-96698616D01*
X153820432Y-96826843D01*
X153796577Y-96892514D01*
X153741004Y-96934863D01*
X153671358Y-96940445D01*
X153609750Y-96907486D01*
X153575741Y-96846452D01*
X153572922Y-96826842D01*
X153564851Y-96698554D01*
X153564850Y-96698546D01*
X153564850Y-96698543D01*
X153508251Y-96401840D01*
X153414911Y-96114570D01*
X153286303Y-95841264D01*
X153204143Y-95711800D01*
X153124458Y-95586236D01*
X152931917Y-95353494D01*
X152711733Y-95146727D01*
X152711723Y-95146719D01*
X152467376Y-94969191D01*
X152467369Y-94969186D01*
X152467365Y-94969184D01*
X152202674Y-94823668D01*
X152202671Y-94823666D01*
X152202666Y-94823664D01*
X152202665Y-94823663D01*
X151921835Y-94712475D01*
X151921832Y-94712474D01*
X151629265Y-94637357D01*
X151329606Y-94599500D01*
X151329597Y-94599500D01*
X151027543Y-94599500D01*
X151027533Y-94599500D01*
X150727874Y-94637357D01*
X150435307Y-94712474D01*
X150435304Y-94712475D01*
X150154474Y-94823663D01*
X150154473Y-94823664D01*
X149889775Y-94969184D01*
X149889763Y-94969191D01*
X149645416Y-95146719D01*
X149645406Y-95146727D01*
X149425222Y-95353494D01*
X149232681Y-95586236D01*
X149070838Y-95841261D01*
X149070835Y-95841267D01*
X148942231Y-96114563D01*
X148942229Y-96114568D01*
X148848890Y-96401835D01*
X148792289Y-96698546D01*
X148792288Y-96698553D01*
X148784217Y-96826843D01*
X148760362Y-96892514D01*
X148704789Y-96934863D01*
X148635143Y-96940445D01*
X148573535Y-96907486D01*
X148539526Y-96846452D01*
X148536707Y-96826842D01*
X148528640Y-96698617D01*
X148528639Y-96698609D01*
X148472050Y-96401959D01*
X148378730Y-96114752D01*
X148378728Y-96114747D01*
X148250151Y-95841508D01*
X148250148Y-95841502D01*
X148088339Y-95586530D01*
X148007542Y-95488864D01*
X146820433Y-96675973D01*
X146807497Y-96644742D01*
X146725419Y-96521903D01*
X146620953Y-96417437D01*
X146498114Y-96335359D01*
X146466880Y-96322421D01*
X147656290Y-95133011D01*
X147656289Y-95133009D01*
X147431394Y-94969614D01*
X147431376Y-94969602D01*
X147166746Y-94824121D01*
X147166738Y-94824117D01*
X146885966Y-94712952D01*
X146885963Y-94712951D01*
X146593456Y-94637849D01*
X146293860Y-94600000D01*
X145991851Y-94600000D01*
X145692255Y-94637849D01*
X145399748Y-94712951D01*
X145399745Y-94712952D01*
X145118973Y-94824117D01*
X145118965Y-94824121D01*
X144854332Y-94969604D01*
X144854327Y-94969607D01*
X144629421Y-95133010D01*
X144629420Y-95133011D01*
X145818831Y-96322421D01*
X145787598Y-96335359D01*
X145664759Y-96417437D01*
X145560293Y-96521903D01*
X145478215Y-96644742D01*
X145465277Y-96675974D01*
X144278167Y-95488864D01*
X144197376Y-95586525D01*
X144197374Y-95586528D01*
X144035563Y-95841502D01*
X144035560Y-95841508D01*
X143906983Y-96114747D01*
X143906981Y-96114752D01*
X143813661Y-96401959D01*
X143757072Y-96698609D01*
X143757071Y-96698616D01*
X143749004Y-96826843D01*
X143725149Y-96892514D01*
X143669576Y-96934863D01*
X143599930Y-96940445D01*
X143538322Y-96907486D01*
X143504313Y-96846452D01*
X143501494Y-96826842D01*
X143493423Y-96698554D01*
X143493422Y-96698546D01*
X143493422Y-96698543D01*
X143436823Y-96401840D01*
X143343483Y-96114570D01*
X143214875Y-95841264D01*
X143132715Y-95711800D01*
X143053030Y-95586236D01*
X142860489Y-95353494D01*
X142640305Y-95146727D01*
X142640302Y-95146724D01*
X142596863Y-95115164D01*
X142554198Y-95059834D01*
X142548219Y-94990220D01*
X142580825Y-94928425D01*
X142581994Y-94927239D01*
X147726944Y-89782289D01*
X147788265Y-89748806D01*
X147857957Y-89753790D01*
X147862031Y-89755393D01*
X147913889Y-89776873D01*
X148158852Y-89835683D01*
X148410000Y-89855449D01*
X148661148Y-89835683D01*
X148906111Y-89776873D01*
X149138859Y-89680466D01*
X149353659Y-89548836D01*
X149545224Y-89385224D01*
X149708836Y-89193659D01*
X149840466Y-88978859D01*
X149935265Y-88749994D01*
X159845255Y-88749994D01*
X159845255Y-88750005D01*
X159864215Y-89051383D01*
X159864216Y-89051390D01*
X159920805Y-89348040D01*
X160014125Y-89635247D01*
X160014127Y-89635252D01*
X160142704Y-89908491D01*
X160142707Y-89908497D01*
X160304516Y-90163469D01*
X160385311Y-90261133D01*
X161313708Y-89332736D01*
X161410967Y-89466602D01*
X161533398Y-89589033D01*
X161667262Y-89686290D01*
X160736564Y-90616987D01*
X160736565Y-90616989D01*
X160961461Y-90780385D01*
X160961479Y-90780397D01*
X161226109Y-90925878D01*
X161226117Y-90925882D01*
X161506889Y-91037047D01*
X161506892Y-91037048D01*
X161799399Y-91112150D01*
X162098995Y-91149999D01*
X162099007Y-91150000D01*
X162400993Y-91150000D01*
X162401004Y-91149999D01*
X162700600Y-91112150D01*
X162993107Y-91037048D01*
X162993110Y-91037047D01*
X163273882Y-90925882D01*
X163273890Y-90925878D01*
X163538520Y-90780397D01*
X163538530Y-90780390D01*
X163763433Y-90616987D01*
X163763434Y-90616987D01*
X162832737Y-89686290D01*
X162966602Y-89589033D01*
X163089033Y-89466602D01*
X163186290Y-89332737D01*
X164114687Y-90261134D01*
X164195486Y-90163464D01*
X164357292Y-89908497D01*
X164357295Y-89908491D01*
X164485872Y-89635252D01*
X164485874Y-89635247D01*
X164579194Y-89348040D01*
X164635783Y-89051390D01*
X164635784Y-89051383D01*
X164654745Y-88750005D01*
X164654745Y-88749994D01*
X164635784Y-88448616D01*
X164635783Y-88448609D01*
X164579194Y-88151959D01*
X164485874Y-87864752D01*
X164485872Y-87864747D01*
X164357295Y-87591508D01*
X164357292Y-87591502D01*
X164195483Y-87336530D01*
X164114686Y-87238864D01*
X163186289Y-88167261D01*
X163089033Y-88033398D01*
X162966602Y-87910967D01*
X162832736Y-87813709D01*
X163763434Y-86883011D01*
X163763433Y-86883009D01*
X163538538Y-86719614D01*
X163538520Y-86719602D01*
X163273890Y-86574121D01*
X163273882Y-86574117D01*
X162993110Y-86462952D01*
X162993107Y-86462951D01*
X162700600Y-86387849D01*
X162401004Y-86350000D01*
X162098995Y-86350000D01*
X161799399Y-86387849D01*
X161506892Y-86462951D01*
X161506889Y-86462952D01*
X161226117Y-86574117D01*
X161226109Y-86574121D01*
X160961476Y-86719604D01*
X160961471Y-86719607D01*
X160736565Y-86883010D01*
X160736564Y-86883011D01*
X161667262Y-87813709D01*
X161533398Y-87910967D01*
X161410967Y-88033398D01*
X161313709Y-88167262D01*
X160385311Y-87238864D01*
X160304520Y-87336525D01*
X160304518Y-87336528D01*
X160142707Y-87591502D01*
X160142704Y-87591508D01*
X160014127Y-87864747D01*
X160014125Y-87864752D01*
X159920805Y-88151959D01*
X159864216Y-88448609D01*
X159864215Y-88448616D01*
X159845255Y-88749994D01*
X149935265Y-88749994D01*
X149936873Y-88746111D01*
X149995683Y-88501148D01*
X150015449Y-88250000D01*
X149995683Y-87998852D01*
X149936873Y-87753889D01*
X149893585Y-87649382D01*
X149840466Y-87521140D01*
X149708839Y-87306346D01*
X149708838Y-87306343D01*
X149671875Y-87263066D01*
X149545224Y-87114776D01*
X149418571Y-87006604D01*
X149353656Y-86951161D01*
X149353653Y-86951160D01*
X149138859Y-86819533D01*
X148906110Y-86723126D01*
X148661151Y-86664317D01*
X148472787Y-86649492D01*
X148410000Y-86644551D01*
X148409999Y-86644551D01*
X148385495Y-86646479D01*
X148238523Y-86658046D01*
X148170148Y-86643683D01*
X148120391Y-86594632D01*
X148105052Y-86526467D01*
X148129001Y-86460829D01*
X148141108Y-86446755D01*
X150351659Y-84236204D01*
X150412980Y-84202721D01*
X150482672Y-84207705D01*
X150527019Y-84236206D01*
X150660858Y-84370045D01*
X150660861Y-84370047D01*
X150847266Y-84500568D01*
X151053504Y-84596739D01*
X151053509Y-84596740D01*
X151053511Y-84596741D01*
X151086010Y-84605449D01*
X151273308Y-84655635D01*
X151435230Y-84669801D01*
X151499998Y-84675468D01*
X151500000Y-84675468D01*
X151500002Y-84675468D01*
X151556673Y-84670509D01*
X151726692Y-84655635D01*
X151946496Y-84596739D01*
X152152734Y-84500568D01*
X152339139Y-84370047D01*
X152500047Y-84209139D01*
X152630568Y-84022734D01*
X152726739Y-83816496D01*
X152785635Y-83596692D01*
X152805468Y-83370000D01*
X152800218Y-83309998D01*
X152785635Y-83143313D01*
X152785635Y-83143308D01*
X152726739Y-82923504D01*
X152630568Y-82717266D01*
X152500047Y-82530861D01*
X152500045Y-82530858D01*
X152339141Y-82369954D01*
X152152734Y-82239432D01*
X152152732Y-82239431D01*
X151946497Y-82143261D01*
X151946488Y-82143258D01*
X151726697Y-82084366D01*
X151726693Y-82084365D01*
X151726692Y-82084365D01*
X151726691Y-82084364D01*
X151726686Y-82084364D01*
X151500002Y-82064532D01*
X151499998Y-82064532D01*
X151273313Y-82084364D01*
X151273302Y-82084366D01*
X151053511Y-82143258D01*
X151053502Y-82143261D01*
X150847267Y-82239431D01*
X150847265Y-82239432D01*
X150660858Y-82369954D01*
X150499954Y-82530858D01*
X150368549Y-82718527D01*
X150313973Y-82762152D01*
X150297212Y-82766609D01*
X150297423Y-82767396D01*
X150289574Y-82769499D01*
X150289573Y-82769499D01*
X150224250Y-82787002D01*
X150136844Y-82810423D01*
X150136839Y-82810426D01*
X149999920Y-82889475D01*
X149999912Y-82889481D01*
X149245848Y-83643545D01*
X149184525Y-83677030D01*
X149114833Y-83672046D01*
X149058900Y-83630174D01*
X149034483Y-83564710D01*
X149035649Y-83542128D01*
X149035163Y-83542086D01*
X149035636Y-83536686D01*
X149055468Y-83310000D01*
X149035635Y-83083308D01*
X148990916Y-82916415D01*
X148976741Y-82863511D01*
X148976738Y-82863502D01*
X148929477Y-82762152D01*
X148880568Y-82657266D01*
X148750047Y-82470861D01*
X148750045Y-82470858D01*
X148589141Y-82309954D01*
X148402734Y-82179432D01*
X148402732Y-82179431D01*
X148196497Y-82083261D01*
X148196488Y-82083258D01*
X147976697Y-82024366D01*
X147976693Y-82024365D01*
X147976692Y-82024365D01*
X147976691Y-82024364D01*
X147976686Y-82024364D01*
X147750002Y-82004532D01*
X147749998Y-82004532D01*
X147523313Y-82024364D01*
X147523302Y-82024366D01*
X147303511Y-82083258D01*
X147303502Y-82083261D01*
X147097267Y-82179431D01*
X147097265Y-82179432D01*
X146910858Y-82309954D01*
X146749954Y-82470858D01*
X146619432Y-82657265D01*
X146619431Y-82657267D01*
X146523261Y-82863502D01*
X146523258Y-82863511D01*
X146464366Y-83083302D01*
X146464364Y-83083313D01*
X146444532Y-83309998D01*
X146444532Y-83310001D01*
X146464364Y-83536686D01*
X146464366Y-83536697D01*
X146487565Y-83623278D01*
X146485902Y-83693128D01*
X146451564Y-83746793D01*
X146320861Y-83866562D01*
X146312574Y-83873515D01*
X146016678Y-84100566D01*
X146007817Y-84106771D01*
X145693245Y-84307178D01*
X145683876Y-84312587D01*
X145353044Y-84484809D01*
X145343240Y-84489381D01*
X144998651Y-84632117D01*
X144988486Y-84635817D01*
X144632769Y-84747976D01*
X144622320Y-84750775D01*
X144305053Y-84821114D01*
X144235343Y-84816407D01*
X144218979Y-84804258D01*
X144218320Y-84805702D01*
X144159542Y-84843476D01*
X144140793Y-84847438D01*
X143877740Y-84882071D01*
X143866964Y-84883014D01*
X143492134Y-84899382D01*
X143486724Y-84899500D01*
X139953780Y-84899500D01*
X139948370Y-84899382D01*
X139573037Y-84882992D01*
X139562261Y-84882049D01*
X139192481Y-84833364D01*
X139181828Y-84831486D01*
X138817685Y-84750755D01*
X138807236Y-84747955D01*
X138451520Y-84635796D01*
X138441354Y-84632096D01*
X138401841Y-84615729D01*
X138228188Y-84543798D01*
X138096768Y-84489361D01*
X138086965Y-84484789D01*
X137795220Y-84332915D01*
X137756131Y-84312566D01*
X137746765Y-84307159D01*
X137733705Y-84298839D01*
X137496744Y-84147876D01*
X137432195Y-84106753D01*
X137423345Y-84100557D01*
X137127421Y-83873484D01*
X137119152Y-83866545D01*
X136918069Y-83682283D01*
X136881942Y-83622478D01*
X136883882Y-83552635D01*
X136887282Y-83543407D01*
X136887812Y-83542128D01*
X136906873Y-83496111D01*
X136965683Y-83251148D01*
X136985449Y-83000000D01*
X136965683Y-82748852D01*
X136906873Y-82503889D01*
X136826543Y-82309954D01*
X136810466Y-82271140D01*
X136678839Y-82056346D01*
X136678838Y-82056343D01*
X136634587Y-82004532D01*
X136515224Y-81864776D01*
X136500423Y-81852135D01*
X141399500Y-81852135D01*
X141399500Y-84147870D01*
X141399501Y-84147876D01*
X141405908Y-84207483D01*
X141456202Y-84342328D01*
X141456206Y-84342335D01*
X141542452Y-84457544D01*
X141542455Y-84457547D01*
X141657664Y-84543793D01*
X141657671Y-84543797D01*
X141792517Y-84594091D01*
X141792516Y-84594091D01*
X141799444Y-84594835D01*
X141852127Y-84600500D01*
X144124607Y-84600499D01*
X144190260Y-84619777D01*
X144218355Y-84591459D01*
X144234882Y-84583872D01*
X144342326Y-84543798D01*
X144342326Y-84543797D01*
X144342331Y-84543796D01*
X144457546Y-84457546D01*
X144543796Y-84342331D01*
X144594091Y-84207483D01*
X144600500Y-84147873D01*
X144600499Y-81852128D01*
X144594091Y-81792517D01*
X144560017Y-81701161D01*
X144543797Y-81657671D01*
X144543793Y-81657664D01*
X144457547Y-81542455D01*
X144457544Y-81542452D01*
X144342335Y-81456206D01*
X144342328Y-81456202D01*
X144207482Y-81405908D01*
X144207483Y-81405908D01*
X144147883Y-81399501D01*
X144147881Y-81399500D01*
X144147873Y-81399500D01*
X144147864Y-81399500D01*
X141852129Y-81399500D01*
X141852123Y-81399501D01*
X141792516Y-81405908D01*
X141657671Y-81456202D01*
X141657664Y-81456206D01*
X141542455Y-81542452D01*
X141542452Y-81542455D01*
X141456206Y-81657664D01*
X141456202Y-81657671D01*
X141405908Y-81792517D01*
X141399501Y-81852116D01*
X141399501Y-81852123D01*
X141399500Y-81852135D01*
X136500423Y-81852135D01*
X136388571Y-81756604D01*
X136323656Y-81701161D01*
X136323653Y-81701160D01*
X136108859Y-81569533D01*
X135876110Y-81473126D01*
X135631151Y-81414317D01*
X135380000Y-81394551D01*
X135128848Y-81414317D01*
X134883889Y-81473126D01*
X134651140Y-81569533D01*
X134436346Y-81701160D01*
X134436343Y-81701161D01*
X134244776Y-81864776D01*
X134081161Y-82056343D01*
X134081160Y-82056346D01*
X133949533Y-82271140D01*
X133853126Y-82503889D01*
X133794317Y-82748848D01*
X133774551Y-83000000D01*
X133794317Y-83251151D01*
X133853126Y-83496110D01*
X133949533Y-83728859D01*
X134081160Y-83943653D01*
X134081161Y-83943656D01*
X134136604Y-84008571D01*
X134244776Y-84135224D01*
X134331322Y-84209141D01*
X134436343Y-84298838D01*
X134436346Y-84298839D01*
X134651140Y-84430466D01*
X134883887Y-84526872D01*
X134883889Y-84526873D01*
X135128852Y-84585683D01*
X135380000Y-84605449D01*
X135631148Y-84585683D01*
X135876111Y-84526873D01*
X135927944Y-84505402D01*
X135997412Y-84497933D01*
X136059892Y-84529206D01*
X136063070Y-84532273D01*
X136146524Y-84615729D01*
X136481168Y-84901544D01*
X136837205Y-85160223D01*
X136837209Y-85160225D01*
X136837214Y-85160229D01*
X137081725Y-85310066D01*
X137212440Y-85390170D01*
X137604560Y-85589967D01*
X138011147Y-85758384D01*
X138429694Y-85894381D01*
X138857621Y-85997119D01*
X139292290Y-86065967D01*
X139731020Y-86100498D01*
X139862014Y-86100498D01*
X139862022Y-86100500D01*
X139872011Y-86100500D01*
X139951064Y-86100500D01*
X140023978Y-86100500D01*
X143416022Y-86100500D01*
X143437552Y-86100500D01*
X143437626Y-86100521D01*
X143488936Y-86100520D01*
X143488936Y-86100522D01*
X143708980Y-86100520D01*
X144147713Y-86065989D01*
X144582383Y-85997141D01*
X145010312Y-85894402D01*
X145428861Y-85758404D01*
X145835449Y-85589987D01*
X146227571Y-85390189D01*
X146602807Y-85160241D01*
X146958846Y-84901561D01*
X147293491Y-84615745D01*
X147307291Y-84601944D01*
X147368609Y-84568457D01*
X147427066Y-84569846D01*
X147523308Y-84595635D01*
X147685230Y-84609801D01*
X147749998Y-84615468D01*
X147750000Y-84615468D01*
X147750002Y-84615468D01*
X147964050Y-84596741D01*
X147976692Y-84595635D01*
X147976692Y-84595634D01*
X147982086Y-84595163D01*
X147982240Y-84596934D01*
X148043766Y-84603793D01*
X148097997Y-84647847D01*
X148119801Y-84714227D01*
X148102257Y-84781858D01*
X148083545Y-84805848D01*
X146530406Y-86358988D01*
X146526498Y-86362730D01*
X146249496Y-86616553D01*
X146241209Y-86623506D01*
X145945312Y-86850553D01*
X145936450Y-86856758D01*
X145621877Y-87057160D01*
X145612509Y-87062569D01*
X145281668Y-87234791D01*
X145271864Y-87239362D01*
X144927285Y-87382088D01*
X144917120Y-87385788D01*
X144561404Y-87497943D01*
X144550955Y-87500743D01*
X144186810Y-87581470D01*
X144176156Y-87583348D01*
X143806377Y-87632026D01*
X143795601Y-87632969D01*
X143419645Y-87649382D01*
X143414237Y-87649500D01*
X139974499Y-87649500D01*
X139907460Y-87629815D01*
X139861705Y-87577011D01*
X139850499Y-87525500D01*
X139850499Y-87102129D01*
X139850498Y-87102123D01*
X139850497Y-87102116D01*
X139844091Y-87042517D01*
X139810017Y-86951161D01*
X139793797Y-86907671D01*
X139793793Y-86907664D01*
X139707547Y-86792455D01*
X139707544Y-86792452D01*
X139592335Y-86706206D01*
X139592328Y-86706202D01*
X139457482Y-86655908D01*
X139457483Y-86655908D01*
X139397883Y-86649501D01*
X139397881Y-86649500D01*
X139397873Y-86649500D01*
X139397864Y-86649500D01*
X137102129Y-86649500D01*
X137102123Y-86649501D01*
X137042516Y-86655908D01*
X136907671Y-86706202D01*
X136907664Y-86706206D01*
X136792455Y-86792452D01*
X136792452Y-86792455D01*
X136706206Y-86907664D01*
X136706202Y-86907671D01*
X136655908Y-87042517D01*
X136649501Y-87102116D01*
X136649501Y-87102123D01*
X136649500Y-87102135D01*
X136649500Y-89397870D01*
X136649501Y-89397876D01*
X136655908Y-89457483D01*
X136706202Y-89592328D01*
X136706206Y-89592335D01*
X136792452Y-89707544D01*
X136792455Y-89707547D01*
X136907664Y-89793793D01*
X136907671Y-89793797D01*
X137042517Y-89844091D01*
X137042516Y-89844091D01*
X137049444Y-89844835D01*
X137102127Y-89850500D01*
X139397872Y-89850499D01*
X139457483Y-89844091D01*
X139592331Y-89793796D01*
X139707546Y-89707546D01*
X139793796Y-89592331D01*
X139844091Y-89457483D01*
X139850500Y-89397873D01*
X139850500Y-88974500D01*
X139870185Y-88907461D01*
X139922989Y-88861706D01*
X139974500Y-88850500D01*
X143504768Y-88850500D01*
X143505164Y-88850473D01*
X143637601Y-88850475D01*
X144076332Y-88815949D01*
X144511002Y-88747107D01*
X144511007Y-88747105D01*
X144511012Y-88747105D01*
X144689238Y-88704317D01*
X144938931Y-88644374D01*
X145357480Y-88508382D01*
X145764069Y-88339970D01*
X146156191Y-88140177D01*
X146531429Y-87910234D01*
X146640046Y-87831319D01*
X146705850Y-87807841D01*
X146773904Y-87823666D01*
X146822599Y-87873772D01*
X146836474Y-87942250D01*
X146833504Y-87960583D01*
X146824317Y-87998850D01*
X146804551Y-88250000D01*
X146824317Y-88501151D01*
X146883127Y-88746111D01*
X146883127Y-88746114D01*
X146904587Y-88797923D01*
X146912056Y-88867393D01*
X146880780Y-88929872D01*
X146877707Y-88933056D01*
X141247584Y-94563181D01*
X141186261Y-94596666D01*
X141159903Y-94599500D01*
X140956105Y-94599500D01*
X140656446Y-94637357D01*
X140363879Y-94712474D01*
X140363876Y-94712475D01*
X140083046Y-94823663D01*
X140083045Y-94823664D01*
X139818347Y-94969184D01*
X139818335Y-94969191D01*
X139573988Y-95146719D01*
X139573978Y-95146727D01*
X139353794Y-95353494D01*
X139161253Y-95586236D01*
X138999410Y-95841261D01*
X138999407Y-95841267D01*
X138870803Y-96114563D01*
X138870801Y-96114568D01*
X138777462Y-96401835D01*
X138720861Y-96698546D01*
X138720860Y-96698553D01*
X138712789Y-96826843D01*
X138688934Y-96892514D01*
X138633361Y-96934863D01*
X138563715Y-96940445D01*
X138502107Y-96907486D01*
X138468098Y-96846452D01*
X138465279Y-96826842D01*
X138457212Y-96698617D01*
X138457211Y-96698609D01*
X138400622Y-96401959D01*
X138307302Y-96114752D01*
X138307300Y-96114747D01*
X138178723Y-95841508D01*
X138178720Y-95841502D01*
X138016911Y-95586530D01*
X137936114Y-95488864D01*
X136749005Y-96675974D01*
X136736069Y-96644742D01*
X136653991Y-96521903D01*
X136549525Y-96417437D01*
X136426686Y-96335359D01*
X136395452Y-96322421D01*
X137584862Y-95133011D01*
X137584861Y-95133009D01*
X137359966Y-94969614D01*
X137359948Y-94969602D01*
X137095318Y-94824121D01*
X137095310Y-94824117D01*
X136814538Y-94712952D01*
X136814535Y-94712951D01*
X136522028Y-94637849D01*
X136222432Y-94600000D01*
X135920423Y-94600000D01*
X135620827Y-94637849D01*
X135328320Y-94712951D01*
X135328317Y-94712952D01*
X135047545Y-94824117D01*
X135047537Y-94824121D01*
X134782904Y-94969604D01*
X134782899Y-94969607D01*
X134557993Y-95133010D01*
X134557992Y-95133011D01*
X135747403Y-96322421D01*
X135716170Y-96335359D01*
X135593331Y-96417437D01*
X135488865Y-96521903D01*
X135406787Y-96644742D01*
X135393849Y-96675974D01*
X134206739Y-95488864D01*
X134125948Y-95586525D01*
X134125946Y-95586528D01*
X133964135Y-95841502D01*
X133964132Y-95841508D01*
X133835555Y-96114747D01*
X133835553Y-96114752D01*
X133742233Y-96401959D01*
X133685644Y-96698609D01*
X133685643Y-96698616D01*
X133677326Y-96830825D01*
X133653471Y-96896496D01*
X133597899Y-96938845D01*
X133528252Y-96944427D01*
X133466644Y-96911468D01*
X133432635Y-96850434D01*
X133429816Y-96830825D01*
X133421498Y-96698616D01*
X133421497Y-96698609D01*
X133364908Y-96401959D01*
X133271588Y-96114752D01*
X133271586Y-96114747D01*
X133143009Y-95841508D01*
X133143006Y-95841502D01*
X132981197Y-95586530D01*
X132900400Y-95488864D01*
X131713291Y-96675974D01*
X131700355Y-96644742D01*
X131618277Y-96521903D01*
X131513811Y-96417437D01*
X131390972Y-96335359D01*
X131359738Y-96322421D01*
X132549148Y-95133011D01*
X132549147Y-95133009D01*
X132324252Y-94969614D01*
X132324234Y-94969602D01*
X132059604Y-94824121D01*
X132059596Y-94824117D01*
X131778824Y-94712952D01*
X131778821Y-94712951D01*
X131486314Y-94637849D01*
X131186718Y-94600000D01*
X130884709Y-94600000D01*
X130585113Y-94637849D01*
X130292606Y-94712951D01*
X130292603Y-94712952D01*
X130011831Y-94824117D01*
X130011823Y-94824121D01*
X129747190Y-94969604D01*
X129747185Y-94969607D01*
X129522279Y-95133010D01*
X129522278Y-95133011D01*
X130711689Y-96322421D01*
X130680456Y-96335359D01*
X130557617Y-96417437D01*
X130453151Y-96521903D01*
X130371073Y-96644742D01*
X130358135Y-96675974D01*
X129171025Y-95488864D01*
X129090234Y-95586525D01*
X129090232Y-95586528D01*
X128928421Y-95841502D01*
X128928418Y-95841508D01*
X128799841Y-96114747D01*
X128799839Y-96114752D01*
X128706519Y-96401959D01*
X128649930Y-96698609D01*
X128649929Y-96698616D01*
X128641862Y-96826843D01*
X128618007Y-96892514D01*
X128562434Y-96934863D01*
X128492788Y-96940445D01*
X128431180Y-96907486D01*
X128397171Y-96846452D01*
X128394352Y-96826842D01*
X128386281Y-96698554D01*
X128386280Y-96698546D01*
X128386280Y-96698543D01*
X128329681Y-96401840D01*
X128236341Y-96114570D01*
X128112916Y-95852278D01*
X128102183Y-95783237D01*
X128130479Y-95719354D01*
X128137421Y-95711812D01*
X129434370Y-94414864D01*
X129460150Y-94389086D01*
X129460149Y-94389085D01*
X129496444Y-94352794D01*
X129496460Y-94352773D01*
X129516053Y-94333182D01*
X129516055Y-94333177D01*
X129521972Y-94327261D01*
X129522180Y-94327022D01*
X129615729Y-94233476D01*
X129901544Y-93898832D01*
X130160223Y-93542795D01*
X130390170Y-93167560D01*
X130589967Y-92775440D01*
X130758384Y-92368853D01*
X130894381Y-91950306D01*
X130997119Y-91522379D01*
X131065967Y-91087710D01*
X131100498Y-90648980D01*
X131100498Y-90522426D01*
X131100500Y-90522422D01*
X131100500Y-78544887D01*
X134441127Y-78544887D01*
X134441128Y-78544888D01*
X135404314Y-78544888D01*
X135399920Y-78549282D01*
X135347259Y-78640494D01*
X135320000Y-78742227D01*
X135320000Y-78847549D01*
X135347259Y-78949282D01*
X135399920Y-79040494D01*
X135404314Y-79044888D01*
X134441128Y-79044888D01*
X134493730Y-79241205D01*
X134493734Y-79241214D01*
X134589865Y-79447370D01*
X134720342Y-79633708D01*
X134881179Y-79794545D01*
X135067517Y-79925022D01*
X135273673Y-80021153D01*
X135273682Y-80021157D01*
X135469999Y-80073760D01*
X135470000Y-80073759D01*
X135470000Y-79110574D01*
X135474394Y-79114968D01*
X135565606Y-79167629D01*
X135667339Y-79194888D01*
X135772661Y-79194888D01*
X135874394Y-79167629D01*
X135965606Y-79114968D01*
X135970000Y-79110574D01*
X135970000Y-80073760D01*
X136166317Y-80021157D01*
X136166326Y-80021153D01*
X136372482Y-79925022D01*
X136558820Y-79794545D01*
X136719657Y-79633708D01*
X136850134Y-79447370D01*
X136946265Y-79241214D01*
X136946269Y-79241205D01*
X136998872Y-79044888D01*
X136035686Y-79044888D01*
X136040080Y-79040494D01*
X136092741Y-78949282D01*
X136120000Y-78847549D01*
X136120000Y-78794886D01*
X142034532Y-78794886D01*
X142034532Y-78794889D01*
X142054364Y-79021574D01*
X142054366Y-79021585D01*
X142113258Y-79241376D01*
X142113261Y-79241385D01*
X142209431Y-79447620D01*
X142209432Y-79447622D01*
X142339954Y-79634029D01*
X142500858Y-79794933D01*
X142500861Y-79794935D01*
X142687266Y-79925456D01*
X142893504Y-80021627D01*
X143113308Y-80080523D01*
X143275230Y-80094689D01*
X143339998Y-80100356D01*
X143340000Y-80100356D01*
X143340002Y-80100356D01*
X143396673Y-80095397D01*
X143566692Y-80080523D01*
X143786496Y-80021627D01*
X143992734Y-79925456D01*
X144179139Y-79794935D01*
X144340047Y-79634027D01*
X144470568Y-79447622D01*
X144566739Y-79241384D01*
X144625635Y-79021580D01*
X144645468Y-78794888D01*
X144625635Y-78568196D01*
X144566739Y-78348392D01*
X144470568Y-78142154D01*
X144340047Y-77955749D01*
X144340045Y-77955746D01*
X144179141Y-77794842D01*
X143992734Y-77664320D01*
X143992732Y-77664319D01*
X143786497Y-77568149D01*
X143786488Y-77568146D01*
X143566697Y-77509254D01*
X143566693Y-77509253D01*
X143566692Y-77509253D01*
X143566691Y-77509252D01*
X143566686Y-77509252D01*
X143340002Y-77489420D01*
X143339998Y-77489420D01*
X143113313Y-77509252D01*
X143113302Y-77509254D01*
X142893511Y-77568146D01*
X142893502Y-77568149D01*
X142687267Y-77664319D01*
X142687265Y-77664320D01*
X142500858Y-77794842D01*
X142339954Y-77955746D01*
X142209432Y-78142153D01*
X142209431Y-78142155D01*
X142113261Y-78348390D01*
X142113258Y-78348399D01*
X142054366Y-78568190D01*
X142054364Y-78568201D01*
X142034532Y-78794886D01*
X136120000Y-78794886D01*
X136120000Y-78742227D01*
X136092741Y-78640494D01*
X136040080Y-78549282D01*
X136035686Y-78544888D01*
X136998872Y-78544888D01*
X136998872Y-78544887D01*
X136946269Y-78348570D01*
X136946265Y-78348561D01*
X136850134Y-78142405D01*
X136719657Y-77956067D01*
X136558820Y-77795230D01*
X136372482Y-77664753D01*
X136166328Y-77568622D01*
X135970000Y-77516015D01*
X135970000Y-78479202D01*
X135965606Y-78474808D01*
X135874394Y-78422147D01*
X135772661Y-78394888D01*
X135667339Y-78394888D01*
X135565606Y-78422147D01*
X135474394Y-78474808D01*
X135470000Y-78479202D01*
X135470000Y-77516015D01*
X135273671Y-77568622D01*
X135067517Y-77664753D01*
X134881179Y-77795230D01*
X134720342Y-77956067D01*
X134589865Y-78142405D01*
X134493734Y-78348561D01*
X134493730Y-78348570D01*
X134441127Y-78544887D01*
X131100500Y-78544887D01*
X131100500Y-76622448D01*
X131100521Y-76622373D01*
X131100521Y-76571064D01*
X131100522Y-76571064D01*
X131100520Y-76351020D01*
X131065989Y-75912287D01*
X130997141Y-75477617D01*
X130894402Y-75049688D01*
X130758404Y-74631139D01*
X130589987Y-74224551D01*
X130390189Y-73832429D01*
X130190455Y-73506497D01*
X130160247Y-73457202D01*
X130160243Y-73457197D01*
X130160241Y-73457193D01*
X129901561Y-73101154D01*
X129615745Y-72766509D01*
X129526265Y-72677031D01*
X129526260Y-72677024D01*
X128386819Y-71537583D01*
X128353334Y-71476260D01*
X128350500Y-71449902D01*
X128350500Y-69671692D01*
X128370185Y-69604653D01*
X128403374Y-69570119D01*
X128589139Y-69440047D01*
X128750047Y-69279139D01*
X128880568Y-69092734D01*
X128976739Y-68886496D01*
X129035635Y-68666692D01*
X129050219Y-68499997D01*
X130400147Y-68499997D01*
X130400147Y-68500002D01*
X130419971Y-68726599D01*
X130419973Y-68726610D01*
X130478843Y-68946317D01*
X130478848Y-68946331D01*
X130574976Y-69152478D01*
X130626087Y-69225472D01*
X131305113Y-68546446D01*
X131305113Y-68552661D01*
X131332372Y-68654394D01*
X131385033Y-68745606D01*
X131459507Y-68820080D01*
X131550719Y-68872741D01*
X131652452Y-68900000D01*
X131658666Y-68900000D01*
X130979639Y-69579025D01*
X131052626Y-69630132D01*
X131052634Y-69630136D01*
X131258781Y-69726264D01*
X131258795Y-69726269D01*
X131478502Y-69785139D01*
X131478513Y-69785141D01*
X131705111Y-69804966D01*
X131705115Y-69804966D01*
X131931712Y-69785141D01*
X131931723Y-69785139D01*
X132151430Y-69726269D01*
X132151444Y-69726264D01*
X132357591Y-69630136D01*
X132430584Y-69579024D01*
X131751560Y-68900000D01*
X131757774Y-68900000D01*
X131859507Y-68872741D01*
X131950719Y-68820080D01*
X132025193Y-68745606D01*
X132077854Y-68654394D01*
X132105113Y-68552661D01*
X132105113Y-68546447D01*
X132789310Y-69230644D01*
X132838305Y-69240491D01*
X132888488Y-69289106D01*
X132903162Y-69344632D01*
X132904212Y-69344576D01*
X132904259Y-69344571D01*
X132904259Y-69344573D01*
X132904437Y-69344564D01*
X132904614Y-69347876D01*
X132911021Y-69407483D01*
X132961315Y-69542328D01*
X132961319Y-69542335D01*
X133047565Y-69657544D01*
X133047568Y-69657547D01*
X133162777Y-69743793D01*
X133162784Y-69743797D01*
X133297630Y-69794091D01*
X133297629Y-69794091D01*
X133304557Y-69794835D01*
X133357240Y-69800500D01*
X134407458Y-69800499D01*
X134474497Y-69820183D01*
X134512037Y-69857871D01*
X134527181Y-69881641D01*
X134532591Y-69891012D01*
X134704811Y-70221839D01*
X134709383Y-70231642D01*
X134852123Y-70576238D01*
X134855823Y-70586403D01*
X134965433Y-70934033D01*
X134967985Y-70942125D01*
X134970784Y-70952574D01*
X135051513Y-71316703D01*
X135053392Y-71327357D01*
X135102079Y-71697148D01*
X135103022Y-71707924D01*
X135119382Y-72082547D01*
X135119500Y-72087957D01*
X135119500Y-72563194D01*
X135099815Y-72630233D01*
X135066623Y-72664769D01*
X134880859Y-72794841D01*
X134719954Y-72955746D01*
X134589432Y-73142153D01*
X134589431Y-73142155D01*
X134493261Y-73348390D01*
X134493258Y-73348399D01*
X134434366Y-73568190D01*
X134434364Y-73568201D01*
X134414532Y-73794886D01*
X134414532Y-73794889D01*
X134434364Y-74021574D01*
X134434366Y-74021585D01*
X134493258Y-74241376D01*
X134493261Y-74241385D01*
X134589431Y-74447620D01*
X134589432Y-74447622D01*
X134719954Y-74634029D01*
X134880858Y-74794933D01*
X134880861Y-74794935D01*
X135067266Y-74925456D01*
X135273504Y-75021627D01*
X135273509Y-75021628D01*
X135273511Y-75021629D01*
X135326415Y-75035804D01*
X135493308Y-75080523D01*
X135655230Y-75094689D01*
X135719998Y-75100356D01*
X135720000Y-75100356D01*
X135720002Y-75100356D01*
X135776673Y-75095397D01*
X135946692Y-75080523D01*
X136079054Y-75045056D01*
X136148902Y-75046719D01*
X136191678Y-75070541D01*
X136216276Y-75091550D01*
X136572314Y-75350229D01*
X136572329Y-75350238D01*
X136947533Y-75580165D01*
X136947544Y-75580172D01*
X136947550Y-75580175D01*
X137339670Y-75779972D01*
X137746258Y-75948388D01*
X138164806Y-76084384D01*
X138592733Y-76187122D01*
X139027403Y-76255968D01*
X139466134Y-76290499D01*
X139592681Y-76290499D01*
X139592689Y-76290500D01*
X139607123Y-76290500D01*
X139686178Y-76290500D01*
X139759091Y-76290500D01*
X146518308Y-76290500D01*
X146585347Y-76310185D01*
X146619880Y-76343374D01*
X146661444Y-76402734D01*
X146749954Y-76529141D01*
X146910858Y-76690045D01*
X146910861Y-76690047D01*
X147097266Y-76820568D01*
X147303504Y-76916739D01*
X147523308Y-76975635D01*
X147685230Y-76989801D01*
X147749998Y-76995468D01*
X147750000Y-76995468D01*
X147750002Y-76995468D01*
X147806673Y-76990509D01*
X147976692Y-76975635D01*
X148196496Y-76916739D01*
X148402734Y-76820568D01*
X148589139Y-76690047D01*
X148750047Y-76529139D01*
X148880118Y-76343375D01*
X148934693Y-76299752D01*
X148981692Y-76290500D01*
X150238099Y-76290500D01*
X150305138Y-76310185D01*
X150350481Y-76362094D01*
X150369431Y-76402733D01*
X150499954Y-76589141D01*
X150660858Y-76750045D01*
X150660861Y-76750047D01*
X150847266Y-76880568D01*
X151053504Y-76976739D01*
X151273308Y-77035635D01*
X151435230Y-77049801D01*
X151499998Y-77055468D01*
X151500000Y-77055468D01*
X151500002Y-77055468D01*
X151556673Y-77050509D01*
X151726692Y-77035635D01*
X151946496Y-76976739D01*
X152152734Y-76880568D01*
X152339139Y-76750047D01*
X152500047Y-76589139D01*
X152630568Y-76402734D01*
X152726739Y-76196496D01*
X152785635Y-75976692D01*
X152805468Y-75750000D01*
X152785635Y-75523308D01*
X152726739Y-75303504D01*
X152630568Y-75097266D01*
X152513354Y-74929865D01*
X152500045Y-74910858D01*
X152339141Y-74749954D01*
X152152734Y-74619432D01*
X152152732Y-74619431D01*
X151946497Y-74523261D01*
X151946488Y-74523258D01*
X151726697Y-74464366D01*
X151726693Y-74464365D01*
X151726692Y-74464365D01*
X151726691Y-74464364D01*
X151726686Y-74464364D01*
X151500002Y-74444532D01*
X151499998Y-74444532D01*
X151273313Y-74464364D01*
X151273302Y-74464366D01*
X151053511Y-74523258D01*
X151053502Y-74523261D01*
X150847267Y-74619431D01*
X150847265Y-74619432D01*
X150660858Y-74749954D01*
X150499954Y-74910858D01*
X150411894Y-75036623D01*
X150357317Y-75080248D01*
X150310319Y-75089500D01*
X148981692Y-75089500D01*
X148914653Y-75069815D01*
X148880119Y-75036625D01*
X148750047Y-74850861D01*
X148750045Y-74850858D01*
X148589141Y-74689954D01*
X148402734Y-74559432D01*
X148402732Y-74559431D01*
X148332624Y-74526739D01*
X148248220Y-74487380D01*
X148195783Y-74441210D01*
X148176631Y-74374016D01*
X148196847Y-74307135D01*
X148248220Y-74262619D01*
X148402734Y-74190568D01*
X148589139Y-74060047D01*
X148750047Y-73899139D01*
X148880568Y-73712734D01*
X148976739Y-73506496D01*
X149035635Y-73286692D01*
X149055468Y-73060000D01*
X149035635Y-72833308D01*
X148981311Y-72630567D01*
X148976741Y-72613511D01*
X148976738Y-72613502D01*
X148953279Y-72563194D01*
X148880568Y-72407266D01*
X148750047Y-72220861D01*
X148750045Y-72220858D01*
X148589141Y-72059954D01*
X148402734Y-71929432D01*
X148402732Y-71929431D01*
X148196497Y-71833261D01*
X148196488Y-71833258D01*
X147976697Y-71774366D01*
X147976693Y-71774365D01*
X147976692Y-71774365D01*
X147976691Y-71774364D01*
X147976686Y-71774364D01*
X147750002Y-71754532D01*
X147749998Y-71754532D01*
X147523313Y-71774364D01*
X147523302Y-71774366D01*
X147303511Y-71833258D01*
X147303502Y-71833261D01*
X147097267Y-71929431D01*
X147097265Y-71929432D01*
X146910858Y-72059954D01*
X146749954Y-72220858D01*
X146619432Y-72407265D01*
X146619431Y-72407267D01*
X146523261Y-72613502D01*
X146523258Y-72613511D01*
X146464366Y-72833302D01*
X146464364Y-72833313D01*
X146444532Y-73059998D01*
X146444532Y-73060001D01*
X146464364Y-73286686D01*
X146464366Y-73286697D01*
X146523258Y-73506488D01*
X146523261Y-73506497D01*
X146619431Y-73712732D01*
X146619432Y-73712734D01*
X146749954Y-73899141D01*
X146910858Y-74060045D01*
X146910861Y-74060047D01*
X147097266Y-74190568D01*
X147206241Y-74241384D01*
X147251777Y-74262618D01*
X147304216Y-74308791D01*
X147323368Y-74375984D01*
X147303152Y-74442865D01*
X147251777Y-74487382D01*
X147097267Y-74559431D01*
X147097265Y-74559432D01*
X146910858Y-74689954D01*
X146749954Y-74850858D01*
X146687827Y-74939587D01*
X146619881Y-75036624D01*
X146565307Y-75080248D01*
X146518308Y-75089500D01*
X144151733Y-75089500D01*
X144084694Y-75069815D01*
X144038939Y-75017011D01*
X144028995Y-74947853D01*
X144058020Y-74884297D01*
X144080610Y-74863925D01*
X144179139Y-74794935D01*
X144340047Y-74634027D01*
X144470568Y-74447622D01*
X144566739Y-74241384D01*
X144625635Y-74021580D01*
X144645468Y-73794888D01*
X144625635Y-73568196D01*
X144566739Y-73348392D01*
X144470568Y-73142154D01*
X144340047Y-72955749D01*
X144340045Y-72955746D01*
X144179141Y-72794842D01*
X143992734Y-72664320D01*
X143992732Y-72664319D01*
X143786497Y-72568149D01*
X143786488Y-72568146D01*
X143566697Y-72509254D01*
X143566693Y-72509253D01*
X143566692Y-72509253D01*
X143566691Y-72509252D01*
X143566686Y-72509252D01*
X143340002Y-72489420D01*
X143339998Y-72489420D01*
X143113313Y-72509252D01*
X143113302Y-72509254D01*
X142893511Y-72568146D01*
X142893502Y-72568149D01*
X142687267Y-72664319D01*
X142687265Y-72664320D01*
X142500858Y-72794842D01*
X142339954Y-72955746D01*
X142209432Y-73142153D01*
X142209431Y-73142155D01*
X142113261Y-73348390D01*
X142113258Y-73348399D01*
X142054366Y-73568190D01*
X142054364Y-73568201D01*
X142034532Y-73794886D01*
X142034532Y-73794889D01*
X142054364Y-74021574D01*
X142054366Y-74021585D01*
X142113258Y-74241376D01*
X142113261Y-74241385D01*
X142209431Y-74447620D01*
X142209432Y-74447622D01*
X142339954Y-74634029D01*
X142500858Y-74794933D01*
X142599390Y-74863925D01*
X142643015Y-74918501D01*
X142650209Y-74988000D01*
X142618687Y-75050354D01*
X142558457Y-75085769D01*
X142528267Y-75089500D01*
X139688889Y-75089500D01*
X139683480Y-75089382D01*
X139308149Y-75072993D01*
X139297372Y-75072050D01*
X138927591Y-75023366D01*
X138916938Y-75021488D01*
X138552794Y-74940758D01*
X138542345Y-74937958D01*
X138186629Y-74825799D01*
X138176464Y-74822099D01*
X137831877Y-74679365D01*
X137822073Y-74674793D01*
X137491237Y-74502570D01*
X137481869Y-74497161D01*
X137167315Y-74296767D01*
X137158453Y-74290563D01*
X137037646Y-74197864D01*
X136996444Y-74141436D01*
X136992289Y-74071690D01*
X136993359Y-74067392D01*
X136995328Y-74060047D01*
X137005635Y-74021580D01*
X137025468Y-73794888D01*
X137005635Y-73568196D01*
X136946739Y-73348392D01*
X136850568Y-73142154D01*
X136720047Y-72955749D01*
X136720045Y-72955746D01*
X136559140Y-72794841D01*
X136373377Y-72664769D01*
X136329752Y-72610192D01*
X136320500Y-72563194D01*
X136320500Y-72137343D01*
X136320530Y-72137237D01*
X136320530Y-72085950D01*
X136320531Y-72085950D01*
X136320529Y-71865905D01*
X136285996Y-71427172D01*
X136217147Y-70992502D01*
X136114407Y-70564573D01*
X135978408Y-70146024D01*
X135809990Y-69739436D01*
X135803281Y-69726269D01*
X135610196Y-69347324D01*
X135610189Y-69347312D01*
X135608512Y-69344576D01*
X135544728Y-69240491D01*
X135523885Y-69206479D01*
X135505612Y-69141688D01*
X135505612Y-68499997D01*
X139195034Y-68499997D01*
X139195034Y-68500002D01*
X139214858Y-68726599D01*
X139214860Y-68726610D01*
X139273730Y-68946317D01*
X139273735Y-68946331D01*
X139369863Y-69152478D01*
X139420974Y-69225472D01*
X140100000Y-68546446D01*
X140100000Y-68552661D01*
X140127259Y-68654394D01*
X140179920Y-68745606D01*
X140254394Y-68820080D01*
X140345606Y-68872741D01*
X140447339Y-68900000D01*
X140453553Y-68900000D01*
X139774526Y-69579025D01*
X139847513Y-69630132D01*
X139847521Y-69630136D01*
X140053668Y-69726264D01*
X140053682Y-69726269D01*
X140273389Y-69785139D01*
X140273400Y-69785141D01*
X140499998Y-69804966D01*
X140500002Y-69804966D01*
X140726599Y-69785141D01*
X140726610Y-69785139D01*
X140946317Y-69726269D01*
X140946331Y-69726264D01*
X141152478Y-69630136D01*
X141225471Y-69579024D01*
X140546447Y-68900000D01*
X140552661Y-68900000D01*
X140654394Y-68872741D01*
X140745606Y-68820080D01*
X140820080Y-68745606D01*
X140872741Y-68654394D01*
X140900000Y-68552661D01*
X140900000Y-68546447D01*
X141584197Y-69230644D01*
X141633192Y-69240491D01*
X141683375Y-69289106D01*
X141698049Y-69344632D01*
X141699099Y-69344576D01*
X141699146Y-69344571D01*
X141699146Y-69344573D01*
X141699324Y-69344564D01*
X141699501Y-69347876D01*
X141705908Y-69407483D01*
X141756202Y-69542328D01*
X141756206Y-69542335D01*
X141842452Y-69657544D01*
X141842455Y-69657547D01*
X141957664Y-69743793D01*
X141957671Y-69743797D01*
X142092517Y-69794091D01*
X142092516Y-69794091D01*
X142099444Y-69794835D01*
X142152127Y-69800500D01*
X143847872Y-69800499D01*
X143907483Y-69794091D01*
X144042331Y-69743796D01*
X144157546Y-69657546D01*
X144243796Y-69542331D01*
X144294091Y-69407483D01*
X144300500Y-69347873D01*
X144300499Y-67652128D01*
X144294091Y-67592517D01*
X144289058Y-67579024D01*
X144243797Y-67457671D01*
X144243793Y-67457664D01*
X144157547Y-67342455D01*
X144157544Y-67342452D01*
X144042335Y-67256206D01*
X144042328Y-67256202D01*
X143907482Y-67205908D01*
X143907483Y-67205908D01*
X143847883Y-67199501D01*
X143847881Y-67199500D01*
X143847873Y-67199500D01*
X143847864Y-67199500D01*
X142152129Y-67199500D01*
X142152123Y-67199501D01*
X142092516Y-67205908D01*
X141957671Y-67256202D01*
X141957664Y-67256206D01*
X141842455Y-67342452D01*
X141842452Y-67342455D01*
X141756206Y-67457664D01*
X141756202Y-67457671D01*
X141705908Y-67592517D01*
X141701864Y-67630136D01*
X141699501Y-67652123D01*
X141699322Y-67655452D01*
X141697847Y-67655372D01*
X141679815Y-67716784D01*
X141627011Y-67762539D01*
X141583522Y-67770029D01*
X140900000Y-68453551D01*
X140900000Y-68447339D01*
X140872741Y-68345606D01*
X140820080Y-68254394D01*
X140745606Y-68179920D01*
X140654394Y-68127259D01*
X140552661Y-68100000D01*
X140546445Y-68100000D01*
X141225472Y-67420974D01*
X141152478Y-67369863D01*
X140946331Y-67273735D01*
X140946317Y-67273730D01*
X140726610Y-67214860D01*
X140726599Y-67214858D01*
X140500002Y-67195034D01*
X140499998Y-67195034D01*
X140273400Y-67214858D01*
X140273389Y-67214860D01*
X140053682Y-67273730D01*
X140053673Y-67273734D01*
X139847516Y-67369866D01*
X139847512Y-67369868D01*
X139774526Y-67420973D01*
X139774526Y-67420974D01*
X140453553Y-68100000D01*
X140447339Y-68100000D01*
X140345606Y-68127259D01*
X140254394Y-68179920D01*
X140179920Y-68254394D01*
X140127259Y-68345606D01*
X140100000Y-68447339D01*
X140100000Y-68453552D01*
X139420974Y-67774526D01*
X139420973Y-67774526D01*
X139369868Y-67847512D01*
X139369866Y-67847516D01*
X139273734Y-68053673D01*
X139273730Y-68053682D01*
X139214860Y-68273389D01*
X139214858Y-68273400D01*
X139195034Y-68499997D01*
X135505612Y-68499997D01*
X135505612Y-67877206D01*
X135523884Y-67812416D01*
X135640164Y-67622670D01*
X135839962Y-67230551D01*
X136008379Y-66823965D01*
X136144377Y-66405419D01*
X136247117Y-65977492D01*
X136315965Y-65542824D01*
X136350498Y-65104094D01*
X136350498Y-64977539D01*
X136350500Y-64977535D01*
X136350500Y-63601692D01*
X136370185Y-63534653D01*
X136403374Y-63500119D01*
X136589139Y-63370047D01*
X136750047Y-63209139D01*
X136880118Y-63023375D01*
X136934693Y-62979752D01*
X136981692Y-62970500D01*
X138236022Y-62970500D01*
X138257552Y-62970500D01*
X138257626Y-62970521D01*
X138308936Y-62970520D01*
X138308936Y-62970522D01*
X138528980Y-62970520D01*
X138967713Y-62935989D01*
X139402383Y-62867141D01*
X139830312Y-62764402D01*
X140248861Y-62628404D01*
X140655449Y-62459987D01*
X140733931Y-62419998D01*
X146447864Y-62419998D01*
X146447864Y-62420001D01*
X146467696Y-62646686D01*
X146467698Y-62646697D01*
X146526590Y-62866488D01*
X146526593Y-62866497D01*
X146622763Y-63072732D01*
X146622764Y-63072734D01*
X146753286Y-63259141D01*
X146914190Y-63420045D01*
X146914193Y-63420047D01*
X147100598Y-63550568D01*
X147306836Y-63646739D01*
X147526640Y-63705635D01*
X147688562Y-63719801D01*
X147753330Y-63725468D01*
X147753332Y-63725468D01*
X147753334Y-63725468D01*
X147810005Y-63720509D01*
X147980024Y-63705635D01*
X148199828Y-63646739D01*
X148406066Y-63550568D01*
X148592471Y-63420047D01*
X148753379Y-63259139D01*
X148883900Y-63072734D01*
X148980071Y-62866496D01*
X149038967Y-62646692D01*
X149058800Y-62420000D01*
X149038967Y-62193308D01*
X148980071Y-61973504D01*
X148883900Y-61767266D01*
X148753379Y-61580861D01*
X148753377Y-61580858D01*
X148592473Y-61419954D01*
X148406066Y-61289432D01*
X148406064Y-61289431D01*
X148199829Y-61193261D01*
X148199820Y-61193258D01*
X147980029Y-61134366D01*
X147980025Y-61134365D01*
X147980024Y-61134365D01*
X147980023Y-61134364D01*
X147980018Y-61134364D01*
X147753334Y-61114532D01*
X147753330Y-61114532D01*
X147526645Y-61134364D01*
X147526634Y-61134366D01*
X147306843Y-61193258D01*
X147306834Y-61193261D01*
X147100599Y-61289431D01*
X147100597Y-61289432D01*
X146914190Y-61419954D01*
X146753286Y-61580858D01*
X146622764Y-61767265D01*
X146622763Y-61767267D01*
X146526593Y-61973502D01*
X146526590Y-61973511D01*
X146467698Y-62193302D01*
X146467696Y-62193313D01*
X146447864Y-62419998D01*
X140733931Y-62419998D01*
X141047571Y-62260189D01*
X141422807Y-62030241D01*
X141778846Y-61771561D01*
X142113491Y-61485745D01*
X142229282Y-61369953D01*
X142232756Y-61366478D01*
X142232768Y-61366471D01*
X142269086Y-61330150D01*
X142294864Y-61304370D01*
X145184370Y-58414864D01*
X145210150Y-58389086D01*
X145210149Y-58389085D01*
X145246444Y-58352794D01*
X145246460Y-58352773D01*
X145266053Y-58333182D01*
X145266055Y-58333177D01*
X145271972Y-58327261D01*
X145272180Y-58327022D01*
X145365729Y-58233476D01*
X145651544Y-57898832D01*
X145910223Y-57542795D01*
X146140170Y-57167560D01*
X146339967Y-56775440D01*
X146508384Y-56368853D01*
X146644381Y-55950306D01*
X146674018Y-55826858D01*
X146708808Y-55766269D01*
X146770834Y-55734105D01*
X146840403Y-55740581D01*
X146882272Y-55768127D01*
X146914190Y-55800045D01*
X146914193Y-55800047D01*
X147100598Y-55930568D01*
X147306836Y-56026739D01*
X147526640Y-56085635D01*
X147688562Y-56099801D01*
X147753330Y-56105468D01*
X147753332Y-56105468D01*
X147753334Y-56105468D01*
X147810005Y-56100509D01*
X147980024Y-56085635D01*
X148199828Y-56026739D01*
X148406066Y-55930568D01*
X148592471Y-55800047D01*
X148753379Y-55639139D01*
X148883900Y-55452734D01*
X148980071Y-55246496D01*
X149038967Y-55026692D01*
X149058800Y-54800000D01*
X149053783Y-54742661D01*
X149045916Y-54652734D01*
X149038967Y-54573308D01*
X148980071Y-54353504D01*
X148883900Y-54147266D01*
X148753379Y-53960861D01*
X148753377Y-53960858D01*
X148592473Y-53799954D01*
X148406066Y-53669432D01*
X148406064Y-53669431D01*
X148199829Y-53573261D01*
X148199820Y-53573258D01*
X147980029Y-53514366D01*
X147980025Y-53514365D01*
X147980024Y-53514365D01*
X147980023Y-53514364D01*
X147980018Y-53514364D01*
X147753334Y-53494532D01*
X147753330Y-53494532D01*
X147526645Y-53514364D01*
X147526634Y-53514366D01*
X147306843Y-53573258D01*
X147306834Y-53573261D01*
X147100599Y-53669431D01*
X147045622Y-53707926D01*
X146979416Y-53730253D01*
X146911648Y-53713241D01*
X146863836Y-53662292D01*
X146850500Y-53606350D01*
X146850500Y-53550097D01*
X146870185Y-53483058D01*
X146886819Y-53462416D01*
X149849237Y-50499998D01*
X152884532Y-50499998D01*
X152884532Y-50500001D01*
X152904364Y-50726686D01*
X152904366Y-50726697D01*
X152963258Y-50946488D01*
X152963261Y-50946497D01*
X153059431Y-51152732D01*
X153059432Y-51152734D01*
X153189954Y-51339141D01*
X153350858Y-51500045D01*
X153350861Y-51500047D01*
X153537266Y-51630568D01*
X153743504Y-51726739D01*
X153963308Y-51785635D01*
X154125230Y-51799801D01*
X154189998Y-51805468D01*
X154190000Y-51805468D01*
X154190002Y-51805468D01*
X154246673Y-51800509D01*
X154416692Y-51785635D01*
X154636496Y-51726739D01*
X154842734Y-51630568D01*
X155029139Y-51500047D01*
X155190047Y-51339139D01*
X155320568Y-51152734D01*
X155416739Y-50946496D01*
X155475635Y-50726692D01*
X155495468Y-50500000D01*
X155475635Y-50273308D01*
X155416739Y-50053504D01*
X155320568Y-49847266D01*
X155190047Y-49660861D01*
X155190045Y-49660858D01*
X155029141Y-49499954D01*
X154842734Y-49369432D01*
X154842732Y-49369431D01*
X154636497Y-49273261D01*
X154636488Y-49273258D01*
X154416697Y-49214366D01*
X154416693Y-49214365D01*
X154416692Y-49214365D01*
X154416691Y-49214364D01*
X154416686Y-49214364D01*
X154190002Y-49194532D01*
X154189998Y-49194532D01*
X153963313Y-49214364D01*
X153963302Y-49214366D01*
X153743511Y-49273258D01*
X153743502Y-49273261D01*
X153537267Y-49369431D01*
X153537265Y-49369432D01*
X153350858Y-49499954D01*
X153189954Y-49660858D01*
X153059432Y-49847265D01*
X153059431Y-49847267D01*
X152963261Y-50053502D01*
X152963258Y-50053511D01*
X152904366Y-50273302D01*
X152904364Y-50273313D01*
X152884532Y-50499998D01*
X149849237Y-50499998D01*
X151721096Y-48628139D01*
X151770752Y-48578483D01*
X151774615Y-48574784D01*
X152051655Y-48320922D01*
X152059907Y-48313998D01*
X152355832Y-48086924D01*
X152364671Y-48080735D01*
X152679274Y-47880308D01*
X152688602Y-47874923D01*
X153019461Y-47702686D01*
X153029252Y-47698120D01*
X153373863Y-47555376D01*
X153383998Y-47551687D01*
X153739741Y-47439519D01*
X153750179Y-47436724D01*
X154114324Y-47355992D01*
X154124960Y-47354115D01*
X154494781Y-47305426D01*
X154505513Y-47304486D01*
X154828527Y-47290381D01*
X154896360Y-47307122D01*
X154944375Y-47357880D01*
X154953011Y-47379668D01*
X154998253Y-47535393D01*
X154998255Y-47535396D01*
X154998256Y-47535398D01*
X155011424Y-47557664D01*
X155081917Y-47676862D01*
X155081923Y-47676870D01*
X155198129Y-47793076D01*
X155198133Y-47793079D01*
X155198135Y-47793081D01*
X155339602Y-47876744D01*
X155351914Y-47880321D01*
X155497426Y-47922597D01*
X155497429Y-47922597D01*
X155497431Y-47922598D01*
X155534306Y-47925500D01*
X155534314Y-47925500D01*
X155965686Y-47925500D01*
X155965694Y-47925500D01*
X155965729Y-47925497D01*
X155965734Y-47925498D01*
X155968132Y-47925404D01*
X155968155Y-47926005D01*
X156034111Y-47939837D01*
X156083885Y-47988872D01*
X156099500Y-48049111D01*
X156099500Y-51360590D01*
X156099382Y-51365999D01*
X156082995Y-51741333D01*
X156082052Y-51752109D01*
X156033369Y-52121888D01*
X156031491Y-52132541D01*
X155950762Y-52496687D01*
X155947962Y-52507136D01*
X155835805Y-52862853D01*
X155832105Y-52873019D01*
X155689372Y-53217608D01*
X155684800Y-53227412D01*
X155512582Y-53558240D01*
X155507174Y-53567608D01*
X155306767Y-53882185D01*
X155300562Y-53891046D01*
X155073507Y-54186950D01*
X155066553Y-54195237D01*
X154812790Y-54472170D01*
X154809049Y-54476078D01*
X154309969Y-54975158D01*
X154248646Y-55008643D01*
X154178954Y-55003659D01*
X154123021Y-54961787D01*
X154098604Y-54896323D01*
X154098760Y-54876669D01*
X154102044Y-54839141D01*
X154105468Y-54800000D01*
X154100451Y-54742661D01*
X154092584Y-54652734D01*
X154085635Y-54573308D01*
X154026739Y-54353504D01*
X153930568Y-54147266D01*
X153800047Y-53960861D01*
X153800045Y-53960858D01*
X153639141Y-53799954D01*
X153452734Y-53669432D01*
X153452732Y-53669431D01*
X153246497Y-53573261D01*
X153246488Y-53573258D01*
X153026697Y-53514366D01*
X153026693Y-53514365D01*
X153026692Y-53514365D01*
X153026691Y-53514364D01*
X153026686Y-53514364D01*
X152800002Y-53494532D01*
X152799998Y-53494532D01*
X152573313Y-53514364D01*
X152573302Y-53514366D01*
X152353511Y-53573258D01*
X152353502Y-53573261D01*
X152147267Y-53669431D01*
X152147265Y-53669432D01*
X151960858Y-53799954D01*
X151799954Y-53960858D01*
X151669432Y-54147265D01*
X151669431Y-54147267D01*
X151573261Y-54353502D01*
X151573258Y-54353511D01*
X151514366Y-54573302D01*
X151514364Y-54573313D01*
X151494532Y-54799998D01*
X151494532Y-54800001D01*
X151514364Y-55026686D01*
X151514366Y-55026697D01*
X151573258Y-55246488D01*
X151573261Y-55246497D01*
X151669431Y-55452732D01*
X151669432Y-55452734D01*
X151799954Y-55639141D01*
X151960858Y-55800045D01*
X151960861Y-55800047D01*
X152147266Y-55930568D01*
X152353504Y-56026739D01*
X152573308Y-56085635D01*
X152735230Y-56099801D01*
X152799998Y-56105468D01*
X152800000Y-56105468D01*
X152800002Y-56105468D01*
X152955800Y-56091837D01*
X153026692Y-56085635D01*
X153026692Y-56085634D01*
X153032086Y-56085163D01*
X153032206Y-56086537D01*
X153095130Y-56093551D01*
X153149362Y-56137604D01*
X153171167Y-56203984D01*
X153153624Y-56271616D01*
X153147552Y-56280806D01*
X153139754Y-56291540D01*
X153139750Y-56291546D01*
X153139746Y-56291552D01*
X153044293Y-56447319D01*
X152909802Y-56666789D01*
X152909790Y-56666811D01*
X152710016Y-57058895D01*
X152710006Y-57058916D01*
X152541593Y-57465508D01*
X152541590Y-57465514D01*
X152405607Y-57884038D01*
X152405598Y-57884069D01*
X152302866Y-58311991D01*
X152234023Y-58746671D01*
X152199499Y-59185384D01*
X152199499Y-59185398D01*
X152199500Y-59326376D01*
X152199500Y-61188306D01*
X152179815Y-61255345D01*
X152146623Y-61289881D01*
X151960859Y-61419953D01*
X151799954Y-61580858D01*
X151669432Y-61767265D01*
X151669431Y-61767267D01*
X151573261Y-61973502D01*
X151573258Y-61973511D01*
X151514366Y-62193302D01*
X151514364Y-62193313D01*
X151494532Y-62419998D01*
X151494532Y-62420001D01*
X151514364Y-62646686D01*
X151514366Y-62646697D01*
X151540152Y-62742931D01*
X151538489Y-62812781D01*
X151508058Y-62862705D01*
X149567584Y-64803181D01*
X149506261Y-64836666D01*
X149479903Y-64839500D01*
X148981692Y-64839500D01*
X148914653Y-64819815D01*
X148880119Y-64786625D01*
X148750047Y-64600861D01*
X148750045Y-64600858D01*
X148589141Y-64439954D01*
X148402734Y-64309432D01*
X148402732Y-64309431D01*
X148196497Y-64213261D01*
X148196488Y-64213258D01*
X147976697Y-64154366D01*
X147976693Y-64154365D01*
X147976692Y-64154365D01*
X147976691Y-64154364D01*
X147976686Y-64154364D01*
X147750002Y-64134532D01*
X147749998Y-64134532D01*
X147523313Y-64154364D01*
X147523302Y-64154366D01*
X147303511Y-64213258D01*
X147303502Y-64213261D01*
X147097267Y-64309431D01*
X147097265Y-64309432D01*
X146910858Y-64439954D01*
X146749954Y-64600858D01*
X146619432Y-64787265D01*
X146619431Y-64787267D01*
X146523261Y-64993502D01*
X146523258Y-64993511D01*
X146464366Y-65213302D01*
X146464364Y-65213313D01*
X146444532Y-65439998D01*
X146444532Y-65440001D01*
X146464364Y-65666686D01*
X146464366Y-65666697D01*
X146523258Y-65886488D01*
X146523261Y-65886497D01*
X146619431Y-66092732D01*
X146619432Y-66092734D01*
X146749954Y-66279141D01*
X146910858Y-66440045D01*
X146910861Y-66440047D01*
X147097266Y-66570568D01*
X147303504Y-66666739D01*
X147303509Y-66666740D01*
X147303511Y-66666741D01*
X147342657Y-66677230D01*
X147523308Y-66725635D01*
X147685230Y-66739801D01*
X147749998Y-66745468D01*
X147750000Y-66745468D01*
X147750002Y-66745468D01*
X147806673Y-66740509D01*
X147976692Y-66725635D01*
X148196496Y-66666739D01*
X148402734Y-66570568D01*
X148589139Y-66440047D01*
X148750047Y-66279139D01*
X148880118Y-66093375D01*
X148934693Y-66049752D01*
X148981692Y-66040500D01*
X149479903Y-66040500D01*
X149546942Y-66060185D01*
X149567584Y-66076819D01*
X151309362Y-67818597D01*
X151358995Y-67868231D01*
X151362735Y-67872137D01*
X151529083Y-68053673D01*
X151616562Y-68149138D01*
X151623512Y-68157421D01*
X151737040Y-68305373D01*
X151850566Y-68453321D01*
X151856771Y-68462182D01*
X152057178Y-68776754D01*
X152062587Y-68786123D01*
X152234809Y-69116955D01*
X152239381Y-69126759D01*
X152382117Y-69471348D01*
X152385817Y-69481513D01*
X152497976Y-69837230D01*
X152500776Y-69847679D01*
X152581508Y-70211826D01*
X152583386Y-70222479D01*
X152592450Y-70291324D01*
X152581685Y-70360359D01*
X152540634Y-70409085D01*
X152410859Y-70499953D01*
X152249954Y-70660858D01*
X152119432Y-70847265D01*
X152119431Y-70847267D01*
X152023261Y-71053502D01*
X152023258Y-71053511D01*
X151964366Y-71273302D01*
X151964364Y-71273313D01*
X151944532Y-71499998D01*
X151944532Y-71500001D01*
X151964364Y-71726686D01*
X151964366Y-71726697D01*
X152023258Y-71946488D01*
X152023261Y-71946497D01*
X152119431Y-72152732D01*
X152119432Y-72152734D01*
X152249954Y-72339141D01*
X152410858Y-72500045D01*
X152410861Y-72500047D01*
X152597266Y-72630568D01*
X152803504Y-72726739D01*
X153023308Y-72785635D01*
X153185230Y-72799801D01*
X153249998Y-72805468D01*
X153250000Y-72805468D01*
X153250002Y-72805468D01*
X153306673Y-72800509D01*
X153476692Y-72785635D01*
X153696496Y-72726739D01*
X153902734Y-72630568D01*
X154089139Y-72500047D01*
X154250047Y-72339139D01*
X154376989Y-72157844D01*
X154431565Y-72114220D01*
X154483970Y-72105086D01*
X154756982Y-72117008D01*
X154767718Y-72117948D01*
X155137531Y-72166637D01*
X155148158Y-72168510D01*
X155512320Y-72249245D01*
X155522757Y-72252042D01*
X155878487Y-72364205D01*
X155888629Y-72367897D01*
X156233236Y-72510640D01*
X156243034Y-72515210D01*
X156573876Y-72687437D01*
X156583223Y-72692834D01*
X156892127Y-72889629D01*
X156938089Y-72942250D01*
X156949500Y-72994208D01*
X156949500Y-74147870D01*
X156949501Y-74147876D01*
X156955908Y-74207483D01*
X157006202Y-74342328D01*
X157006206Y-74342335D01*
X157092452Y-74457544D01*
X157092455Y-74457547D01*
X157207664Y-74543793D01*
X157207671Y-74543797D01*
X157342517Y-74594091D01*
X157342516Y-74594091D01*
X157349444Y-74594835D01*
X157402127Y-74600500D01*
X159097872Y-74600499D01*
X159157483Y-74594091D01*
X159292331Y-74543796D01*
X159407546Y-74457546D01*
X159493796Y-74342331D01*
X159544091Y-74207483D01*
X159547862Y-74172401D01*
X159574599Y-74107855D01*
X159631990Y-74068006D01*
X159701816Y-74065511D01*
X159761905Y-74101163D01*
X159772726Y-74114536D01*
X159789956Y-74139143D01*
X159950858Y-74300045D01*
X159950861Y-74300047D01*
X160137266Y-74430568D01*
X160343504Y-74526739D01*
X160563308Y-74585635D01*
X160725230Y-74599801D01*
X160789998Y-74605468D01*
X160790000Y-74605468D01*
X160790002Y-74605468D01*
X160846807Y-74600498D01*
X161016692Y-74585635D01*
X161236496Y-74526739D01*
X161442734Y-74430568D01*
X161629139Y-74300047D01*
X161790047Y-74139139D01*
X161920568Y-73952734D01*
X162016739Y-73746496D01*
X162075635Y-73526692D01*
X162095468Y-73300000D01*
X162075635Y-73073308D01*
X162016739Y-72853504D01*
X161920568Y-72647266D01*
X161790047Y-72460861D01*
X161790045Y-72460858D01*
X161629141Y-72299954D01*
X161442734Y-72169432D01*
X161442732Y-72169431D01*
X161236497Y-72073261D01*
X161236488Y-72073258D01*
X161016697Y-72014366D01*
X161016693Y-72014365D01*
X161016692Y-72014365D01*
X161016691Y-72014364D01*
X161016686Y-72014364D01*
X160790002Y-71994532D01*
X160789998Y-71994532D01*
X160563313Y-72014364D01*
X160563302Y-72014366D01*
X160343511Y-72073258D01*
X160343502Y-72073261D01*
X160137267Y-72169431D01*
X160137265Y-72169432D01*
X159950858Y-72299954D01*
X159789954Y-72460858D01*
X159772725Y-72485464D01*
X159718147Y-72529088D01*
X159648648Y-72536280D01*
X159586294Y-72504757D01*
X159550882Y-72444526D01*
X159547861Y-72427591D01*
X159545676Y-72407267D01*
X159544091Y-72392517D01*
X159524182Y-72339139D01*
X159493797Y-72257671D01*
X159493793Y-72257664D01*
X159407547Y-72142455D01*
X159407544Y-72142452D01*
X159292335Y-72056206D01*
X159292328Y-72056202D01*
X159157482Y-72005908D01*
X159157483Y-72005908D01*
X159097883Y-71999501D01*
X159097881Y-71999500D01*
X159097873Y-71999500D01*
X159097865Y-71999500D01*
X157752924Y-71999500D01*
X157685885Y-71979815D01*
X157680038Y-71975818D01*
X157613285Y-71927319D01*
X157492795Y-71839777D01*
X157492792Y-71839775D01*
X157492785Y-71839770D01*
X157117570Y-71609836D01*
X157117551Y-71609825D01*
X156725442Y-71410034D01*
X156318858Y-71241618D01*
X156318857Y-71241617D01*
X156318853Y-71241616D01*
X156086128Y-71165997D01*
X155900310Y-71105620D01*
X155900307Y-71105619D01*
X155900306Y-71105619D01*
X155472379Y-71002881D01*
X155037710Y-70934033D01*
X154598984Y-70899502D01*
X154598971Y-70899501D01*
X154481690Y-70899500D01*
X154414651Y-70879814D01*
X154380119Y-70846625D01*
X154250047Y-70660861D01*
X154250045Y-70660858D01*
X154089141Y-70499954D01*
X153902735Y-70369432D01*
X153876884Y-70357377D01*
X153824446Y-70311203D01*
X153806819Y-70264395D01*
X153747141Y-69887617D01*
X153644402Y-69459688D01*
X153508404Y-69041139D01*
X153339987Y-68634551D01*
X153140189Y-68242429D01*
X152979241Y-67979790D01*
X152960997Y-67912346D01*
X152982113Y-67845743D01*
X153035885Y-67801129D01*
X153095777Y-67791473D01*
X153249999Y-67804966D01*
X153250002Y-67804966D01*
X153476599Y-67785141D01*
X153476610Y-67785139D01*
X153696317Y-67726269D01*
X153696331Y-67726264D01*
X153902478Y-67630136D01*
X153975471Y-67579024D01*
X153296446Y-66900000D01*
X153302661Y-66900000D01*
X153404394Y-66872741D01*
X153495606Y-66820080D01*
X153570080Y-66745606D01*
X153622741Y-66654394D01*
X153650000Y-66552661D01*
X153650000Y-66546447D01*
X154329024Y-67225471D01*
X154380136Y-67152478D01*
X154476264Y-66946331D01*
X154476269Y-66946317D01*
X154535139Y-66726610D01*
X154535141Y-66726599D01*
X154554966Y-66500002D01*
X154554966Y-66499997D01*
X154535141Y-66273400D01*
X154535139Y-66273389D01*
X154476269Y-66053682D01*
X154476264Y-66053668D01*
X154380136Y-65847521D01*
X154380132Y-65847513D01*
X154329025Y-65774526D01*
X153650000Y-66453551D01*
X153650000Y-66447339D01*
X153622741Y-66345606D01*
X153570080Y-66254394D01*
X153495606Y-66179920D01*
X153404394Y-66127259D01*
X153302661Y-66100000D01*
X153296445Y-66100000D01*
X153975472Y-65420974D01*
X153902478Y-65369863D01*
X153696331Y-65273735D01*
X153696317Y-65273730D01*
X153476610Y-65214860D01*
X153476599Y-65214858D01*
X153250002Y-65195034D01*
X153249998Y-65195034D01*
X153023400Y-65214858D01*
X153023389Y-65214860D01*
X152803682Y-65273730D01*
X152803673Y-65273734D01*
X152597516Y-65369866D01*
X152597512Y-65369868D01*
X152524526Y-65420973D01*
X152524526Y-65420974D01*
X153203553Y-66100000D01*
X153197339Y-66100000D01*
X153095606Y-66127259D01*
X153004394Y-66179920D01*
X152929920Y-66254394D01*
X152877259Y-66345606D01*
X152850000Y-66447339D01*
X152850000Y-66453553D01*
X152170974Y-65774526D01*
X152170973Y-65774526D01*
X152119868Y-65847512D01*
X152119866Y-65847516D01*
X152023734Y-66053673D01*
X152023730Y-66053682D01*
X151964860Y-66273389D01*
X151964858Y-66273400D01*
X151947631Y-66470313D01*
X151922179Y-66535382D01*
X151865588Y-66576361D01*
X151795826Y-66580239D01*
X151736422Y-66547187D01*
X150716915Y-65527680D01*
X150683430Y-65466357D01*
X150688414Y-65396665D01*
X150716911Y-65352323D01*
X152357294Y-63711939D01*
X152418615Y-63678456D01*
X152477066Y-63679847D01*
X152496604Y-63685082D01*
X152573308Y-63705635D01*
X152735230Y-63719801D01*
X152799998Y-63725468D01*
X152800000Y-63725468D01*
X152800002Y-63725468D01*
X152856673Y-63720509D01*
X153026692Y-63705635D01*
X153246496Y-63646739D01*
X153452734Y-63550568D01*
X153639139Y-63420047D01*
X153800047Y-63259139D01*
X153930568Y-63072734D01*
X154026739Y-62866496D01*
X154085635Y-62646692D01*
X154105468Y-62420000D01*
X154095844Y-62309998D01*
X155694532Y-62309998D01*
X155694532Y-62310001D01*
X155714364Y-62536686D01*
X155714366Y-62536697D01*
X155773258Y-62756488D01*
X155773261Y-62756497D01*
X155869431Y-62962732D01*
X155869432Y-62962734D01*
X155999954Y-63149141D01*
X156160858Y-63310045D01*
X156160861Y-63310047D01*
X156347266Y-63440568D01*
X156553504Y-63536739D01*
X156773308Y-63595635D01*
X156935230Y-63609801D01*
X156999998Y-63615468D01*
X157000000Y-63615468D01*
X157000002Y-63615468D01*
X157056673Y-63610509D01*
X157226692Y-63595635D01*
X157446496Y-63536739D01*
X157652734Y-63440568D01*
X157839139Y-63310047D01*
X158000047Y-63149139D01*
X158130118Y-62963375D01*
X158184693Y-62919752D01*
X158231692Y-62910500D01*
X160488099Y-62910500D01*
X160555138Y-62930185D01*
X160600481Y-62982094D01*
X160619431Y-63022733D01*
X160749954Y-63209141D01*
X160910858Y-63370045D01*
X160910861Y-63370047D01*
X161096624Y-63500118D01*
X161140248Y-63554693D01*
X161149500Y-63601692D01*
X161149500Y-64270662D01*
X161129815Y-64337701D01*
X161077011Y-64383456D01*
X161014693Y-64394190D01*
X160790002Y-64374532D01*
X160789998Y-64374532D01*
X160563313Y-64394364D01*
X160563302Y-64394366D01*
X160343511Y-64453258D01*
X160343502Y-64453261D01*
X160137267Y-64549431D01*
X160137265Y-64549432D01*
X159950858Y-64679954D01*
X159789954Y-64840858D01*
X159659432Y-65027265D01*
X159659431Y-65027267D01*
X159632382Y-65085275D01*
X159586209Y-65137714D01*
X159519016Y-65156866D01*
X159452135Y-65136650D01*
X159407618Y-65085275D01*
X159396866Y-65062218D01*
X159380568Y-65027266D01*
X159250047Y-64840861D01*
X159250045Y-64840858D01*
X159089141Y-64679954D01*
X158902734Y-64549432D01*
X158902732Y-64549431D01*
X158696497Y-64453261D01*
X158696488Y-64453258D01*
X158476697Y-64394366D01*
X158476693Y-64394365D01*
X158476692Y-64394365D01*
X158476691Y-64394364D01*
X158476686Y-64394364D01*
X158250002Y-64374532D01*
X158249998Y-64374532D01*
X158023313Y-64394364D01*
X158023302Y-64394366D01*
X157803511Y-64453258D01*
X157803502Y-64453261D01*
X157597267Y-64549431D01*
X157597265Y-64549432D01*
X157410858Y-64679954D01*
X157249954Y-64840858D01*
X157119432Y-65027265D01*
X157119431Y-65027267D01*
X157023261Y-65233502D01*
X157023258Y-65233511D01*
X156964366Y-65453302D01*
X156964364Y-65453313D01*
X156944532Y-65679998D01*
X156944532Y-65680001D01*
X156964364Y-65906686D01*
X156964366Y-65906697D01*
X157023258Y-66126488D01*
X157023261Y-66126497D01*
X157119431Y-66332732D01*
X157119432Y-66332734D01*
X157249954Y-66519141D01*
X157410858Y-66680045D01*
X157410861Y-66680047D01*
X157597266Y-66810568D01*
X157803504Y-66906739D01*
X158023308Y-66965635D01*
X158185230Y-66979801D01*
X158249998Y-66985468D01*
X158250000Y-66985468D01*
X158250002Y-66985468D01*
X158306673Y-66980509D01*
X158476692Y-66965635D01*
X158696496Y-66906739D01*
X158902734Y-66810568D01*
X159089139Y-66680047D01*
X159250047Y-66519139D01*
X159380568Y-66332734D01*
X159407618Y-66274724D01*
X159453790Y-66222285D01*
X159520983Y-66203133D01*
X159587865Y-66223348D01*
X159632382Y-66274725D01*
X159659429Y-66332728D01*
X159659432Y-66332734D01*
X159789954Y-66519141D01*
X159950858Y-66680045D01*
X159950861Y-66680047D01*
X160137266Y-66810568D01*
X160343504Y-66906739D01*
X160563308Y-66965635D01*
X160725230Y-66979801D01*
X160789998Y-66985468D01*
X160790000Y-66985468D01*
X160790002Y-66985468D01*
X160846673Y-66980509D01*
X161016692Y-66965635D01*
X161236496Y-66906739D01*
X161442734Y-66810568D01*
X161629139Y-66680047D01*
X161790047Y-66519139D01*
X161920568Y-66332734D01*
X162016739Y-66126496D01*
X162075635Y-65906692D01*
X162095468Y-65680000D01*
X162075635Y-65453308D01*
X162049847Y-65357066D01*
X162051510Y-65287217D01*
X162081939Y-65237294D01*
X162108506Y-65210728D01*
X162108511Y-65210724D01*
X162118714Y-65200520D01*
X162118716Y-65200520D01*
X162230520Y-65088716D01*
X162285490Y-64993504D01*
X162309577Y-64951785D01*
X162350501Y-64799057D01*
X162350501Y-64640943D01*
X162350501Y-64633348D01*
X162350500Y-64633330D01*
X162350500Y-63601692D01*
X162370185Y-63534653D01*
X162403374Y-63500119D01*
X162589139Y-63370047D01*
X162750047Y-63209139D01*
X162880568Y-63022734D01*
X162976739Y-62816496D01*
X163035635Y-62596692D01*
X163055468Y-62370000D01*
X163050218Y-62309998D01*
X163035635Y-62143313D01*
X163035635Y-62143308D01*
X162976739Y-61923504D01*
X162880568Y-61717266D01*
X162750047Y-61530861D01*
X162750045Y-61530858D01*
X162589140Y-61369953D01*
X162402734Y-61239432D01*
X162402732Y-61239431D01*
X162196497Y-61143261D01*
X162196488Y-61143258D01*
X161976697Y-61084366D01*
X161976693Y-61084365D01*
X161976692Y-61084365D01*
X161976691Y-61084364D01*
X161976686Y-61084364D01*
X161750002Y-61064532D01*
X161749998Y-61064532D01*
X161523313Y-61084364D01*
X161523302Y-61084366D01*
X161303511Y-61143258D01*
X161303502Y-61143261D01*
X161097267Y-61239431D01*
X161097265Y-61239432D01*
X160910860Y-61369953D01*
X160749954Y-61530858D01*
X160661894Y-61656623D01*
X160607317Y-61700248D01*
X160560319Y-61709500D01*
X158231692Y-61709500D01*
X158164653Y-61689815D01*
X158130119Y-61656625D01*
X158000047Y-61470861D01*
X158000045Y-61470858D01*
X157839141Y-61309954D01*
X157652734Y-61179432D01*
X157652732Y-61179431D01*
X157446497Y-61083261D01*
X157446488Y-61083258D01*
X157226697Y-61024366D01*
X157226693Y-61024365D01*
X157226692Y-61024365D01*
X157226691Y-61024364D01*
X157226686Y-61024364D01*
X157000002Y-61004532D01*
X156999998Y-61004532D01*
X156773313Y-61024364D01*
X156773302Y-61024366D01*
X156553511Y-61083258D01*
X156553502Y-61083261D01*
X156347267Y-61179431D01*
X156347265Y-61179432D01*
X156160858Y-61309954D01*
X155999954Y-61470858D01*
X155869432Y-61657265D01*
X155869431Y-61657267D01*
X155773261Y-61863502D01*
X155773258Y-61863511D01*
X155714366Y-62083302D01*
X155714364Y-62083313D01*
X155694532Y-62309998D01*
X154095844Y-62309998D01*
X154085635Y-62193308D01*
X154026739Y-61973504D01*
X153930568Y-61767266D01*
X153800047Y-61580861D01*
X153800045Y-61580858D01*
X153639140Y-61419953D01*
X153453377Y-61289881D01*
X153409752Y-61235304D01*
X153400500Y-61188306D01*
X153400500Y-59408133D01*
X153400618Y-59402725D01*
X153403951Y-59326376D01*
X153417004Y-59027369D01*
X153417942Y-59016639D01*
X153466629Y-58646812D01*
X153468500Y-58636201D01*
X153549237Y-58272010D01*
X153552024Y-58261607D01*
X153664187Y-57905864D01*
X153667887Y-57895701D01*
X153711763Y-57789773D01*
X153810623Y-57551099D01*
X153815175Y-57541336D01*
X153987416Y-57210459D01*
X153992809Y-57201117D01*
X154193236Y-56886508D01*
X154199410Y-56877690D01*
X154426487Y-56581755D01*
X154433415Y-56573498D01*
X154686876Y-56296889D01*
X154690598Y-56293003D01*
X154712964Y-56270635D01*
X154712965Y-56270634D01*
X155615266Y-55368333D01*
X155615275Y-55368328D01*
X155671899Y-55311704D01*
X155733222Y-55278218D01*
X155802914Y-55283202D01*
X155858847Y-55325073D01*
X155866641Y-55338096D01*
X155867161Y-55337797D01*
X155869865Y-55342481D01*
X156000342Y-55528820D01*
X156161179Y-55689657D01*
X156347517Y-55820134D01*
X156553673Y-55916265D01*
X156553682Y-55916269D01*
X156749999Y-55968872D01*
X156750000Y-55968871D01*
X156750000Y-55005686D01*
X156754394Y-55010080D01*
X156845606Y-55062741D01*
X156947339Y-55090000D01*
X157052661Y-55090000D01*
X157154394Y-55062741D01*
X157245606Y-55010080D01*
X157250000Y-55005686D01*
X157250000Y-55968872D01*
X157446317Y-55916269D01*
X157446326Y-55916265D01*
X157652482Y-55820134D01*
X157838820Y-55689657D01*
X157999657Y-55528820D01*
X158130134Y-55342482D01*
X158226265Y-55136326D01*
X158226269Y-55136317D01*
X158278872Y-54940000D01*
X157315686Y-54940000D01*
X157320080Y-54935606D01*
X157372741Y-54844394D01*
X157398034Y-54749998D01*
X160444532Y-54749998D01*
X160444532Y-54750001D01*
X160464364Y-54976686D01*
X160464366Y-54976697D01*
X160523258Y-55196488D01*
X160523261Y-55196497D01*
X160619431Y-55402732D01*
X160619432Y-55402734D01*
X160749954Y-55589141D01*
X160910858Y-55750045D01*
X160910861Y-55750047D01*
X161097266Y-55880568D01*
X161303504Y-55976739D01*
X161523308Y-56035635D01*
X161685230Y-56049801D01*
X161749998Y-56055468D01*
X161750000Y-56055468D01*
X161750002Y-56055468D01*
X161806673Y-56050509D01*
X161976692Y-56035635D01*
X162196496Y-55976739D01*
X162402734Y-55880568D01*
X162589139Y-55750047D01*
X162750047Y-55589139D01*
X162880568Y-55402734D01*
X162976739Y-55196496D01*
X163035635Y-54976692D01*
X163055468Y-54750000D01*
X163035635Y-54523308D01*
X162976739Y-54303504D01*
X162880568Y-54097266D01*
X162750047Y-53910861D01*
X162750045Y-53910858D01*
X162589143Y-53749956D01*
X162463376Y-53661893D01*
X162419752Y-53607316D01*
X162410500Y-53560318D01*
X162410500Y-51731692D01*
X162430185Y-51664653D01*
X162463374Y-51630119D01*
X162649139Y-51500047D01*
X162810047Y-51339139D01*
X162940568Y-51152734D01*
X163036739Y-50946496D01*
X163095635Y-50726692D01*
X163115468Y-50500000D01*
X163095635Y-50273308D01*
X163036739Y-50053504D01*
X162940568Y-49847266D01*
X162810047Y-49660861D01*
X162810045Y-49660858D01*
X162649141Y-49499954D01*
X162462734Y-49369432D01*
X162462732Y-49369431D01*
X162256497Y-49273261D01*
X162256488Y-49273258D01*
X162036697Y-49214366D01*
X162036693Y-49214365D01*
X162036692Y-49214365D01*
X162036691Y-49214364D01*
X162036686Y-49214364D01*
X161810002Y-49194532D01*
X161809998Y-49194532D01*
X161583313Y-49214364D01*
X161583302Y-49214366D01*
X161363511Y-49273258D01*
X161363502Y-49273261D01*
X161157267Y-49369431D01*
X161157265Y-49369432D01*
X160970858Y-49499954D01*
X160809954Y-49660858D01*
X160679432Y-49847265D01*
X160679431Y-49847267D01*
X160583261Y-50053502D01*
X160583258Y-50053511D01*
X160524366Y-50273302D01*
X160524364Y-50273313D01*
X160504532Y-50499998D01*
X160504532Y-50500001D01*
X160524364Y-50726686D01*
X160524366Y-50726697D01*
X160583258Y-50946488D01*
X160583261Y-50946497D01*
X160679431Y-51152732D01*
X160679432Y-51152734D01*
X160809954Y-51339141D01*
X160970858Y-51500045D01*
X160970861Y-51500047D01*
X161156624Y-51630118D01*
X161200248Y-51684693D01*
X161209500Y-51731692D01*
X161209500Y-53488099D01*
X161189815Y-53555138D01*
X161137906Y-53600481D01*
X161097266Y-53619431D01*
X160910858Y-53749954D01*
X160749954Y-53910858D01*
X160619432Y-54097265D01*
X160619431Y-54097267D01*
X160523261Y-54303502D01*
X160523258Y-54303511D01*
X160464366Y-54523302D01*
X160464364Y-54523313D01*
X160444532Y-54749998D01*
X157398034Y-54749998D01*
X157400000Y-54742661D01*
X157400000Y-54637339D01*
X157372741Y-54535606D01*
X157320080Y-54444394D01*
X157315686Y-54440000D01*
X158278872Y-54440000D01*
X158278872Y-54439999D01*
X158226269Y-54243682D01*
X158226265Y-54243673D01*
X158130134Y-54037517D01*
X157999657Y-53851179D01*
X157838820Y-53690342D01*
X157652482Y-53559865D01*
X157446328Y-53463734D01*
X157250000Y-53411127D01*
X157250000Y-54374314D01*
X157245606Y-54369920D01*
X157154394Y-54317259D01*
X157052661Y-54290000D01*
X156947339Y-54290000D01*
X156845606Y-54317259D01*
X156754394Y-54369920D01*
X156750000Y-54374314D01*
X156750000Y-53818046D01*
X156763514Y-53761753D01*
X156789981Y-53709810D01*
X156958396Y-53303221D01*
X157094390Y-52884672D01*
X157197127Y-52456743D01*
X157265971Y-52022073D01*
X157300500Y-51583341D01*
X157300500Y-51363297D01*
X157300500Y-51333648D01*
X157300500Y-47309999D01*
X160721127Y-47309999D01*
X160721128Y-47310000D01*
X161684314Y-47310000D01*
X161679920Y-47314394D01*
X161627259Y-47405606D01*
X161600000Y-47507339D01*
X161600000Y-47612661D01*
X161627259Y-47714394D01*
X161679920Y-47805606D01*
X161684314Y-47810000D01*
X160721128Y-47810000D01*
X160773730Y-48006317D01*
X160773734Y-48006326D01*
X160869865Y-48212482D01*
X161000342Y-48398820D01*
X161161179Y-48559657D01*
X161347517Y-48690134D01*
X161553673Y-48786265D01*
X161553682Y-48786269D01*
X161749999Y-48838872D01*
X161750000Y-48838871D01*
X161750000Y-47875686D01*
X161754394Y-47880080D01*
X161845606Y-47932741D01*
X161947339Y-47960000D01*
X162052661Y-47960000D01*
X162154394Y-47932741D01*
X162245606Y-47880080D01*
X162250000Y-47875686D01*
X162250000Y-48838872D01*
X162446317Y-48786269D01*
X162446326Y-48786265D01*
X162652482Y-48690134D01*
X162838820Y-48559657D01*
X162999657Y-48398820D01*
X163130134Y-48212482D01*
X163226265Y-48006326D01*
X163226269Y-48006317D01*
X163278872Y-47810000D01*
X162315686Y-47810000D01*
X162320080Y-47805606D01*
X162372741Y-47714394D01*
X162400000Y-47612661D01*
X162400000Y-47507339D01*
X162372741Y-47405606D01*
X162320080Y-47314394D01*
X162315686Y-47310000D01*
X163278872Y-47310000D01*
X163278872Y-47309999D01*
X163226269Y-47113682D01*
X163226265Y-47113673D01*
X163130134Y-46907517D01*
X162999657Y-46721179D01*
X162838820Y-46560342D01*
X162652482Y-46429865D01*
X162446328Y-46333734D01*
X162250000Y-46281127D01*
X162250000Y-47244314D01*
X162245606Y-47239920D01*
X162154394Y-47187259D01*
X162052661Y-47160000D01*
X161947339Y-47160000D01*
X161845606Y-47187259D01*
X161754394Y-47239920D01*
X161750000Y-47244314D01*
X161750000Y-46281127D01*
X161553671Y-46333734D01*
X161347517Y-46429865D01*
X161161179Y-46560342D01*
X161000342Y-46721179D01*
X160869865Y-46907517D01*
X160773734Y-47113673D01*
X160773730Y-47113682D01*
X160721127Y-47309999D01*
X157300500Y-47309999D01*
X157300500Y-45920808D01*
X157320185Y-45853769D01*
X157336820Y-45833126D01*
X157368076Y-45801870D01*
X157368081Y-45801865D01*
X157451744Y-45660398D01*
X157497598Y-45502569D01*
X157500500Y-45465694D01*
X157500500Y-44159306D01*
X157497598Y-44122431D01*
X157451744Y-43964602D01*
X157368081Y-43823135D01*
X157368079Y-43823133D01*
X157368076Y-43823129D01*
X157251870Y-43706923D01*
X157251862Y-43706917D01*
X157173681Y-43660681D01*
X157110398Y-43623256D01*
X157110397Y-43623255D01*
X157110396Y-43623255D01*
X157110394Y-43623254D01*
X157101025Y-43620532D01*
X157042141Y-43582923D01*
X157012937Y-43519450D01*
X157022686Y-43450263D01*
X157047946Y-43413774D01*
X157070837Y-43390883D01*
X157070837Y-43390882D01*
X157070850Y-43390870D01*
X157356665Y-43056225D01*
X157615343Y-42700187D01*
X157845289Y-42324951D01*
X158045085Y-41932830D01*
X158213501Y-41526243D01*
X158349496Y-41107695D01*
X158452234Y-40679767D01*
X158521081Y-40245097D01*
X158555611Y-39806366D01*
X158555612Y-39586322D01*
X158555612Y-39513409D01*
X158555612Y-38424499D01*
X158575297Y-38357460D01*
X158628101Y-38311705D01*
X158679612Y-38300499D01*
X158802983Y-38300499D01*
X158802984Y-38300499D01*
X158862595Y-38294091D01*
X158997443Y-38243796D01*
X159112658Y-38157546D01*
X159136348Y-38125900D01*
X159192280Y-38084029D01*
X159261972Y-38079045D01*
X159323295Y-38112530D01*
X160708058Y-39497293D01*
X160741543Y-39558616D01*
X160740152Y-39617067D01*
X160714366Y-39713302D01*
X160714364Y-39713313D01*
X160694532Y-39939998D01*
X160694532Y-39940001D01*
X160714364Y-40166686D01*
X160714366Y-40166697D01*
X160773258Y-40386488D01*
X160773261Y-40386497D01*
X160869431Y-40592732D01*
X160869432Y-40592734D01*
X160999954Y-40779141D01*
X161160858Y-40940045D01*
X161160861Y-40940047D01*
X161347266Y-41070568D01*
X161553504Y-41166739D01*
X161773308Y-41225635D01*
X161935230Y-41239801D01*
X161999998Y-41245468D01*
X162000000Y-41245468D01*
X162000002Y-41245468D01*
X162056673Y-41240509D01*
X162226692Y-41225635D01*
X162446496Y-41166739D01*
X162652734Y-41070568D01*
X162839139Y-40940047D01*
X163000047Y-40779139D01*
X163130568Y-40592734D01*
X163226739Y-40386496D01*
X163285635Y-40166692D01*
X163305468Y-39940000D01*
X163285635Y-39713308D01*
X163226739Y-39493504D01*
X163130568Y-39287266D01*
X163000047Y-39100861D01*
X163000045Y-39100858D01*
X162839141Y-38939954D01*
X162652734Y-38809432D01*
X162652732Y-38809431D01*
X162446497Y-38713261D01*
X162446488Y-38713258D01*
X162226697Y-38654366D01*
X162226693Y-38654365D01*
X162226692Y-38654365D01*
X162226691Y-38654364D01*
X162226686Y-38654364D01*
X162000002Y-38634532D01*
X161999998Y-38634532D01*
X161773313Y-38654364D01*
X161773302Y-38654366D01*
X161677067Y-38680152D01*
X161607217Y-38678489D01*
X161557293Y-38648058D01*
X159547590Y-36638355D01*
X159547588Y-36638352D01*
X159428717Y-36519481D01*
X159428716Y-36519480D01*
X159341904Y-36469360D01*
X159341904Y-36469359D01*
X159341900Y-36469358D01*
X159317608Y-36455332D01*
X159269394Y-36404765D01*
X159255611Y-36347947D01*
X159255611Y-36152129D01*
X159255610Y-36152123D01*
X159249203Y-36092516D01*
X159198909Y-35957671D01*
X159198905Y-35957664D01*
X159112659Y-35842455D01*
X159112656Y-35842452D01*
X158997447Y-35756206D01*
X158997440Y-35756202D01*
X158862594Y-35705908D01*
X158862595Y-35705908D01*
X158802995Y-35699501D01*
X158802993Y-35699500D01*
X158802985Y-35699500D01*
X158802976Y-35699500D01*
X157107241Y-35699500D01*
X157107235Y-35699501D01*
X157047628Y-35705908D01*
X156912783Y-35756202D01*
X156912776Y-35756206D01*
X156797567Y-35842452D01*
X156797564Y-35842455D01*
X156711318Y-35957664D01*
X156711314Y-35957671D01*
X156661021Y-36092513D01*
X156659744Y-36097922D01*
X156625170Y-36158638D01*
X156563259Y-36191023D01*
X156493668Y-36184796D01*
X156451386Y-36157087D01*
X156294253Y-35999954D01*
X156107846Y-35869432D01*
X156107844Y-35869431D01*
X155901609Y-35773261D01*
X155901600Y-35773258D01*
X155681809Y-35714366D01*
X155681805Y-35714365D01*
X155681804Y-35714365D01*
X155681803Y-35714364D01*
X155681798Y-35714364D01*
X155455114Y-35694532D01*
X155455110Y-35694532D01*
X155228425Y-35714364D01*
X155228414Y-35714366D01*
X155008623Y-35773258D01*
X155008614Y-35773261D01*
X154802379Y-35869431D01*
X154802377Y-35869432D01*
X154615970Y-35999954D01*
X154455066Y-36160858D01*
X154324544Y-36347265D01*
X154324543Y-36347267D01*
X154228373Y-36553502D01*
X154228370Y-36553511D01*
X154169478Y-36773302D01*
X154169476Y-36773313D01*
X154149644Y-36999998D01*
X154149644Y-37000001D01*
X154169476Y-37226686D01*
X154169478Y-37226697D01*
X154228370Y-37446488D01*
X154228373Y-37446497D01*
X154324543Y-37652732D01*
X154324544Y-37652734D01*
X154455066Y-37839141D01*
X154615970Y-38000045D01*
X154615973Y-38000047D01*
X154802378Y-38130568D01*
X155008616Y-38226739D01*
X155228420Y-38285635D01*
X155390342Y-38299801D01*
X155455110Y-38305468D01*
X155455112Y-38305468D01*
X155455114Y-38305468D01*
X155511919Y-38300498D01*
X155681804Y-38285635D01*
X155901608Y-38226739D01*
X156107846Y-38130568D01*
X156294251Y-38000047D01*
X156451386Y-37842911D01*
X156512708Y-37809428D01*
X156582399Y-37814412D01*
X156638333Y-37856283D01*
X156659741Y-37902070D01*
X156661020Y-37907480D01*
X156711314Y-38042328D01*
X156711318Y-38042335D01*
X156797564Y-38157544D01*
X156797567Y-38157547D01*
X156912776Y-38243793D01*
X156912783Y-38243797D01*
X156957730Y-38260561D01*
X157047629Y-38294091D01*
X157107239Y-38300500D01*
X157230612Y-38300499D01*
X157297651Y-38320183D01*
X157343406Y-38372987D01*
X157354612Y-38424499D01*
X157354612Y-39583611D01*
X157354494Y-39589020D01*
X157338105Y-39964350D01*
X157337162Y-39975127D01*
X157288478Y-40344909D01*
X157286600Y-40355562D01*
X157205870Y-40719706D01*
X157203070Y-40730155D01*
X157090912Y-41085871D01*
X157087212Y-41096036D01*
X156944478Y-41440624D01*
X156939906Y-41450428D01*
X156767683Y-41781264D01*
X156762274Y-41790632D01*
X156561880Y-42105186D01*
X156555676Y-42114047D01*
X156328612Y-42409963D01*
X156321658Y-42418250D01*
X156067697Y-42695398D01*
X156063956Y-42699306D01*
X155207708Y-43555554D01*
X155146385Y-43589039D01*
X155085433Y-43586950D01*
X155052569Y-43577402D01*
X155052563Y-43577401D01*
X155015701Y-43574500D01*
X155015694Y-43574500D01*
X154584306Y-43574500D01*
X154584298Y-43574500D01*
X154547432Y-43577401D01*
X154547426Y-43577402D01*
X154389606Y-43623254D01*
X154389603Y-43623255D01*
X154248137Y-43706917D01*
X154248129Y-43706923D01*
X154131923Y-43823129D01*
X154131917Y-43823137D01*
X154048255Y-43964603D01*
X154048254Y-43964606D01*
X154002402Y-44122426D01*
X154002401Y-44122432D01*
X153999500Y-44159298D01*
X153999500Y-45465701D01*
X154002401Y-45502567D01*
X154002402Y-45502573D01*
X154048254Y-45660393D01*
X154048255Y-45660396D01*
X154131917Y-45801862D01*
X154131923Y-45801870D01*
X154248473Y-45918420D01*
X154281958Y-45979743D01*
X154276974Y-46049435D01*
X154235102Y-46105368D01*
X154180191Y-46128574D01*
X153790122Y-46190358D01*
X153790119Y-46190358D01*
X153790117Y-46190359D01*
X153362188Y-46293098D01*
X153362183Y-46293099D01*
X152943633Y-46429098D01*
X152537048Y-46597514D01*
X152144937Y-46797306D01*
X152144918Y-46797317D01*
X151769702Y-47027252D01*
X151413654Y-47285939D01*
X151079015Y-47571749D01*
X151079001Y-47571762D01*
X150961877Y-47688887D01*
X150961876Y-47688888D01*
X150923416Y-47727346D01*
X150923417Y-47727347D01*
X150923414Y-47727350D01*
X150898638Y-47752127D01*
X145881286Y-52769478D01*
X145769481Y-52881282D01*
X145769479Y-52881285D01*
X145735671Y-52939844D01*
X145735670Y-52939846D01*
X145690423Y-53018214D01*
X145690423Y-53018215D01*
X145649499Y-53170943D01*
X145649499Y-53170945D01*
X145649499Y-53339046D01*
X145649500Y-53339059D01*
X145649500Y-54426220D01*
X145649382Y-54431630D01*
X145632992Y-54806962D01*
X145632049Y-54817738D01*
X145583364Y-55187518D01*
X145581486Y-55198171D01*
X145500755Y-55562314D01*
X145497955Y-55572763D01*
X145385796Y-55928479D01*
X145382096Y-55938645D01*
X145239361Y-56283231D01*
X145234789Y-56293034D01*
X145062568Y-56623865D01*
X145057159Y-56633234D01*
X144856753Y-56947804D01*
X144850549Y-56956664D01*
X144655794Y-57210473D01*
X144623499Y-57252560D01*
X144616545Y-57260847D01*
X144362381Y-57538216D01*
X144358642Y-57542121D01*
X144309363Y-57591402D01*
X141471403Y-60429362D01*
X141421767Y-60478996D01*
X141417862Y-60482735D01*
X141140861Y-60736562D01*
X141132574Y-60743515D01*
X140836678Y-60970566D01*
X140827817Y-60976771D01*
X140513245Y-61177178D01*
X140503876Y-61182587D01*
X140173044Y-61354809D01*
X140163240Y-61359381D01*
X139818651Y-61502117D01*
X139808486Y-61505817D01*
X139452769Y-61617976D01*
X139442320Y-61620775D01*
X139078175Y-61701507D01*
X139067522Y-61703386D01*
X138697740Y-61752071D01*
X138686964Y-61753014D01*
X138312134Y-61769382D01*
X138306724Y-61769500D01*
X136981692Y-61769500D01*
X136914653Y-61749815D01*
X136880119Y-61716625D01*
X136750047Y-61530861D01*
X136750045Y-61530858D01*
X136589140Y-61369953D01*
X136402734Y-61239432D01*
X136402732Y-61239431D01*
X136196497Y-61143261D01*
X136196488Y-61143258D01*
X135976697Y-61084366D01*
X135976693Y-61084365D01*
X135976692Y-61084365D01*
X135976691Y-61084364D01*
X135976686Y-61084364D01*
X135750002Y-61064532D01*
X135749998Y-61064532D01*
X135523313Y-61084364D01*
X135523302Y-61084366D01*
X135303511Y-61143258D01*
X135303502Y-61143261D01*
X135097267Y-61239431D01*
X135097265Y-61239432D01*
X134910860Y-61369953D01*
X134749954Y-61530858D01*
X134619432Y-61717265D01*
X134619431Y-61717267D01*
X134523261Y-61923502D01*
X134523258Y-61923511D01*
X134464366Y-62143302D01*
X134464364Y-62143313D01*
X134444532Y-62369998D01*
X134444532Y-62370001D01*
X134464364Y-62596686D01*
X134464366Y-62596697D01*
X134523258Y-62816488D01*
X134523261Y-62816497D01*
X134619431Y-63022732D01*
X134619432Y-63022734D01*
X134749954Y-63209141D01*
X134910858Y-63370045D01*
X134910861Y-63370047D01*
X135096624Y-63500118D01*
X135140248Y-63554693D01*
X135149500Y-63601692D01*
X135149500Y-64881332D01*
X135149382Y-64886742D01*
X135132991Y-65262072D01*
X135132048Y-65272848D01*
X135083361Y-65642637D01*
X135081482Y-65653291D01*
X135000754Y-66017417D01*
X134997955Y-66027865D01*
X134885794Y-66383584D01*
X134882094Y-66393750D01*
X134739357Y-66738339D01*
X134734785Y-66748142D01*
X134562561Y-67078977D01*
X134557152Y-67088346D01*
X134522890Y-67142126D01*
X134470268Y-67188089D01*
X134418310Y-67199500D01*
X133357242Y-67199500D01*
X133357236Y-67199501D01*
X133297629Y-67205908D01*
X133162784Y-67256202D01*
X133162777Y-67256206D01*
X133047568Y-67342452D01*
X133047565Y-67342455D01*
X132961319Y-67457664D01*
X132961315Y-67457671D01*
X132911021Y-67592517D01*
X132906977Y-67630136D01*
X132904614Y-67652123D01*
X132904435Y-67655452D01*
X132902960Y-67655372D01*
X132884928Y-67716784D01*
X132832124Y-67762539D01*
X132788635Y-67770029D01*
X132105113Y-68453551D01*
X132105113Y-68447339D01*
X132077854Y-68345606D01*
X132025193Y-68254394D01*
X131950719Y-68179920D01*
X131859507Y-68127259D01*
X131757774Y-68100000D01*
X131751558Y-68100000D01*
X132430585Y-67420974D01*
X132357591Y-67369863D01*
X132151444Y-67273735D01*
X132151430Y-67273730D01*
X131931723Y-67214860D01*
X131931712Y-67214858D01*
X131705115Y-67195034D01*
X131705111Y-67195034D01*
X131478513Y-67214858D01*
X131478502Y-67214860D01*
X131258795Y-67273730D01*
X131258786Y-67273734D01*
X131052629Y-67369866D01*
X131052625Y-67369868D01*
X130979639Y-67420973D01*
X130979639Y-67420974D01*
X131658666Y-68100000D01*
X131652452Y-68100000D01*
X131550719Y-68127259D01*
X131459507Y-68179920D01*
X131385033Y-68254394D01*
X131332372Y-68345606D01*
X131305113Y-68447339D01*
X131305113Y-68453552D01*
X130626087Y-67774526D01*
X130626086Y-67774526D01*
X130574981Y-67847512D01*
X130574979Y-67847516D01*
X130478847Y-68053673D01*
X130478843Y-68053682D01*
X130419973Y-68273389D01*
X130419971Y-68273400D01*
X130400147Y-68499997D01*
X129050219Y-68499997D01*
X129055468Y-68440000D01*
X129035635Y-68213308D01*
X128976739Y-67993504D01*
X128880568Y-67787266D01*
X128750047Y-67600861D01*
X128750045Y-67600858D01*
X128589141Y-67439954D01*
X128402735Y-67309432D01*
X128402733Y-67309431D01*
X128390245Y-67303608D01*
X128337806Y-67257435D01*
X128319032Y-67200954D01*
X128318566Y-67195034D01*
X128315989Y-67162287D01*
X128247141Y-66727617D01*
X128144402Y-66299688D01*
X128008404Y-65881139D01*
X127839987Y-65474551D01*
X127640189Y-65082429D01*
X127520270Y-64886742D01*
X127410247Y-64707202D01*
X127410243Y-64707197D01*
X127410241Y-64707193D01*
X127151561Y-64351154D01*
X127082814Y-64270662D01*
X127029313Y-64208020D01*
X127000742Y-64144258D01*
X127003827Y-64095397D01*
X127035635Y-63976692D01*
X127055468Y-63750000D01*
X127054464Y-63738531D01*
X127068229Y-63670033D01*
X127116842Y-63619848D01*
X127184870Y-63603913D01*
X127242779Y-63621994D01*
X127272440Y-63640170D01*
X127664560Y-63839967D01*
X128071147Y-64008384D01*
X128489694Y-64144381D01*
X128917621Y-64247119D01*
X129352290Y-64315967D01*
X129515519Y-64328814D01*
X129580804Y-64353697D01*
X129616615Y-64398099D01*
X129616721Y-64398039D01*
X129617110Y-64398713D01*
X129618169Y-64400026D01*
X129619430Y-64402731D01*
X129749954Y-64589141D01*
X129910858Y-64750045D01*
X129910861Y-64750047D01*
X130097266Y-64880568D01*
X130303504Y-64976739D01*
X130303509Y-64976740D01*
X130303511Y-64976741D01*
X130306508Y-64977544D01*
X130523308Y-65035635D01*
X130685230Y-65049801D01*
X130749998Y-65055468D01*
X130750000Y-65055468D01*
X130750002Y-65055468D01*
X130806673Y-65050509D01*
X130976692Y-65035635D01*
X131196496Y-64976739D01*
X131402734Y-64880568D01*
X131589139Y-64750047D01*
X131750047Y-64589139D01*
X131880568Y-64402734D01*
X131976739Y-64196496D01*
X132035635Y-63976692D01*
X132055468Y-63750000D01*
X132035635Y-63523308D01*
X131976739Y-63303504D01*
X131880568Y-63097266D01*
X131763578Y-62930185D01*
X131750045Y-62910858D01*
X131589141Y-62749954D01*
X131402734Y-62619432D01*
X131402732Y-62619431D01*
X131196497Y-62523261D01*
X131196488Y-62523258D01*
X130976697Y-62464366D01*
X130976693Y-62464365D01*
X130976692Y-62464365D01*
X130976691Y-62464364D01*
X130976686Y-62464364D01*
X130750002Y-62444532D01*
X130749998Y-62444532D01*
X130523313Y-62464364D01*
X130523302Y-62464366D01*
X130303511Y-62523258D01*
X130303502Y-62523261D01*
X130097267Y-62619431D01*
X130097265Y-62619432D01*
X129910858Y-62749954D01*
X129749954Y-62910858D01*
X129640530Y-63067134D01*
X129585953Y-63110759D01*
X129522769Y-63118949D01*
X129463495Y-63111146D01*
X129252481Y-63083364D01*
X129241828Y-63081486D01*
X128877685Y-63000755D01*
X128867236Y-62997955D01*
X128511520Y-62885796D01*
X128501354Y-62882096D01*
X128463695Y-62866497D01*
X128198137Y-62756497D01*
X128156768Y-62739361D01*
X128146965Y-62734789D01*
X127816134Y-62562568D01*
X127806765Y-62557159D01*
X127774629Y-62536686D01*
X127654238Y-62459987D01*
X127492195Y-62356753D01*
X127483345Y-62350557D01*
X127187421Y-62123484D01*
X127179152Y-62116545D01*
X127142886Y-62083313D01*
X126901760Y-61862359D01*
X126897877Y-61858641D01*
X126848596Y-61809361D01*
X124231941Y-59192706D01*
X124198456Y-59131383D01*
X124199847Y-59072931D01*
X124225635Y-58976692D01*
X124245468Y-58750000D01*
X124225635Y-58523308D01*
X124166739Y-58303504D01*
X124070568Y-58097266D01*
X123940047Y-57910861D01*
X123940045Y-57910858D01*
X123779141Y-57749954D01*
X123592734Y-57619432D01*
X123592732Y-57619431D01*
X123386497Y-57523261D01*
X123386488Y-57523258D01*
X123166697Y-57464366D01*
X123166693Y-57464365D01*
X123166692Y-57464365D01*
X123166691Y-57464364D01*
X123166686Y-57464364D01*
X122940002Y-57444532D01*
X122939998Y-57444532D01*
X122713313Y-57464364D01*
X122713302Y-57464366D01*
X122493511Y-57523258D01*
X122493502Y-57523261D01*
X122287267Y-57619431D01*
X122287265Y-57619432D01*
X122100858Y-57749954D01*
X121939954Y-57910858D01*
X121809432Y-58097265D01*
X121809431Y-58097267D01*
X121713261Y-58303502D01*
X121713258Y-58303511D01*
X121654366Y-58523302D01*
X121654364Y-58523313D01*
X121634532Y-58749998D01*
X121250500Y-58749998D01*
X121250500Y-53749999D01*
X121851127Y-53749999D01*
X121851128Y-53750000D01*
X122814314Y-53750000D01*
X122809920Y-53754394D01*
X122757259Y-53845606D01*
X122730000Y-53947339D01*
X122730000Y-54052661D01*
X122757259Y-54154394D01*
X122809920Y-54245606D01*
X122814314Y-54250000D01*
X121851128Y-54250000D01*
X121903730Y-54446317D01*
X121903734Y-54446326D01*
X121999865Y-54652482D01*
X122130342Y-54838820D01*
X122291179Y-54999657D01*
X122477517Y-55130134D01*
X122683673Y-55226265D01*
X122683682Y-55226269D01*
X122879999Y-55278872D01*
X122880000Y-55278871D01*
X122880000Y-54315686D01*
X122884394Y-54320080D01*
X122975606Y-54372741D01*
X123077339Y-54400000D01*
X123182661Y-54400000D01*
X123284394Y-54372741D01*
X123375606Y-54320080D01*
X123380000Y-54315686D01*
X123380000Y-55278872D01*
X123576317Y-55226269D01*
X123576326Y-55226265D01*
X123782482Y-55130134D01*
X123968820Y-54999657D01*
X124129657Y-54838820D01*
X124260134Y-54652482D01*
X124356265Y-54446326D01*
X124356269Y-54446317D01*
X124408872Y-54250000D01*
X123445686Y-54250000D01*
X123450080Y-54245606D01*
X123502741Y-54154394D01*
X123530000Y-54052661D01*
X123530000Y-53947339D01*
X123502741Y-53845606D01*
X123450080Y-53754394D01*
X123445686Y-53750000D01*
X124408872Y-53750000D01*
X124408872Y-53749999D01*
X124356269Y-53553682D01*
X124356265Y-53553673D01*
X124260134Y-53347517D01*
X124129657Y-53161179D01*
X123968820Y-53000342D01*
X123782482Y-52869865D01*
X123576328Y-52773734D01*
X123380000Y-52721127D01*
X123380000Y-53684314D01*
X123375606Y-53679920D01*
X123284394Y-53627259D01*
X123182661Y-53600000D01*
X123077339Y-53600000D01*
X122975606Y-53627259D01*
X122884394Y-53679920D01*
X122880000Y-53684314D01*
X122880000Y-52721127D01*
X122683671Y-52773734D01*
X122477517Y-52869865D01*
X122291179Y-53000342D01*
X122130342Y-53161179D01*
X121999865Y-53347517D01*
X121903734Y-53553673D01*
X121903730Y-53553682D01*
X121851127Y-53749999D01*
X121250500Y-53749999D01*
X121250500Y-43749999D01*
X122161127Y-43749999D01*
X122161128Y-43750000D01*
X123124314Y-43750000D01*
X123119920Y-43754394D01*
X123067259Y-43845606D01*
X123040000Y-43947339D01*
X123040000Y-44052661D01*
X123067259Y-44154394D01*
X123119920Y-44245606D01*
X123124314Y-44250000D01*
X122161128Y-44250000D01*
X122213730Y-44446317D01*
X122213734Y-44446326D01*
X122309865Y-44652482D01*
X122440342Y-44838820D01*
X122601179Y-44999657D01*
X122787517Y-45130134D01*
X122993673Y-45226265D01*
X122993682Y-45226269D01*
X123189999Y-45278872D01*
X123190000Y-45278871D01*
X123190000Y-44315686D01*
X123194394Y-44320080D01*
X123285606Y-44372741D01*
X123387339Y-44400000D01*
X123492661Y-44400000D01*
X123594394Y-44372741D01*
X123685606Y-44320080D01*
X123690000Y-44315686D01*
X123690000Y-45278872D01*
X123886317Y-45226269D01*
X123886326Y-45226265D01*
X124092482Y-45130134D01*
X124278820Y-44999657D01*
X124439657Y-44838820D01*
X124570134Y-44652482D01*
X124666265Y-44446326D01*
X124666269Y-44446317D01*
X124718872Y-44250000D01*
X123755686Y-44250000D01*
X123760080Y-44245606D01*
X123812741Y-44154394D01*
X123840000Y-44052661D01*
X123840000Y-43947339D01*
X123812741Y-43845606D01*
X123760080Y-43754394D01*
X123755686Y-43750000D01*
X124718872Y-43750000D01*
X124718872Y-43749999D01*
X124666269Y-43553682D01*
X124666265Y-43553673D01*
X124570134Y-43347517D01*
X124439657Y-43161179D01*
X124278820Y-43000342D01*
X124092482Y-42869865D01*
X123886328Y-42773734D01*
X123690000Y-42721127D01*
X123690000Y-43684314D01*
X123685606Y-43679920D01*
X123594394Y-43627259D01*
X123492661Y-43600000D01*
X123387339Y-43600000D01*
X123285606Y-43627259D01*
X123194394Y-43679920D01*
X123190000Y-43684314D01*
X123190000Y-42721127D01*
X122993671Y-42773734D01*
X122787517Y-42869865D01*
X122601179Y-43000342D01*
X122440342Y-43161179D01*
X122309865Y-43347517D01*
X122213734Y-43553673D01*
X122213730Y-43553682D01*
X122161127Y-43749999D01*
X121250500Y-43749999D01*
X121250500Y-35652135D01*
X126994388Y-35652135D01*
X126994388Y-37347870D01*
X126994389Y-37347876D01*
X127000796Y-37407483D01*
X127051090Y-37542328D01*
X127051094Y-37542335D01*
X127137340Y-37657544D01*
X127137343Y-37657547D01*
X127252552Y-37743793D01*
X127252559Y-37743797D01*
X127297506Y-37760561D01*
X127387405Y-37794091D01*
X127447015Y-37800500D01*
X127570388Y-37800499D01*
X127637427Y-37820183D01*
X127683182Y-37872987D01*
X127694388Y-37924499D01*
X127694388Y-39112449D01*
X127694378Y-39112483D01*
X127694378Y-39383860D01*
X127694379Y-39383873D01*
X127728909Y-39822589D01*
X127728911Y-39822607D01*
X127795828Y-40245097D01*
X127797756Y-40257269D01*
X127900494Y-40685197D01*
X128032359Y-41091033D01*
X128036490Y-41103745D01*
X128036494Y-41103757D01*
X128142125Y-41358769D01*
X128204906Y-41510334D01*
X128347726Y-41790632D01*
X128404706Y-41902461D01*
X128404712Y-41902472D01*
X128528936Y-42105186D01*
X128634649Y-42277693D01*
X128634660Y-42277709D01*
X128634662Y-42277711D01*
X128893321Y-42633724D01*
X128893327Y-42633731D01*
X129179142Y-42968377D01*
X129179149Y-42968384D01*
X129768058Y-43557293D01*
X129801543Y-43618616D01*
X129800152Y-43677067D01*
X129774366Y-43773302D01*
X129774364Y-43773313D01*
X129754532Y-43999998D01*
X129754532Y-44000001D01*
X129774364Y-44226686D01*
X129774366Y-44226697D01*
X129833258Y-44446488D01*
X129833261Y-44446497D01*
X129929431Y-44652732D01*
X129929432Y-44652734D01*
X130059954Y-44839141D01*
X130213181Y-44992368D01*
X130246666Y-45053691D01*
X130249500Y-45080049D01*
X130249500Y-47175500D01*
X130229815Y-47242539D01*
X130177011Y-47288294D01*
X130125505Y-47299500D01*
X130102132Y-47299500D01*
X130102123Y-47299501D01*
X130042516Y-47305908D01*
X129907671Y-47356202D01*
X129907664Y-47356206D01*
X129792455Y-47442452D01*
X129792452Y-47442455D01*
X129706206Y-47557664D01*
X129706202Y-47557671D01*
X129655908Y-47692517D01*
X129649501Y-47752116D01*
X129649500Y-47752127D01*
X129649500Y-48148933D01*
X129629815Y-48215972D01*
X129577011Y-48261727D01*
X129507853Y-48271671D01*
X129482168Y-48265115D01*
X129457485Y-48255909D01*
X129457483Y-48255908D01*
X129397883Y-48249501D01*
X129397881Y-48249500D01*
X129397873Y-48249500D01*
X129397864Y-48249500D01*
X127902129Y-48249500D01*
X127902123Y-48249501D01*
X127842516Y-48255908D01*
X127707671Y-48306202D01*
X127707664Y-48306206D01*
X127592455Y-48392452D01*
X127592452Y-48392455D01*
X127506206Y-48507664D01*
X127506202Y-48507671D01*
X127455908Y-48642517D01*
X127449501Y-48702116D01*
X127449500Y-48702135D01*
X127449500Y-49797870D01*
X127449501Y-49797876D01*
X127455908Y-49857483D01*
X127506202Y-49992328D01*
X127506206Y-49992335D01*
X127592452Y-50107544D01*
X127592455Y-50107547D01*
X127707664Y-50193793D01*
X127707671Y-50193797D01*
X127752618Y-50210561D01*
X127842517Y-50244091D01*
X127902127Y-50250500D01*
X127950716Y-50250499D01*
X128017753Y-50270182D01*
X128063509Y-50322985D01*
X128074334Y-50364769D01*
X128084011Y-50487713D01*
X128152859Y-50922383D01*
X128252799Y-51338651D01*
X128255597Y-51350306D01*
X128255599Y-51350316D01*
X128259817Y-51363297D01*
X128391596Y-51768861D01*
X128540053Y-52127263D01*
X128560014Y-52175451D01*
X128759806Y-52567562D01*
X128759817Y-52567581D01*
X128989752Y-52942797D01*
X128989757Y-52942804D01*
X128989759Y-52942807D01*
X129248439Y-53298846D01*
X129467202Y-53554982D01*
X129495773Y-53618743D01*
X129492687Y-53667607D01*
X129464366Y-53773302D01*
X129464364Y-53773313D01*
X129444532Y-53999998D01*
X129444532Y-54000001D01*
X129464364Y-54226686D01*
X129464366Y-54226697D01*
X129523258Y-54446488D01*
X129523261Y-54446497D01*
X129619431Y-54652732D01*
X129619432Y-54652734D01*
X129749954Y-54839141D01*
X129910861Y-55000048D01*
X129915006Y-55003526D01*
X129913301Y-55005557D01*
X129950097Y-55051288D01*
X129959500Y-55098654D01*
X129959500Y-57518306D01*
X129939815Y-57585345D01*
X129906623Y-57619881D01*
X129720859Y-57749953D01*
X129559954Y-57910858D01*
X129429432Y-58097265D01*
X129429431Y-58097267D01*
X129333261Y-58303502D01*
X129333258Y-58303511D01*
X129274366Y-58523302D01*
X129274364Y-58523313D01*
X129254532Y-58749998D01*
X129254532Y-58750001D01*
X129274364Y-58976686D01*
X129274366Y-58976697D01*
X129333258Y-59196488D01*
X129333261Y-59196497D01*
X129429431Y-59402732D01*
X129429432Y-59402734D01*
X129559954Y-59589141D01*
X129720858Y-59750045D01*
X129720861Y-59750047D01*
X129907266Y-59880568D01*
X130113504Y-59976739D01*
X130333308Y-60035635D01*
X130495230Y-60049801D01*
X130559998Y-60055468D01*
X130560000Y-60055468D01*
X130560002Y-60055468D01*
X130616673Y-60050509D01*
X130786692Y-60035635D01*
X131006496Y-59976739D01*
X131212734Y-59880568D01*
X131399139Y-59750047D01*
X131560047Y-59589139D01*
X131690568Y-59402734D01*
X131786739Y-59196496D01*
X131845635Y-58976692D01*
X131865468Y-58750000D01*
X131845635Y-58523308D01*
X131786739Y-58303504D01*
X131690568Y-58097266D01*
X131560047Y-57910861D01*
X131560045Y-57910858D01*
X131399140Y-57749953D01*
X131213377Y-57619881D01*
X131169752Y-57565304D01*
X131160500Y-57518306D01*
X131160500Y-55322520D01*
X131180185Y-55255481D01*
X131232093Y-55210139D01*
X131402734Y-55130568D01*
X131589139Y-55000047D01*
X131750047Y-54839139D01*
X131880568Y-54652734D01*
X131976739Y-54446496D01*
X132035635Y-54226692D01*
X132055468Y-54000000D01*
X132055090Y-53995684D01*
X132045560Y-53886748D01*
X132035635Y-53773308D01*
X131978565Y-53560318D01*
X131976741Y-53553511D01*
X131976738Y-53553502D01*
X131962635Y-53523258D01*
X131880568Y-53347266D01*
X131757108Y-53170945D01*
X131750045Y-53160858D01*
X131589141Y-52999954D01*
X131402734Y-52869432D01*
X131402732Y-52869431D01*
X131196497Y-52773261D01*
X131196488Y-52773258D01*
X130976697Y-52714366D01*
X130976693Y-52714365D01*
X130976692Y-52714365D01*
X130976691Y-52714364D01*
X130976686Y-52714364D01*
X130750002Y-52694532D01*
X130749999Y-52694532D01*
X130523308Y-52714365D01*
X130523301Y-52714366D01*
X130442764Y-52735945D01*
X130372914Y-52734281D01*
X130319250Y-52699944D01*
X130314291Y-52694532D01*
X130283432Y-52660855D01*
X130276489Y-52652580D01*
X130049433Y-52356678D01*
X130043228Y-52347817D01*
X129842815Y-52033234D01*
X129837418Y-52023887D01*
X129665190Y-51693044D01*
X129660618Y-51683240D01*
X129522714Y-51350316D01*
X129517879Y-51338644D01*
X129514182Y-51328486D01*
X129502168Y-51290384D01*
X129402021Y-50972764D01*
X129399224Y-50962320D01*
X129318492Y-50598175D01*
X129316615Y-50587535D01*
X129290570Y-50389715D01*
X129301335Y-50320683D01*
X129347715Y-50268427D01*
X129400254Y-50250242D01*
X129457483Y-50244091D01*
X129482165Y-50234884D01*
X129551856Y-50229899D01*
X129613180Y-50263384D01*
X129646666Y-50324706D01*
X129649500Y-50351066D01*
X129649500Y-50747870D01*
X129649501Y-50747876D01*
X129655908Y-50807483D01*
X129706202Y-50942328D01*
X129706206Y-50942335D01*
X129792452Y-51057544D01*
X129792455Y-51057547D01*
X129907664Y-51143793D01*
X129907671Y-51143797D01*
X130042517Y-51194091D01*
X130042516Y-51194091D01*
X130049444Y-51194835D01*
X130102127Y-51200500D01*
X131299902Y-51200499D01*
X131366941Y-51220184D01*
X131387583Y-51236818D01*
X134458058Y-54307293D01*
X134491543Y-54368616D01*
X134490152Y-54427067D01*
X134464366Y-54523302D01*
X134464364Y-54523313D01*
X134444532Y-54749998D01*
X134444532Y-54750001D01*
X134464364Y-54976686D01*
X134464366Y-54976697D01*
X134523258Y-55196488D01*
X134523261Y-55196497D01*
X134619431Y-55402732D01*
X134619432Y-55402734D01*
X134749954Y-55589141D01*
X134910858Y-55750045D01*
X134910861Y-55750047D01*
X135097266Y-55880568D01*
X135303504Y-55976739D01*
X135523308Y-56035635D01*
X135685230Y-56049801D01*
X135749998Y-56055468D01*
X135750000Y-56055468D01*
X135750002Y-56055468D01*
X135806673Y-56050509D01*
X135976692Y-56035635D01*
X136196496Y-55976739D01*
X136402734Y-55880568D01*
X136589139Y-55750047D01*
X136750047Y-55589139D01*
X136880118Y-55403375D01*
X136934693Y-55359752D01*
X136981692Y-55350500D01*
X140327167Y-55350500D01*
X140394206Y-55370185D01*
X140439961Y-55422989D01*
X140451167Y-55474500D01*
X140451167Y-56137651D01*
X140457574Y-56197258D01*
X140507868Y-56332103D01*
X140507872Y-56332110D01*
X140594118Y-56447319D01*
X140594121Y-56447322D01*
X140709330Y-56533568D01*
X140709337Y-56533572D01*
X140762593Y-56553435D01*
X140844183Y-56583866D01*
X140844193Y-56583867D01*
X140849579Y-56585140D01*
X140910297Y-56619710D01*
X140942687Y-56681618D01*
X140936465Y-56751210D01*
X140908754Y-56793500D01*
X140751617Y-56950637D01*
X140621098Y-57137040D01*
X140621097Y-57137042D01*
X140524927Y-57343277D01*
X140524924Y-57343286D01*
X140466032Y-57563077D01*
X140466030Y-57563088D01*
X140446198Y-57789773D01*
X140446198Y-57789776D01*
X140466030Y-58016461D01*
X140466032Y-58016472D01*
X140524924Y-58236263D01*
X140524927Y-58236272D01*
X140621097Y-58442507D01*
X140621098Y-58442509D01*
X140751620Y-58628916D01*
X140912524Y-58789820D01*
X140912527Y-58789822D01*
X141098932Y-58920343D01*
X141305170Y-59016514D01*
X141305175Y-59016515D01*
X141305177Y-59016516D01*
X141325592Y-59021986D01*
X141524974Y-59075410D01*
X141686896Y-59089576D01*
X141751664Y-59095243D01*
X141751666Y-59095243D01*
X141751668Y-59095243D01*
X141808339Y-59090284D01*
X141978358Y-59075410D01*
X142198162Y-59016514D01*
X142404400Y-58920343D01*
X142590805Y-58789822D01*
X142751713Y-58628914D01*
X142882234Y-58442509D01*
X142978405Y-58236271D01*
X143037301Y-58016467D01*
X143057134Y-57789775D01*
X143037301Y-57563083D01*
X142978405Y-57343279D01*
X142882234Y-57137041D01*
X142751713Y-56950636D01*
X142751711Y-56950633D01*
X142594579Y-56793501D01*
X142561094Y-56732178D01*
X142566078Y-56662486D01*
X142607950Y-56606553D01*
X142653744Y-56585143D01*
X142659146Y-56583866D01*
X142659149Y-56583866D01*
X142793997Y-56533571D01*
X142909212Y-56447321D01*
X142995462Y-56332106D01*
X143045757Y-56197258D01*
X143052166Y-56137648D01*
X143052165Y-54441903D01*
X143045757Y-54382292D01*
X143040656Y-54368616D01*
X142995463Y-54247446D01*
X142995459Y-54247439D01*
X142909213Y-54132230D01*
X142909210Y-54132227D01*
X142794001Y-54045981D01*
X142793994Y-54045977D01*
X142659148Y-53995683D01*
X142659149Y-53995683D01*
X142599549Y-53989276D01*
X142599547Y-53989275D01*
X142599539Y-53989275D01*
X142599530Y-53989275D01*
X140903795Y-53989275D01*
X140903789Y-53989276D01*
X140844182Y-53995683D01*
X140709337Y-54045977D01*
X140709335Y-54045979D01*
X140640825Y-54097266D01*
X140604088Y-54124767D01*
X140538624Y-54149184D01*
X140529777Y-54149500D01*
X136981692Y-54149500D01*
X136914653Y-54129815D01*
X136880119Y-54096625D01*
X136750047Y-53910861D01*
X136750045Y-53910858D01*
X136589141Y-53749954D01*
X136402734Y-53619432D01*
X136402732Y-53619431D01*
X136196497Y-53523261D01*
X136196488Y-53523258D01*
X135976697Y-53464366D01*
X135976693Y-53464365D01*
X135976692Y-53464365D01*
X135976691Y-53464364D01*
X135976686Y-53464364D01*
X135750002Y-53444532D01*
X135749998Y-53444532D01*
X135523313Y-53464364D01*
X135523302Y-53464366D01*
X135427067Y-53490152D01*
X135357217Y-53488489D01*
X135307293Y-53458058D01*
X132086818Y-50237583D01*
X132053333Y-50176260D01*
X132050499Y-50149902D01*
X132050499Y-49652129D01*
X132050498Y-49652123D01*
X132044091Y-49592516D01*
X131993797Y-49457671D01*
X131993793Y-49457664D01*
X131907547Y-49342455D01*
X131902773Y-49337681D01*
X131869288Y-49276358D01*
X131874272Y-49206666D01*
X131902773Y-49162319D01*
X131907542Y-49157548D01*
X131907546Y-49157546D01*
X131993796Y-49042331D01*
X132044091Y-48907483D01*
X132050500Y-48847873D01*
X132050499Y-47752128D01*
X132044091Y-47692517D01*
X132042737Y-47688888D01*
X131993797Y-47557671D01*
X131993793Y-47557664D01*
X131907547Y-47442455D01*
X131907544Y-47442452D01*
X131792335Y-47356206D01*
X131792328Y-47356202D01*
X131657482Y-47305908D01*
X131657483Y-47305908D01*
X131597883Y-47299501D01*
X131597881Y-47299500D01*
X131597873Y-47299500D01*
X131597865Y-47299500D01*
X131574500Y-47299500D01*
X131507461Y-47279815D01*
X131461706Y-47227011D01*
X131450500Y-47175500D01*
X131450500Y-45331846D01*
X131470185Y-45264807D01*
X131522092Y-45219466D01*
X131712734Y-45130568D01*
X131899139Y-45000047D01*
X132060047Y-44839139D01*
X132190568Y-44652734D01*
X132286739Y-44446496D01*
X132345635Y-44226692D01*
X132365468Y-44000000D01*
X132362371Y-43964606D01*
X132349994Y-43823135D01*
X132345635Y-43773308D01*
X132286739Y-43553504D01*
X132190568Y-43347266D01*
X132060047Y-43160861D01*
X132060045Y-43160858D01*
X131899141Y-42999954D01*
X131712734Y-42869432D01*
X131712732Y-42869431D01*
X131506497Y-42773261D01*
X131506488Y-42773258D01*
X131286697Y-42714366D01*
X131286693Y-42714365D01*
X131286692Y-42714365D01*
X131286691Y-42714364D01*
X131286686Y-42714364D01*
X131060002Y-42694532D01*
X131059998Y-42694532D01*
X130833313Y-42714364D01*
X130833302Y-42714366D01*
X130737067Y-42740152D01*
X130667217Y-42738489D01*
X130617293Y-42708058D01*
X130185915Y-42276680D01*
X130182174Y-42272773D01*
X129928324Y-41995745D01*
X129921385Y-41987476D01*
X129879453Y-41932830D01*
X129694314Y-41691553D01*
X129688111Y-41682692D01*
X129537082Y-41445624D01*
X129487715Y-41368134D01*
X129482308Y-41358769D01*
X129310084Y-41027932D01*
X129305512Y-41018128D01*
X129186229Y-40730155D01*
X129162772Y-40673525D01*
X129159083Y-40663389D01*
X129046916Y-40307646D01*
X129044123Y-40297220D01*
X128963386Y-39933051D01*
X128961513Y-39922424D01*
X128912825Y-39552609D01*
X128911885Y-39541871D01*
X128895506Y-39166749D01*
X128895388Y-39161340D01*
X128895388Y-37924499D01*
X128915073Y-37857460D01*
X128967877Y-37811705D01*
X129019388Y-37800499D01*
X129142759Y-37800499D01*
X129142760Y-37800499D01*
X129202371Y-37794091D01*
X129337219Y-37743796D01*
X129452434Y-37657546D01*
X129538684Y-37542331D01*
X129588979Y-37407483D01*
X129588980Y-37407472D01*
X129590253Y-37402088D01*
X129624821Y-37341369D01*
X129686729Y-37308978D01*
X129756321Y-37315199D01*
X129798613Y-37342912D01*
X129955746Y-37500045D01*
X129955749Y-37500047D01*
X130142154Y-37630568D01*
X130348392Y-37726739D01*
X130568196Y-37785635D01*
X130730118Y-37799801D01*
X130794886Y-37805468D01*
X130794888Y-37805468D01*
X130794890Y-37805468D01*
X130851695Y-37800498D01*
X131021580Y-37785635D01*
X131241384Y-37726739D01*
X131447622Y-37630568D01*
X131634027Y-37500047D01*
X131794935Y-37339139D01*
X131925456Y-37152734D01*
X131969661Y-37057935D01*
X132015833Y-37005496D01*
X132053086Y-36989769D01*
X132450312Y-36894402D01*
X132868861Y-36758404D01*
X133275449Y-36589987D01*
X133667571Y-36390189D01*
X134042807Y-36160241D01*
X134398846Y-35901561D01*
X134733491Y-35615745D01*
X134849282Y-35499953D01*
X134852756Y-35496478D01*
X134852768Y-35496471D01*
X134889086Y-35460150D01*
X134914864Y-35434370D01*
X136812416Y-33536818D01*
X136873739Y-33503333D01*
X136900097Y-33500499D01*
X139547871Y-33500499D01*
X139547872Y-33500499D01*
X139607483Y-33494091D01*
X139742331Y-33443796D01*
X139857546Y-33357546D01*
X139943796Y-33242331D01*
X139994091Y-33107483D01*
X140000500Y-33047873D01*
X140000500Y-32224500D01*
X140020185Y-32157461D01*
X140072989Y-32111706D01*
X140124500Y-32100500D01*
X141002760Y-32100500D01*
X141069799Y-32120185D01*
X141115554Y-32172989D01*
X141118942Y-32181166D01*
X141175635Y-32333166D01*
X141312770Y-32584309D01*
X141312775Y-32584317D01*
X141484254Y-32813387D01*
X141484270Y-32813405D01*
X141686594Y-33015729D01*
X141686612Y-33015745D01*
X141915682Y-33187224D01*
X141915690Y-33187229D01*
X142166833Y-33324364D01*
X142166832Y-33324364D01*
X142166836Y-33324365D01*
X142166839Y-33324367D01*
X142434954Y-33424369D01*
X142434960Y-33424370D01*
X142434962Y-33424371D01*
X142714566Y-33485195D01*
X142714568Y-33485195D01*
X142714572Y-33485196D01*
X142968163Y-33503333D01*
X142999999Y-33505610D01*
X143000000Y-33505610D01*
X143000001Y-33505610D01*
X143031837Y-33503333D01*
X143285428Y-33485196D01*
X143475742Y-33443796D01*
X143565037Y-33424371D01*
X143565037Y-33424370D01*
X143565046Y-33424369D01*
X143833161Y-33324367D01*
X144084315Y-33187226D01*
X144313395Y-33015739D01*
X144515739Y-32813395D01*
X144687226Y-32584315D01*
X144824367Y-32333161D01*
X144924369Y-32065046D01*
X144985196Y-31785428D01*
X145005610Y-31500000D01*
X145005610Y-31499998D01*
X145994891Y-31499998D01*
X145994891Y-31500001D01*
X146015300Y-31785362D01*
X146076109Y-32064895D01*
X146176091Y-32332958D01*
X146313191Y-32584038D01*
X146313196Y-32584046D01*
X146419882Y-32726562D01*
X146419883Y-32726563D01*
X147435387Y-31711059D01*
X147440889Y-31731591D01*
X147519881Y-31868408D01*
X147631592Y-31980119D01*
X147768409Y-32059111D01*
X147788940Y-32064612D01*
X146773435Y-33080115D01*
X146773436Y-33080116D01*
X146915953Y-33186803D01*
X146915961Y-33186808D01*
X147167042Y-33323908D01*
X147167041Y-33323908D01*
X147435104Y-33423890D01*
X147714637Y-33484699D01*
X147999999Y-33505109D01*
X148000001Y-33505109D01*
X148285362Y-33484699D01*
X148564895Y-33423890D01*
X148832958Y-33323908D01*
X149084038Y-33186808D01*
X149084039Y-33186807D01*
X149226563Y-33080115D01*
X148211059Y-32064612D01*
X148231591Y-32059111D01*
X148368408Y-31980119D01*
X148480119Y-31868408D01*
X148559111Y-31731591D01*
X148564612Y-31711059D01*
X149580115Y-32726563D01*
X149686807Y-32584039D01*
X149686808Y-32584038D01*
X149823908Y-32332958D01*
X149923890Y-32064895D01*
X149984699Y-31785362D01*
X150005109Y-31500001D01*
X150005109Y-31499998D01*
X149984699Y-31214637D01*
X149923890Y-30935104D01*
X149823908Y-30667041D01*
X149686808Y-30415961D01*
X149686803Y-30415953D01*
X149580116Y-30273436D01*
X149580115Y-30273435D01*
X148564612Y-31288939D01*
X148559111Y-31268409D01*
X148480119Y-31131592D01*
X148368408Y-31019881D01*
X148231591Y-30940889D01*
X148211058Y-30935387D01*
X149226563Y-29919883D01*
X149226562Y-29919882D01*
X149084046Y-29813196D01*
X149084038Y-29813191D01*
X148832957Y-29676091D01*
X148832958Y-29676091D01*
X148564895Y-29576109D01*
X148285362Y-29515300D01*
X148000001Y-29494891D01*
X147999999Y-29494891D01*
X147714637Y-29515300D01*
X147435104Y-29576109D01*
X147167041Y-29676091D01*
X146915961Y-29813191D01*
X146915953Y-29813196D01*
X146773435Y-29919882D01*
X147788941Y-30935387D01*
X147768409Y-30940889D01*
X147631592Y-31019881D01*
X147519881Y-31131592D01*
X147440889Y-31268409D01*
X147435387Y-31288940D01*
X146419882Y-30273435D01*
X146313196Y-30415953D01*
X146313191Y-30415961D01*
X146176091Y-30667041D01*
X146076109Y-30935104D01*
X146015300Y-31214637D01*
X145994891Y-31499998D01*
X145005610Y-31499998D01*
X144985196Y-31214572D01*
X144924369Y-30934954D01*
X144824367Y-30666839D01*
X144687372Y-30415953D01*
X144687229Y-30415690D01*
X144687224Y-30415682D01*
X144515745Y-30186612D01*
X144515729Y-30186594D01*
X144313405Y-29984270D01*
X144313387Y-29984254D01*
X144084317Y-29812775D01*
X144084309Y-29812770D01*
X143833166Y-29675635D01*
X143833167Y-29675635D01*
X143725915Y-29635632D01*
X143565046Y-29575631D01*
X143565043Y-29575630D01*
X143565037Y-29575628D01*
X143285433Y-29514804D01*
X143000001Y-29494390D01*
X142999999Y-29494390D01*
X142714566Y-29514804D01*
X142434962Y-29575628D01*
X142166833Y-29675635D01*
X141915690Y-29812770D01*
X141915682Y-29812775D01*
X141686612Y-29984254D01*
X141686594Y-29984270D01*
X141484270Y-30186594D01*
X141484254Y-30186612D01*
X141312775Y-30415682D01*
X141312770Y-30415690D01*
X141175635Y-30666833D01*
X141118942Y-30818834D01*
X141077070Y-30874767D01*
X141011606Y-30899184D01*
X141002760Y-30899500D01*
X140124499Y-30899500D01*
X140057460Y-30879815D01*
X140011705Y-30827011D01*
X140000499Y-30775500D01*
X140000499Y-29952129D01*
X140000498Y-29952123D01*
X140000497Y-29952116D01*
X139994091Y-29892517D01*
X139964506Y-29813196D01*
X139943797Y-29757671D01*
X139943793Y-29757664D01*
X139857547Y-29642455D01*
X139857544Y-29642452D01*
X139742335Y-29556206D01*
X139742328Y-29556202D01*
X139607482Y-29505908D01*
X139607483Y-29505908D01*
X139547883Y-29499501D01*
X139547881Y-29499500D01*
X139547873Y-29499500D01*
X139547864Y-29499500D01*
X136452129Y-29499500D01*
X136452123Y-29499501D01*
X136392516Y-29505908D01*
X136257671Y-29556202D01*
X136257664Y-29556206D01*
X136142455Y-29642452D01*
X136142452Y-29642455D01*
X136056206Y-29757664D01*
X136056202Y-29757671D01*
X136005908Y-29892517D01*
X135999501Y-29952116D01*
X135999501Y-29952123D01*
X135999500Y-29952135D01*
X135999500Y-32599902D01*
X135979815Y-32666941D01*
X135963181Y-32687583D01*
X134091405Y-34559360D01*
X134091403Y-34559362D01*
X134041767Y-34608996D01*
X134037862Y-34612735D01*
X133760861Y-34866562D01*
X133752574Y-34873515D01*
X133456678Y-35100566D01*
X133447817Y-35106771D01*
X133133245Y-35307178D01*
X133123876Y-35312587D01*
X132793044Y-35484809D01*
X132783240Y-35489381D01*
X132438651Y-35632117D01*
X132428486Y-35635817D01*
X132072769Y-35747976D01*
X132062320Y-35750776D01*
X131966254Y-35772074D01*
X131896543Y-35767366D01*
X131840444Y-35725717D01*
X131837840Y-35722136D01*
X131794933Y-35660858D01*
X131634028Y-35499953D01*
X131447622Y-35369432D01*
X131447620Y-35369431D01*
X131241385Y-35273261D01*
X131241376Y-35273258D01*
X131021585Y-35214366D01*
X131021581Y-35214365D01*
X131021580Y-35214365D01*
X131021579Y-35214364D01*
X131021574Y-35214364D01*
X130794890Y-35194532D01*
X130794886Y-35194532D01*
X130568201Y-35214364D01*
X130568190Y-35214366D01*
X130348399Y-35273258D01*
X130348390Y-35273261D01*
X130142155Y-35369431D01*
X130142153Y-35369432D01*
X129955750Y-35499951D01*
X129798614Y-35657087D01*
X129737291Y-35690571D01*
X129667599Y-35685587D01*
X129611666Y-35643715D01*
X129590257Y-35597923D01*
X129588979Y-35592518D01*
X129538685Y-35457671D01*
X129538681Y-35457664D01*
X129452435Y-35342455D01*
X129452432Y-35342452D01*
X129337223Y-35256206D01*
X129337216Y-35256202D01*
X129202370Y-35205908D01*
X129202371Y-35205908D01*
X129142771Y-35199501D01*
X129142769Y-35199500D01*
X129142761Y-35199500D01*
X129142752Y-35199500D01*
X127447017Y-35199500D01*
X127447011Y-35199501D01*
X127387404Y-35205908D01*
X127252559Y-35256202D01*
X127252552Y-35256206D01*
X127137343Y-35342452D01*
X127137340Y-35342455D01*
X127051094Y-35457664D01*
X127051090Y-35457671D01*
X127000796Y-35592517D01*
X126994389Y-35652116D01*
X126994388Y-35652135D01*
X121250500Y-35652135D01*
X121250500Y-27856797D01*
X121270185Y-27789758D01*
X121322989Y-27744003D01*
X121392147Y-27734059D01*
X121455703Y-27763084D01*
X121492431Y-27818479D01*
X121514125Y-27885247D01*
X121514127Y-27885252D01*
X121642704Y-28158491D01*
X121642707Y-28158497D01*
X121804516Y-28413469D01*
X121885311Y-28511133D01*
X122813708Y-27582736D01*
X122910967Y-27716602D01*
X123033398Y-27839033D01*
X123167262Y-27936290D01*
X122236564Y-28866987D01*
X122236565Y-28866989D01*
X122461461Y-29030385D01*
X122461479Y-29030397D01*
X122726109Y-29175878D01*
X122726117Y-29175882D01*
X123006889Y-29287047D01*
X123006892Y-29287048D01*
X123299399Y-29362150D01*
X123598995Y-29399999D01*
X123599007Y-29400000D01*
X123900993Y-29400000D01*
X123901004Y-29399999D01*
X124200600Y-29362150D01*
X124493107Y-29287048D01*
X124493110Y-29287047D01*
X124773882Y-29175882D01*
X124773890Y-29175878D01*
X125038520Y-29030397D01*
X125038530Y-29030390D01*
X125263433Y-28866987D01*
X125263434Y-28866987D01*
X124332737Y-27936290D01*
X124466602Y-27839033D01*
X124589033Y-27716602D01*
X124686290Y-27582737D01*
X125614687Y-28511134D01*
X125695486Y-28413464D01*
X125857292Y-28158497D01*
X125857295Y-28158491D01*
X125985872Y-27885252D01*
X125985874Y-27885247D01*
X126079194Y-27598040D01*
X126135783Y-27301390D01*
X126135784Y-27301383D01*
X126154745Y-27000005D01*
X126154745Y-26999994D01*
X159845255Y-26999994D01*
X159845255Y-27000005D01*
X159864215Y-27301383D01*
X159864216Y-27301390D01*
X159920805Y-27598040D01*
X160014125Y-27885247D01*
X160014127Y-27885252D01*
X160142704Y-28158491D01*
X160142707Y-28158497D01*
X160304516Y-28413469D01*
X160385311Y-28511133D01*
X161313708Y-27582736D01*
X161410967Y-27716602D01*
X161533398Y-27839033D01*
X161667262Y-27936290D01*
X160736564Y-28866987D01*
X160736565Y-28866989D01*
X160961461Y-29030385D01*
X160961479Y-29030397D01*
X161226109Y-29175878D01*
X161226117Y-29175882D01*
X161506889Y-29287047D01*
X161506892Y-29287048D01*
X161799399Y-29362150D01*
X162098995Y-29399999D01*
X162099007Y-29400000D01*
X162400993Y-29400000D01*
X162401004Y-29399999D01*
X162700600Y-29362150D01*
X162993107Y-29287048D01*
X162993110Y-29287047D01*
X163273882Y-29175882D01*
X163273890Y-29175878D01*
X163538520Y-29030397D01*
X163538530Y-29030390D01*
X163763433Y-28866987D01*
X163763434Y-28866987D01*
X162832737Y-27936290D01*
X162966602Y-27839033D01*
X163089033Y-27716602D01*
X163186290Y-27582737D01*
X164114687Y-28511134D01*
X164195486Y-28413464D01*
X164357292Y-28158497D01*
X164357295Y-28158491D01*
X164485872Y-27885252D01*
X164485874Y-27885247D01*
X164579194Y-27598040D01*
X164635783Y-27301390D01*
X164635784Y-27301383D01*
X164654745Y-27000005D01*
X164654745Y-26999994D01*
X164635784Y-26698616D01*
X164635783Y-26698609D01*
X164579194Y-26401959D01*
X164485874Y-26114752D01*
X164485872Y-26114747D01*
X164357295Y-25841508D01*
X164357292Y-25841502D01*
X164195483Y-25586530D01*
X164114686Y-25488864D01*
X163186289Y-26417261D01*
X163089033Y-26283398D01*
X162966602Y-26160967D01*
X162832736Y-26063709D01*
X163763434Y-25133011D01*
X163763433Y-25133009D01*
X163538538Y-24969614D01*
X163538520Y-24969602D01*
X163273890Y-24824121D01*
X163273882Y-24824117D01*
X162993110Y-24712952D01*
X162993107Y-24712951D01*
X162700600Y-24637849D01*
X162401004Y-24600000D01*
X162098995Y-24600000D01*
X161799399Y-24637849D01*
X161506892Y-24712951D01*
X161506889Y-24712952D01*
X161226117Y-24824117D01*
X161226109Y-24824121D01*
X160961476Y-24969604D01*
X160961471Y-24969607D01*
X160736565Y-25133010D01*
X160736564Y-25133011D01*
X161667262Y-26063709D01*
X161533398Y-26160967D01*
X161410967Y-26283398D01*
X161313709Y-26417262D01*
X160385311Y-25488864D01*
X160304520Y-25586525D01*
X160304518Y-25586528D01*
X160142707Y-25841502D01*
X160142704Y-25841508D01*
X160014127Y-26114747D01*
X160014125Y-26114752D01*
X159920805Y-26401959D01*
X159864216Y-26698609D01*
X159864215Y-26698616D01*
X159845255Y-26999994D01*
X126154745Y-26999994D01*
X126135784Y-26698616D01*
X126135783Y-26698609D01*
X126079194Y-26401959D01*
X125985874Y-26114752D01*
X125985872Y-26114747D01*
X125857295Y-25841508D01*
X125857292Y-25841502D01*
X125695483Y-25586530D01*
X125614686Y-25488864D01*
X124686289Y-26417261D01*
X124589033Y-26283398D01*
X124466602Y-26160967D01*
X124332736Y-26063709D01*
X125263434Y-25133011D01*
X125263433Y-25133009D01*
X125038538Y-24969614D01*
X125038520Y-24969602D01*
X124773890Y-24824121D01*
X124773882Y-24824117D01*
X124493110Y-24712952D01*
X124493107Y-24712951D01*
X124200600Y-24637849D01*
X123901004Y-24600000D01*
X123598995Y-24600000D01*
X123299399Y-24637849D01*
X123006892Y-24712951D01*
X123006889Y-24712952D01*
X122726117Y-24824117D01*
X122726109Y-24824121D01*
X122461476Y-24969604D01*
X122461471Y-24969607D01*
X122236565Y-25133010D01*
X122236564Y-25133011D01*
X123167262Y-26063709D01*
X123033398Y-26160967D01*
X122910967Y-26283398D01*
X122813709Y-26417262D01*
X121885311Y-25488864D01*
X121804520Y-25586525D01*
X121804518Y-25586528D01*
X121642707Y-25841502D01*
X121642704Y-25841508D01*
X121514127Y-26114747D01*
X121514125Y-26114752D01*
X121492431Y-26181520D01*
X121452993Y-26239196D01*
X121388635Y-26266394D01*
X121319788Y-26254479D01*
X121268313Y-26207235D01*
X121250500Y-26143202D01*
X121250500Y-23374500D01*
X121270185Y-23307461D01*
X121322989Y-23261706D01*
X121374500Y-23250500D01*
X164875500Y-23250500D01*
X164942539Y-23270185D01*
G37*
%TD.AperFunction*%
%TD*%
M02*
