%TF.GenerationSoftware,KiCad,Pcbnew,8.0.7-1.fc41*%
%TF.CreationDate,2025-01-30T18:34:33-08:00*%
%TF.ProjectId,EP-Booster,45502d42-6f6f-4737-9465-722e6b696361,rev?*%
%TF.SameCoordinates,Original*%
%TF.FileFunction,Legend,Top*%
%TF.FilePolarity,Positive*%
%FSLAX46Y46*%
G04 Gerber Fmt 4.6, Leading zero omitted, Abs format (unit mm)*
G04 Created by KiCad (PCBNEW 8.0.7-1.fc41) date 2025-01-30 18:34:33*
%MOMM*%
%LPD*%
G01*
G04 APERTURE LIST*
%ADD10C,0.150000*%
%ADD11C,0.120000*%
%ADD12C,0.203200*%
G04 APERTURE END LIST*
D10*
X120238095Y-80254819D02*
X120238095Y-79254819D01*
X120238095Y-79731009D02*
X120809523Y-79731009D01*
X120809523Y-80254819D02*
X120809523Y-79254819D01*
X121238095Y-79350057D02*
X121285714Y-79302438D01*
X121285714Y-79302438D02*
X121380952Y-79254819D01*
X121380952Y-79254819D02*
X121619047Y-79254819D01*
X121619047Y-79254819D02*
X121714285Y-79302438D01*
X121714285Y-79302438D02*
X121761904Y-79350057D01*
X121761904Y-79350057D02*
X121809523Y-79445295D01*
X121809523Y-79445295D02*
X121809523Y-79540533D01*
X121809523Y-79540533D02*
X121761904Y-79683390D01*
X121761904Y-79683390D02*
X121190476Y-80254819D01*
X121190476Y-80254819D02*
X121809523Y-80254819D01*
X165238095Y-94554819D02*
X165238095Y-93554819D01*
X165238095Y-94031009D02*
X165809523Y-94031009D01*
X165809523Y-94554819D02*
X165809523Y-93554819D01*
X166190476Y-93554819D02*
X166809523Y-93554819D01*
X166809523Y-93554819D02*
X166476190Y-93935771D01*
X166476190Y-93935771D02*
X166619047Y-93935771D01*
X166619047Y-93935771D02*
X166714285Y-93983390D01*
X166714285Y-93983390D02*
X166761904Y-94031009D01*
X166761904Y-94031009D02*
X166809523Y-94126247D01*
X166809523Y-94126247D02*
X166809523Y-94364342D01*
X166809523Y-94364342D02*
X166761904Y-94459580D01*
X166761904Y-94459580D02*
X166714285Y-94507200D01*
X166714285Y-94507200D02*
X166619047Y-94554819D01*
X166619047Y-94554819D02*
X166333333Y-94554819D01*
X166333333Y-94554819D02*
X166238095Y-94507200D01*
X166238095Y-94507200D02*
X166190476Y-94459580D01*
X157404761Y-58550057D02*
X157309523Y-58502438D01*
X157309523Y-58502438D02*
X157214285Y-58407200D01*
X157214285Y-58407200D02*
X157071428Y-58264342D01*
X157071428Y-58264342D02*
X156976190Y-58216723D01*
X156976190Y-58216723D02*
X156880952Y-58216723D01*
X156928571Y-58454819D02*
X156833333Y-58407200D01*
X156833333Y-58407200D02*
X156738095Y-58311961D01*
X156738095Y-58311961D02*
X156690476Y-58121485D01*
X156690476Y-58121485D02*
X156690476Y-57788152D01*
X156690476Y-57788152D02*
X156738095Y-57597676D01*
X156738095Y-57597676D02*
X156833333Y-57502438D01*
X156833333Y-57502438D02*
X156928571Y-57454819D01*
X156928571Y-57454819D02*
X157119047Y-57454819D01*
X157119047Y-57454819D02*
X157214285Y-57502438D01*
X157214285Y-57502438D02*
X157309523Y-57597676D01*
X157309523Y-57597676D02*
X157357142Y-57788152D01*
X157357142Y-57788152D02*
X157357142Y-58121485D01*
X157357142Y-58121485D02*
X157309523Y-58311961D01*
X157309523Y-58311961D02*
X157214285Y-58407200D01*
X157214285Y-58407200D02*
X157119047Y-58454819D01*
X157119047Y-58454819D02*
X156928571Y-58454819D01*
X157738095Y-57550057D02*
X157785714Y-57502438D01*
X157785714Y-57502438D02*
X157880952Y-57454819D01*
X157880952Y-57454819D02*
X158119047Y-57454819D01*
X158119047Y-57454819D02*
X158214285Y-57502438D01*
X158214285Y-57502438D02*
X158261904Y-57550057D01*
X158261904Y-57550057D02*
X158309523Y-57645295D01*
X158309523Y-57645295D02*
X158309523Y-57740533D01*
X158309523Y-57740533D02*
X158261904Y-57883390D01*
X158261904Y-57883390D02*
X157690476Y-58454819D01*
X157690476Y-58454819D02*
X158309523Y-58454819D01*
X131238095Y-89554819D02*
X131238095Y-88554819D01*
X131238095Y-89031009D02*
X131809523Y-89031009D01*
X131809523Y-89554819D02*
X131809523Y-88554819D01*
X132428571Y-88983390D02*
X132333333Y-88935771D01*
X132333333Y-88935771D02*
X132285714Y-88888152D01*
X132285714Y-88888152D02*
X132238095Y-88792914D01*
X132238095Y-88792914D02*
X132238095Y-88745295D01*
X132238095Y-88745295D02*
X132285714Y-88650057D01*
X132285714Y-88650057D02*
X132333333Y-88602438D01*
X132333333Y-88602438D02*
X132428571Y-88554819D01*
X132428571Y-88554819D02*
X132619047Y-88554819D01*
X132619047Y-88554819D02*
X132714285Y-88602438D01*
X132714285Y-88602438D02*
X132761904Y-88650057D01*
X132761904Y-88650057D02*
X132809523Y-88745295D01*
X132809523Y-88745295D02*
X132809523Y-88792914D01*
X132809523Y-88792914D02*
X132761904Y-88888152D01*
X132761904Y-88888152D02*
X132714285Y-88935771D01*
X132714285Y-88935771D02*
X132619047Y-88983390D01*
X132619047Y-88983390D02*
X132428571Y-88983390D01*
X132428571Y-88983390D02*
X132333333Y-89031009D01*
X132333333Y-89031009D02*
X132285714Y-89078628D01*
X132285714Y-89078628D02*
X132238095Y-89173866D01*
X132238095Y-89173866D02*
X132238095Y-89364342D01*
X132238095Y-89364342D02*
X132285714Y-89459580D01*
X132285714Y-89459580D02*
X132333333Y-89507200D01*
X132333333Y-89507200D02*
X132428571Y-89554819D01*
X132428571Y-89554819D02*
X132619047Y-89554819D01*
X132619047Y-89554819D02*
X132714285Y-89507200D01*
X132714285Y-89507200D02*
X132761904Y-89459580D01*
X132761904Y-89459580D02*
X132809523Y-89364342D01*
X132809523Y-89364342D02*
X132809523Y-89173866D01*
X132809523Y-89173866D02*
X132761904Y-89078628D01*
X132761904Y-89078628D02*
X132714285Y-89031009D01*
X132714285Y-89031009D02*
X132619047Y-88983390D01*
X168824819Y-77842857D02*
X168348628Y-78176190D01*
X168824819Y-78414285D02*
X167824819Y-78414285D01*
X167824819Y-78414285D02*
X167824819Y-78033333D01*
X167824819Y-78033333D02*
X167872438Y-77938095D01*
X167872438Y-77938095D02*
X167920057Y-77890476D01*
X167920057Y-77890476D02*
X168015295Y-77842857D01*
X168015295Y-77842857D02*
X168158152Y-77842857D01*
X168158152Y-77842857D02*
X168253390Y-77890476D01*
X168253390Y-77890476D02*
X168301009Y-77938095D01*
X168301009Y-77938095D02*
X168348628Y-78033333D01*
X168348628Y-78033333D02*
X168348628Y-78414285D01*
X168824819Y-76890476D02*
X168824819Y-77461904D01*
X168824819Y-77176190D02*
X167824819Y-77176190D01*
X167824819Y-77176190D02*
X167967676Y-77271428D01*
X167967676Y-77271428D02*
X168062914Y-77366666D01*
X168062914Y-77366666D02*
X168110533Y-77461904D01*
X168158152Y-76033333D02*
X168824819Y-76033333D01*
X167777200Y-76271428D02*
X168491485Y-76509523D01*
X168491485Y-76509523D02*
X168491485Y-75890476D01*
X123333333Y-69059580D02*
X123285714Y-69107200D01*
X123285714Y-69107200D02*
X123142857Y-69154819D01*
X123142857Y-69154819D02*
X123047619Y-69154819D01*
X123047619Y-69154819D02*
X122904762Y-69107200D01*
X122904762Y-69107200D02*
X122809524Y-69011961D01*
X122809524Y-69011961D02*
X122761905Y-68916723D01*
X122761905Y-68916723D02*
X122714286Y-68726247D01*
X122714286Y-68726247D02*
X122714286Y-68583390D01*
X122714286Y-68583390D02*
X122761905Y-68392914D01*
X122761905Y-68392914D02*
X122809524Y-68297676D01*
X122809524Y-68297676D02*
X122904762Y-68202438D01*
X122904762Y-68202438D02*
X123047619Y-68154819D01*
X123047619Y-68154819D02*
X123142857Y-68154819D01*
X123142857Y-68154819D02*
X123285714Y-68202438D01*
X123285714Y-68202438D02*
X123333333Y-68250057D01*
X123666667Y-68154819D02*
X124285714Y-68154819D01*
X124285714Y-68154819D02*
X123952381Y-68535771D01*
X123952381Y-68535771D02*
X124095238Y-68535771D01*
X124095238Y-68535771D02*
X124190476Y-68583390D01*
X124190476Y-68583390D02*
X124238095Y-68631009D01*
X124238095Y-68631009D02*
X124285714Y-68726247D01*
X124285714Y-68726247D02*
X124285714Y-68964342D01*
X124285714Y-68964342D02*
X124238095Y-69059580D01*
X124238095Y-69059580D02*
X124190476Y-69107200D01*
X124190476Y-69107200D02*
X124095238Y-69154819D01*
X124095238Y-69154819D02*
X123809524Y-69154819D01*
X123809524Y-69154819D02*
X123714286Y-69107200D01*
X123714286Y-69107200D02*
X123666667Y-69059580D01*
X132354819Y-81761904D02*
X131354819Y-81761904D01*
X131831009Y-81761904D02*
X131831009Y-81190476D01*
X132354819Y-81190476D02*
X131354819Y-81190476D01*
X132354819Y-80190476D02*
X132354819Y-80761904D01*
X132354819Y-80476190D02*
X131354819Y-80476190D01*
X131354819Y-80476190D02*
X131497676Y-80571428D01*
X131497676Y-80571428D02*
X131592914Y-80666666D01*
X131592914Y-80666666D02*
X131640533Y-80761904D01*
X124333333Y-64704819D02*
X124000000Y-64228628D01*
X123761905Y-64704819D02*
X123761905Y-63704819D01*
X123761905Y-63704819D02*
X124142857Y-63704819D01*
X124142857Y-63704819D02*
X124238095Y-63752438D01*
X124238095Y-63752438D02*
X124285714Y-63800057D01*
X124285714Y-63800057D02*
X124333333Y-63895295D01*
X124333333Y-63895295D02*
X124333333Y-64038152D01*
X124333333Y-64038152D02*
X124285714Y-64133390D01*
X124285714Y-64133390D02*
X124238095Y-64181009D01*
X124238095Y-64181009D02*
X124142857Y-64228628D01*
X124142857Y-64228628D02*
X123761905Y-64228628D01*
X125190476Y-63704819D02*
X125000000Y-63704819D01*
X125000000Y-63704819D02*
X124904762Y-63752438D01*
X124904762Y-63752438D02*
X124857143Y-63800057D01*
X124857143Y-63800057D02*
X124761905Y-63942914D01*
X124761905Y-63942914D02*
X124714286Y-64133390D01*
X124714286Y-64133390D02*
X124714286Y-64514342D01*
X124714286Y-64514342D02*
X124761905Y-64609580D01*
X124761905Y-64609580D02*
X124809524Y-64657200D01*
X124809524Y-64657200D02*
X124904762Y-64704819D01*
X124904762Y-64704819D02*
X125095238Y-64704819D01*
X125095238Y-64704819D02*
X125190476Y-64657200D01*
X125190476Y-64657200D02*
X125238095Y-64609580D01*
X125238095Y-64609580D02*
X125285714Y-64514342D01*
X125285714Y-64514342D02*
X125285714Y-64276247D01*
X125285714Y-64276247D02*
X125238095Y-64181009D01*
X125238095Y-64181009D02*
X125190476Y-64133390D01*
X125190476Y-64133390D02*
X125095238Y-64085771D01*
X125095238Y-64085771D02*
X124904762Y-64085771D01*
X124904762Y-64085771D02*
X124809524Y-64133390D01*
X124809524Y-64133390D02*
X124761905Y-64181009D01*
X124761905Y-64181009D02*
X124714286Y-64276247D01*
X150424819Y-88386666D02*
X149948628Y-88719999D01*
X150424819Y-88958094D02*
X149424819Y-88958094D01*
X149424819Y-88958094D02*
X149424819Y-88577142D01*
X149424819Y-88577142D02*
X149472438Y-88481904D01*
X149472438Y-88481904D02*
X149520057Y-88434285D01*
X149520057Y-88434285D02*
X149615295Y-88386666D01*
X149615295Y-88386666D02*
X149758152Y-88386666D01*
X149758152Y-88386666D02*
X149853390Y-88434285D01*
X149853390Y-88434285D02*
X149901009Y-88481904D01*
X149901009Y-88481904D02*
X149948628Y-88577142D01*
X149948628Y-88577142D02*
X149948628Y-88958094D01*
X149520057Y-88005713D02*
X149472438Y-87958094D01*
X149472438Y-87958094D02*
X149424819Y-87862856D01*
X149424819Y-87862856D02*
X149424819Y-87624761D01*
X149424819Y-87624761D02*
X149472438Y-87529523D01*
X149472438Y-87529523D02*
X149520057Y-87481904D01*
X149520057Y-87481904D02*
X149615295Y-87434285D01*
X149615295Y-87434285D02*
X149710533Y-87434285D01*
X149710533Y-87434285D02*
X149853390Y-87481904D01*
X149853390Y-87481904D02*
X150424819Y-88053332D01*
X150424819Y-88053332D02*
X150424819Y-87434285D01*
X140524819Y-88608094D02*
X139524819Y-88608094D01*
X139524819Y-88608094D02*
X139524819Y-88369999D01*
X139524819Y-88369999D02*
X139572438Y-88227142D01*
X139572438Y-88227142D02*
X139667676Y-88131904D01*
X139667676Y-88131904D02*
X139762914Y-88084285D01*
X139762914Y-88084285D02*
X139953390Y-88036666D01*
X139953390Y-88036666D02*
X140096247Y-88036666D01*
X140096247Y-88036666D02*
X140286723Y-88084285D01*
X140286723Y-88084285D02*
X140381961Y-88131904D01*
X140381961Y-88131904D02*
X140477200Y-88227142D01*
X140477200Y-88227142D02*
X140524819Y-88369999D01*
X140524819Y-88369999D02*
X140524819Y-88608094D01*
X139620057Y-87655713D02*
X139572438Y-87608094D01*
X139572438Y-87608094D02*
X139524819Y-87512856D01*
X139524819Y-87512856D02*
X139524819Y-87274761D01*
X139524819Y-87274761D02*
X139572438Y-87179523D01*
X139572438Y-87179523D02*
X139620057Y-87131904D01*
X139620057Y-87131904D02*
X139715295Y-87084285D01*
X139715295Y-87084285D02*
X139810533Y-87084285D01*
X139810533Y-87084285D02*
X139953390Y-87131904D01*
X139953390Y-87131904D02*
X140524819Y-87703332D01*
X140524819Y-87703332D02*
X140524819Y-87084285D01*
X168954819Y-88642857D02*
X168478628Y-88976190D01*
X168954819Y-89214285D02*
X167954819Y-89214285D01*
X167954819Y-89214285D02*
X167954819Y-88833333D01*
X167954819Y-88833333D02*
X168002438Y-88738095D01*
X168002438Y-88738095D02*
X168050057Y-88690476D01*
X168050057Y-88690476D02*
X168145295Y-88642857D01*
X168145295Y-88642857D02*
X168288152Y-88642857D01*
X168288152Y-88642857D02*
X168383390Y-88690476D01*
X168383390Y-88690476D02*
X168431009Y-88738095D01*
X168431009Y-88738095D02*
X168478628Y-88833333D01*
X168478628Y-88833333D02*
X168478628Y-89214285D01*
X168954819Y-87690476D02*
X168954819Y-88261904D01*
X168954819Y-87976190D02*
X167954819Y-87976190D01*
X167954819Y-87976190D02*
X168097676Y-88071428D01*
X168097676Y-88071428D02*
X168192914Y-88166666D01*
X168192914Y-88166666D02*
X168240533Y-88261904D01*
X167954819Y-86785714D02*
X167954819Y-87261904D01*
X167954819Y-87261904D02*
X168431009Y-87309523D01*
X168431009Y-87309523D02*
X168383390Y-87261904D01*
X168383390Y-87261904D02*
X168335771Y-87166666D01*
X168335771Y-87166666D02*
X168335771Y-86928571D01*
X168335771Y-86928571D02*
X168383390Y-86833333D01*
X168383390Y-86833333D02*
X168431009Y-86785714D01*
X168431009Y-86785714D02*
X168526247Y-86738095D01*
X168526247Y-86738095D02*
X168764342Y-86738095D01*
X168764342Y-86738095D02*
X168859580Y-86785714D01*
X168859580Y-86785714D02*
X168907200Y-86833333D01*
X168907200Y-86833333D02*
X168954819Y-86928571D01*
X168954819Y-86928571D02*
X168954819Y-87166666D01*
X168954819Y-87166666D02*
X168907200Y-87261904D01*
X168907200Y-87261904D02*
X168859580Y-87309523D01*
X141583333Y-65359580D02*
X141535714Y-65407200D01*
X141535714Y-65407200D02*
X141392857Y-65454819D01*
X141392857Y-65454819D02*
X141297619Y-65454819D01*
X141297619Y-65454819D02*
X141154762Y-65407200D01*
X141154762Y-65407200D02*
X141059524Y-65311961D01*
X141059524Y-65311961D02*
X141011905Y-65216723D01*
X141011905Y-65216723D02*
X140964286Y-65026247D01*
X140964286Y-65026247D02*
X140964286Y-64883390D01*
X140964286Y-64883390D02*
X141011905Y-64692914D01*
X141011905Y-64692914D02*
X141059524Y-64597676D01*
X141059524Y-64597676D02*
X141154762Y-64502438D01*
X141154762Y-64502438D02*
X141297619Y-64454819D01*
X141297619Y-64454819D02*
X141392857Y-64454819D01*
X141392857Y-64454819D02*
X141535714Y-64502438D01*
X141535714Y-64502438D02*
X141583333Y-64550057D01*
X141964286Y-64550057D02*
X142011905Y-64502438D01*
X142011905Y-64502438D02*
X142107143Y-64454819D01*
X142107143Y-64454819D02*
X142345238Y-64454819D01*
X142345238Y-64454819D02*
X142440476Y-64502438D01*
X142440476Y-64502438D02*
X142488095Y-64550057D01*
X142488095Y-64550057D02*
X142535714Y-64645295D01*
X142535714Y-64645295D02*
X142535714Y-64740533D01*
X142535714Y-64740533D02*
X142488095Y-64883390D01*
X142488095Y-64883390D02*
X141916667Y-65454819D01*
X141916667Y-65454819D02*
X142535714Y-65454819D01*
X120238095Y-86204819D02*
X120238095Y-85204819D01*
X120238095Y-85681009D02*
X120809523Y-85681009D01*
X120809523Y-86204819D02*
X120809523Y-85204819D01*
X121761904Y-85204819D02*
X121285714Y-85204819D01*
X121285714Y-85204819D02*
X121238095Y-85681009D01*
X121238095Y-85681009D02*
X121285714Y-85633390D01*
X121285714Y-85633390D02*
X121380952Y-85585771D01*
X121380952Y-85585771D02*
X121619047Y-85585771D01*
X121619047Y-85585771D02*
X121714285Y-85633390D01*
X121714285Y-85633390D02*
X121761904Y-85681009D01*
X121761904Y-85681009D02*
X121809523Y-85776247D01*
X121809523Y-85776247D02*
X121809523Y-86014342D01*
X121809523Y-86014342D02*
X121761904Y-86109580D01*
X121761904Y-86109580D02*
X121714285Y-86157200D01*
X121714285Y-86157200D02*
X121619047Y-86204819D01*
X121619047Y-86204819D02*
X121380952Y-86204819D01*
X121380952Y-86204819D02*
X121285714Y-86157200D01*
X121285714Y-86157200D02*
X121238095Y-86109580D01*
X151738095Y-94554819D02*
X151738095Y-93554819D01*
X151738095Y-94031009D02*
X152309523Y-94031009D01*
X152309523Y-94554819D02*
X152309523Y-93554819D01*
X152690476Y-93554819D02*
X153357142Y-93554819D01*
X153357142Y-93554819D02*
X152928571Y-94554819D01*
X145704819Y-78192857D02*
X145228628Y-78526190D01*
X145704819Y-78764285D02*
X144704819Y-78764285D01*
X144704819Y-78764285D02*
X144704819Y-78383333D01*
X144704819Y-78383333D02*
X144752438Y-78288095D01*
X144752438Y-78288095D02*
X144800057Y-78240476D01*
X144800057Y-78240476D02*
X144895295Y-78192857D01*
X144895295Y-78192857D02*
X145038152Y-78192857D01*
X145038152Y-78192857D02*
X145133390Y-78240476D01*
X145133390Y-78240476D02*
X145181009Y-78288095D01*
X145181009Y-78288095D02*
X145228628Y-78383333D01*
X145228628Y-78383333D02*
X145228628Y-78764285D01*
X145704819Y-77240476D02*
X145704819Y-77811904D01*
X145704819Y-77526190D02*
X144704819Y-77526190D01*
X144704819Y-77526190D02*
X144847676Y-77621428D01*
X144847676Y-77621428D02*
X144942914Y-77716666D01*
X144942914Y-77716666D02*
X144990533Y-77811904D01*
X144800057Y-76859523D02*
X144752438Y-76811904D01*
X144752438Y-76811904D02*
X144704819Y-76716666D01*
X144704819Y-76716666D02*
X144704819Y-76478571D01*
X144704819Y-76478571D02*
X144752438Y-76383333D01*
X144752438Y-76383333D02*
X144800057Y-76335714D01*
X144800057Y-76335714D02*
X144895295Y-76288095D01*
X144895295Y-76288095D02*
X144990533Y-76288095D01*
X144990533Y-76288095D02*
X145133390Y-76335714D01*
X145133390Y-76335714D02*
X145704819Y-76907142D01*
X145704819Y-76907142D02*
X145704819Y-76288095D01*
X165324819Y-58952857D02*
X164848628Y-59286190D01*
X165324819Y-59524285D02*
X164324819Y-59524285D01*
X164324819Y-59524285D02*
X164324819Y-59143333D01*
X164324819Y-59143333D02*
X164372438Y-59048095D01*
X164372438Y-59048095D02*
X164420057Y-59000476D01*
X164420057Y-59000476D02*
X164515295Y-58952857D01*
X164515295Y-58952857D02*
X164658152Y-58952857D01*
X164658152Y-58952857D02*
X164753390Y-59000476D01*
X164753390Y-59000476D02*
X164801009Y-59048095D01*
X164801009Y-59048095D02*
X164848628Y-59143333D01*
X164848628Y-59143333D02*
X164848628Y-59524285D01*
X165324819Y-58000476D02*
X165324819Y-58571904D01*
X165324819Y-58286190D02*
X164324819Y-58286190D01*
X164324819Y-58286190D02*
X164467676Y-58381428D01*
X164467676Y-58381428D02*
X164562914Y-58476666D01*
X164562914Y-58476666D02*
X164610533Y-58571904D01*
X164324819Y-57667142D02*
X164324819Y-57048095D01*
X164324819Y-57048095D02*
X164705771Y-57381428D01*
X164705771Y-57381428D02*
X164705771Y-57238571D01*
X164705771Y-57238571D02*
X164753390Y-57143333D01*
X164753390Y-57143333D02*
X164801009Y-57095714D01*
X164801009Y-57095714D02*
X164896247Y-57048095D01*
X164896247Y-57048095D02*
X165134342Y-57048095D01*
X165134342Y-57048095D02*
X165229580Y-57095714D01*
X165229580Y-57095714D02*
X165277200Y-57143333D01*
X165277200Y-57143333D02*
X165324819Y-57238571D01*
X165324819Y-57238571D02*
X165324819Y-57524285D01*
X165324819Y-57524285D02*
X165277200Y-57619523D01*
X165277200Y-57619523D02*
X165229580Y-57667142D01*
X138833333Y-71954819D02*
X138500000Y-71478628D01*
X138261905Y-71954819D02*
X138261905Y-70954819D01*
X138261905Y-70954819D02*
X138642857Y-70954819D01*
X138642857Y-70954819D02*
X138738095Y-71002438D01*
X138738095Y-71002438D02*
X138785714Y-71050057D01*
X138785714Y-71050057D02*
X138833333Y-71145295D01*
X138833333Y-71145295D02*
X138833333Y-71288152D01*
X138833333Y-71288152D02*
X138785714Y-71383390D01*
X138785714Y-71383390D02*
X138738095Y-71431009D01*
X138738095Y-71431009D02*
X138642857Y-71478628D01*
X138642857Y-71478628D02*
X138261905Y-71478628D01*
X139166667Y-70954819D02*
X139785714Y-70954819D01*
X139785714Y-70954819D02*
X139452381Y-71335771D01*
X139452381Y-71335771D02*
X139595238Y-71335771D01*
X139595238Y-71335771D02*
X139690476Y-71383390D01*
X139690476Y-71383390D02*
X139738095Y-71431009D01*
X139738095Y-71431009D02*
X139785714Y-71526247D01*
X139785714Y-71526247D02*
X139785714Y-71764342D01*
X139785714Y-71764342D02*
X139738095Y-71859580D01*
X139738095Y-71859580D02*
X139690476Y-71907200D01*
X139690476Y-71907200D02*
X139595238Y-71954819D01*
X139595238Y-71954819D02*
X139309524Y-71954819D01*
X139309524Y-71954819D02*
X139214286Y-71907200D01*
X139214286Y-71907200D02*
X139166667Y-71859580D01*
X133834819Y-58726666D02*
X133358628Y-59059999D01*
X133834819Y-59298094D02*
X132834819Y-59298094D01*
X132834819Y-59298094D02*
X132834819Y-58917142D01*
X132834819Y-58917142D02*
X132882438Y-58821904D01*
X132882438Y-58821904D02*
X132930057Y-58774285D01*
X132930057Y-58774285D02*
X133025295Y-58726666D01*
X133025295Y-58726666D02*
X133168152Y-58726666D01*
X133168152Y-58726666D02*
X133263390Y-58774285D01*
X133263390Y-58774285D02*
X133311009Y-58821904D01*
X133311009Y-58821904D02*
X133358628Y-58917142D01*
X133358628Y-58917142D02*
X133358628Y-59298094D01*
X133834819Y-58250475D02*
X133834819Y-58059999D01*
X133834819Y-58059999D02*
X133787200Y-57964761D01*
X133787200Y-57964761D02*
X133739580Y-57917142D01*
X133739580Y-57917142D02*
X133596723Y-57821904D01*
X133596723Y-57821904D02*
X133406247Y-57774285D01*
X133406247Y-57774285D02*
X133025295Y-57774285D01*
X133025295Y-57774285D02*
X132930057Y-57821904D01*
X132930057Y-57821904D02*
X132882438Y-57869523D01*
X132882438Y-57869523D02*
X132834819Y-57964761D01*
X132834819Y-57964761D02*
X132834819Y-58155237D01*
X132834819Y-58155237D02*
X132882438Y-58250475D01*
X132882438Y-58250475D02*
X132930057Y-58298094D01*
X132930057Y-58298094D02*
X133025295Y-58345713D01*
X133025295Y-58345713D02*
X133263390Y-58345713D01*
X133263390Y-58345713D02*
X133358628Y-58298094D01*
X133358628Y-58298094D02*
X133406247Y-58250475D01*
X133406247Y-58250475D02*
X133453866Y-58155237D01*
X133453866Y-58155237D02*
X133453866Y-57964761D01*
X133453866Y-57964761D02*
X133406247Y-57869523D01*
X133406247Y-57869523D02*
X133358628Y-57821904D01*
X133358628Y-57821904D02*
X133263390Y-57774285D01*
X145224819Y-88336666D02*
X144748628Y-88669999D01*
X145224819Y-88908094D02*
X144224819Y-88908094D01*
X144224819Y-88908094D02*
X144224819Y-88527142D01*
X144224819Y-88527142D02*
X144272438Y-88431904D01*
X144272438Y-88431904D02*
X144320057Y-88384285D01*
X144320057Y-88384285D02*
X144415295Y-88336666D01*
X144415295Y-88336666D02*
X144558152Y-88336666D01*
X144558152Y-88336666D02*
X144653390Y-88384285D01*
X144653390Y-88384285D02*
X144701009Y-88431904D01*
X144701009Y-88431904D02*
X144748628Y-88527142D01*
X144748628Y-88527142D02*
X144748628Y-88908094D01*
X145224819Y-87384285D02*
X145224819Y-87955713D01*
X145224819Y-87669999D02*
X144224819Y-87669999D01*
X144224819Y-87669999D02*
X144367676Y-87765237D01*
X144367676Y-87765237D02*
X144462914Y-87860475D01*
X144462914Y-87860475D02*
X144510533Y-87955713D01*
X158407200Y-96833332D02*
X158454819Y-96690475D01*
X158454819Y-96690475D02*
X158454819Y-96452380D01*
X158454819Y-96452380D02*
X158407200Y-96357142D01*
X158407200Y-96357142D02*
X158359580Y-96309523D01*
X158359580Y-96309523D02*
X158264342Y-96261904D01*
X158264342Y-96261904D02*
X158169104Y-96261904D01*
X158169104Y-96261904D02*
X158073866Y-96309523D01*
X158073866Y-96309523D02*
X158026247Y-96357142D01*
X158026247Y-96357142D02*
X157978628Y-96452380D01*
X157978628Y-96452380D02*
X157931009Y-96642856D01*
X157931009Y-96642856D02*
X157883390Y-96738094D01*
X157883390Y-96738094D02*
X157835771Y-96785713D01*
X157835771Y-96785713D02*
X157740533Y-96833332D01*
X157740533Y-96833332D02*
X157645295Y-96833332D01*
X157645295Y-96833332D02*
X157550057Y-96785713D01*
X157550057Y-96785713D02*
X157502438Y-96738094D01*
X157502438Y-96738094D02*
X157454819Y-96642856D01*
X157454819Y-96642856D02*
X157454819Y-96404761D01*
X157454819Y-96404761D02*
X157502438Y-96261904D01*
X157454819Y-95928570D02*
X158454819Y-95690475D01*
X158454819Y-95690475D02*
X157740533Y-95499999D01*
X157740533Y-95499999D02*
X158454819Y-95309523D01*
X158454819Y-95309523D02*
X157454819Y-95071428D01*
X158454819Y-94166666D02*
X158454819Y-94738094D01*
X158454819Y-94452380D02*
X157454819Y-94452380D01*
X157454819Y-94452380D02*
X157597676Y-94547618D01*
X157597676Y-94547618D02*
X157692914Y-94642856D01*
X157692914Y-94642856D02*
X157740533Y-94738094D01*
X142359580Y-52666666D02*
X142407200Y-52714285D01*
X142407200Y-52714285D02*
X142454819Y-52857142D01*
X142454819Y-52857142D02*
X142454819Y-52952380D01*
X142454819Y-52952380D02*
X142407200Y-53095237D01*
X142407200Y-53095237D02*
X142311961Y-53190475D01*
X142311961Y-53190475D02*
X142216723Y-53238094D01*
X142216723Y-53238094D02*
X142026247Y-53285713D01*
X142026247Y-53285713D02*
X141883390Y-53285713D01*
X141883390Y-53285713D02*
X141692914Y-53238094D01*
X141692914Y-53238094D02*
X141597676Y-53190475D01*
X141597676Y-53190475D02*
X141502438Y-53095237D01*
X141502438Y-53095237D02*
X141454819Y-52952380D01*
X141454819Y-52952380D02*
X141454819Y-52857142D01*
X141454819Y-52857142D02*
X141502438Y-52714285D01*
X141502438Y-52714285D02*
X141550057Y-52666666D01*
X141788152Y-51809523D02*
X142454819Y-51809523D01*
X141407200Y-52047618D02*
X142121485Y-52285713D01*
X142121485Y-52285713D02*
X142121485Y-51666666D01*
X155624819Y-59252857D02*
X155148628Y-59586190D01*
X155624819Y-59824285D02*
X154624819Y-59824285D01*
X154624819Y-59824285D02*
X154624819Y-59443333D01*
X154624819Y-59443333D02*
X154672438Y-59348095D01*
X154672438Y-59348095D02*
X154720057Y-59300476D01*
X154720057Y-59300476D02*
X154815295Y-59252857D01*
X154815295Y-59252857D02*
X154958152Y-59252857D01*
X154958152Y-59252857D02*
X155053390Y-59300476D01*
X155053390Y-59300476D02*
X155101009Y-59348095D01*
X155101009Y-59348095D02*
X155148628Y-59443333D01*
X155148628Y-59443333D02*
X155148628Y-59824285D01*
X155624819Y-58300476D02*
X155624819Y-58871904D01*
X155624819Y-58586190D02*
X154624819Y-58586190D01*
X154624819Y-58586190D02*
X154767676Y-58681428D01*
X154767676Y-58681428D02*
X154862914Y-58776666D01*
X154862914Y-58776666D02*
X154910533Y-58871904D01*
X155624819Y-57348095D02*
X155624819Y-57919523D01*
X155624819Y-57633809D02*
X154624819Y-57633809D01*
X154624819Y-57633809D02*
X154767676Y-57729047D01*
X154767676Y-57729047D02*
X154862914Y-57824285D01*
X154862914Y-57824285D02*
X154910533Y-57919523D01*
X139363333Y-76954819D02*
X139030000Y-76478628D01*
X138791905Y-76954819D02*
X138791905Y-75954819D01*
X138791905Y-75954819D02*
X139172857Y-75954819D01*
X139172857Y-75954819D02*
X139268095Y-76002438D01*
X139268095Y-76002438D02*
X139315714Y-76050057D01*
X139315714Y-76050057D02*
X139363333Y-76145295D01*
X139363333Y-76145295D02*
X139363333Y-76288152D01*
X139363333Y-76288152D02*
X139315714Y-76383390D01*
X139315714Y-76383390D02*
X139268095Y-76431009D01*
X139268095Y-76431009D02*
X139172857Y-76478628D01*
X139172857Y-76478628D02*
X138791905Y-76478628D01*
X140220476Y-76288152D02*
X140220476Y-76954819D01*
X139982381Y-75907200D02*
X139744286Y-76621485D01*
X139744286Y-76621485D02*
X140363333Y-76621485D01*
X125423724Y-56938982D02*
X125347449Y-56900845D01*
X125347449Y-56900845D02*
X125271174Y-56824570D01*
X125271174Y-56824570D02*
X125156761Y-56710157D01*
X125156761Y-56710157D02*
X125080486Y-56672019D01*
X125080486Y-56672019D02*
X125004210Y-56672019D01*
X125042348Y-56862707D02*
X124966073Y-56824570D01*
X124966073Y-56824570D02*
X124889798Y-56748294D01*
X124889798Y-56748294D02*
X124851660Y-56595744D01*
X124851660Y-56595744D02*
X124851660Y-56328780D01*
X124851660Y-56328780D02*
X124889798Y-56176230D01*
X124889798Y-56176230D02*
X124966073Y-56099955D01*
X124966073Y-56099955D02*
X125042348Y-56061817D01*
X125042348Y-56061817D02*
X125194899Y-56061817D01*
X125194899Y-56061817D02*
X125271174Y-56099955D01*
X125271174Y-56099955D02*
X125347449Y-56176230D01*
X125347449Y-56176230D02*
X125385587Y-56328780D01*
X125385587Y-56328780D02*
X125385587Y-56595744D01*
X125385587Y-56595744D02*
X125347449Y-56748294D01*
X125347449Y-56748294D02*
X125271174Y-56824570D01*
X125271174Y-56824570D02*
X125194899Y-56862707D01*
X125194899Y-56862707D02*
X125042348Y-56862707D01*
X126148339Y-56862707D02*
X125690688Y-56862707D01*
X125919514Y-56862707D02*
X125919514Y-56061817D01*
X125919514Y-56061817D02*
X125843238Y-56176230D01*
X125843238Y-56176230D02*
X125766963Y-56252505D01*
X125766963Y-56252505D02*
X125690688Y-56290643D01*
X124213333Y-40109580D02*
X124165714Y-40157200D01*
X124165714Y-40157200D02*
X124022857Y-40204819D01*
X124022857Y-40204819D02*
X123927619Y-40204819D01*
X123927619Y-40204819D02*
X123784762Y-40157200D01*
X123784762Y-40157200D02*
X123689524Y-40061961D01*
X123689524Y-40061961D02*
X123641905Y-39966723D01*
X123641905Y-39966723D02*
X123594286Y-39776247D01*
X123594286Y-39776247D02*
X123594286Y-39633390D01*
X123594286Y-39633390D02*
X123641905Y-39442914D01*
X123641905Y-39442914D02*
X123689524Y-39347676D01*
X123689524Y-39347676D02*
X123784762Y-39252438D01*
X123784762Y-39252438D02*
X123927619Y-39204819D01*
X123927619Y-39204819D02*
X124022857Y-39204819D01*
X124022857Y-39204819D02*
X124165714Y-39252438D01*
X124165714Y-39252438D02*
X124213333Y-39300057D01*
X124546667Y-39204819D02*
X125213333Y-39204819D01*
X125213333Y-39204819D02*
X124784762Y-40204819D01*
X145838151Y-59252857D02*
X145361960Y-59586190D01*
X145838151Y-59824285D02*
X144838151Y-59824285D01*
X144838151Y-59824285D02*
X144838151Y-59443333D01*
X144838151Y-59443333D02*
X144885770Y-59348095D01*
X144885770Y-59348095D02*
X144933389Y-59300476D01*
X144933389Y-59300476D02*
X145028627Y-59252857D01*
X145028627Y-59252857D02*
X145171484Y-59252857D01*
X145171484Y-59252857D02*
X145266722Y-59300476D01*
X145266722Y-59300476D02*
X145314341Y-59348095D01*
X145314341Y-59348095D02*
X145361960Y-59443333D01*
X145361960Y-59443333D02*
X145361960Y-59824285D01*
X145838151Y-58300476D02*
X145838151Y-58871904D01*
X145838151Y-58586190D02*
X144838151Y-58586190D01*
X144838151Y-58586190D02*
X144981008Y-58681428D01*
X144981008Y-58681428D02*
X145076246Y-58776666D01*
X145076246Y-58776666D02*
X145123865Y-58871904D01*
X144838151Y-57681428D02*
X144838151Y-57586190D01*
X144838151Y-57586190D02*
X144885770Y-57490952D01*
X144885770Y-57490952D02*
X144933389Y-57443333D01*
X144933389Y-57443333D02*
X145028627Y-57395714D01*
X145028627Y-57395714D02*
X145219103Y-57348095D01*
X145219103Y-57348095D02*
X145457198Y-57348095D01*
X145457198Y-57348095D02*
X145647674Y-57395714D01*
X145647674Y-57395714D02*
X145742912Y-57443333D01*
X145742912Y-57443333D02*
X145790532Y-57490952D01*
X145790532Y-57490952D02*
X145838151Y-57586190D01*
X145838151Y-57586190D02*
X145838151Y-57681428D01*
X145838151Y-57681428D02*
X145790532Y-57776666D01*
X145790532Y-57776666D02*
X145742912Y-57824285D01*
X145742912Y-57824285D02*
X145647674Y-57871904D01*
X145647674Y-57871904D02*
X145457198Y-57919523D01*
X145457198Y-57919523D02*
X145219103Y-57919523D01*
X145219103Y-57919523D02*
X145028627Y-57871904D01*
X145028627Y-57871904D02*
X144933389Y-57824285D01*
X144933389Y-57824285D02*
X144885770Y-57776666D01*
X144885770Y-57776666D02*
X144838151Y-57681428D01*
X124273333Y-52824819D02*
X123940000Y-52348628D01*
X123701905Y-52824819D02*
X123701905Y-51824819D01*
X123701905Y-51824819D02*
X124082857Y-51824819D01*
X124082857Y-51824819D02*
X124178095Y-51872438D01*
X124178095Y-51872438D02*
X124225714Y-51920057D01*
X124225714Y-51920057D02*
X124273333Y-52015295D01*
X124273333Y-52015295D02*
X124273333Y-52158152D01*
X124273333Y-52158152D02*
X124225714Y-52253390D01*
X124225714Y-52253390D02*
X124178095Y-52301009D01*
X124178095Y-52301009D02*
X124082857Y-52348628D01*
X124082857Y-52348628D02*
X123701905Y-52348628D01*
X124844762Y-52253390D02*
X124749524Y-52205771D01*
X124749524Y-52205771D02*
X124701905Y-52158152D01*
X124701905Y-52158152D02*
X124654286Y-52062914D01*
X124654286Y-52062914D02*
X124654286Y-52015295D01*
X124654286Y-52015295D02*
X124701905Y-51920057D01*
X124701905Y-51920057D02*
X124749524Y-51872438D01*
X124749524Y-51872438D02*
X124844762Y-51824819D01*
X124844762Y-51824819D02*
X125035238Y-51824819D01*
X125035238Y-51824819D02*
X125130476Y-51872438D01*
X125130476Y-51872438D02*
X125178095Y-51920057D01*
X125178095Y-51920057D02*
X125225714Y-52015295D01*
X125225714Y-52015295D02*
X125225714Y-52062914D01*
X125225714Y-52062914D02*
X125178095Y-52158152D01*
X125178095Y-52158152D02*
X125130476Y-52205771D01*
X125130476Y-52205771D02*
X125035238Y-52253390D01*
X125035238Y-52253390D02*
X124844762Y-52253390D01*
X124844762Y-52253390D02*
X124749524Y-52301009D01*
X124749524Y-52301009D02*
X124701905Y-52348628D01*
X124701905Y-52348628D02*
X124654286Y-52443866D01*
X124654286Y-52443866D02*
X124654286Y-52634342D01*
X124654286Y-52634342D02*
X124701905Y-52729580D01*
X124701905Y-52729580D02*
X124749524Y-52777200D01*
X124749524Y-52777200D02*
X124844762Y-52824819D01*
X124844762Y-52824819D02*
X125035238Y-52824819D01*
X125035238Y-52824819D02*
X125130476Y-52777200D01*
X125130476Y-52777200D02*
X125178095Y-52729580D01*
X125178095Y-52729580D02*
X125225714Y-52634342D01*
X125225714Y-52634342D02*
X125225714Y-52443866D01*
X125225714Y-52443866D02*
X125178095Y-52348628D01*
X125178095Y-52348628D02*
X125130476Y-52301009D01*
X125130476Y-52301009D02*
X125035238Y-52253390D01*
X124523333Y-74034819D02*
X124190000Y-73558628D01*
X123951905Y-74034819D02*
X123951905Y-73034819D01*
X123951905Y-73034819D02*
X124332857Y-73034819D01*
X124332857Y-73034819D02*
X124428095Y-73082438D01*
X124428095Y-73082438D02*
X124475714Y-73130057D01*
X124475714Y-73130057D02*
X124523333Y-73225295D01*
X124523333Y-73225295D02*
X124523333Y-73368152D01*
X124523333Y-73368152D02*
X124475714Y-73463390D01*
X124475714Y-73463390D02*
X124428095Y-73511009D01*
X124428095Y-73511009D02*
X124332857Y-73558628D01*
X124332857Y-73558628D02*
X123951905Y-73558628D01*
X125428095Y-73034819D02*
X124951905Y-73034819D01*
X124951905Y-73034819D02*
X124904286Y-73511009D01*
X124904286Y-73511009D02*
X124951905Y-73463390D01*
X124951905Y-73463390D02*
X125047143Y-73415771D01*
X125047143Y-73415771D02*
X125285238Y-73415771D01*
X125285238Y-73415771D02*
X125380476Y-73463390D01*
X125380476Y-73463390D02*
X125428095Y-73511009D01*
X125428095Y-73511009D02*
X125475714Y-73606247D01*
X125475714Y-73606247D02*
X125475714Y-73844342D01*
X125475714Y-73844342D02*
X125428095Y-73939580D01*
X125428095Y-73939580D02*
X125380476Y-73987200D01*
X125380476Y-73987200D02*
X125285238Y-74034819D01*
X125285238Y-74034819D02*
X125047143Y-74034819D01*
X125047143Y-74034819D02*
X124951905Y-73987200D01*
X124951905Y-73987200D02*
X124904286Y-73939580D01*
X146238095Y-94554819D02*
X146238095Y-93554819D01*
X146238095Y-94031009D02*
X146809523Y-94031009D01*
X146809523Y-94554819D02*
X146809523Y-93554819D01*
X147714285Y-93554819D02*
X147523809Y-93554819D01*
X147523809Y-93554819D02*
X147428571Y-93602438D01*
X147428571Y-93602438D02*
X147380952Y-93650057D01*
X147380952Y-93650057D02*
X147285714Y-93792914D01*
X147285714Y-93792914D02*
X147238095Y-93983390D01*
X147238095Y-93983390D02*
X147238095Y-94364342D01*
X147238095Y-94364342D02*
X147285714Y-94459580D01*
X147285714Y-94459580D02*
X147333333Y-94507200D01*
X147333333Y-94507200D02*
X147428571Y-94554819D01*
X147428571Y-94554819D02*
X147619047Y-94554819D01*
X147619047Y-94554819D02*
X147714285Y-94507200D01*
X147714285Y-94507200D02*
X147761904Y-94459580D01*
X147761904Y-94459580D02*
X147809523Y-94364342D01*
X147809523Y-94364342D02*
X147809523Y-94126247D01*
X147809523Y-94126247D02*
X147761904Y-94031009D01*
X147761904Y-94031009D02*
X147714285Y-93983390D01*
X147714285Y-93983390D02*
X147619047Y-93935771D01*
X147619047Y-93935771D02*
X147428571Y-93935771D01*
X147428571Y-93935771D02*
X147333333Y-93983390D01*
X147333333Y-93983390D02*
X147285714Y-94031009D01*
X147285714Y-94031009D02*
X147238095Y-94126247D01*
X155324819Y-87338094D02*
X154324819Y-87338094D01*
X154324819Y-87338094D02*
X154324819Y-87099999D01*
X154324819Y-87099999D02*
X154372438Y-86957142D01*
X154372438Y-86957142D02*
X154467676Y-86861904D01*
X154467676Y-86861904D02*
X154562914Y-86814285D01*
X154562914Y-86814285D02*
X154753390Y-86766666D01*
X154753390Y-86766666D02*
X154896247Y-86766666D01*
X154896247Y-86766666D02*
X155086723Y-86814285D01*
X155086723Y-86814285D02*
X155181961Y-86861904D01*
X155181961Y-86861904D02*
X155277200Y-86957142D01*
X155277200Y-86957142D02*
X155324819Y-87099999D01*
X155324819Y-87099999D02*
X155324819Y-87338094D01*
X155324819Y-85814285D02*
X155324819Y-86385713D01*
X155324819Y-86099999D02*
X154324819Y-86099999D01*
X154324819Y-86099999D02*
X154467676Y-86195237D01*
X154467676Y-86195237D02*
X154562914Y-86290475D01*
X154562914Y-86290475D02*
X154610533Y-86385713D01*
X165238095Y-100054819D02*
X165238095Y-99054819D01*
X165238095Y-99531009D02*
X165809523Y-99531009D01*
X165809523Y-100054819D02*
X165809523Y-99054819D01*
X166714285Y-99388152D02*
X166714285Y-100054819D01*
X166476190Y-99007200D02*
X166238095Y-99721485D01*
X166238095Y-99721485D02*
X166857142Y-99721485D01*
X124333333Y-59954819D02*
X124000000Y-59478628D01*
X123761905Y-59954819D02*
X123761905Y-58954819D01*
X123761905Y-58954819D02*
X124142857Y-58954819D01*
X124142857Y-58954819D02*
X124238095Y-59002438D01*
X124238095Y-59002438D02*
X124285714Y-59050057D01*
X124285714Y-59050057D02*
X124333333Y-59145295D01*
X124333333Y-59145295D02*
X124333333Y-59288152D01*
X124333333Y-59288152D02*
X124285714Y-59383390D01*
X124285714Y-59383390D02*
X124238095Y-59431009D01*
X124238095Y-59431009D02*
X124142857Y-59478628D01*
X124142857Y-59478628D02*
X123761905Y-59478628D01*
X124666667Y-58954819D02*
X125333333Y-58954819D01*
X125333333Y-58954819D02*
X124904762Y-59954819D01*
X159109580Y-49901778D02*
X159157200Y-49949397D01*
X159157200Y-49949397D02*
X159204819Y-50092254D01*
X159204819Y-50092254D02*
X159204819Y-50187492D01*
X159204819Y-50187492D02*
X159157200Y-50330349D01*
X159157200Y-50330349D02*
X159061961Y-50425587D01*
X159061961Y-50425587D02*
X158966723Y-50473206D01*
X158966723Y-50473206D02*
X158776247Y-50520825D01*
X158776247Y-50520825D02*
X158633390Y-50520825D01*
X158633390Y-50520825D02*
X158442914Y-50473206D01*
X158442914Y-50473206D02*
X158347676Y-50425587D01*
X158347676Y-50425587D02*
X158252438Y-50330349D01*
X158252438Y-50330349D02*
X158204819Y-50187492D01*
X158204819Y-50187492D02*
X158204819Y-50092254D01*
X158204819Y-50092254D02*
X158252438Y-49949397D01*
X158252438Y-49949397D02*
X158300057Y-49901778D01*
X158204819Y-49044635D02*
X158204819Y-49235111D01*
X158204819Y-49235111D02*
X158252438Y-49330349D01*
X158252438Y-49330349D02*
X158300057Y-49377968D01*
X158300057Y-49377968D02*
X158442914Y-49473206D01*
X158442914Y-49473206D02*
X158633390Y-49520825D01*
X158633390Y-49520825D02*
X159014342Y-49520825D01*
X159014342Y-49520825D02*
X159109580Y-49473206D01*
X159109580Y-49473206D02*
X159157200Y-49425587D01*
X159157200Y-49425587D02*
X159204819Y-49330349D01*
X159204819Y-49330349D02*
X159204819Y-49139873D01*
X159204819Y-49139873D02*
X159157200Y-49044635D01*
X159157200Y-49044635D02*
X159109580Y-48997016D01*
X159109580Y-48997016D02*
X159014342Y-48949397D01*
X159014342Y-48949397D02*
X158776247Y-48949397D01*
X158776247Y-48949397D02*
X158681009Y-48997016D01*
X158681009Y-48997016D02*
X158633390Y-49044635D01*
X158633390Y-49044635D02*
X158585771Y-49139873D01*
X158585771Y-49139873D02*
X158585771Y-49330349D01*
X158585771Y-49330349D02*
X158633390Y-49425587D01*
X158633390Y-49425587D02*
X158681009Y-49473206D01*
X158681009Y-49473206D02*
X158776247Y-49520825D01*
X132788446Y-72609580D02*
X132740827Y-72657200D01*
X132740827Y-72657200D02*
X132597970Y-72704819D01*
X132597970Y-72704819D02*
X132502732Y-72704819D01*
X132502732Y-72704819D02*
X132359875Y-72657200D01*
X132359875Y-72657200D02*
X132264637Y-72561961D01*
X132264637Y-72561961D02*
X132217018Y-72466723D01*
X132217018Y-72466723D02*
X132169399Y-72276247D01*
X132169399Y-72276247D02*
X132169399Y-72133390D01*
X132169399Y-72133390D02*
X132217018Y-71942914D01*
X132217018Y-71942914D02*
X132264637Y-71847676D01*
X132264637Y-71847676D02*
X132359875Y-71752438D01*
X132359875Y-71752438D02*
X132502732Y-71704819D01*
X132502732Y-71704819D02*
X132597970Y-71704819D01*
X132597970Y-71704819D02*
X132740827Y-71752438D01*
X132740827Y-71752438D02*
X132788446Y-71800057D01*
X133740827Y-72704819D02*
X133169399Y-72704819D01*
X133455113Y-72704819D02*
X133455113Y-71704819D01*
X133455113Y-71704819D02*
X133359875Y-71847676D01*
X133359875Y-71847676D02*
X133264637Y-71942914D01*
X133264637Y-71942914D02*
X133169399Y-71990533D01*
X133754819Y-43645238D02*
X133278628Y-43978571D01*
X133754819Y-44216666D02*
X132754819Y-44216666D01*
X132754819Y-44216666D02*
X132754819Y-43835714D01*
X132754819Y-43835714D02*
X132802438Y-43740476D01*
X132802438Y-43740476D02*
X132850057Y-43692857D01*
X132850057Y-43692857D02*
X132945295Y-43645238D01*
X132945295Y-43645238D02*
X133088152Y-43645238D01*
X133088152Y-43645238D02*
X133183390Y-43692857D01*
X133183390Y-43692857D02*
X133231009Y-43740476D01*
X133231009Y-43740476D02*
X133278628Y-43835714D01*
X133278628Y-43835714D02*
X133278628Y-44216666D01*
X132754819Y-43359523D02*
X133754819Y-43026190D01*
X133754819Y-43026190D02*
X132754819Y-42692857D01*
X133754819Y-41835714D02*
X133754819Y-42407142D01*
X133754819Y-42121428D02*
X132754819Y-42121428D01*
X132754819Y-42121428D02*
X132897676Y-42216666D01*
X132897676Y-42216666D02*
X132992914Y-42311904D01*
X132992914Y-42311904D02*
X133040533Y-42407142D01*
X150359580Y-75866666D02*
X150407200Y-75914285D01*
X150407200Y-75914285D02*
X150454819Y-76057142D01*
X150454819Y-76057142D02*
X150454819Y-76152380D01*
X150454819Y-76152380D02*
X150407200Y-76295237D01*
X150407200Y-76295237D02*
X150311961Y-76390475D01*
X150311961Y-76390475D02*
X150216723Y-76438094D01*
X150216723Y-76438094D02*
X150026247Y-76485713D01*
X150026247Y-76485713D02*
X149883390Y-76485713D01*
X149883390Y-76485713D02*
X149692914Y-76438094D01*
X149692914Y-76438094D02*
X149597676Y-76390475D01*
X149597676Y-76390475D02*
X149502438Y-76295237D01*
X149502438Y-76295237D02*
X149454819Y-76152380D01*
X149454819Y-76152380D02*
X149454819Y-76057142D01*
X149454819Y-76057142D02*
X149502438Y-75914285D01*
X149502438Y-75914285D02*
X149550057Y-75866666D01*
X149454819Y-74961904D02*
X149454819Y-75438094D01*
X149454819Y-75438094D02*
X149931009Y-75485713D01*
X149931009Y-75485713D02*
X149883390Y-75438094D01*
X149883390Y-75438094D02*
X149835771Y-75342856D01*
X149835771Y-75342856D02*
X149835771Y-75104761D01*
X149835771Y-75104761D02*
X149883390Y-75009523D01*
X149883390Y-75009523D02*
X149931009Y-74961904D01*
X149931009Y-74961904D02*
X150026247Y-74914285D01*
X150026247Y-74914285D02*
X150264342Y-74914285D01*
X150264342Y-74914285D02*
X150359580Y-74961904D01*
X150359580Y-74961904D02*
X150407200Y-75009523D01*
X150407200Y-75009523D02*
X150454819Y-75104761D01*
X150454819Y-75104761D02*
X150454819Y-75342856D01*
X150454819Y-75342856D02*
X150407200Y-75438094D01*
X150407200Y-75438094D02*
X150359580Y-75485713D01*
X163454819Y-77642857D02*
X162978628Y-77976190D01*
X163454819Y-78214285D02*
X162454819Y-78214285D01*
X162454819Y-78214285D02*
X162454819Y-77833333D01*
X162454819Y-77833333D02*
X162502438Y-77738095D01*
X162502438Y-77738095D02*
X162550057Y-77690476D01*
X162550057Y-77690476D02*
X162645295Y-77642857D01*
X162645295Y-77642857D02*
X162788152Y-77642857D01*
X162788152Y-77642857D02*
X162883390Y-77690476D01*
X162883390Y-77690476D02*
X162931009Y-77738095D01*
X162931009Y-77738095D02*
X162978628Y-77833333D01*
X162978628Y-77833333D02*
X162978628Y-78214285D01*
X163454819Y-76690476D02*
X163454819Y-77261904D01*
X163454819Y-76976190D02*
X162454819Y-76976190D01*
X162454819Y-76976190D02*
X162597676Y-77071428D01*
X162597676Y-77071428D02*
X162692914Y-77166666D01*
X162692914Y-77166666D02*
X162740533Y-77261904D01*
X162454819Y-75833333D02*
X162454819Y-76023809D01*
X162454819Y-76023809D02*
X162502438Y-76119047D01*
X162502438Y-76119047D02*
X162550057Y-76166666D01*
X162550057Y-76166666D02*
X162692914Y-76261904D01*
X162692914Y-76261904D02*
X162883390Y-76309523D01*
X162883390Y-76309523D02*
X163264342Y-76309523D01*
X163264342Y-76309523D02*
X163359580Y-76261904D01*
X163359580Y-76261904D02*
X163407200Y-76214285D01*
X163407200Y-76214285D02*
X163454819Y-76119047D01*
X163454819Y-76119047D02*
X163454819Y-75928571D01*
X163454819Y-75928571D02*
X163407200Y-75833333D01*
X163407200Y-75833333D02*
X163359580Y-75785714D01*
X163359580Y-75785714D02*
X163264342Y-75738095D01*
X163264342Y-75738095D02*
X163026247Y-75738095D01*
X163026247Y-75738095D02*
X162931009Y-75785714D01*
X162931009Y-75785714D02*
X162883390Y-75833333D01*
X162883390Y-75833333D02*
X162835771Y-75928571D01*
X162835771Y-75928571D02*
X162835771Y-76119047D01*
X162835771Y-76119047D02*
X162883390Y-76214285D01*
X162883390Y-76214285D02*
X162931009Y-76261904D01*
X162931009Y-76261904D02*
X163026247Y-76309523D01*
D11*
%TO.C,Q2*%
X157537500Y-53840000D02*
X156887500Y-53840000D01*
X157537500Y-53840000D02*
X158187500Y-53840000D01*
X157537500Y-56960000D02*
X156887500Y-56960000D01*
X157537500Y-56960000D02*
X158187500Y-56960000D01*
X158940000Y-57240000D02*
X158460000Y-57240000D01*
X158700000Y-56910000D01*
X158940000Y-57240000D01*
G36*
X158940000Y-57240000D02*
G01*
X158460000Y-57240000D01*
X158700000Y-56910000D01*
X158940000Y-57240000D01*
G37*
%TO.C,R14*%
X164630000Y-73930000D02*
X164630000Y-80470000D01*
X164630000Y-80470000D02*
X164960000Y-80470000D01*
X164960000Y-73930000D02*
X164630000Y-73930000D01*
X167040000Y-73930000D02*
X167370000Y-73930000D01*
X167370000Y-73930000D02*
X167370000Y-80470000D01*
X167370000Y-80470000D02*
X167040000Y-80470000D01*
%TO.C,C3*%
X119880000Y-69830000D02*
X119880000Y-72570000D01*
X119880000Y-69830000D02*
X127120000Y-69830000D01*
X119880000Y-72570000D02*
X127120000Y-72570000D01*
X127120000Y-69830000D02*
X127120000Y-72570000D01*
%TO.C,R6*%
X121230000Y-65080000D02*
X127770000Y-65080000D01*
X121230000Y-65410000D02*
X121230000Y-65080000D01*
X121230000Y-67490000D02*
X121230000Y-67820000D01*
X121230000Y-67820000D02*
X127770000Y-67820000D01*
X127770000Y-65080000D02*
X127770000Y-65410000D01*
X127770000Y-67820000D02*
X127770000Y-67490000D01*
%TO.C,R2*%
X146230000Y-84950000D02*
X146230000Y-91490000D01*
X146230000Y-91490000D02*
X146560000Y-91490000D01*
X146560000Y-84950000D02*
X146230000Y-84950000D01*
X148640000Y-84950000D02*
X148970000Y-84950000D01*
X148970000Y-84950000D02*
X148970000Y-91490000D01*
X148970000Y-91490000D02*
X148640000Y-91490000D01*
%TO.C,D2*%
X136130000Y-85150000D02*
X136130000Y-90590000D01*
X136130000Y-90590000D02*
X136260000Y-90590000D01*
X136260000Y-85150000D02*
X136130000Y-85150000D01*
X138940000Y-85150000D02*
X139070000Y-85150000D01*
X139070000Y-85150000D02*
X139070000Y-90590000D01*
X139070000Y-85930000D02*
X136130000Y-85930000D01*
X139070000Y-86050000D02*
X136130000Y-86050000D01*
X139070000Y-86170000D02*
X136130000Y-86170000D01*
X139070000Y-90590000D02*
X138940000Y-90590000D01*
%TO.C,R15*%
X164630000Y-84930000D02*
X164630000Y-91470000D01*
X164630000Y-91470000D02*
X164960000Y-91470000D01*
X164960000Y-84930000D02*
X164630000Y-84930000D01*
X167040000Y-84930000D02*
X167370000Y-84930000D01*
X167370000Y-84930000D02*
X167370000Y-91470000D01*
X167370000Y-91470000D02*
X167040000Y-91470000D01*
%TO.C,C2*%
X139149000Y-68784000D02*
X139149000Y-68216000D01*
X139189000Y-69018000D02*
X139189000Y-67982000D01*
X139229000Y-69177000D02*
X139229000Y-67823000D01*
X139269000Y-69305000D02*
X139269000Y-67695000D01*
X139309000Y-69415000D02*
X139309000Y-67585000D01*
X139349000Y-69511000D02*
X139349000Y-67489000D01*
X139389000Y-69598000D02*
X139389000Y-67402000D01*
X139429000Y-69678000D02*
X139429000Y-67322000D01*
X139469000Y-67460000D02*
X139469000Y-67249000D01*
X139469000Y-69751000D02*
X139469000Y-69540000D01*
X139509000Y-67460000D02*
X139509000Y-67181000D01*
X139509000Y-69819000D02*
X139509000Y-69540000D01*
X139549000Y-67460000D02*
X139549000Y-67117000D01*
X139549000Y-69883000D02*
X139549000Y-69540000D01*
X139589000Y-67460000D02*
X139589000Y-67057000D01*
X139589000Y-69943000D02*
X139589000Y-69540000D01*
X139629000Y-67460000D02*
X139629000Y-67000000D01*
X139629000Y-70000000D02*
X139629000Y-69540000D01*
X139669000Y-67460000D02*
X139669000Y-66946000D01*
X139669000Y-70054000D02*
X139669000Y-69540000D01*
X139709000Y-67460000D02*
X139709000Y-66895000D01*
X139709000Y-70105000D02*
X139709000Y-69540000D01*
X139749000Y-67460000D02*
X139749000Y-66847000D01*
X139749000Y-70153000D02*
X139749000Y-69540000D01*
X139789000Y-67460000D02*
X139789000Y-66801000D01*
X139789000Y-70199000D02*
X139789000Y-69540000D01*
X139829000Y-67460000D02*
X139829000Y-66757000D01*
X139829000Y-70243000D02*
X139829000Y-69540000D01*
X139869000Y-67460000D02*
X139869000Y-66715000D01*
X139869000Y-70285000D02*
X139869000Y-69540000D01*
X139909000Y-67460000D02*
X139909000Y-66674000D01*
X139909000Y-70326000D02*
X139909000Y-69540000D01*
X139949000Y-67460000D02*
X139949000Y-66636000D01*
X139949000Y-70364000D02*
X139949000Y-69540000D01*
X139989000Y-67460000D02*
X139989000Y-66599000D01*
X139989000Y-70401000D02*
X139989000Y-69540000D01*
X140029000Y-67460000D02*
X140029000Y-66563000D01*
X140029000Y-70437000D02*
X140029000Y-69540000D01*
X140069000Y-67460000D02*
X140069000Y-66529000D01*
X140069000Y-70471000D02*
X140069000Y-69540000D01*
X140109000Y-67460000D02*
X140109000Y-66496000D01*
X140109000Y-70504000D02*
X140109000Y-69540000D01*
X140149000Y-67460000D02*
X140149000Y-66465000D01*
X140149000Y-70535000D02*
X140149000Y-69540000D01*
X140189000Y-67460000D02*
X140189000Y-66435000D01*
X140189000Y-70565000D02*
X140189000Y-69540000D01*
X140229000Y-67460000D02*
X140229000Y-66405000D01*
X140229000Y-70595000D02*
X140229000Y-69540000D01*
X140269000Y-67460000D02*
X140269000Y-66378000D01*
X140269000Y-70622000D02*
X140269000Y-69540000D01*
X140309000Y-67460000D02*
X140309000Y-66351000D01*
X140309000Y-70649000D02*
X140309000Y-69540000D01*
X140349000Y-67460000D02*
X140349000Y-66325000D01*
X140349000Y-70675000D02*
X140349000Y-69540000D01*
X140389000Y-67460000D02*
X140389000Y-66300000D01*
X140389000Y-70700000D02*
X140389000Y-69540000D01*
X140429000Y-67460000D02*
X140429000Y-66276000D01*
X140429000Y-70724000D02*
X140429000Y-69540000D01*
X140469000Y-67460000D02*
X140469000Y-66253000D01*
X140469000Y-70747000D02*
X140469000Y-69540000D01*
X140509000Y-67460000D02*
X140509000Y-66232000D01*
X140509000Y-70768000D02*
X140509000Y-69540000D01*
X140549000Y-67460000D02*
X140549000Y-66210000D01*
X140549000Y-70790000D02*
X140549000Y-69540000D01*
X140589000Y-67460000D02*
X140589000Y-66190000D01*
X140589000Y-70810000D02*
X140589000Y-69540000D01*
X140629000Y-67460000D02*
X140629000Y-66171000D01*
X140629000Y-70829000D02*
X140629000Y-69540000D01*
X140669000Y-67460000D02*
X140669000Y-66152000D01*
X140669000Y-70848000D02*
X140669000Y-69540000D01*
X140709000Y-67460000D02*
X140709000Y-66135000D01*
X140709000Y-70865000D02*
X140709000Y-69540000D01*
X140749000Y-67460000D02*
X140749000Y-66118000D01*
X140749000Y-70882000D02*
X140749000Y-69540000D01*
X140789000Y-67460000D02*
X140789000Y-66102000D01*
X140789000Y-70898000D02*
X140789000Y-69540000D01*
X140829000Y-67460000D02*
X140829000Y-66086000D01*
X140829000Y-70914000D02*
X140829000Y-69540000D01*
X140869000Y-67460000D02*
X140869000Y-66072000D01*
X140869000Y-70928000D02*
X140869000Y-69540000D01*
X140909000Y-67460000D02*
X140909000Y-66058000D01*
X140909000Y-70942000D02*
X140909000Y-69540000D01*
X140949000Y-67460000D02*
X140949000Y-66045000D01*
X140949000Y-70955000D02*
X140949000Y-69540000D01*
X140989000Y-67460000D02*
X140989000Y-66032000D01*
X140989000Y-70968000D02*
X140989000Y-69540000D01*
X141029000Y-67460000D02*
X141029000Y-66020000D01*
X141029000Y-70980000D02*
X141029000Y-69540000D01*
X141070000Y-67460000D02*
X141070000Y-66009000D01*
X141070000Y-70991000D02*
X141070000Y-69540000D01*
X141110000Y-67460000D02*
X141110000Y-65999000D01*
X141110000Y-71001000D02*
X141110000Y-69540000D01*
X141150000Y-67460000D02*
X141150000Y-65989000D01*
X141150000Y-71011000D02*
X141150000Y-69540000D01*
X141190000Y-67460000D02*
X141190000Y-65980000D01*
X141190000Y-71020000D02*
X141190000Y-69540000D01*
X141230000Y-67460000D02*
X141230000Y-65972000D01*
X141230000Y-71028000D02*
X141230000Y-69540000D01*
X141270000Y-67460000D02*
X141270000Y-65964000D01*
X141270000Y-71036000D02*
X141270000Y-69540000D01*
X141310000Y-67460000D02*
X141310000Y-65957000D01*
X141310000Y-71043000D02*
X141310000Y-69540000D01*
X141350000Y-67460000D02*
X141350000Y-65950000D01*
X141350000Y-71050000D02*
X141350000Y-69540000D01*
X141390000Y-67460000D02*
X141390000Y-65944000D01*
X141390000Y-71056000D02*
X141390000Y-69540000D01*
X141430000Y-67460000D02*
X141430000Y-65939000D01*
X141430000Y-71061000D02*
X141430000Y-69540000D01*
X141470000Y-67460000D02*
X141470000Y-65935000D01*
X141470000Y-71065000D02*
X141470000Y-69540000D01*
X141510000Y-67460000D02*
X141510000Y-65931000D01*
X141510000Y-71069000D02*
X141510000Y-69540000D01*
X141550000Y-71073000D02*
X141550000Y-65927000D01*
X141590000Y-71076000D02*
X141590000Y-65924000D01*
X141630000Y-71078000D02*
X141630000Y-65922000D01*
X141670000Y-71079000D02*
X141670000Y-65921000D01*
X141710000Y-71080000D02*
X141710000Y-65920000D01*
X141750000Y-71080000D02*
X141750000Y-65920000D01*
X144304775Y-70225000D02*
X144304775Y-69725000D01*
X144554775Y-69975000D02*
X144054775Y-69975000D01*
X144370000Y-68500000D02*
G75*
G02*
X139130000Y-68500000I-2620000J0D01*
G01*
X139130000Y-68500000D02*
G75*
G02*
X144370000Y-68500000I2620000J0D01*
G01*
%TO.C,R12*%
X146130000Y-74480000D02*
X146460000Y-74480000D01*
X146130000Y-81020000D02*
X146130000Y-74480000D01*
X146460000Y-81020000D02*
X146130000Y-81020000D01*
X148540000Y-81020000D02*
X148870000Y-81020000D01*
X148870000Y-74480000D02*
X148540000Y-74480000D01*
X148870000Y-81020000D02*
X148870000Y-74480000D01*
%TO.C,R13*%
X161130000Y-55040000D02*
X161130000Y-61580000D01*
X161130000Y-61580000D02*
X161460000Y-61580000D01*
X161460000Y-55040000D02*
X161130000Y-55040000D01*
X163540000Y-55040000D02*
X163870000Y-55040000D01*
X163870000Y-55040000D02*
X163870000Y-61580000D01*
X163870000Y-61580000D02*
X163540000Y-61580000D01*
%TO.C,R3*%
X136260000Y-72424888D02*
X142800000Y-72424888D01*
X136260000Y-72754888D02*
X136260000Y-72424888D01*
X136260000Y-74834888D02*
X136260000Y-75164888D01*
X136260000Y-75164888D02*
X142800000Y-75164888D01*
X142800000Y-72424888D02*
X142800000Y-72754888D01*
X142800000Y-75164888D02*
X142800000Y-74834888D01*
%TO.C,R9*%
X134380000Y-55290000D02*
X134710000Y-55290000D01*
X134380000Y-61830000D02*
X134380000Y-55290000D01*
X134710000Y-61830000D02*
X134380000Y-61830000D01*
X136790000Y-61830000D02*
X137120000Y-61830000D01*
X137120000Y-55290000D02*
X136790000Y-55290000D01*
X137120000Y-61830000D02*
X137120000Y-55290000D01*
%TO.C,R1*%
X141030000Y-84900000D02*
X141030000Y-91440000D01*
X141030000Y-91440000D02*
X141360000Y-91440000D01*
X141360000Y-84900000D02*
X141030000Y-84900000D01*
X143440000Y-84900000D02*
X143770000Y-84900000D01*
X143770000Y-84900000D02*
X143770000Y-91440000D01*
X143770000Y-91440000D02*
X143440000Y-91440000D01*
%TO.C,SW1*%
X155400000Y-91840000D02*
X155400000Y-90457000D01*
X155400000Y-91840000D02*
X156710000Y-91840000D01*
X155640000Y-84779000D02*
X156760000Y-84779000D01*
X155640000Y-91600000D02*
X155640000Y-84779000D01*
X155640000Y-91600000D02*
X156710000Y-91600000D01*
X157115000Y-86380000D02*
X157115000Y-90000000D01*
X157115000Y-88793333D02*
X158385000Y-88793333D01*
X157115000Y-90000000D02*
X158385000Y-90000000D01*
X157235000Y-90000000D02*
X157235000Y-88793333D01*
X157355000Y-90000000D02*
X157355000Y-88793333D01*
X157475000Y-90000000D02*
X157475000Y-88793333D01*
X157595000Y-90000000D02*
X157595000Y-88793333D01*
X157715000Y-90000000D02*
X157715000Y-88793333D01*
X157835000Y-90000000D02*
X157835000Y-88793333D01*
X157955000Y-90000000D02*
X157955000Y-88793333D01*
X158075000Y-90000000D02*
X158075000Y-88793333D01*
X158195000Y-90000000D02*
X158195000Y-88793333D01*
X158315000Y-90000000D02*
X158315000Y-88793333D01*
X158385000Y-86380000D02*
X157115000Y-86380000D01*
X158385000Y-90000000D02*
X158385000Y-86380000D01*
X158740000Y-84779000D02*
X159301000Y-84779000D01*
X158790000Y-91600000D02*
X159301000Y-91600000D01*
X159655000Y-86380000D02*
X159655000Y-90000000D01*
X159655000Y-88793333D02*
X160925000Y-88793333D01*
X159655000Y-90000000D02*
X160925000Y-90000000D01*
X159775000Y-90000000D02*
X159775000Y-88793333D01*
X159895000Y-90000000D02*
X159895000Y-88793333D01*
X160015000Y-90000000D02*
X160015000Y-88793333D01*
X160135000Y-90000000D02*
X160135000Y-88793333D01*
X160255000Y-90000000D02*
X160255000Y-88793333D01*
X160375000Y-90000000D02*
X160375000Y-88793333D01*
X160495000Y-90000000D02*
X160495000Y-88793333D01*
X160615000Y-90000000D02*
X160615000Y-88793333D01*
X160735000Y-90000000D02*
X160735000Y-88793333D01*
X160855000Y-90000000D02*
X160855000Y-88793333D01*
X160925000Y-86380000D02*
X159655000Y-86380000D01*
X160925000Y-90000000D02*
X160925000Y-86380000D01*
X161280000Y-84779000D02*
X162400000Y-84779000D01*
X161280000Y-91600000D02*
X162400000Y-91600000D01*
X162400000Y-91600000D02*
X162400000Y-84779000D01*
%TO.C,C4*%
X140711666Y-56779775D02*
X139182666Y-56779775D01*
X140711666Y-56819775D02*
X139186666Y-56819775D01*
X140711666Y-56859775D02*
X139190666Y-56859775D01*
X140711666Y-56899775D02*
X139195666Y-56899775D01*
X140711666Y-56939775D02*
X139201666Y-56939775D01*
X140711666Y-56979775D02*
X139208666Y-56979775D01*
X140711666Y-57019775D02*
X139215666Y-57019775D01*
X140711666Y-57059775D02*
X139223666Y-57059775D01*
X140711666Y-57099775D02*
X139231666Y-57099775D01*
X140711666Y-57139775D02*
X139240666Y-57139775D01*
X140711666Y-57179775D02*
X139250666Y-57179775D01*
X140711666Y-57219775D02*
X139260666Y-57219775D01*
X140711666Y-57260775D02*
X139271666Y-57260775D01*
X140711666Y-57300775D02*
X139283666Y-57300775D01*
X140711666Y-57340775D02*
X139296666Y-57340775D01*
X140711666Y-57380775D02*
X139309666Y-57380775D01*
X140711666Y-57420775D02*
X139323666Y-57420775D01*
X140711666Y-57460775D02*
X139337666Y-57460775D01*
X140711666Y-57500775D02*
X139353666Y-57500775D01*
X140711666Y-57540775D02*
X139369666Y-57540775D01*
X140711666Y-57580775D02*
X139386666Y-57580775D01*
X140711666Y-57620775D02*
X139403666Y-57620775D01*
X140711666Y-57660775D02*
X139422666Y-57660775D01*
X140711666Y-57700775D02*
X139441666Y-57700775D01*
X140711666Y-57740775D02*
X139461666Y-57740775D01*
X140711666Y-57780775D02*
X139483666Y-57780775D01*
X140711666Y-57820775D02*
X139504666Y-57820775D01*
X140711666Y-57860775D02*
X139527666Y-57860775D01*
X140711666Y-57900775D02*
X139551666Y-57900775D01*
X140711666Y-57940775D02*
X139576666Y-57940775D01*
X140711666Y-57980775D02*
X139602666Y-57980775D01*
X140711666Y-58020775D02*
X139629666Y-58020775D01*
X140711666Y-58060775D02*
X139656666Y-58060775D01*
X140711666Y-58100775D02*
X139686666Y-58100775D01*
X140711666Y-58140775D02*
X139716666Y-58140775D01*
X140711666Y-58180775D02*
X139747666Y-58180775D01*
X140711666Y-58220775D02*
X139780666Y-58220775D01*
X140711666Y-58260775D02*
X139814666Y-58260775D01*
X140711666Y-58300775D02*
X139850666Y-58300775D01*
X140711666Y-58340775D02*
X139887666Y-58340775D01*
X140711666Y-58380775D02*
X139925666Y-58380775D01*
X140711666Y-58420775D02*
X139966666Y-58420775D01*
X140711666Y-58460775D02*
X140008666Y-58460775D01*
X140711666Y-58500775D02*
X140052666Y-58500775D01*
X140711666Y-58540775D02*
X140098666Y-58540775D01*
X140711666Y-58580775D02*
X140146666Y-58580775D01*
X140711666Y-58620775D02*
X140197666Y-58620775D01*
X140711666Y-58660775D02*
X140251666Y-58660775D01*
X140711666Y-58700775D02*
X140308666Y-58700775D01*
X140711666Y-58740775D02*
X140368666Y-58740775D01*
X140711666Y-58780775D02*
X140432666Y-58780775D01*
X140711666Y-58820775D02*
X140500666Y-58820775D01*
X142035666Y-59140775D02*
X141467666Y-59140775D01*
X142269666Y-59100775D02*
X141233666Y-59100775D01*
X142428666Y-59060775D02*
X141074666Y-59060775D01*
X142556666Y-59020775D02*
X140946666Y-59020775D01*
X142666666Y-58980775D02*
X140836666Y-58980775D01*
X142762666Y-58940775D02*
X140740666Y-58940775D01*
X142849666Y-58900775D02*
X140653666Y-58900775D01*
X142929666Y-58860775D02*
X140573666Y-58860775D01*
X143002666Y-58820775D02*
X142791666Y-58820775D01*
X143070666Y-58780775D02*
X142791666Y-58780775D01*
X143134666Y-58740775D02*
X142791666Y-58740775D01*
X143194666Y-58700775D02*
X142791666Y-58700775D01*
X143226666Y-53735000D02*
X143226666Y-54235000D01*
X143251666Y-58660775D02*
X142791666Y-58660775D01*
X143305666Y-58620775D02*
X142791666Y-58620775D01*
X143356666Y-58580775D02*
X142791666Y-58580775D01*
X143404666Y-58540775D02*
X142791666Y-58540775D01*
X143450666Y-58500775D02*
X142791666Y-58500775D01*
X143476666Y-53985000D02*
X142976666Y-53985000D01*
X143494666Y-58460775D02*
X142791666Y-58460775D01*
X143536666Y-58420775D02*
X142791666Y-58420775D01*
X143577666Y-58380775D02*
X142791666Y-58380775D01*
X143615666Y-58340775D02*
X142791666Y-58340775D01*
X143652666Y-58300775D02*
X142791666Y-58300775D01*
X143688666Y-58260775D02*
X142791666Y-58260775D01*
X143722666Y-58220775D02*
X142791666Y-58220775D01*
X143755666Y-58180775D02*
X142791666Y-58180775D01*
X143786666Y-58140775D02*
X142791666Y-58140775D01*
X143816666Y-58100775D02*
X142791666Y-58100775D01*
X143846666Y-58060775D02*
X142791666Y-58060775D01*
X143873666Y-58020775D02*
X142791666Y-58020775D01*
X143900666Y-57980775D02*
X142791666Y-57980775D01*
X143926666Y-57940775D02*
X142791666Y-57940775D01*
X143951666Y-57900775D02*
X142791666Y-57900775D01*
X143975666Y-57860775D02*
X142791666Y-57860775D01*
X143998666Y-57820775D02*
X142791666Y-57820775D01*
X144019666Y-57780775D02*
X142791666Y-57780775D01*
X144041666Y-57740775D02*
X142791666Y-57740775D01*
X144061666Y-57700775D02*
X142791666Y-57700775D01*
X144080666Y-57660775D02*
X142791666Y-57660775D01*
X144099666Y-57620775D02*
X142791666Y-57620775D01*
X144116666Y-57580775D02*
X142791666Y-57580775D01*
X144133666Y-57540775D02*
X142791666Y-57540775D01*
X144149666Y-57500775D02*
X142791666Y-57500775D01*
X144165666Y-57460775D02*
X142791666Y-57460775D01*
X144179666Y-57420775D02*
X142791666Y-57420775D01*
X144193666Y-57380775D02*
X142791666Y-57380775D01*
X144206666Y-57340775D02*
X142791666Y-57340775D01*
X144219666Y-57300775D02*
X142791666Y-57300775D01*
X144231666Y-57260775D02*
X142791666Y-57260775D01*
X144242666Y-57219775D02*
X142791666Y-57219775D01*
X144252666Y-57179775D02*
X142791666Y-57179775D01*
X144262666Y-57139775D02*
X142791666Y-57139775D01*
X144271666Y-57099775D02*
X142791666Y-57099775D01*
X144279666Y-57059775D02*
X142791666Y-57059775D01*
X144287666Y-57019775D02*
X142791666Y-57019775D01*
X144294666Y-56979775D02*
X142791666Y-56979775D01*
X144301666Y-56939775D02*
X142791666Y-56939775D01*
X144307666Y-56899775D02*
X142791666Y-56899775D01*
X144312666Y-56859775D02*
X142791666Y-56859775D01*
X144316666Y-56819775D02*
X142791666Y-56819775D01*
X144320666Y-56779775D02*
X142791666Y-56779775D01*
X144324666Y-56739775D02*
X139178666Y-56739775D01*
X144327666Y-56699775D02*
X139175666Y-56699775D01*
X144329666Y-56659775D02*
X139173666Y-56659775D01*
X144330666Y-56619775D02*
X139172666Y-56619775D01*
X144331666Y-56539775D02*
X139171666Y-56539775D01*
X144331666Y-56579775D02*
X139171666Y-56579775D01*
X144371666Y-56539775D02*
G75*
G02*
X139131666Y-56539775I-2620000J0D01*
G01*
X139131666Y-56539775D02*
G75*
G02*
X144371666Y-56539775I2620000J0D01*
G01*
%TO.C,R11*%
X151430000Y-55340000D02*
X151430000Y-61880000D01*
X151430000Y-61880000D02*
X151760000Y-61880000D01*
X151760000Y-55340000D02*
X151430000Y-55340000D01*
X153840000Y-55340000D02*
X154170000Y-55340000D01*
X154170000Y-55340000D02*
X154170000Y-61880000D01*
X154170000Y-61880000D02*
X153840000Y-61880000D01*
%TO.C,R4*%
X136260000Y-77424888D02*
X136260000Y-77754888D01*
X136260000Y-80164888D02*
X136260000Y-79834888D01*
X142800000Y-77424888D02*
X136260000Y-77424888D01*
X142800000Y-77754888D02*
X142800000Y-77424888D01*
X142800000Y-79834888D02*
X142800000Y-80164888D01*
X142800000Y-80164888D02*
X136260000Y-80164888D01*
D12*
%TO.C,Q1*%
X126827600Y-57360400D02*
X126827600Y-56547600D01*
X127486400Y-57360400D02*
X126827600Y-57360400D01*
X129672400Y-56547600D02*
X129672400Y-57360400D01*
X129672400Y-57360400D02*
X129013600Y-57360400D01*
D11*
%TO.C,C7*%
X121575225Y-42025000D02*
X122075225Y-42025000D01*
X121825225Y-41775000D02*
X121825225Y-42275000D01*
X124380000Y-40920000D02*
X124380000Y-46080000D01*
X124420000Y-40920000D02*
X124420000Y-46080000D01*
X124460000Y-40921000D02*
X124460000Y-46079000D01*
X124500000Y-40922000D02*
X124500000Y-46078000D01*
X124540000Y-40924000D02*
X124540000Y-46076000D01*
X124580000Y-40927000D02*
X124580000Y-46073000D01*
X124620000Y-40931000D02*
X124620000Y-42460000D01*
X124620000Y-44540000D02*
X124620000Y-46069000D01*
X124660000Y-40935000D02*
X124660000Y-42460000D01*
X124660000Y-44540000D02*
X124660000Y-46065000D01*
X124700000Y-40939000D02*
X124700000Y-42460000D01*
X124700000Y-44540000D02*
X124700000Y-46061000D01*
X124740000Y-40944000D02*
X124740000Y-42460000D01*
X124740000Y-44540000D02*
X124740000Y-46056000D01*
X124780000Y-40950000D02*
X124780000Y-42460000D01*
X124780000Y-44540000D02*
X124780000Y-46050000D01*
X124820000Y-40957000D02*
X124820000Y-42460000D01*
X124820000Y-44540000D02*
X124820000Y-46043000D01*
X124860000Y-40964000D02*
X124860000Y-42460000D01*
X124860000Y-44540000D02*
X124860000Y-46036000D01*
X124900000Y-40972000D02*
X124900000Y-42460000D01*
X124900000Y-44540000D02*
X124900000Y-46028000D01*
X124940000Y-40980000D02*
X124940000Y-42460000D01*
X124940000Y-44540000D02*
X124940000Y-46020000D01*
X124980000Y-40989000D02*
X124980000Y-42460000D01*
X124980000Y-44540000D02*
X124980000Y-46011000D01*
X125020000Y-40999000D02*
X125020000Y-42460000D01*
X125020000Y-44540000D02*
X125020000Y-46001000D01*
X125060000Y-41009000D02*
X125060000Y-42460000D01*
X125060000Y-44540000D02*
X125060000Y-45991000D01*
X125101000Y-41020000D02*
X125101000Y-42460000D01*
X125101000Y-44540000D02*
X125101000Y-45980000D01*
X125141000Y-41032000D02*
X125141000Y-42460000D01*
X125141000Y-44540000D02*
X125141000Y-45968000D01*
X125181000Y-41045000D02*
X125181000Y-42460000D01*
X125181000Y-44540000D02*
X125181000Y-45955000D01*
X125221000Y-41058000D02*
X125221000Y-42460000D01*
X125221000Y-44540000D02*
X125221000Y-45942000D01*
X125261000Y-41072000D02*
X125261000Y-42460000D01*
X125261000Y-44540000D02*
X125261000Y-45928000D01*
X125301000Y-41086000D02*
X125301000Y-42460000D01*
X125301000Y-44540000D02*
X125301000Y-45914000D01*
X125341000Y-41102000D02*
X125341000Y-42460000D01*
X125341000Y-44540000D02*
X125341000Y-45898000D01*
X125381000Y-41118000D02*
X125381000Y-42460000D01*
X125381000Y-44540000D02*
X125381000Y-45882000D01*
X125421000Y-41135000D02*
X125421000Y-42460000D01*
X125421000Y-44540000D02*
X125421000Y-45865000D01*
X125461000Y-41152000D02*
X125461000Y-42460000D01*
X125461000Y-44540000D02*
X125461000Y-45848000D01*
X125501000Y-41171000D02*
X125501000Y-42460000D01*
X125501000Y-44540000D02*
X125501000Y-45829000D01*
X125541000Y-41190000D02*
X125541000Y-42460000D01*
X125541000Y-44540000D02*
X125541000Y-45810000D01*
X125581000Y-41210000D02*
X125581000Y-42460000D01*
X125581000Y-44540000D02*
X125581000Y-45790000D01*
X125621000Y-41232000D02*
X125621000Y-42460000D01*
X125621000Y-44540000D02*
X125621000Y-45768000D01*
X125661000Y-41253000D02*
X125661000Y-42460000D01*
X125661000Y-44540000D02*
X125661000Y-45747000D01*
X125701000Y-41276000D02*
X125701000Y-42460000D01*
X125701000Y-44540000D02*
X125701000Y-45724000D01*
X125741000Y-41300000D02*
X125741000Y-42460000D01*
X125741000Y-44540000D02*
X125741000Y-45700000D01*
X125781000Y-41325000D02*
X125781000Y-42460000D01*
X125781000Y-44540000D02*
X125781000Y-45675000D01*
X125821000Y-41351000D02*
X125821000Y-42460000D01*
X125821000Y-44540000D02*
X125821000Y-45649000D01*
X125861000Y-41378000D02*
X125861000Y-42460000D01*
X125861000Y-44540000D02*
X125861000Y-45622000D01*
X125901000Y-41405000D02*
X125901000Y-42460000D01*
X125901000Y-44540000D02*
X125901000Y-45595000D01*
X125941000Y-41435000D02*
X125941000Y-42460000D01*
X125941000Y-44540000D02*
X125941000Y-45565000D01*
X125981000Y-41465000D02*
X125981000Y-42460000D01*
X125981000Y-44540000D02*
X125981000Y-45535000D01*
X126021000Y-41496000D02*
X126021000Y-42460000D01*
X126021000Y-44540000D02*
X126021000Y-45504000D01*
X126061000Y-41529000D02*
X126061000Y-42460000D01*
X126061000Y-44540000D02*
X126061000Y-45471000D01*
X126101000Y-41563000D02*
X126101000Y-42460000D01*
X126101000Y-44540000D02*
X126101000Y-45437000D01*
X126141000Y-41599000D02*
X126141000Y-42460000D01*
X126141000Y-44540000D02*
X126141000Y-45401000D01*
X126181000Y-41636000D02*
X126181000Y-42460000D01*
X126181000Y-44540000D02*
X126181000Y-45364000D01*
X126221000Y-41674000D02*
X126221000Y-42460000D01*
X126221000Y-44540000D02*
X126221000Y-45326000D01*
X126261000Y-41715000D02*
X126261000Y-42460000D01*
X126261000Y-44540000D02*
X126261000Y-45285000D01*
X126301000Y-41757000D02*
X126301000Y-42460000D01*
X126301000Y-44540000D02*
X126301000Y-45243000D01*
X126341000Y-41801000D02*
X126341000Y-42460000D01*
X126341000Y-44540000D02*
X126341000Y-45199000D01*
X126381000Y-41847000D02*
X126381000Y-42460000D01*
X126381000Y-44540000D02*
X126381000Y-45153000D01*
X126421000Y-41895000D02*
X126421000Y-42460000D01*
X126421000Y-44540000D02*
X126421000Y-45105000D01*
X126461000Y-41946000D02*
X126461000Y-42460000D01*
X126461000Y-44540000D02*
X126461000Y-45054000D01*
X126501000Y-42000000D02*
X126501000Y-42460000D01*
X126501000Y-44540000D02*
X126501000Y-45000000D01*
X126541000Y-42057000D02*
X126541000Y-42460000D01*
X126541000Y-44540000D02*
X126541000Y-44943000D01*
X126581000Y-42117000D02*
X126581000Y-42460000D01*
X126581000Y-44540000D02*
X126581000Y-44883000D01*
X126621000Y-42181000D02*
X126621000Y-42460000D01*
X126621000Y-44540000D02*
X126621000Y-44819000D01*
X126661000Y-42249000D02*
X126661000Y-42460000D01*
X126661000Y-44540000D02*
X126661000Y-44751000D01*
X126701000Y-42322000D02*
X126701000Y-44678000D01*
X126741000Y-42402000D02*
X126741000Y-44598000D01*
X126781000Y-42489000D02*
X126781000Y-44511000D01*
X126821000Y-42585000D02*
X126821000Y-44415000D01*
X126861000Y-42695000D02*
X126861000Y-44305000D01*
X126901000Y-42823000D02*
X126901000Y-44177000D01*
X126941000Y-42982000D02*
X126941000Y-44018000D01*
X126981000Y-43216000D02*
X126981000Y-43784000D01*
X127000000Y-43500000D02*
G75*
G02*
X121760000Y-43500000I-2620000J0D01*
G01*
X121760000Y-43500000D02*
G75*
G02*
X127000000Y-43500000I2620000J0D01*
G01*
%TO.C,R10*%
X146383332Y-55340000D02*
X146713332Y-55340000D01*
X146383332Y-61880000D02*
X146383332Y-55340000D01*
X146713332Y-61880000D02*
X146383332Y-61880000D01*
X148793332Y-61880000D02*
X149123332Y-61880000D01*
X149123332Y-55340000D02*
X148793332Y-55340000D01*
X149123332Y-61880000D02*
X149123332Y-55340000D01*
%TO.C,R8*%
X121170000Y-48630000D02*
X121170000Y-48960000D01*
X121170000Y-51370000D02*
X121170000Y-51040000D01*
X127710000Y-48630000D02*
X121170000Y-48630000D01*
X127710000Y-48960000D02*
X127710000Y-48630000D01*
X127710000Y-51040000D02*
X127710000Y-51370000D01*
X127710000Y-51370000D02*
X121170000Y-51370000D01*
%TO.C,R5*%
X121420000Y-74580000D02*
X127960000Y-74580000D01*
X121420000Y-74910000D02*
X121420000Y-74580000D01*
X121420000Y-76990000D02*
X121420000Y-77320000D01*
X121420000Y-77320000D02*
X127960000Y-77320000D01*
X127960000Y-74580000D02*
X127960000Y-74910000D01*
X127960000Y-77320000D02*
X127960000Y-76990000D01*
%TO.C,D1*%
X150930000Y-83880000D02*
X150930000Y-89320000D01*
X150930000Y-89320000D02*
X153870000Y-89320000D01*
X152400000Y-82860000D02*
X152400000Y-83880000D01*
X152400000Y-90340000D02*
X152400000Y-89320000D01*
X153870000Y-83880000D02*
X150930000Y-83880000D01*
X153870000Y-84660000D02*
X150930000Y-84660000D01*
X153870000Y-84780000D02*
X150930000Y-84780000D01*
X153870000Y-84900000D02*
X150930000Y-84900000D01*
X153870000Y-89320000D02*
X153870000Y-83880000D01*
%TO.C,R7*%
X121230000Y-60580000D02*
X121230000Y-60910000D01*
X121230000Y-63320000D02*
X121230000Y-62990000D01*
X127770000Y-60580000D02*
X121230000Y-60580000D01*
X127770000Y-60910000D02*
X127770000Y-60580000D01*
X127770000Y-62990000D02*
X127770000Y-63320000D01*
X127770000Y-63320000D02*
X121230000Y-63320000D01*
%TO.C,C6*%
X159920000Y-49415112D02*
X165080000Y-49415112D01*
X159920000Y-49455112D02*
X165080000Y-49455112D01*
X159921000Y-49375112D02*
X165079000Y-49375112D01*
X159922000Y-49335112D02*
X165078000Y-49335112D01*
X159924000Y-49295112D02*
X165076000Y-49295112D01*
X159927000Y-49255112D02*
X165073000Y-49255112D01*
X159931000Y-49215112D02*
X161460000Y-49215112D01*
X159935000Y-49175112D02*
X161460000Y-49175112D01*
X159939000Y-49135112D02*
X161460000Y-49135112D01*
X159944000Y-49095112D02*
X161460000Y-49095112D01*
X159950000Y-49055112D02*
X161460000Y-49055112D01*
X159957000Y-49015112D02*
X161460000Y-49015112D01*
X159964000Y-48975112D02*
X161460000Y-48975112D01*
X159972000Y-48935112D02*
X161460000Y-48935112D01*
X159980000Y-48895112D02*
X161460000Y-48895112D01*
X159989000Y-48855112D02*
X161460000Y-48855112D01*
X159999000Y-48815112D02*
X161460000Y-48815112D01*
X160009000Y-48775112D02*
X161460000Y-48775112D01*
X160020000Y-48734112D02*
X161460000Y-48734112D01*
X160032000Y-48694112D02*
X161460000Y-48694112D01*
X160045000Y-48654112D02*
X161460000Y-48654112D01*
X160058000Y-48614112D02*
X161460000Y-48614112D01*
X160072000Y-48574112D02*
X161460000Y-48574112D01*
X160086000Y-48534112D02*
X161460000Y-48534112D01*
X160102000Y-48494112D02*
X161460000Y-48494112D01*
X160118000Y-48454112D02*
X161460000Y-48454112D01*
X160135000Y-48414112D02*
X161460000Y-48414112D01*
X160152000Y-48374112D02*
X161460000Y-48374112D01*
X160171000Y-48334112D02*
X161460000Y-48334112D01*
X160190000Y-48294112D02*
X161460000Y-48294112D01*
X160210000Y-48254112D02*
X161460000Y-48254112D01*
X160232000Y-48214112D02*
X161460000Y-48214112D01*
X160253000Y-48174112D02*
X161460000Y-48174112D01*
X160276000Y-48134112D02*
X161460000Y-48134112D01*
X160300000Y-48094112D02*
X161460000Y-48094112D01*
X160325000Y-48054112D02*
X161460000Y-48054112D01*
X160351000Y-48014112D02*
X161460000Y-48014112D01*
X160378000Y-47974112D02*
X161460000Y-47974112D01*
X160405000Y-47934112D02*
X161460000Y-47934112D01*
X160435000Y-47894112D02*
X161460000Y-47894112D01*
X160465000Y-47854112D02*
X161460000Y-47854112D01*
X160496000Y-47814112D02*
X161460000Y-47814112D01*
X160529000Y-47774112D02*
X161460000Y-47774112D01*
X160563000Y-47734112D02*
X161460000Y-47734112D01*
X160599000Y-47694112D02*
X161460000Y-47694112D01*
X160636000Y-47654112D02*
X161460000Y-47654112D01*
X160674000Y-47614112D02*
X161460000Y-47614112D01*
X160715000Y-47574112D02*
X161460000Y-47574112D01*
X160757000Y-47534112D02*
X161460000Y-47534112D01*
X160775000Y-52009887D02*
X161275000Y-52009887D01*
X160801000Y-47494112D02*
X161460000Y-47494112D01*
X160847000Y-47454112D02*
X161460000Y-47454112D01*
X160895000Y-47414112D02*
X161460000Y-47414112D01*
X160946000Y-47374112D02*
X161460000Y-47374112D01*
X161000000Y-47334112D02*
X161460000Y-47334112D01*
X161025000Y-52259887D02*
X161025000Y-51759887D01*
X161057000Y-47294112D02*
X161460000Y-47294112D01*
X161117000Y-47254112D02*
X161460000Y-47254112D01*
X161181000Y-47214112D02*
X161460000Y-47214112D01*
X161249000Y-47174112D02*
X161460000Y-47174112D01*
X161322000Y-47134112D02*
X163678000Y-47134112D01*
X161402000Y-47094112D02*
X163598000Y-47094112D01*
X161489000Y-47054112D02*
X163511000Y-47054112D01*
X161585000Y-47014112D02*
X163415000Y-47014112D01*
X161695000Y-46974112D02*
X163305000Y-46974112D01*
X161823000Y-46934112D02*
X163177000Y-46934112D01*
X161982000Y-46894112D02*
X163018000Y-46894112D01*
X162216000Y-46854112D02*
X162784000Y-46854112D01*
X163540000Y-47174112D02*
X163751000Y-47174112D01*
X163540000Y-47214112D02*
X163819000Y-47214112D01*
X163540000Y-47254112D02*
X163883000Y-47254112D01*
X163540000Y-47294112D02*
X163943000Y-47294112D01*
X163540000Y-47334112D02*
X164000000Y-47334112D01*
X163540000Y-47374112D02*
X164054000Y-47374112D01*
X163540000Y-47414112D02*
X164105000Y-47414112D01*
X163540000Y-47454112D02*
X164153000Y-47454112D01*
X163540000Y-47494112D02*
X164199000Y-47494112D01*
X163540000Y-47534112D02*
X164243000Y-47534112D01*
X163540000Y-47574112D02*
X164285000Y-47574112D01*
X163540000Y-47614112D02*
X164326000Y-47614112D01*
X163540000Y-47654112D02*
X164364000Y-47654112D01*
X163540000Y-47694112D02*
X164401000Y-47694112D01*
X163540000Y-47734112D02*
X164437000Y-47734112D01*
X163540000Y-47774112D02*
X164471000Y-47774112D01*
X163540000Y-47814112D02*
X164504000Y-47814112D01*
X163540000Y-47854112D02*
X164535000Y-47854112D01*
X163540000Y-47894112D02*
X164565000Y-47894112D01*
X163540000Y-47934112D02*
X164595000Y-47934112D01*
X163540000Y-47974112D02*
X164622000Y-47974112D01*
X163540000Y-48014112D02*
X164649000Y-48014112D01*
X163540000Y-48054112D02*
X164675000Y-48054112D01*
X163540000Y-48094112D02*
X164700000Y-48094112D01*
X163540000Y-48134112D02*
X164724000Y-48134112D01*
X163540000Y-48174112D02*
X164747000Y-48174112D01*
X163540000Y-48214112D02*
X164768000Y-48214112D01*
X163540000Y-48254112D02*
X164790000Y-48254112D01*
X163540000Y-48294112D02*
X164810000Y-48294112D01*
X163540000Y-48334112D02*
X164829000Y-48334112D01*
X163540000Y-48374112D02*
X164848000Y-48374112D01*
X163540000Y-48414112D02*
X164865000Y-48414112D01*
X163540000Y-48454112D02*
X164882000Y-48454112D01*
X163540000Y-48494112D02*
X164898000Y-48494112D01*
X163540000Y-48534112D02*
X164914000Y-48534112D01*
X163540000Y-48574112D02*
X164928000Y-48574112D01*
X163540000Y-48614112D02*
X164942000Y-48614112D01*
X163540000Y-48654112D02*
X164955000Y-48654112D01*
X163540000Y-48694112D02*
X164968000Y-48694112D01*
X163540000Y-48734112D02*
X164980000Y-48734112D01*
X163540000Y-48775112D02*
X164991000Y-48775112D01*
X163540000Y-48815112D02*
X165001000Y-48815112D01*
X163540000Y-48855112D02*
X165011000Y-48855112D01*
X163540000Y-48895112D02*
X165020000Y-48895112D01*
X163540000Y-48935112D02*
X165028000Y-48935112D01*
X163540000Y-48975112D02*
X165036000Y-48975112D01*
X163540000Y-49015112D02*
X165043000Y-49015112D01*
X163540000Y-49055112D02*
X165050000Y-49055112D01*
X163540000Y-49095112D02*
X165056000Y-49095112D01*
X163540000Y-49135112D02*
X165061000Y-49135112D01*
X163540000Y-49175112D02*
X165065000Y-49175112D01*
X163540000Y-49215112D02*
X165069000Y-49215112D01*
X165120000Y-49455112D02*
G75*
G02*
X159880000Y-49455112I-2620000J0D01*
G01*
X159880000Y-49455112D02*
G75*
G02*
X165120000Y-49455112I2620000J0D01*
G01*
%TO.C,C1*%
X130354113Y-68784000D02*
X130354113Y-68216000D01*
X130394113Y-69018000D02*
X130394113Y-67982000D01*
X130434113Y-69177000D02*
X130434113Y-67823000D01*
X130474113Y-69305000D02*
X130474113Y-67695000D01*
X130514113Y-69415000D02*
X130514113Y-67585000D01*
X130554113Y-69511000D02*
X130554113Y-67489000D01*
X130594113Y-69598000D02*
X130594113Y-67402000D01*
X130634113Y-69678000D02*
X130634113Y-67322000D01*
X130674113Y-67460000D02*
X130674113Y-67249000D01*
X130674113Y-69751000D02*
X130674113Y-69540000D01*
X130714113Y-67460000D02*
X130714113Y-67181000D01*
X130714113Y-69819000D02*
X130714113Y-69540000D01*
X130754113Y-67460000D02*
X130754113Y-67117000D01*
X130754113Y-69883000D02*
X130754113Y-69540000D01*
X130794113Y-67460000D02*
X130794113Y-67057000D01*
X130794113Y-69943000D02*
X130794113Y-69540000D01*
X130834113Y-67460000D02*
X130834113Y-67000000D01*
X130834113Y-70000000D02*
X130834113Y-69540000D01*
X130874113Y-67460000D02*
X130874113Y-66946000D01*
X130874113Y-70054000D02*
X130874113Y-69540000D01*
X130914113Y-67460000D02*
X130914113Y-66895000D01*
X130914113Y-70105000D02*
X130914113Y-69540000D01*
X130954113Y-67460000D02*
X130954113Y-66847000D01*
X130954113Y-70153000D02*
X130954113Y-69540000D01*
X130994113Y-67460000D02*
X130994113Y-66801000D01*
X130994113Y-70199000D02*
X130994113Y-69540000D01*
X131034113Y-67460000D02*
X131034113Y-66757000D01*
X131034113Y-70243000D02*
X131034113Y-69540000D01*
X131074113Y-67460000D02*
X131074113Y-66715000D01*
X131074113Y-70285000D02*
X131074113Y-69540000D01*
X131114113Y-67460000D02*
X131114113Y-66674000D01*
X131114113Y-70326000D02*
X131114113Y-69540000D01*
X131154113Y-67460000D02*
X131154113Y-66636000D01*
X131154113Y-70364000D02*
X131154113Y-69540000D01*
X131194113Y-67460000D02*
X131194113Y-66599000D01*
X131194113Y-70401000D02*
X131194113Y-69540000D01*
X131234113Y-67460000D02*
X131234113Y-66563000D01*
X131234113Y-70437000D02*
X131234113Y-69540000D01*
X131274113Y-67460000D02*
X131274113Y-66529000D01*
X131274113Y-70471000D02*
X131274113Y-69540000D01*
X131314113Y-67460000D02*
X131314113Y-66496000D01*
X131314113Y-70504000D02*
X131314113Y-69540000D01*
X131354113Y-67460000D02*
X131354113Y-66465000D01*
X131354113Y-70535000D02*
X131354113Y-69540000D01*
X131394113Y-67460000D02*
X131394113Y-66435000D01*
X131394113Y-70565000D02*
X131394113Y-69540000D01*
X131434113Y-67460000D02*
X131434113Y-66405000D01*
X131434113Y-70595000D02*
X131434113Y-69540000D01*
X131474113Y-67460000D02*
X131474113Y-66378000D01*
X131474113Y-70622000D02*
X131474113Y-69540000D01*
X131514113Y-67460000D02*
X131514113Y-66351000D01*
X131514113Y-70649000D02*
X131514113Y-69540000D01*
X131554113Y-67460000D02*
X131554113Y-66325000D01*
X131554113Y-70675000D02*
X131554113Y-69540000D01*
X131594113Y-67460000D02*
X131594113Y-66300000D01*
X131594113Y-70700000D02*
X131594113Y-69540000D01*
X131634113Y-67460000D02*
X131634113Y-66276000D01*
X131634113Y-70724000D02*
X131634113Y-69540000D01*
X131674113Y-67460000D02*
X131674113Y-66253000D01*
X131674113Y-70747000D02*
X131674113Y-69540000D01*
X131714113Y-67460000D02*
X131714113Y-66232000D01*
X131714113Y-70768000D02*
X131714113Y-69540000D01*
X131754113Y-67460000D02*
X131754113Y-66210000D01*
X131754113Y-70790000D02*
X131754113Y-69540000D01*
X131794113Y-67460000D02*
X131794113Y-66190000D01*
X131794113Y-70810000D02*
X131794113Y-69540000D01*
X131834113Y-67460000D02*
X131834113Y-66171000D01*
X131834113Y-70829000D02*
X131834113Y-69540000D01*
X131874113Y-67460000D02*
X131874113Y-66152000D01*
X131874113Y-70848000D02*
X131874113Y-69540000D01*
X131914113Y-67460000D02*
X131914113Y-66135000D01*
X131914113Y-70865000D02*
X131914113Y-69540000D01*
X131954113Y-67460000D02*
X131954113Y-66118000D01*
X131954113Y-70882000D02*
X131954113Y-69540000D01*
X131994113Y-67460000D02*
X131994113Y-66102000D01*
X131994113Y-70898000D02*
X131994113Y-69540000D01*
X132034113Y-67460000D02*
X132034113Y-66086000D01*
X132034113Y-70914000D02*
X132034113Y-69540000D01*
X132074113Y-67460000D02*
X132074113Y-66072000D01*
X132074113Y-70928000D02*
X132074113Y-69540000D01*
X132114113Y-67460000D02*
X132114113Y-66058000D01*
X132114113Y-70942000D02*
X132114113Y-69540000D01*
X132154113Y-67460000D02*
X132154113Y-66045000D01*
X132154113Y-70955000D02*
X132154113Y-69540000D01*
X132194113Y-67460000D02*
X132194113Y-66032000D01*
X132194113Y-70968000D02*
X132194113Y-69540000D01*
X132234113Y-67460000D02*
X132234113Y-66020000D01*
X132234113Y-70980000D02*
X132234113Y-69540000D01*
X132275113Y-67460000D02*
X132275113Y-66009000D01*
X132275113Y-70991000D02*
X132275113Y-69540000D01*
X132315113Y-67460000D02*
X132315113Y-65999000D01*
X132315113Y-71001000D02*
X132315113Y-69540000D01*
X132355113Y-67460000D02*
X132355113Y-65989000D01*
X132355113Y-71011000D02*
X132355113Y-69540000D01*
X132395113Y-67460000D02*
X132395113Y-65980000D01*
X132395113Y-71020000D02*
X132395113Y-69540000D01*
X132435113Y-67460000D02*
X132435113Y-65972000D01*
X132435113Y-71028000D02*
X132435113Y-69540000D01*
X132475113Y-67460000D02*
X132475113Y-65964000D01*
X132475113Y-71036000D02*
X132475113Y-69540000D01*
X132515113Y-67460000D02*
X132515113Y-65957000D01*
X132515113Y-71043000D02*
X132515113Y-69540000D01*
X132555113Y-67460000D02*
X132555113Y-65950000D01*
X132555113Y-71050000D02*
X132555113Y-69540000D01*
X132595113Y-67460000D02*
X132595113Y-65944000D01*
X132595113Y-71056000D02*
X132595113Y-69540000D01*
X132635113Y-67460000D02*
X132635113Y-65939000D01*
X132635113Y-71061000D02*
X132635113Y-69540000D01*
X132675113Y-67460000D02*
X132675113Y-65935000D01*
X132675113Y-71065000D02*
X132675113Y-69540000D01*
X132715113Y-67460000D02*
X132715113Y-65931000D01*
X132715113Y-71069000D02*
X132715113Y-69540000D01*
X132755113Y-71073000D02*
X132755113Y-65927000D01*
X132795113Y-71076000D02*
X132795113Y-65924000D01*
X132835113Y-71078000D02*
X132835113Y-65922000D01*
X132875113Y-71079000D02*
X132875113Y-65921000D01*
X132915113Y-71080000D02*
X132915113Y-65920000D01*
X132955113Y-71080000D02*
X132955113Y-65920000D01*
X135509888Y-70225000D02*
X135509888Y-69725000D01*
X135759888Y-69975000D02*
X135259888Y-69975000D01*
X135575113Y-68500000D02*
G75*
G02*
X130335113Y-68500000I-2620000J0D01*
G01*
X130335113Y-68500000D02*
G75*
G02*
X135575113Y-68500000I2620000J0D01*
G01*
%TO.C,RV1*%
X134430000Y-39130000D02*
X152570000Y-39130000D01*
X134430000Y-49870000D02*
X134430000Y-39130000D01*
X134430000Y-49870000D02*
X152570000Y-49870000D01*
X139880000Y-34130000D02*
X147120000Y-34130000D01*
X139880000Y-39130000D02*
X139880000Y-34130000D01*
X140380000Y-24130000D02*
X146620000Y-24130000D01*
X140380000Y-34130000D02*
X140380000Y-24130000D01*
X146620000Y-34130000D02*
X146620000Y-24130000D01*
X147120000Y-39130000D02*
X147120000Y-34130000D01*
X152570000Y-49870000D02*
X152570000Y-39130000D01*
%TO.C,C5*%
X151130000Y-72080000D02*
X153870000Y-72080000D01*
X151130000Y-79320000D02*
X151130000Y-72080000D01*
X151130000Y-79320000D02*
X153870000Y-79320000D01*
X153870000Y-79320000D02*
X153870000Y-72080000D01*
%TO.C,R16*%
X159130000Y-73620000D02*
X159460000Y-73620000D01*
X159130000Y-80160000D02*
X159130000Y-73620000D01*
X159460000Y-80160000D02*
X159130000Y-80160000D01*
X161540000Y-80160000D02*
X161870000Y-80160000D01*
X161870000Y-73620000D02*
X161540000Y-73620000D01*
X161870000Y-80160000D02*
X161870000Y-73620000D01*
%TD*%
M02*
