%TF.GenerationSoftware,KiCad,Pcbnew,8.0.7-1.fc41*%
%TF.CreationDate,2025-04-02T21:11:18-07:00*%
%TF.ProjectId,EP-Booster,45502d42-6f6f-4737-9465-722e6b696361,rev?*%
%TF.SameCoordinates,Original*%
%TF.FileFunction,Copper,L2,Bot*%
%TF.FilePolarity,Positive*%
%FSLAX46Y46*%
G04 Gerber Fmt 4.6, Leading zero omitted, Abs format (unit mm)*
G04 Created by KiCad (PCBNEW 8.0.7-1.fc41) date 2025-04-02 21:11:18*
%MOMM*%
%LPD*%
G01*
G04 APERTURE LIST*
%TA.AperFunction,ComponentPad*%
%ADD10C,3.800000*%
%TD*%
%TA.AperFunction,ConnectorPad*%
%ADD11C,3.800000*%
%TD*%
%TA.AperFunction,ComponentPad*%
%ADD12C,2.600000*%
%TD*%
%TA.AperFunction,ComponentPad*%
%ADD13C,1.600000*%
%TD*%
%TA.AperFunction,ComponentPad*%
%ADD14O,1.600000X1.600000*%
%TD*%
%TA.AperFunction,ComponentPad*%
%ADD15R,2.200000X2.200000*%
%TD*%
%TA.AperFunction,ComponentPad*%
%ADD16O,2.200000X2.200000*%
%TD*%
%TA.AperFunction,ComponentPad*%
%ADD17R,1.600000X1.600000*%
%TD*%
%TA.AperFunction,ComponentPad*%
%ADD18R,3.000000X3.000000*%
%TD*%
%TA.AperFunction,ComponentPad*%
%ADD19C,3.000000*%
%TD*%
%TA.AperFunction,Conductor*%
%ADD20C,0.200000*%
%TD*%
G04 APERTURE END LIST*
D10*
%TO.P,H12,1,1*%
%TO.N,Earth*%
X162250000Y-88750000D03*
%TD*%
%TO.P,H11,1,1*%
%TO.N,Earth*%
X123750000Y-88750000D03*
%TD*%
%TO.P,H10,1,1*%
%TO.N,Earth*%
X162250000Y-27000000D03*
%TD*%
%TO.P,H9,1,1*%
%TO.N,Earth*%
X123750000Y-27000000D03*
%TD*%
D11*
%TO.P,H2,1,1*%
%TO.N,Net-(C3-Pad1)*%
X126000000Y-97000000D03*
D12*
X126000000Y-97000000D03*
%TD*%
D11*
%TO.P,H3,1,1*%
%TO.N,/SWB2*%
X161250000Y-97000000D03*
D12*
X161250000Y-97000000D03*
%TD*%
D11*
%TO.P,H8,1,1*%
%TO.N,Earth*%
X146142856Y-97000000D03*
D12*
X146142856Y-97000000D03*
%TD*%
D13*
%TO.P,R14,1*%
%TO.N,Net-(C6-Pad2)*%
X154190000Y-50500000D03*
D14*
%TO.P,R14,2*%
%TO.N,/SWB1*%
X161810000Y-50500000D03*
%TD*%
D13*
%TO.P,C3,1*%
%TO.N,Net-(C3-Pad1)*%
X125750000Y-63750000D03*
%TO.P,C3,2*%
%TO.N,Net-(C3-Pad2)*%
X130750000Y-63750000D03*
%TD*%
D11*
%TO.P,H1,1,1*%
%TO.N,Net-(D2-K)*%
X151178570Y-97000000D03*
D12*
X151178570Y-97000000D03*
%TD*%
D13*
%TO.P,R6,1*%
%TO.N,Net-(C3-Pad2)*%
X122940000Y-58750000D03*
D14*
%TO.P,R6,2*%
%TO.N,Net-(Q1-Pad3)*%
X130560000Y-58750000D03*
%TD*%
D13*
%TO.P,R2,1*%
%TO.N,/VA*%
X151500000Y-75750000D03*
D14*
%TO.P,R2,2*%
%TO.N,Net-(D1-K)*%
X151500000Y-83370000D03*
%TD*%
D15*
%TO.P,D2,1,K*%
%TO.N,Net-(D2-K)*%
X143000000Y-83000000D03*
D16*
%TO.P,D2,2,A*%
%TO.N,Net-(D2-A)*%
X135380000Y-83000000D03*
%TD*%
D13*
%TO.P,R15,1*%
%TO.N,/SWB1*%
X161750000Y-54750000D03*
D14*
%TO.P,R15,2*%
%TO.N,/SWB2*%
X161750000Y-62370000D03*
%TD*%
D17*
%TO.P,C2,1*%
%TO.N,/VB*%
X143000000Y-68500000D03*
D13*
%TO.P,C2,2*%
%TO.N,Earth*%
X140500000Y-68500000D03*
%TD*%
D11*
%TO.P,H5,1,1*%
%TO.N,Earth*%
X131035714Y-97000000D03*
D12*
X131035714Y-97000000D03*
%TD*%
D11*
%TO.P,H7,1,1*%
%TO.N,+9V*%
X141107142Y-97000000D03*
D12*
X141107142Y-97000000D03*
%TD*%
D13*
%TO.P,R12,1*%
%TO.N,/VB*%
X147750000Y-73060000D03*
D14*
%TO.P,R12,2*%
%TO.N,/SWA2*%
X147750000Y-65440000D03*
%TD*%
%TO.P,R13,2*%
%TO.N,Earth*%
X162000000Y-47560000D03*
D13*
%TO.P,R13,1*%
%TO.N,Net-(Q2-E)*%
X162000000Y-39940000D03*
%TD*%
%TO.P,R3,1*%
%TO.N,/VA*%
X135720000Y-73794888D03*
D14*
%TO.P,R3,2*%
%TO.N,/VB*%
X143340000Y-73794888D03*
%TD*%
D13*
%TO.P,R9,1*%
%TO.N,/VA*%
X135750000Y-62370000D03*
D14*
%TO.P,R9,2*%
%TO.N,Net-(C4-Pad1)*%
X135750000Y-54750000D03*
%TD*%
D13*
%TO.P,R1,1*%
%TO.N,/VA*%
X147750000Y-75690000D03*
D14*
%TO.P,R1,2*%
%TO.N,Net-(D2-A)*%
X147750000Y-83310000D03*
%TD*%
D17*
%TO.P,SW1,1*%
%TO.N,/SWA2*%
X158250000Y-73300000D03*
D14*
%TO.P,SW1,2*%
%TO.N,/SWB1*%
X160790000Y-73300000D03*
%TO.P,SW1,3*%
%TO.N,/SWB2*%
X160790000Y-65680000D03*
%TO.P,SW1,4*%
%TO.N,/SWA1*%
X158250000Y-65680000D03*
%TD*%
D13*
%TO.P,R11,1*%
%TO.N,/SWA1*%
X152800000Y-54800000D03*
D14*
%TO.P,R11,2*%
%TO.N,/SWA2*%
X152800000Y-62420000D03*
%TD*%
D13*
%TO.P,R4,1*%
%TO.N,/VB*%
X143340000Y-78794888D03*
D14*
%TO.P,R4,2*%
%TO.N,Earth*%
X135720000Y-78794888D03*
%TD*%
D17*
%TO.P,C7,1*%
%TO.N,Net-(C7-Pad1)*%
X128294888Y-36500000D03*
D13*
%TO.P,C7,2*%
%TO.N,Net-(C7-Pad2)*%
X130794888Y-36500000D03*
%TD*%
%TO.P,R10,1*%
%TO.N,Net-(C4-Pad2)*%
X147753332Y-62420000D03*
D14*
%TO.P,R10,2*%
%TO.N,/SWA1*%
X147753332Y-54800000D03*
%TD*%
D13*
%TO.P,R8,1*%
%TO.N,Net-(C7-Pad1)*%
X131060000Y-44000000D03*
D14*
%TO.P,R8,2*%
%TO.N,Earth*%
X123440000Y-44000000D03*
%TD*%
D13*
%TO.P,R5,1*%
%TO.N,Net-(C3-Pad1)*%
X127750000Y-68440000D03*
D14*
%TO.P,R5,2*%
%TO.N,Earth*%
X127750000Y-76060000D03*
%TD*%
D11*
%TO.P,H6,1,1*%
%TO.N,Earth*%
X136071428Y-97000000D03*
D12*
X136071428Y-97000000D03*
%TD*%
D15*
%TO.P,D1,1,K*%
%TO.N,Net-(D1-K)*%
X138250000Y-88250000D03*
D16*
%TO.P,D1,2,A*%
%TO.N,+9V*%
X148410000Y-88250000D03*
%TD*%
D11*
%TO.P,H4,1,1*%
%TO.N,Earth*%
X156214284Y-97000000D03*
D12*
X156214284Y-97000000D03*
%TD*%
D13*
%TO.P,R7,1*%
%TO.N,Net-(Q1-Pad3)*%
X130750000Y-54000000D03*
D14*
%TO.P,R7,2*%
%TO.N,Earth*%
X123130000Y-54000000D03*
%TD*%
D13*
%TO.P,C6,2*%
%TO.N,Net-(C6-Pad2)*%
X155455112Y-37000000D03*
D17*
%TO.P,C6,1*%
%TO.N,Net-(Q2-E)*%
X157955112Y-37000000D03*
%TD*%
%TO.P,C1,1*%
%TO.N,/VA*%
X134205113Y-68500000D03*
D13*
%TO.P,C1,2*%
%TO.N,Earth*%
X131705113Y-68500000D03*
%TD*%
D18*
%TO.P,RV1,1,1*%
%TO.N,Net-(C7-Pad2)*%
X138000000Y-31500000D03*
D19*
%TO.P,RV1,2,2*%
X143000000Y-31500000D03*
%TO.P,RV1,3,3*%
%TO.N,Earth*%
X148000000Y-31500000D03*
%TD*%
D13*
%TO.P,C5,1*%
%TO.N,/SWA2*%
X153250000Y-71500000D03*
%TO.P,C5,2*%
%TO.N,Earth*%
X153250000Y-66500000D03*
%TD*%
%TO.P,R16,1*%
%TO.N,/SWB2*%
X157000000Y-62310000D03*
D14*
%TO.P,R16,2*%
%TO.N,Earth*%
X157000000Y-54690000D03*
%TD*%
D17*
%TO.P,C4,1*%
%TO.N,Net-(C4-Pad1)*%
X141751666Y-55289775D03*
D13*
%TO.P,C4,2*%
%TO.N,Net-(C4-Pad2)*%
X141751666Y-57789775D03*
%TD*%
D20*
%TO.N,/SWB2*%
X155250000Y-88928932D02*
G75*
G03*
X156714482Y-92464450I5000000J32D01*
G01*
X155250000Y-74821068D02*
G75*
G02*
X156714482Y-71285550I5000000J-32D01*
G01*
%TO.N,/SWA1*%
X152800000Y-58158932D02*
G75*
G03*
X154264482Y-61694450I5000000J32D01*
G01*
%TO.N,/SWB1*%
X162850000Y-69168932D02*
G75*
G02*
X161385518Y-72704450I-5000000J32D01*
G01*
%TO.N,Net-(D2-K)*%
X143000000Y-86750362D02*
G75*
G03*
X144464447Y-90285915I5000000J-38D01*
G01*
%TO.N,/SWB2*%
X160790000Y-65680000D02*
X160790000Y-67210000D01*
X160790000Y-67210000D02*
X156714466Y-71285534D01*
X155250000Y-74821068D02*
X155250000Y-88928932D01*
X156714466Y-92464466D02*
X161250000Y-97000000D01*
%TO.N,Net-(C4-Pad2)*%
X141751666Y-57789775D02*
X143123107Y-57789775D01*
X143123107Y-57789775D02*
X147753332Y-62420000D01*
%TO.N,Net-(C6-Pad2)*%
X154190000Y-50500000D02*
X154190000Y-38265112D01*
X154190000Y-38265112D02*
X155455112Y-37000000D01*
%TO.N,/SWA1*%
X152800000Y-54800000D02*
X152800000Y-58158932D01*
X154264466Y-61694466D02*
X158250000Y-65680000D01*
X147753332Y-54800000D02*
X152800000Y-54800000D01*
%TO.N,/SWB1*%
X160790000Y-73300000D02*
X161385534Y-72704466D01*
X162850000Y-69168932D02*
X162850000Y-55850000D01*
X162850000Y-55850000D02*
X161750000Y-54750000D01*
%TO.N,/VB*%
X143000000Y-68500000D02*
X143000000Y-73454888D01*
X143000000Y-73454888D02*
X143340000Y-73794888D01*
X143340000Y-73794888D02*
X147015112Y-73794888D01*
X147015112Y-73794888D02*
X147750000Y-73060000D01*
X143340000Y-73794888D02*
X143340000Y-78794888D01*
%TO.N,Net-(D2-K)*%
X143000000Y-83000000D02*
X143000000Y-86750362D01*
X144464466Y-90285896D02*
X151178570Y-97000000D01*
%TD*%
%TA.AperFunction,Conductor*%
%TO.N,Earth*%
G36*
X164942539Y-23270185D02*
G01*
X164988294Y-23322989D01*
X164999500Y-23374500D01*
X164999500Y-100875500D01*
X164979815Y-100942539D01*
X164927011Y-100988294D01*
X164875500Y-100999500D01*
X121374500Y-100999500D01*
X121307461Y-100979815D01*
X121261706Y-100927011D01*
X121250500Y-100875500D01*
X121250500Y-96999994D01*
X123594754Y-96999994D01*
X123594754Y-97000005D01*
X123613718Y-97301446D01*
X123613719Y-97301453D01*
X123670320Y-97598164D01*
X123763659Y-97885431D01*
X123763661Y-97885436D01*
X123892265Y-98158732D01*
X123892268Y-98158738D01*
X124054111Y-98413763D01*
X124246652Y-98646505D01*
X124466836Y-98853272D01*
X124466846Y-98853280D01*
X124711193Y-99030808D01*
X124711198Y-99030810D01*
X124711205Y-99030816D01*
X124975896Y-99176332D01*
X124975901Y-99176334D01*
X124975903Y-99176335D01*
X124975904Y-99176336D01*
X125256734Y-99287524D01*
X125256737Y-99287525D01*
X125354259Y-99312564D01*
X125549302Y-99362642D01*
X125696039Y-99381179D01*
X125848963Y-99400499D01*
X125848969Y-99400499D01*
X125848973Y-99400500D01*
X125848975Y-99400500D01*
X126151025Y-99400500D01*
X126151027Y-99400500D01*
X126151032Y-99400499D01*
X126151036Y-99400499D01*
X126230591Y-99390448D01*
X126450698Y-99362642D01*
X126743262Y-99287525D01*
X126744467Y-99287048D01*
X127024095Y-99176336D01*
X127024096Y-99176335D01*
X127024094Y-99176335D01*
X127024104Y-99176332D01*
X127288795Y-99030816D01*
X127533162Y-98853274D01*
X127753349Y-98646504D01*
X127945885Y-98413768D01*
X128107733Y-98158736D01*
X128236341Y-97885430D01*
X128329681Y-97598160D01*
X128386280Y-97301457D01*
X128391483Y-97218767D01*
X128394352Y-97173157D01*
X128418206Y-97107485D01*
X128473779Y-97065136D01*
X128543425Y-97059554D01*
X128605033Y-97092512D01*
X128639043Y-97153546D01*
X128641862Y-97173156D01*
X128649929Y-97301383D01*
X128649930Y-97301390D01*
X128706519Y-97598040D01*
X128799839Y-97885247D01*
X128799841Y-97885252D01*
X128928418Y-98158491D01*
X128928421Y-98158497D01*
X129090230Y-98413469D01*
X129171025Y-98511133D01*
X130358135Y-97324024D01*
X130371073Y-97355258D01*
X130453151Y-97478097D01*
X130557617Y-97582563D01*
X130680456Y-97664641D01*
X130711689Y-97677578D01*
X129522278Y-98866987D01*
X129522279Y-98866989D01*
X129747175Y-99030385D01*
X129747193Y-99030397D01*
X130011823Y-99175878D01*
X130011831Y-99175882D01*
X130292603Y-99287047D01*
X130292606Y-99287048D01*
X130585113Y-99362150D01*
X130884709Y-99399999D01*
X130884721Y-99400000D01*
X131186707Y-99400000D01*
X131186718Y-99399999D01*
X131486314Y-99362150D01*
X131778821Y-99287048D01*
X131778824Y-99287047D01*
X132059596Y-99175882D01*
X132059604Y-99175878D01*
X132324234Y-99030397D01*
X132324244Y-99030390D01*
X132549147Y-98866987D01*
X132549148Y-98866987D01*
X131359738Y-97677578D01*
X131390972Y-97664641D01*
X131513811Y-97582563D01*
X131618277Y-97478097D01*
X131700355Y-97355258D01*
X131713292Y-97324025D01*
X132900401Y-98511134D01*
X132981200Y-98413464D01*
X133143006Y-98158497D01*
X133143009Y-98158491D01*
X133271586Y-97885252D01*
X133271588Y-97885247D01*
X133364908Y-97598040D01*
X133421497Y-97301390D01*
X133421498Y-97301383D01*
X133429816Y-97169174D01*
X133453671Y-97103503D01*
X133509243Y-97061154D01*
X133578890Y-97055572D01*
X133640498Y-97088531D01*
X133674507Y-97149565D01*
X133677326Y-97169174D01*
X133685643Y-97301383D01*
X133685644Y-97301390D01*
X133742233Y-97598040D01*
X133835553Y-97885247D01*
X133835555Y-97885252D01*
X133964132Y-98158491D01*
X133964135Y-98158497D01*
X134125944Y-98413469D01*
X134206739Y-98511133D01*
X135393849Y-97324024D01*
X135406787Y-97355258D01*
X135488865Y-97478097D01*
X135593331Y-97582563D01*
X135716170Y-97664641D01*
X135747403Y-97677578D01*
X134557992Y-98866987D01*
X134557993Y-98866989D01*
X134782889Y-99030385D01*
X134782907Y-99030397D01*
X135047537Y-99175878D01*
X135047545Y-99175882D01*
X135328317Y-99287047D01*
X135328320Y-99287048D01*
X135620827Y-99362150D01*
X135920423Y-99399999D01*
X135920435Y-99400000D01*
X136222421Y-99400000D01*
X136222432Y-99399999D01*
X136522028Y-99362150D01*
X136814535Y-99287048D01*
X136814538Y-99287047D01*
X137095310Y-99175882D01*
X137095318Y-99175878D01*
X137359948Y-99030397D01*
X137359958Y-99030390D01*
X137584861Y-98866987D01*
X137584862Y-98866987D01*
X136395452Y-97677578D01*
X136426686Y-97664641D01*
X136549525Y-97582563D01*
X136653991Y-97478097D01*
X136736069Y-97355258D01*
X136749006Y-97324025D01*
X137936115Y-98511134D01*
X138016914Y-98413464D01*
X138178720Y-98158497D01*
X138178723Y-98158491D01*
X138307300Y-97885252D01*
X138307302Y-97885247D01*
X138400622Y-97598040D01*
X138457211Y-97301390D01*
X138457212Y-97301382D01*
X138465279Y-97173157D01*
X138489133Y-97107485D01*
X138544706Y-97065136D01*
X138614352Y-97059554D01*
X138675960Y-97092512D01*
X138709970Y-97153546D01*
X138712789Y-97173156D01*
X138720860Y-97301446D01*
X138720861Y-97301453D01*
X138777462Y-97598164D01*
X138870801Y-97885431D01*
X138870803Y-97885436D01*
X138999407Y-98158732D01*
X138999410Y-98158738D01*
X139161253Y-98413763D01*
X139353794Y-98646505D01*
X139573978Y-98853272D01*
X139573988Y-98853280D01*
X139818335Y-99030808D01*
X139818340Y-99030810D01*
X139818347Y-99030816D01*
X140083038Y-99176332D01*
X140083043Y-99176334D01*
X140083045Y-99176335D01*
X140083046Y-99176336D01*
X140363876Y-99287524D01*
X140363879Y-99287525D01*
X140461401Y-99312564D01*
X140656444Y-99362642D01*
X140803181Y-99381179D01*
X140956105Y-99400499D01*
X140956111Y-99400499D01*
X140956115Y-99400500D01*
X140956117Y-99400500D01*
X141258167Y-99400500D01*
X141258169Y-99400500D01*
X141258174Y-99400499D01*
X141258178Y-99400499D01*
X141337733Y-99390448D01*
X141557840Y-99362642D01*
X141850404Y-99287525D01*
X141851609Y-99287048D01*
X142131237Y-99176336D01*
X142131238Y-99176335D01*
X142131236Y-99176335D01*
X142131246Y-99176332D01*
X142395937Y-99030816D01*
X142640304Y-98853274D01*
X142860491Y-98646504D01*
X143053027Y-98413768D01*
X143214875Y-98158736D01*
X143343483Y-97885430D01*
X143436823Y-97598160D01*
X143493422Y-97301457D01*
X143498625Y-97218767D01*
X143501494Y-97173157D01*
X143525348Y-97107485D01*
X143580921Y-97065136D01*
X143650567Y-97059554D01*
X143712175Y-97092512D01*
X143746185Y-97153546D01*
X143749004Y-97173156D01*
X143757071Y-97301383D01*
X143757072Y-97301390D01*
X143813661Y-97598040D01*
X143906981Y-97885247D01*
X143906983Y-97885252D01*
X144035560Y-98158491D01*
X144035563Y-98158497D01*
X144197372Y-98413469D01*
X144278167Y-98511133D01*
X145465277Y-97324024D01*
X145478215Y-97355258D01*
X145560293Y-97478097D01*
X145664759Y-97582563D01*
X145787598Y-97664641D01*
X145818831Y-97677578D01*
X144629420Y-98866987D01*
X144629421Y-98866989D01*
X144854317Y-99030385D01*
X144854335Y-99030397D01*
X145118965Y-99175878D01*
X145118973Y-99175882D01*
X145399745Y-99287047D01*
X145399748Y-99287048D01*
X145692255Y-99362150D01*
X145991851Y-99399999D01*
X145991863Y-99400000D01*
X146293849Y-99400000D01*
X146293860Y-99399999D01*
X146593456Y-99362150D01*
X146885963Y-99287048D01*
X146885966Y-99287047D01*
X147166738Y-99175882D01*
X147166746Y-99175878D01*
X147431376Y-99030397D01*
X147431386Y-99030390D01*
X147656289Y-98866987D01*
X147656290Y-98866987D01*
X146466880Y-97677578D01*
X146498114Y-97664641D01*
X146620953Y-97582563D01*
X146725419Y-97478097D01*
X146807497Y-97355258D01*
X146820434Y-97324025D01*
X148007543Y-98511134D01*
X148088342Y-98413464D01*
X148250148Y-98158497D01*
X148250151Y-98158491D01*
X148378728Y-97885252D01*
X148378730Y-97885247D01*
X148472050Y-97598040D01*
X148528639Y-97301390D01*
X148528640Y-97301382D01*
X148536707Y-97173157D01*
X148560561Y-97107485D01*
X148616134Y-97065136D01*
X148685780Y-97059554D01*
X148747388Y-97092512D01*
X148781398Y-97153546D01*
X148784217Y-97173156D01*
X148792288Y-97301446D01*
X148792289Y-97301453D01*
X148848890Y-97598164D01*
X148942229Y-97885431D01*
X148942231Y-97885436D01*
X149070835Y-98158732D01*
X149070838Y-98158738D01*
X149232681Y-98413763D01*
X149425222Y-98646505D01*
X149645406Y-98853272D01*
X149645416Y-98853280D01*
X149889763Y-99030808D01*
X149889768Y-99030810D01*
X149889775Y-99030816D01*
X150154466Y-99176332D01*
X150154471Y-99176334D01*
X150154473Y-99176335D01*
X150154474Y-99176336D01*
X150435304Y-99287524D01*
X150435307Y-99287525D01*
X150532829Y-99312564D01*
X150727872Y-99362642D01*
X150874609Y-99381179D01*
X151027533Y-99400499D01*
X151027539Y-99400499D01*
X151027543Y-99400500D01*
X151027545Y-99400500D01*
X151329595Y-99400500D01*
X151329597Y-99400500D01*
X151329602Y-99400499D01*
X151329606Y-99400499D01*
X151409161Y-99390448D01*
X151629268Y-99362642D01*
X151921832Y-99287525D01*
X151923037Y-99287048D01*
X152202665Y-99176336D01*
X152202666Y-99176335D01*
X152202664Y-99176335D01*
X152202674Y-99176332D01*
X152467365Y-99030816D01*
X152711732Y-98853274D01*
X152931919Y-98646504D01*
X153124455Y-98413768D01*
X153286303Y-98158736D01*
X153414911Y-97885430D01*
X153508251Y-97598160D01*
X153564850Y-97301457D01*
X153570053Y-97218767D01*
X153572922Y-97173157D01*
X153596776Y-97107485D01*
X153652349Y-97065136D01*
X153721995Y-97059554D01*
X153783603Y-97092512D01*
X153817613Y-97153546D01*
X153820432Y-97173156D01*
X153828499Y-97301383D01*
X153828500Y-97301390D01*
X153885089Y-97598040D01*
X153978409Y-97885247D01*
X153978411Y-97885252D01*
X154106988Y-98158491D01*
X154106991Y-98158497D01*
X154268800Y-98413469D01*
X154349595Y-98511133D01*
X155536705Y-97324024D01*
X155549643Y-97355258D01*
X155631721Y-97478097D01*
X155736187Y-97582563D01*
X155859026Y-97664641D01*
X155890259Y-97677578D01*
X154700848Y-98866987D01*
X154700849Y-98866989D01*
X154925745Y-99030385D01*
X154925763Y-99030397D01*
X155190393Y-99175878D01*
X155190401Y-99175882D01*
X155471173Y-99287047D01*
X155471176Y-99287048D01*
X155763683Y-99362150D01*
X156063279Y-99399999D01*
X156063291Y-99400000D01*
X156365277Y-99400000D01*
X156365288Y-99399999D01*
X156664884Y-99362150D01*
X156957391Y-99287048D01*
X156957394Y-99287047D01*
X157238166Y-99175882D01*
X157238174Y-99175878D01*
X157502804Y-99030397D01*
X157502814Y-99030390D01*
X157727717Y-98866987D01*
X157727718Y-98866987D01*
X156538308Y-97677578D01*
X156569542Y-97664641D01*
X156692381Y-97582563D01*
X156796847Y-97478097D01*
X156878925Y-97355258D01*
X156891862Y-97324024D01*
X158078971Y-98511134D01*
X158159770Y-98413464D01*
X158321576Y-98158497D01*
X158321579Y-98158491D01*
X158450156Y-97885252D01*
X158450158Y-97885247D01*
X158543478Y-97598040D01*
X158600067Y-97301390D01*
X158600068Y-97301382D01*
X158608136Y-97173141D01*
X158631990Y-97107469D01*
X158687563Y-97065120D01*
X158757209Y-97059538D01*
X158818817Y-97092496D01*
X158852827Y-97153530D01*
X158855646Y-97173140D01*
X158863718Y-97301446D01*
X158863719Y-97301453D01*
X158920320Y-97598164D01*
X159013659Y-97885431D01*
X159013661Y-97885436D01*
X159142265Y-98158732D01*
X159142268Y-98158738D01*
X159304111Y-98413763D01*
X159496652Y-98646505D01*
X159716836Y-98853272D01*
X159716846Y-98853280D01*
X159961193Y-99030808D01*
X159961198Y-99030810D01*
X159961205Y-99030816D01*
X160225896Y-99176332D01*
X160225901Y-99176334D01*
X160225903Y-99176335D01*
X160225904Y-99176336D01*
X160506734Y-99287524D01*
X160506737Y-99287525D01*
X160604259Y-99312564D01*
X160799302Y-99362642D01*
X160946039Y-99381179D01*
X161098963Y-99400499D01*
X161098969Y-99400499D01*
X161098973Y-99400500D01*
X161098975Y-99400500D01*
X161401025Y-99400500D01*
X161401027Y-99400500D01*
X161401032Y-99400499D01*
X161401036Y-99400499D01*
X161480591Y-99390448D01*
X161700698Y-99362642D01*
X161993262Y-99287525D01*
X161994467Y-99287048D01*
X162274095Y-99176336D01*
X162274096Y-99176335D01*
X162274094Y-99176335D01*
X162274104Y-99176332D01*
X162538795Y-99030816D01*
X162783162Y-98853274D01*
X163003349Y-98646504D01*
X163195885Y-98413768D01*
X163357733Y-98158736D01*
X163486341Y-97885430D01*
X163579681Y-97598160D01*
X163636280Y-97301457D01*
X163636281Y-97301445D01*
X163655246Y-97000005D01*
X163655246Y-96999994D01*
X163636281Y-96698553D01*
X163636280Y-96698546D01*
X163636280Y-96698543D01*
X163579681Y-96401840D01*
X163486341Y-96114570D01*
X163357733Y-95841264D01*
X163314490Y-95773124D01*
X163195888Y-95586236D01*
X163003347Y-95353494D01*
X162783163Y-95146727D01*
X162783153Y-95146719D01*
X162538806Y-94969191D01*
X162538799Y-94969186D01*
X162538795Y-94969184D01*
X162274104Y-94823668D01*
X162274101Y-94823666D01*
X162274096Y-94823664D01*
X162274095Y-94823663D01*
X161993265Y-94712475D01*
X161993262Y-94712474D01*
X161700695Y-94637357D01*
X161401036Y-94599500D01*
X161401027Y-94599500D01*
X161098973Y-94599500D01*
X161098963Y-94599500D01*
X160799304Y-94637357D01*
X160506737Y-94712474D01*
X160506734Y-94712475D01*
X160225910Y-94823661D01*
X160225900Y-94823666D01*
X160225896Y-94823668D01*
X160111969Y-94886299D01*
X160043740Y-94901345D01*
X159978207Y-94877114D01*
X159964553Y-94865317D01*
X157189459Y-92090224D01*
X157189458Y-92090223D01*
X157141004Y-92041768D01*
X157137264Y-92037862D01*
X156883437Y-91760861D01*
X156876484Y-91752574D01*
X156811258Y-91667571D01*
X156649432Y-91456677D01*
X156643228Y-91447817D01*
X156442815Y-91133234D01*
X156437418Y-91123887D01*
X156265190Y-90793044D01*
X156260618Y-90783240D01*
X156207337Y-90654610D01*
X156117879Y-90438644D01*
X156114182Y-90428486D01*
X156061415Y-90261134D01*
X156002021Y-90072764D01*
X155999224Y-90062320D01*
X155918492Y-89698175D01*
X155916615Y-89687535D01*
X155867926Y-89317720D01*
X155866986Y-89306982D01*
X155850618Y-88932132D01*
X155850500Y-88926723D01*
X155850500Y-88749994D01*
X159845255Y-88749994D01*
X159845255Y-88750005D01*
X159864215Y-89051383D01*
X159864216Y-89051390D01*
X159920805Y-89348040D01*
X160014125Y-89635247D01*
X160014127Y-89635252D01*
X160142704Y-89908491D01*
X160142707Y-89908497D01*
X160304516Y-90163469D01*
X160385311Y-90261133D01*
X161313708Y-89332736D01*
X161410967Y-89466602D01*
X161533398Y-89589033D01*
X161667262Y-89686290D01*
X160736564Y-90616987D01*
X160736565Y-90616989D01*
X160961461Y-90780385D01*
X160961479Y-90780397D01*
X161226109Y-90925878D01*
X161226117Y-90925882D01*
X161506889Y-91037047D01*
X161506892Y-91037048D01*
X161799399Y-91112150D01*
X162098995Y-91149999D01*
X162099007Y-91150000D01*
X162400993Y-91150000D01*
X162401004Y-91149999D01*
X162700600Y-91112150D01*
X162993107Y-91037048D01*
X162993110Y-91037047D01*
X163273882Y-90925882D01*
X163273890Y-90925878D01*
X163538520Y-90780397D01*
X163538530Y-90780390D01*
X163763433Y-90616987D01*
X163763434Y-90616987D01*
X162832737Y-89686290D01*
X162966602Y-89589033D01*
X163089033Y-89466602D01*
X163186290Y-89332737D01*
X164114687Y-90261134D01*
X164195486Y-90163464D01*
X164357292Y-89908497D01*
X164357295Y-89908491D01*
X164485872Y-89635252D01*
X164485874Y-89635247D01*
X164579194Y-89348040D01*
X164635783Y-89051390D01*
X164635784Y-89051383D01*
X164654745Y-88750005D01*
X164654745Y-88749994D01*
X164635784Y-88448616D01*
X164635783Y-88448609D01*
X164579194Y-88151959D01*
X164485874Y-87864752D01*
X164485872Y-87864747D01*
X164357295Y-87591508D01*
X164357292Y-87591502D01*
X164195483Y-87336530D01*
X164114686Y-87238864D01*
X163186289Y-88167261D01*
X163089033Y-88033398D01*
X162966602Y-87910967D01*
X162832736Y-87813709D01*
X163763434Y-86883011D01*
X163763433Y-86883009D01*
X163538538Y-86719614D01*
X163538520Y-86719602D01*
X163273890Y-86574121D01*
X163273882Y-86574117D01*
X162993110Y-86462952D01*
X162993107Y-86462951D01*
X162700600Y-86387849D01*
X162401004Y-86350000D01*
X162098995Y-86350000D01*
X161799399Y-86387849D01*
X161506892Y-86462951D01*
X161506889Y-86462952D01*
X161226117Y-86574117D01*
X161226109Y-86574121D01*
X160961476Y-86719604D01*
X160961471Y-86719607D01*
X160736565Y-86883010D01*
X160736564Y-86883011D01*
X161667262Y-87813709D01*
X161533398Y-87910967D01*
X161410967Y-88033398D01*
X161313709Y-88167262D01*
X160385311Y-87238864D01*
X160304520Y-87336525D01*
X160304518Y-87336528D01*
X160142707Y-87591502D01*
X160142704Y-87591508D01*
X160014127Y-87864747D01*
X160014125Y-87864752D01*
X159920805Y-88151959D01*
X159864216Y-88448609D01*
X159864215Y-88448616D01*
X159845255Y-88749994D01*
X155850500Y-88749994D01*
X155850500Y-74823771D01*
X155850618Y-74818362D01*
X155856225Y-74689953D01*
X155867008Y-74443017D01*
X155867948Y-74432283D01*
X155916637Y-74062464D01*
X155918509Y-74051845D01*
X155999247Y-73687673D01*
X156002040Y-73677247D01*
X156114208Y-73321505D01*
X156117894Y-73311377D01*
X156260644Y-72966754D01*
X156265210Y-72956965D01*
X156265845Y-72955746D01*
X156437442Y-72626113D01*
X156442827Y-72616786D01*
X156643253Y-72302184D01*
X156649431Y-72293360D01*
X156876526Y-71997407D01*
X156883439Y-71989169D01*
X157137663Y-71711735D01*
X157141337Y-71707898D01*
X157190639Y-71658596D01*
X161148506Y-67700727D01*
X161148511Y-67700724D01*
X161158714Y-67690520D01*
X161158716Y-67690520D01*
X161270520Y-67578716D01*
X161349577Y-67441784D01*
X161390500Y-67289057D01*
X161390500Y-66911692D01*
X161410185Y-66844653D01*
X161443374Y-66810119D01*
X161629139Y-66680047D01*
X161790047Y-66519139D01*
X161920568Y-66332734D01*
X162013119Y-66134258D01*
X162059290Y-66081821D01*
X162126484Y-66062669D01*
X162193365Y-66082885D01*
X162238700Y-66136050D01*
X162249500Y-66186665D01*
X162249500Y-69166220D01*
X162249382Y-69171630D01*
X162232992Y-69546962D01*
X162232049Y-69557738D01*
X162183364Y-69927518D01*
X162181486Y-69938171D01*
X162100755Y-70302314D01*
X162097955Y-70312763D01*
X161985796Y-70668479D01*
X161982096Y-70678645D01*
X161839361Y-71023231D01*
X161834789Y-71033034D01*
X161662568Y-71363865D01*
X161657159Y-71373234D01*
X161456753Y-71687804D01*
X161450548Y-71696665D01*
X161224789Y-71990877D01*
X161168361Y-72032079D01*
X161098615Y-72036234D01*
X161094321Y-72035165D01*
X161016697Y-72014366D01*
X161016693Y-72014365D01*
X161016692Y-72014365D01*
X161016691Y-72014364D01*
X161016686Y-72014364D01*
X160790002Y-71994532D01*
X160789998Y-71994532D01*
X160563313Y-72014364D01*
X160563302Y-72014366D01*
X160343511Y-72073258D01*
X160343502Y-72073261D01*
X160137267Y-72169431D01*
X160137265Y-72169432D01*
X159950858Y-72299954D01*
X159789954Y-72460858D01*
X159772725Y-72485464D01*
X159718147Y-72529088D01*
X159648648Y-72536280D01*
X159586294Y-72504757D01*
X159550882Y-72444526D01*
X159547861Y-72427591D01*
X159545676Y-72407267D01*
X159544091Y-72392517D01*
X159524182Y-72339139D01*
X159493797Y-72257671D01*
X159493793Y-72257664D01*
X159407547Y-72142455D01*
X159407544Y-72142452D01*
X159292335Y-72056206D01*
X159292328Y-72056202D01*
X159157482Y-72005908D01*
X159157483Y-72005908D01*
X159097883Y-71999501D01*
X159097881Y-71999500D01*
X159097873Y-71999500D01*
X159097864Y-71999500D01*
X157402129Y-71999500D01*
X157402123Y-71999501D01*
X157342516Y-72005908D01*
X157207671Y-72056202D01*
X157207664Y-72056206D01*
X157092455Y-72142452D01*
X157092452Y-72142455D01*
X157006206Y-72257664D01*
X157006202Y-72257671D01*
X156955908Y-72392517D01*
X156949501Y-72452116D01*
X156949500Y-72452135D01*
X156949500Y-74147870D01*
X156949501Y-74147876D01*
X156955908Y-74207483D01*
X157006202Y-74342328D01*
X157006206Y-74342335D01*
X157092452Y-74457544D01*
X157092455Y-74457547D01*
X157207664Y-74543793D01*
X157207671Y-74543797D01*
X157342517Y-74594091D01*
X157342516Y-74594091D01*
X157349444Y-74594835D01*
X157402127Y-74600500D01*
X159097872Y-74600499D01*
X159157483Y-74594091D01*
X159292331Y-74543796D01*
X159407546Y-74457546D01*
X159493796Y-74342331D01*
X159544091Y-74207483D01*
X159547862Y-74172401D01*
X159574599Y-74107855D01*
X159631990Y-74068006D01*
X159701816Y-74065511D01*
X159761905Y-74101163D01*
X159772726Y-74114536D01*
X159789956Y-74139143D01*
X159950858Y-74300045D01*
X159950861Y-74300047D01*
X160137266Y-74430568D01*
X160343504Y-74526739D01*
X160563308Y-74585635D01*
X160725230Y-74599801D01*
X160789998Y-74605468D01*
X160790000Y-74605468D01*
X160790002Y-74605468D01*
X160846807Y-74600498D01*
X161016692Y-74585635D01*
X161236496Y-74526739D01*
X161442734Y-74430568D01*
X161629139Y-74300047D01*
X161790047Y-74139139D01*
X161920568Y-73952734D01*
X162016739Y-73746496D01*
X162075635Y-73526692D01*
X162095468Y-73300000D01*
X162075635Y-73073308D01*
X162045912Y-72962379D01*
X162047575Y-72892529D01*
X162071395Y-72849755D01*
X162251544Y-72638832D01*
X162510223Y-72282795D01*
X162740170Y-71907560D01*
X162939967Y-71515440D01*
X163108384Y-71108853D01*
X163244381Y-70690306D01*
X163347119Y-70262379D01*
X163415967Y-69827710D01*
X163450498Y-69388980D01*
X163450498Y-69262426D01*
X163450500Y-69262422D01*
X163450500Y-55939059D01*
X163450501Y-55939046D01*
X163450501Y-55770945D01*
X163450501Y-55770943D01*
X163409577Y-55618215D01*
X163371602Y-55552441D01*
X163330520Y-55481284D01*
X163218716Y-55369480D01*
X163218715Y-55369479D01*
X163214385Y-55365149D01*
X163214374Y-55365139D01*
X163041941Y-55192706D01*
X163008456Y-55131383D01*
X163009847Y-55072931D01*
X163035635Y-54976692D01*
X163055468Y-54750000D01*
X163035635Y-54523308D01*
X162976739Y-54303504D01*
X162880568Y-54097266D01*
X162750047Y-53910861D01*
X162750045Y-53910858D01*
X162589141Y-53749954D01*
X162402734Y-53619432D01*
X162402732Y-53619431D01*
X162196497Y-53523261D01*
X162196488Y-53523258D01*
X161976697Y-53464366D01*
X161976693Y-53464365D01*
X161976692Y-53464365D01*
X161976691Y-53464364D01*
X161976686Y-53464364D01*
X161750002Y-53444532D01*
X161749998Y-53444532D01*
X161523313Y-53464364D01*
X161523302Y-53464366D01*
X161303511Y-53523258D01*
X161303502Y-53523261D01*
X161097267Y-53619431D01*
X161097265Y-53619432D01*
X160910858Y-53749954D01*
X160749954Y-53910858D01*
X160619432Y-54097265D01*
X160619431Y-54097267D01*
X160523261Y-54303502D01*
X160523258Y-54303511D01*
X160464366Y-54523302D01*
X160464364Y-54523313D01*
X160444532Y-54749998D01*
X160444532Y-54750001D01*
X160464364Y-54976686D01*
X160464366Y-54976697D01*
X160523258Y-55196488D01*
X160523261Y-55196497D01*
X160619431Y-55402732D01*
X160619432Y-55402734D01*
X160749954Y-55589141D01*
X160910858Y-55750045D01*
X160910861Y-55750047D01*
X161097266Y-55880568D01*
X161303504Y-55976739D01*
X161523308Y-56035635D01*
X161685230Y-56049801D01*
X161749998Y-56055468D01*
X161750000Y-56055468D01*
X161750002Y-56055468D01*
X161806673Y-56050509D01*
X161976692Y-56035635D01*
X162072932Y-56009847D01*
X162142781Y-56011510D01*
X162192706Y-56041941D01*
X162213181Y-56062416D01*
X162246666Y-56123739D01*
X162249500Y-56150097D01*
X162249500Y-60995863D01*
X162229815Y-61062902D01*
X162177011Y-61108657D01*
X162107853Y-61118601D01*
X162093407Y-61115638D01*
X161976697Y-61084366D01*
X161976693Y-61084365D01*
X161976692Y-61084365D01*
X161976691Y-61084364D01*
X161976686Y-61084364D01*
X161750002Y-61064532D01*
X161749998Y-61064532D01*
X161523313Y-61084364D01*
X161523302Y-61084366D01*
X161303511Y-61143258D01*
X161303502Y-61143261D01*
X161097267Y-61239431D01*
X161097265Y-61239432D01*
X160910858Y-61369954D01*
X160749954Y-61530858D01*
X160619432Y-61717265D01*
X160619431Y-61717267D01*
X160523261Y-61923502D01*
X160523258Y-61923511D01*
X160464366Y-62143302D01*
X160464364Y-62143313D01*
X160444532Y-62369998D01*
X160444532Y-62370001D01*
X160464364Y-62596686D01*
X160464366Y-62596697D01*
X160523258Y-62816488D01*
X160523261Y-62816497D01*
X160619431Y-63022732D01*
X160619432Y-63022734D01*
X160749954Y-63209141D01*
X160910858Y-63370045D01*
X160910861Y-63370047D01*
X161097266Y-63500568D01*
X161303504Y-63596739D01*
X161523308Y-63655635D01*
X161685230Y-63669801D01*
X161749998Y-63675468D01*
X161750000Y-63675468D01*
X161750002Y-63675468D01*
X161806673Y-63670509D01*
X161976692Y-63655635D01*
X162093408Y-63624361D01*
X162163256Y-63626024D01*
X162221119Y-63665186D01*
X162248623Y-63729415D01*
X162249500Y-63744136D01*
X162249500Y-65173334D01*
X162229815Y-65240373D01*
X162177011Y-65286128D01*
X162107853Y-65296072D01*
X162044297Y-65267047D01*
X162013118Y-65225739D01*
X162007321Y-65213308D01*
X161920568Y-65027266D01*
X161790047Y-64840861D01*
X161790045Y-64840858D01*
X161629141Y-64679954D01*
X161442734Y-64549432D01*
X161442732Y-64549431D01*
X161236497Y-64453261D01*
X161236488Y-64453258D01*
X161016697Y-64394366D01*
X161016693Y-64394365D01*
X161016692Y-64394365D01*
X161016691Y-64394364D01*
X161016686Y-64394364D01*
X160790002Y-64374532D01*
X160789998Y-64374532D01*
X160563313Y-64394364D01*
X160563302Y-64394366D01*
X160343511Y-64453258D01*
X160343502Y-64453261D01*
X160137267Y-64549431D01*
X160137265Y-64549432D01*
X159950858Y-64679954D01*
X159789954Y-64840858D01*
X159659432Y-65027265D01*
X159659431Y-65027267D01*
X159632382Y-65085275D01*
X159586209Y-65137714D01*
X159519016Y-65156866D01*
X159452135Y-65136650D01*
X159407618Y-65085275D01*
X159393719Y-65055468D01*
X159380568Y-65027266D01*
X159250047Y-64840861D01*
X159250045Y-64840858D01*
X159089141Y-64679954D01*
X158902734Y-64549432D01*
X158902732Y-64549431D01*
X158696497Y-64453261D01*
X158696488Y-64453258D01*
X158476697Y-64394366D01*
X158476693Y-64394365D01*
X158476692Y-64394365D01*
X158476691Y-64394364D01*
X158476686Y-64394364D01*
X158250002Y-64374532D01*
X158249998Y-64374532D01*
X158023313Y-64394364D01*
X158023302Y-64394366D01*
X157927067Y-64420152D01*
X157857217Y-64418489D01*
X157807293Y-64388058D01*
X157211501Y-63792266D01*
X157178016Y-63730943D01*
X157183000Y-63661251D01*
X157224872Y-63605318D01*
X157267085Y-63584811D01*
X157446496Y-63536739D01*
X157652734Y-63440568D01*
X157839139Y-63310047D01*
X158000047Y-63149139D01*
X158130568Y-62962734D01*
X158226739Y-62756496D01*
X158285635Y-62536692D01*
X158305468Y-62310000D01*
X158285635Y-62083308D01*
X158226739Y-61863504D01*
X158130568Y-61657266D01*
X158000047Y-61470861D01*
X158000045Y-61470858D01*
X157839140Y-61309953D01*
X157652734Y-61179432D01*
X157652732Y-61179431D01*
X157446497Y-61083261D01*
X157446488Y-61083258D01*
X157226697Y-61024366D01*
X157226693Y-61024365D01*
X157226692Y-61024365D01*
X157226691Y-61024364D01*
X157226686Y-61024364D01*
X157000002Y-61004532D01*
X156999998Y-61004532D01*
X156773313Y-61024364D01*
X156773302Y-61024366D01*
X156553511Y-61083258D01*
X156553502Y-61083261D01*
X156347267Y-61179431D01*
X156347265Y-61179432D01*
X156160860Y-61309953D01*
X155999954Y-61470858D01*
X155869432Y-61657265D01*
X155869431Y-61657267D01*
X155773261Y-61863502D01*
X155773259Y-61863508D01*
X155725189Y-62042911D01*
X155688824Y-62102571D01*
X155625977Y-62133100D01*
X155556601Y-62124805D01*
X155517733Y-62098498D01*
X154729187Y-61309952D01*
X154691004Y-61271768D01*
X154687264Y-61267862D01*
X154618904Y-61193261D01*
X154433432Y-60990855D01*
X154426484Y-60982574D01*
X154384005Y-60927215D01*
X154199432Y-60686677D01*
X154193228Y-60677817D01*
X153992815Y-60363234D01*
X153987418Y-60353887D01*
X153832069Y-60055468D01*
X153815190Y-60023044D01*
X153810618Y-60013240D01*
X153778619Y-59935989D01*
X153667879Y-59668644D01*
X153664182Y-59658486D01*
X153642317Y-59589141D01*
X153552021Y-59302764D01*
X153549224Y-59292320D01*
X153468492Y-58928175D01*
X153466615Y-58917535D01*
X153417926Y-58547720D01*
X153416986Y-58536982D01*
X153400618Y-58162132D01*
X153400500Y-58156723D01*
X153400500Y-56031692D01*
X153420185Y-55964653D01*
X153453374Y-55930119D01*
X153639139Y-55800047D01*
X153800047Y-55639139D01*
X153930568Y-55452734D01*
X154026739Y-55246496D01*
X154085635Y-55026692D01*
X154105468Y-54800000D01*
X154100451Y-54742661D01*
X154092584Y-54652734D01*
X154085635Y-54573308D01*
X154049915Y-54439999D01*
X155721127Y-54439999D01*
X155721128Y-54440000D01*
X156684314Y-54440000D01*
X156679920Y-54444394D01*
X156627259Y-54535606D01*
X156600000Y-54637339D01*
X156600000Y-54742661D01*
X156627259Y-54844394D01*
X156679920Y-54935606D01*
X156684314Y-54940000D01*
X155721128Y-54940000D01*
X155773730Y-55136317D01*
X155773734Y-55136326D01*
X155869865Y-55342482D01*
X156000342Y-55528820D01*
X156161179Y-55689657D01*
X156347517Y-55820134D01*
X156553673Y-55916265D01*
X156553682Y-55916269D01*
X156749999Y-55968872D01*
X156750000Y-55968871D01*
X156750000Y-55005686D01*
X156754394Y-55010080D01*
X156845606Y-55062741D01*
X156947339Y-55090000D01*
X157052661Y-55090000D01*
X157154394Y-55062741D01*
X157245606Y-55010080D01*
X157250000Y-55005686D01*
X157250000Y-55968872D01*
X157446317Y-55916269D01*
X157446326Y-55916265D01*
X157652482Y-55820134D01*
X157838820Y-55689657D01*
X157999657Y-55528820D01*
X158130134Y-55342482D01*
X158226265Y-55136326D01*
X158226269Y-55136317D01*
X158278872Y-54940000D01*
X157315686Y-54940000D01*
X157320080Y-54935606D01*
X157372741Y-54844394D01*
X157400000Y-54742661D01*
X157400000Y-54637339D01*
X157372741Y-54535606D01*
X157320080Y-54444394D01*
X157315686Y-54440000D01*
X158278872Y-54440000D01*
X158278872Y-54439999D01*
X158226269Y-54243682D01*
X158226265Y-54243673D01*
X158130134Y-54037517D01*
X157999657Y-53851179D01*
X157838820Y-53690342D01*
X157652482Y-53559865D01*
X157446328Y-53463734D01*
X157250000Y-53411127D01*
X157250000Y-54374314D01*
X157245606Y-54369920D01*
X157154394Y-54317259D01*
X157052661Y-54290000D01*
X156947339Y-54290000D01*
X156845606Y-54317259D01*
X156754394Y-54369920D01*
X156750000Y-54374314D01*
X156750000Y-53411127D01*
X156553671Y-53463734D01*
X156347517Y-53559865D01*
X156161179Y-53690342D01*
X156000342Y-53851179D01*
X155869865Y-54037517D01*
X155773734Y-54243673D01*
X155773730Y-54243682D01*
X155721127Y-54439999D01*
X154049915Y-54439999D01*
X154026739Y-54353504D01*
X153930568Y-54147266D01*
X153800047Y-53960861D01*
X153800045Y-53960858D01*
X153639141Y-53799954D01*
X153452734Y-53669432D01*
X153452732Y-53669431D01*
X153246497Y-53573261D01*
X153246488Y-53573258D01*
X153026697Y-53514366D01*
X153026693Y-53514365D01*
X153026692Y-53514365D01*
X153026691Y-53514364D01*
X153026686Y-53514364D01*
X152800002Y-53494532D01*
X152799998Y-53494532D01*
X152573313Y-53514364D01*
X152573302Y-53514366D01*
X152353511Y-53573258D01*
X152353502Y-53573261D01*
X152147267Y-53669431D01*
X152147265Y-53669432D01*
X151960858Y-53799954D01*
X151799954Y-53960858D01*
X151723450Y-54070118D01*
X151669881Y-54146624D01*
X151615307Y-54190248D01*
X151568308Y-54199500D01*
X148985024Y-54199500D01*
X148917985Y-54179815D01*
X148883451Y-54146625D01*
X148753379Y-53960861D01*
X148753377Y-53960858D01*
X148592473Y-53799954D01*
X148406066Y-53669432D01*
X148406064Y-53669431D01*
X148199829Y-53573261D01*
X148199820Y-53573258D01*
X147980029Y-53514366D01*
X147980025Y-53514365D01*
X147980024Y-53514365D01*
X147980023Y-53514364D01*
X147980018Y-53514364D01*
X147753334Y-53494532D01*
X147753330Y-53494532D01*
X147526645Y-53514364D01*
X147526634Y-53514366D01*
X147306843Y-53573258D01*
X147306834Y-53573261D01*
X147100599Y-53669431D01*
X147100597Y-53669432D01*
X146914190Y-53799954D01*
X146753286Y-53960858D01*
X146622764Y-54147265D01*
X146622763Y-54147267D01*
X146526593Y-54353502D01*
X146526590Y-54353511D01*
X146467698Y-54573302D01*
X146467696Y-54573313D01*
X146447864Y-54799998D01*
X146447864Y-54800001D01*
X146467696Y-55026686D01*
X146467698Y-55026697D01*
X146526590Y-55246488D01*
X146526593Y-55246497D01*
X146622763Y-55452732D01*
X146622764Y-55452734D01*
X146753286Y-55639141D01*
X146914190Y-55800045D01*
X146914193Y-55800047D01*
X147100598Y-55930568D01*
X147306836Y-56026739D01*
X147526640Y-56085635D01*
X147676374Y-56098735D01*
X147753330Y-56105468D01*
X147753332Y-56105468D01*
X147753334Y-56105468D01*
X147830290Y-56098735D01*
X147980024Y-56085635D01*
X148199828Y-56026739D01*
X148406066Y-55930568D01*
X148592471Y-55800047D01*
X148753379Y-55639139D01*
X148883450Y-55453375D01*
X148938025Y-55409752D01*
X148985024Y-55400500D01*
X151568308Y-55400500D01*
X151635347Y-55420185D01*
X151669880Y-55453374D01*
X151689425Y-55481287D01*
X151799954Y-55639141D01*
X151960858Y-55800045D01*
X151960861Y-55800047D01*
X152146624Y-55930118D01*
X152190248Y-55984693D01*
X152199500Y-56031692D01*
X152199500Y-58107551D01*
X152199478Y-58107625D01*
X152199479Y-58378972D01*
X152199480Y-58378986D01*
X152234010Y-58817712D01*
X152274828Y-59075410D01*
X152302859Y-59252383D01*
X152405598Y-59680312D01*
X152527496Y-60055468D01*
X152541598Y-60098866D01*
X152710014Y-60505451D01*
X152909806Y-60897562D01*
X152909818Y-60897582D01*
X152927977Y-60927215D01*
X152946222Y-60994661D01*
X152925106Y-61061263D01*
X152871334Y-61105877D01*
X152811442Y-61115533D01*
X152800001Y-61114532D01*
X152799998Y-61114532D01*
X152573313Y-61134364D01*
X152573302Y-61134366D01*
X152353511Y-61193258D01*
X152353502Y-61193261D01*
X152147267Y-61289431D01*
X152147265Y-61289432D01*
X151960858Y-61419954D01*
X151799954Y-61580858D01*
X151669432Y-61767265D01*
X151669431Y-61767267D01*
X151573261Y-61973502D01*
X151573258Y-61973511D01*
X151514366Y-62193302D01*
X151514364Y-62193313D01*
X151494532Y-62419998D01*
X151494532Y-62420001D01*
X151514364Y-62646686D01*
X151514366Y-62646697D01*
X151573258Y-62866488D01*
X151573261Y-62866497D01*
X151669431Y-63072732D01*
X151669432Y-63072734D01*
X151799954Y-63259141D01*
X151960858Y-63420045D01*
X151960861Y-63420047D01*
X152147266Y-63550568D01*
X152353504Y-63646739D01*
X152573308Y-63705635D01*
X152735230Y-63719801D01*
X152799998Y-63725468D01*
X152800000Y-63725468D01*
X152800002Y-63725468D01*
X152856673Y-63720509D01*
X153026692Y-63705635D01*
X153246496Y-63646739D01*
X153452734Y-63550568D01*
X153639139Y-63420047D01*
X153800047Y-63259139D01*
X153930568Y-63072734D01*
X154026739Y-62866496D01*
X154085635Y-62646692D01*
X154085635Y-62646684D01*
X154086513Y-62641708D01*
X154117533Y-62579102D01*
X154177476Y-62543206D01*
X154247311Y-62545415D01*
X154296312Y-62575547D01*
X156958058Y-65237293D01*
X156991543Y-65298616D01*
X156990152Y-65357067D01*
X156964366Y-65453302D01*
X156964364Y-65453313D01*
X156944532Y-65679998D01*
X156944532Y-65680001D01*
X156964364Y-65906686D01*
X156964366Y-65906697D01*
X157023258Y-66126488D01*
X157023261Y-66126497D01*
X157119431Y-66332732D01*
X157119432Y-66332734D01*
X157249954Y-66519141D01*
X157410858Y-66680045D01*
X157410861Y-66680047D01*
X157597266Y-66810568D01*
X157803504Y-66906739D01*
X158023308Y-66965635D01*
X158185230Y-66979801D01*
X158249998Y-66985468D01*
X158250000Y-66985468D01*
X158250002Y-66985468D01*
X158306673Y-66980509D01*
X158476692Y-66965635D01*
X158696496Y-66906739D01*
X158902734Y-66810568D01*
X159089139Y-66680047D01*
X159250047Y-66519139D01*
X159380568Y-66332734D01*
X159407618Y-66274724D01*
X159453790Y-66222285D01*
X159520983Y-66203133D01*
X159587865Y-66223348D01*
X159632382Y-66274725D01*
X159659429Y-66332728D01*
X159659432Y-66332734D01*
X159789954Y-66519141D01*
X159950858Y-66680045D01*
X159950861Y-66680047D01*
X160135570Y-66809381D01*
X160179195Y-66863956D01*
X160186389Y-66933455D01*
X160154867Y-66995809D01*
X160152128Y-66998636D01*
X158250764Y-68900000D01*
X156315629Y-70835135D01*
X156289850Y-70860914D01*
X156289848Y-70860916D01*
X156228369Y-70922396D01*
X156228161Y-70922633D01*
X156134278Y-71016515D01*
X156134265Y-71016529D01*
X155848456Y-71351168D01*
X155589770Y-71707214D01*
X155359836Y-72082429D01*
X155359825Y-72082448D01*
X155160034Y-72474557D01*
X154991618Y-72881141D01*
X154855620Y-73299689D01*
X154855619Y-73299694D01*
X154801120Y-73526697D01*
X154752880Y-73727626D01*
X154684033Y-74162289D01*
X154649502Y-74601015D01*
X154649501Y-74601028D01*
X154649500Y-74742009D01*
X154649500Y-88877551D01*
X154649478Y-88877625D01*
X154649479Y-89148972D01*
X154649480Y-89148986D01*
X154684010Y-89587712D01*
X154734819Y-89908491D01*
X154752859Y-90022383D01*
X154855598Y-90450312D01*
X154991596Y-90868861D01*
X155108049Y-91150000D01*
X155160014Y-91275451D01*
X155359806Y-91667562D01*
X155359817Y-91667581D01*
X155589752Y-92042797D01*
X155589757Y-92042804D01*
X155589759Y-92042807D01*
X155848439Y-92398846D01*
X155989576Y-92564095D01*
X156134249Y-92733485D01*
X156233946Y-92833181D01*
X156272408Y-92871643D01*
X156272413Y-92871650D01*
X156315164Y-92914400D01*
X156315179Y-92914414D01*
X159112565Y-95711801D01*
X159146050Y-95773124D01*
X159141066Y-95842816D01*
X159137083Y-95852278D01*
X159013659Y-96114569D01*
X158920320Y-96401835D01*
X158863719Y-96698546D01*
X158863718Y-96698553D01*
X158855646Y-96826859D01*
X158831791Y-96892530D01*
X158776218Y-96934879D01*
X158706572Y-96940461D01*
X158644964Y-96907502D01*
X158610955Y-96846468D01*
X158608136Y-96826858D01*
X158600068Y-96698617D01*
X158600067Y-96698609D01*
X158543478Y-96401959D01*
X158450158Y-96114752D01*
X158450156Y-96114747D01*
X158321579Y-95841508D01*
X158321576Y-95841502D01*
X158159767Y-95586530D01*
X158078970Y-95488864D01*
X156891861Y-96675974D01*
X156878925Y-96644742D01*
X156796847Y-96521903D01*
X156692381Y-96417437D01*
X156569542Y-96335359D01*
X156538308Y-96322421D01*
X157727718Y-95133011D01*
X157727717Y-95133009D01*
X157502822Y-94969614D01*
X157502804Y-94969602D01*
X157238174Y-94824121D01*
X157238166Y-94824117D01*
X156957394Y-94712952D01*
X156957391Y-94712951D01*
X156664884Y-94637849D01*
X156365288Y-94600000D01*
X156063279Y-94600000D01*
X155763683Y-94637849D01*
X155471176Y-94712951D01*
X155471173Y-94712952D01*
X155190401Y-94824117D01*
X155190393Y-94824121D01*
X154925760Y-94969604D01*
X154925755Y-94969607D01*
X154700849Y-95133010D01*
X154700848Y-95133011D01*
X155890259Y-96322421D01*
X155859026Y-96335359D01*
X155736187Y-96417437D01*
X155631721Y-96521903D01*
X155549643Y-96644742D01*
X155536705Y-96675974D01*
X154349595Y-95488864D01*
X154268804Y-95586525D01*
X154268802Y-95586528D01*
X154106991Y-95841502D01*
X154106988Y-95841508D01*
X153978411Y-96114747D01*
X153978409Y-96114752D01*
X153885089Y-96401959D01*
X153828500Y-96698609D01*
X153828499Y-96698616D01*
X153820432Y-96826843D01*
X153796577Y-96892514D01*
X153741004Y-96934863D01*
X153671358Y-96940445D01*
X153609750Y-96907486D01*
X153575741Y-96846452D01*
X153572922Y-96826842D01*
X153564851Y-96698554D01*
X153564850Y-96698546D01*
X153564850Y-96698543D01*
X153508251Y-96401840D01*
X153414911Y-96114570D01*
X153286303Y-95841264D01*
X153243060Y-95773124D01*
X153124458Y-95586236D01*
X152931917Y-95353494D01*
X152711733Y-95146727D01*
X152711723Y-95146719D01*
X152467376Y-94969191D01*
X152467369Y-94969186D01*
X152467365Y-94969184D01*
X152202674Y-94823668D01*
X152202671Y-94823666D01*
X152202666Y-94823664D01*
X152202665Y-94823663D01*
X151921835Y-94712475D01*
X151921832Y-94712474D01*
X151629265Y-94637357D01*
X151329606Y-94599500D01*
X151329597Y-94599500D01*
X151027543Y-94599500D01*
X151027533Y-94599500D01*
X150727874Y-94637357D01*
X150435307Y-94712474D01*
X150435304Y-94712475D01*
X150154476Y-94823662D01*
X150040540Y-94886299D01*
X149972309Y-94901345D01*
X149906776Y-94877114D01*
X149893122Y-94865317D01*
X144891011Y-89863206D01*
X144887288Y-89859318D01*
X144633442Y-89582292D01*
X144626493Y-89574009D01*
X144607179Y-89548838D01*
X144399438Y-89278101D01*
X144393241Y-89269250D01*
X144192839Y-88954677D01*
X144187430Y-88945309D01*
X144085761Y-88750001D01*
X144015202Y-88614457D01*
X144010642Y-88604676D01*
X143867911Y-88260085D01*
X143864240Y-88250000D01*
X146804551Y-88250000D01*
X146824317Y-88501151D01*
X146883126Y-88746110D01*
X146979533Y-88978859D01*
X147111160Y-89193653D01*
X147111161Y-89193656D01*
X147111164Y-89193659D01*
X147274776Y-89385224D01*
X147390497Y-89484059D01*
X147466343Y-89548838D01*
X147466346Y-89548839D01*
X147681140Y-89680466D01*
X147895872Y-89769410D01*
X147913889Y-89776873D01*
X148158852Y-89835683D01*
X148410000Y-89855449D01*
X148661148Y-89835683D01*
X148906111Y-89776873D01*
X149138859Y-89680466D01*
X149353659Y-89548836D01*
X149545224Y-89385224D01*
X149708836Y-89193659D01*
X149840466Y-88978859D01*
X149936873Y-88746111D01*
X149995683Y-88501148D01*
X150015449Y-88250000D01*
X149995683Y-87998852D01*
X149936873Y-87753889D01*
X149869613Y-87591508D01*
X149840466Y-87521140D01*
X149708839Y-87306346D01*
X149708838Y-87306343D01*
X149566064Y-87139177D01*
X149545224Y-87114776D01*
X149376183Y-86970401D01*
X149353656Y-86951161D01*
X149353653Y-86951160D01*
X149138859Y-86819533D01*
X148906110Y-86723126D01*
X148661151Y-86664317D01*
X148410000Y-86644551D01*
X148158848Y-86664317D01*
X147913889Y-86723126D01*
X147681140Y-86819533D01*
X147466346Y-86951160D01*
X147466343Y-86951161D01*
X147274776Y-87114776D01*
X147111161Y-87306343D01*
X147111160Y-87306346D01*
X146979533Y-87521140D01*
X146883126Y-87753889D01*
X146824317Y-87998848D01*
X146804551Y-88250000D01*
X143864240Y-88250000D01*
X143864211Y-88249920D01*
X143785050Y-87998848D01*
X143752051Y-87894187D01*
X143749260Y-87883772D01*
X143668526Y-87519598D01*
X143666653Y-87508968D01*
X143617973Y-87139177D01*
X143617030Y-87128401D01*
X143600618Y-86752445D01*
X143600500Y-86747037D01*
X143600500Y-84724499D01*
X143620185Y-84657460D01*
X143672989Y-84611705D01*
X143724500Y-84600499D01*
X144147871Y-84600499D01*
X144147872Y-84600499D01*
X144207483Y-84594091D01*
X144342331Y-84543796D01*
X144457546Y-84457546D01*
X144543796Y-84342331D01*
X144594091Y-84207483D01*
X144600500Y-84147873D01*
X144600500Y-83309998D01*
X146444532Y-83309998D01*
X146444532Y-83310001D01*
X146464364Y-83536686D01*
X146464366Y-83536697D01*
X146523258Y-83756488D01*
X146523261Y-83756497D01*
X146619431Y-83962732D01*
X146619432Y-83962734D01*
X146749954Y-84149141D01*
X146910858Y-84310045D01*
X146910861Y-84310047D01*
X147097266Y-84440568D01*
X147303504Y-84536739D01*
X147523308Y-84595635D01*
X147685230Y-84609801D01*
X147749998Y-84615468D01*
X147750000Y-84615468D01*
X147750002Y-84615468D01*
X147806673Y-84610509D01*
X147976692Y-84595635D01*
X148196496Y-84536739D01*
X148402734Y-84440568D01*
X148589139Y-84310047D01*
X148750047Y-84149139D01*
X148880568Y-83962734D01*
X148976739Y-83756496D01*
X149035635Y-83536692D01*
X149050219Y-83369998D01*
X150194532Y-83369998D01*
X150194532Y-83370001D01*
X150214364Y-83596686D01*
X150214366Y-83596697D01*
X150273258Y-83816488D01*
X150273261Y-83816497D01*
X150369431Y-84022732D01*
X150369432Y-84022734D01*
X150499954Y-84209141D01*
X150660858Y-84370045D01*
X150660861Y-84370047D01*
X150847266Y-84500568D01*
X151053504Y-84596739D01*
X151053509Y-84596740D01*
X151053511Y-84596741D01*
X151086010Y-84605449D01*
X151273308Y-84655635D01*
X151435230Y-84669801D01*
X151499998Y-84675468D01*
X151500000Y-84675468D01*
X151500002Y-84675468D01*
X151556673Y-84670509D01*
X151726692Y-84655635D01*
X151946496Y-84596739D01*
X152152734Y-84500568D01*
X152339139Y-84370047D01*
X152500047Y-84209139D01*
X152630568Y-84022734D01*
X152726739Y-83816496D01*
X152785635Y-83596692D01*
X152805468Y-83370000D01*
X152800218Y-83309998D01*
X152785635Y-83143313D01*
X152785635Y-83143308D01*
X152726739Y-82923504D01*
X152630568Y-82717266D01*
X152500047Y-82530861D01*
X152500045Y-82530858D01*
X152339141Y-82369954D01*
X152152734Y-82239432D01*
X152152732Y-82239431D01*
X151946497Y-82143261D01*
X151946488Y-82143258D01*
X151726697Y-82084366D01*
X151726693Y-82084365D01*
X151726692Y-82084365D01*
X151726691Y-82084364D01*
X151726686Y-82084364D01*
X151500002Y-82064532D01*
X151499998Y-82064532D01*
X151273313Y-82084364D01*
X151273302Y-82084366D01*
X151053511Y-82143258D01*
X151053502Y-82143261D01*
X150847267Y-82239431D01*
X150847265Y-82239432D01*
X150660858Y-82369954D01*
X150499954Y-82530858D01*
X150369432Y-82717265D01*
X150369431Y-82717267D01*
X150273261Y-82923502D01*
X150273258Y-82923511D01*
X150214366Y-83143302D01*
X150214364Y-83143313D01*
X150194532Y-83369998D01*
X149050219Y-83369998D01*
X149055468Y-83310000D01*
X149035635Y-83083308D01*
X148976739Y-82863504D01*
X148880568Y-82657266D01*
X148750047Y-82470861D01*
X148750045Y-82470858D01*
X148589141Y-82309954D01*
X148402734Y-82179432D01*
X148402732Y-82179431D01*
X148196497Y-82083261D01*
X148196488Y-82083258D01*
X147976697Y-82024366D01*
X147976693Y-82024365D01*
X147976692Y-82024365D01*
X147976691Y-82024364D01*
X147976686Y-82024364D01*
X147750002Y-82004532D01*
X147749998Y-82004532D01*
X147523313Y-82024364D01*
X147523302Y-82024366D01*
X147303511Y-82083258D01*
X147303502Y-82083261D01*
X147097267Y-82179431D01*
X147097265Y-82179432D01*
X146910858Y-82309954D01*
X146749954Y-82470858D01*
X146619432Y-82657265D01*
X146619431Y-82657267D01*
X146523261Y-82863502D01*
X146523258Y-82863511D01*
X146464366Y-83083302D01*
X146464364Y-83083313D01*
X146444532Y-83309998D01*
X144600500Y-83309998D01*
X144600499Y-81852128D01*
X144594091Y-81792517D01*
X144560017Y-81701161D01*
X144543797Y-81657671D01*
X144543793Y-81657664D01*
X144457547Y-81542455D01*
X144457544Y-81542452D01*
X144342335Y-81456206D01*
X144342328Y-81456202D01*
X144207482Y-81405908D01*
X144207483Y-81405908D01*
X144147883Y-81399501D01*
X144147881Y-81399500D01*
X144147873Y-81399500D01*
X144147864Y-81399500D01*
X141852129Y-81399500D01*
X141852123Y-81399501D01*
X141792516Y-81405908D01*
X141657671Y-81456202D01*
X141657664Y-81456206D01*
X141542455Y-81542452D01*
X141542452Y-81542455D01*
X141456206Y-81657664D01*
X141456202Y-81657671D01*
X141405908Y-81792517D01*
X141399501Y-81852116D01*
X141399501Y-81852123D01*
X141399500Y-81852135D01*
X141399500Y-84147870D01*
X141399501Y-84147876D01*
X141405908Y-84207483D01*
X141456202Y-84342328D01*
X141456206Y-84342335D01*
X141542452Y-84457544D01*
X141542455Y-84457547D01*
X141657664Y-84543793D01*
X141657671Y-84543797D01*
X141702618Y-84560561D01*
X141792517Y-84594091D01*
X141852127Y-84600500D01*
X142275500Y-84600499D01*
X142342539Y-84620183D01*
X142388294Y-84672987D01*
X142399500Y-84724499D01*
X142399500Y-86837270D01*
X142399525Y-86837668D01*
X142399525Y-86970408D01*
X142434049Y-87409119D01*
X142502894Y-87843812D01*
X142605621Y-88271712D01*
X142605631Y-88271748D01*
X142741614Y-88690271D01*
X142741617Y-88690277D01*
X142741618Y-88690280D01*
X142766355Y-88750001D01*
X142910030Y-89096871D01*
X142910032Y-89096874D01*
X143109812Y-89488971D01*
X143109820Y-89488985D01*
X143109823Y-89488991D01*
X143339766Y-89864229D01*
X143339772Y-89864238D01*
X143339775Y-89864242D01*
X143598434Y-90220261D01*
X143884254Y-90554917D01*
X143976879Y-90647543D01*
X143976878Y-90647543D01*
X149041136Y-95711801D01*
X149074621Y-95773124D01*
X149069637Y-95842816D01*
X149065654Y-95852279D01*
X148942228Y-96114572D01*
X148848890Y-96401835D01*
X148792289Y-96698546D01*
X148792288Y-96698553D01*
X148784217Y-96826843D01*
X148760362Y-96892514D01*
X148704789Y-96934863D01*
X148635143Y-96940445D01*
X148573535Y-96907486D01*
X148539526Y-96846452D01*
X148536707Y-96826842D01*
X148528640Y-96698617D01*
X148528639Y-96698609D01*
X148472050Y-96401959D01*
X148378730Y-96114752D01*
X148378728Y-96114747D01*
X148250151Y-95841508D01*
X148250148Y-95841502D01*
X148088339Y-95586530D01*
X148007542Y-95488864D01*
X146820433Y-96675973D01*
X146807497Y-96644742D01*
X146725419Y-96521903D01*
X146620953Y-96417437D01*
X146498114Y-96335359D01*
X146466880Y-96322421D01*
X147656290Y-95133011D01*
X147656289Y-95133009D01*
X147431394Y-94969614D01*
X147431376Y-94969602D01*
X147166746Y-94824121D01*
X147166738Y-94824117D01*
X146885966Y-94712952D01*
X146885963Y-94712951D01*
X146593456Y-94637849D01*
X146293860Y-94600000D01*
X145991851Y-94600000D01*
X145692255Y-94637849D01*
X145399748Y-94712951D01*
X145399745Y-94712952D01*
X145118973Y-94824117D01*
X145118965Y-94824121D01*
X144854332Y-94969604D01*
X144854327Y-94969607D01*
X144629421Y-95133010D01*
X144629420Y-95133011D01*
X145818831Y-96322421D01*
X145787598Y-96335359D01*
X145664759Y-96417437D01*
X145560293Y-96521903D01*
X145478215Y-96644742D01*
X145465277Y-96675974D01*
X144278167Y-95488864D01*
X144197376Y-95586525D01*
X144197374Y-95586528D01*
X144035563Y-95841502D01*
X144035560Y-95841508D01*
X143906983Y-96114747D01*
X143906981Y-96114752D01*
X143813661Y-96401959D01*
X143757072Y-96698609D01*
X143757071Y-96698616D01*
X143749004Y-96826843D01*
X143725149Y-96892514D01*
X143669576Y-96934863D01*
X143599930Y-96940445D01*
X143538322Y-96907486D01*
X143504313Y-96846452D01*
X143501494Y-96826842D01*
X143493423Y-96698554D01*
X143493422Y-96698546D01*
X143493422Y-96698543D01*
X143436823Y-96401840D01*
X143343483Y-96114570D01*
X143214875Y-95841264D01*
X143171632Y-95773124D01*
X143053030Y-95586236D01*
X142860489Y-95353494D01*
X142640305Y-95146727D01*
X142640295Y-95146719D01*
X142395948Y-94969191D01*
X142395941Y-94969186D01*
X142395937Y-94969184D01*
X142131246Y-94823668D01*
X142131243Y-94823666D01*
X142131238Y-94823664D01*
X142131237Y-94823663D01*
X141850407Y-94712475D01*
X141850404Y-94712474D01*
X141557837Y-94637357D01*
X141258178Y-94599500D01*
X141258169Y-94599500D01*
X140956115Y-94599500D01*
X140956105Y-94599500D01*
X140656446Y-94637357D01*
X140363879Y-94712474D01*
X140363876Y-94712475D01*
X140083046Y-94823663D01*
X140083045Y-94823664D01*
X139818347Y-94969184D01*
X139818335Y-94969191D01*
X139573988Y-95146719D01*
X139573978Y-95146727D01*
X139353794Y-95353494D01*
X139161253Y-95586236D01*
X138999410Y-95841261D01*
X138999407Y-95841267D01*
X138870803Y-96114563D01*
X138870801Y-96114568D01*
X138777462Y-96401835D01*
X138720861Y-96698546D01*
X138720860Y-96698553D01*
X138712789Y-96826843D01*
X138688934Y-96892514D01*
X138633361Y-96934863D01*
X138563715Y-96940445D01*
X138502107Y-96907486D01*
X138468098Y-96846452D01*
X138465279Y-96826842D01*
X138457212Y-96698617D01*
X138457211Y-96698609D01*
X138400622Y-96401959D01*
X138307302Y-96114752D01*
X138307300Y-96114747D01*
X138178723Y-95841508D01*
X138178720Y-95841502D01*
X138016911Y-95586530D01*
X137936114Y-95488864D01*
X136749005Y-96675974D01*
X136736069Y-96644742D01*
X136653991Y-96521903D01*
X136549525Y-96417437D01*
X136426686Y-96335359D01*
X136395452Y-96322421D01*
X137584862Y-95133011D01*
X137584861Y-95133009D01*
X137359966Y-94969614D01*
X137359948Y-94969602D01*
X137095318Y-94824121D01*
X137095310Y-94824117D01*
X136814538Y-94712952D01*
X136814535Y-94712951D01*
X136522028Y-94637849D01*
X136222432Y-94600000D01*
X135920423Y-94600000D01*
X135620827Y-94637849D01*
X135328320Y-94712951D01*
X135328317Y-94712952D01*
X135047545Y-94824117D01*
X135047537Y-94824121D01*
X134782904Y-94969604D01*
X134782899Y-94969607D01*
X134557993Y-95133010D01*
X134557992Y-95133011D01*
X135747403Y-96322421D01*
X135716170Y-96335359D01*
X135593331Y-96417437D01*
X135488865Y-96521903D01*
X135406787Y-96644742D01*
X135393849Y-96675974D01*
X134206739Y-95488864D01*
X134125948Y-95586525D01*
X134125946Y-95586528D01*
X133964135Y-95841502D01*
X133964132Y-95841508D01*
X133835555Y-96114747D01*
X133835553Y-96114752D01*
X133742233Y-96401959D01*
X133685644Y-96698609D01*
X133685643Y-96698616D01*
X133677326Y-96830825D01*
X133653471Y-96896496D01*
X133597899Y-96938845D01*
X133528252Y-96944427D01*
X133466644Y-96911468D01*
X133432635Y-96850434D01*
X133429816Y-96830825D01*
X133421498Y-96698616D01*
X133421497Y-96698609D01*
X133364908Y-96401959D01*
X133271588Y-96114752D01*
X133271586Y-96114747D01*
X133143009Y-95841508D01*
X133143006Y-95841502D01*
X132981197Y-95586530D01*
X132900400Y-95488864D01*
X131713291Y-96675974D01*
X131700355Y-96644742D01*
X131618277Y-96521903D01*
X131513811Y-96417437D01*
X131390972Y-96335359D01*
X131359738Y-96322421D01*
X132549148Y-95133011D01*
X132549147Y-95133009D01*
X132324252Y-94969614D01*
X132324234Y-94969602D01*
X132059604Y-94824121D01*
X132059596Y-94824117D01*
X131778824Y-94712952D01*
X131778821Y-94712951D01*
X131486314Y-94637849D01*
X131186718Y-94600000D01*
X130884709Y-94600000D01*
X130585113Y-94637849D01*
X130292606Y-94712951D01*
X130292603Y-94712952D01*
X130011831Y-94824117D01*
X130011823Y-94824121D01*
X129747190Y-94969604D01*
X129747185Y-94969607D01*
X129522279Y-95133010D01*
X129522278Y-95133011D01*
X130711689Y-96322421D01*
X130680456Y-96335359D01*
X130557617Y-96417437D01*
X130453151Y-96521903D01*
X130371073Y-96644742D01*
X130358135Y-96675974D01*
X129171025Y-95488864D01*
X129090234Y-95586525D01*
X129090232Y-95586528D01*
X128928421Y-95841502D01*
X128928418Y-95841508D01*
X128799841Y-96114747D01*
X128799839Y-96114752D01*
X128706519Y-96401959D01*
X128649930Y-96698609D01*
X128649929Y-96698616D01*
X128641862Y-96826843D01*
X128618007Y-96892514D01*
X128562434Y-96934863D01*
X128492788Y-96940445D01*
X128431180Y-96907486D01*
X128397171Y-96846452D01*
X128394352Y-96826842D01*
X128386281Y-96698554D01*
X128386280Y-96698546D01*
X128386280Y-96698543D01*
X128329681Y-96401840D01*
X128236341Y-96114570D01*
X128107733Y-95841264D01*
X128064490Y-95773124D01*
X127945888Y-95586236D01*
X127753347Y-95353494D01*
X127533163Y-95146727D01*
X127533153Y-95146719D01*
X127288806Y-94969191D01*
X127288799Y-94969186D01*
X127288795Y-94969184D01*
X127024104Y-94823668D01*
X127024101Y-94823666D01*
X127024096Y-94823664D01*
X127024095Y-94823663D01*
X126743265Y-94712475D01*
X126743262Y-94712474D01*
X126450695Y-94637357D01*
X126151036Y-94599500D01*
X126151027Y-94599500D01*
X125848973Y-94599500D01*
X125848963Y-94599500D01*
X125549304Y-94637357D01*
X125256737Y-94712474D01*
X125256734Y-94712475D01*
X124975904Y-94823663D01*
X124975903Y-94823664D01*
X124711205Y-94969184D01*
X124711193Y-94969191D01*
X124466846Y-95146719D01*
X124466836Y-95146727D01*
X124246652Y-95353494D01*
X124054111Y-95586236D01*
X123892268Y-95841261D01*
X123892265Y-95841267D01*
X123763661Y-96114563D01*
X123763659Y-96114568D01*
X123670320Y-96401835D01*
X123613719Y-96698546D01*
X123613718Y-96698553D01*
X123594754Y-96999994D01*
X121250500Y-96999994D01*
X121250500Y-89606797D01*
X121270185Y-89539758D01*
X121322989Y-89494003D01*
X121392147Y-89484059D01*
X121455703Y-89513084D01*
X121492431Y-89568479D01*
X121514125Y-89635247D01*
X121514127Y-89635252D01*
X121642704Y-89908491D01*
X121642707Y-89908497D01*
X121804516Y-90163469D01*
X121885311Y-90261133D01*
X122813708Y-89332736D01*
X122910967Y-89466602D01*
X123033398Y-89589033D01*
X123167262Y-89686290D01*
X122236564Y-90616987D01*
X122236565Y-90616989D01*
X122461461Y-90780385D01*
X122461479Y-90780397D01*
X122726109Y-90925878D01*
X122726117Y-90925882D01*
X123006889Y-91037047D01*
X123006892Y-91037048D01*
X123299399Y-91112150D01*
X123598995Y-91149999D01*
X123599007Y-91150000D01*
X123900993Y-91150000D01*
X123901004Y-91149999D01*
X124200600Y-91112150D01*
X124493107Y-91037048D01*
X124493110Y-91037047D01*
X124773882Y-90925882D01*
X124773890Y-90925878D01*
X125038520Y-90780397D01*
X125038530Y-90780390D01*
X125263433Y-90616987D01*
X125263434Y-90616987D01*
X124332737Y-89686290D01*
X124466602Y-89589033D01*
X124589033Y-89466602D01*
X124686290Y-89332737D01*
X125614687Y-90261134D01*
X125695486Y-90163464D01*
X125857292Y-89908497D01*
X125857295Y-89908491D01*
X125985872Y-89635252D01*
X125985874Y-89635247D01*
X126079194Y-89348040D01*
X126135783Y-89051390D01*
X126135784Y-89051383D01*
X126154745Y-88750005D01*
X126154745Y-88749994D01*
X126135784Y-88448616D01*
X126135783Y-88448609D01*
X126079194Y-88151959D01*
X125985874Y-87864752D01*
X125985872Y-87864747D01*
X125857295Y-87591508D01*
X125857292Y-87591502D01*
X125695483Y-87336530D01*
X125614686Y-87238864D01*
X124686289Y-88167261D01*
X124589033Y-88033398D01*
X124466602Y-87910967D01*
X124332736Y-87813709D01*
X125044310Y-87102135D01*
X136649500Y-87102135D01*
X136649500Y-89397870D01*
X136649501Y-89397876D01*
X136655908Y-89457483D01*
X136706202Y-89592328D01*
X136706206Y-89592335D01*
X136792452Y-89707544D01*
X136792455Y-89707547D01*
X136907664Y-89793793D01*
X136907671Y-89793797D01*
X137042517Y-89844091D01*
X137042516Y-89844091D01*
X137049444Y-89844835D01*
X137102127Y-89850500D01*
X139397872Y-89850499D01*
X139457483Y-89844091D01*
X139592331Y-89793796D01*
X139707546Y-89707546D01*
X139793796Y-89592331D01*
X139844091Y-89457483D01*
X139850500Y-89397873D01*
X139850499Y-87102128D01*
X139844091Y-87042517D01*
X139817193Y-86970401D01*
X139793797Y-86907671D01*
X139793793Y-86907664D01*
X139707547Y-86792455D01*
X139707544Y-86792452D01*
X139592335Y-86706206D01*
X139592328Y-86706202D01*
X139457482Y-86655908D01*
X139457483Y-86655908D01*
X139397883Y-86649501D01*
X139397881Y-86649500D01*
X139397873Y-86649500D01*
X139397864Y-86649500D01*
X137102129Y-86649500D01*
X137102123Y-86649501D01*
X137042516Y-86655908D01*
X136907671Y-86706202D01*
X136907664Y-86706206D01*
X136792455Y-86792452D01*
X136792452Y-86792455D01*
X136706206Y-86907664D01*
X136706202Y-86907671D01*
X136655908Y-87042517D01*
X136649501Y-87102116D01*
X136649501Y-87102123D01*
X136649500Y-87102135D01*
X125044310Y-87102135D01*
X125263434Y-86883011D01*
X125263433Y-86883009D01*
X125038538Y-86719614D01*
X125038520Y-86719602D01*
X124773890Y-86574121D01*
X124773882Y-86574117D01*
X124493110Y-86462952D01*
X124493107Y-86462951D01*
X124200600Y-86387849D01*
X123901004Y-86350000D01*
X123598995Y-86350000D01*
X123299399Y-86387849D01*
X123006892Y-86462951D01*
X123006889Y-86462952D01*
X122726117Y-86574117D01*
X122726109Y-86574121D01*
X122461476Y-86719604D01*
X122461471Y-86719607D01*
X122236565Y-86883010D01*
X122236564Y-86883011D01*
X123167262Y-87813709D01*
X123033398Y-87910967D01*
X122910967Y-88033398D01*
X122813709Y-88167262D01*
X121885311Y-87238864D01*
X121804520Y-87336525D01*
X121804518Y-87336528D01*
X121642707Y-87591502D01*
X121642704Y-87591508D01*
X121514127Y-87864747D01*
X121514125Y-87864752D01*
X121492431Y-87931520D01*
X121452993Y-87989196D01*
X121388635Y-88016394D01*
X121319788Y-88004479D01*
X121268313Y-87957235D01*
X121250500Y-87893202D01*
X121250500Y-83000000D01*
X133774551Y-83000000D01*
X133794317Y-83251151D01*
X133853126Y-83496110D01*
X133949533Y-83728859D01*
X134081160Y-83943653D01*
X134081161Y-83943656D01*
X134136604Y-84008571D01*
X134244776Y-84135224D01*
X134331322Y-84209141D01*
X134436343Y-84298838D01*
X134436346Y-84298839D01*
X134651140Y-84430466D01*
X134820380Y-84500567D01*
X134883889Y-84526873D01*
X135128852Y-84585683D01*
X135380000Y-84605449D01*
X135631148Y-84585683D01*
X135876111Y-84526873D01*
X136108859Y-84430466D01*
X136323659Y-84298836D01*
X136515224Y-84135224D01*
X136678836Y-83943659D01*
X136810466Y-83728859D01*
X136906873Y-83496111D01*
X136965683Y-83251148D01*
X136985449Y-83000000D01*
X136965683Y-82748852D01*
X136906873Y-82503889D01*
X136826543Y-82309954D01*
X136810466Y-82271140D01*
X136678839Y-82056346D01*
X136678838Y-82056343D01*
X136634587Y-82004532D01*
X136515224Y-81864776D01*
X136388571Y-81756604D01*
X136323656Y-81701161D01*
X136323653Y-81701160D01*
X136108859Y-81569533D01*
X135876110Y-81473126D01*
X135631151Y-81414317D01*
X135380000Y-81394551D01*
X135128848Y-81414317D01*
X134883889Y-81473126D01*
X134651140Y-81569533D01*
X134436346Y-81701160D01*
X134436343Y-81701161D01*
X134244776Y-81864776D01*
X134081161Y-82056343D01*
X134081160Y-82056346D01*
X133949533Y-82271140D01*
X133853126Y-82503889D01*
X133794317Y-82748848D01*
X133774551Y-83000000D01*
X121250500Y-83000000D01*
X121250500Y-78544887D01*
X134441127Y-78544887D01*
X134441128Y-78544888D01*
X135404314Y-78544888D01*
X135399920Y-78549282D01*
X135347259Y-78640494D01*
X135320000Y-78742227D01*
X135320000Y-78847549D01*
X135347259Y-78949282D01*
X135399920Y-79040494D01*
X135404314Y-79044888D01*
X134441128Y-79044888D01*
X134493730Y-79241205D01*
X134493734Y-79241214D01*
X134589865Y-79447370D01*
X134720342Y-79633708D01*
X134881179Y-79794545D01*
X135067517Y-79925022D01*
X135273673Y-80021153D01*
X135273682Y-80021157D01*
X135469999Y-80073760D01*
X135470000Y-80073759D01*
X135470000Y-79110574D01*
X135474394Y-79114968D01*
X135565606Y-79167629D01*
X135667339Y-79194888D01*
X135772661Y-79194888D01*
X135874394Y-79167629D01*
X135965606Y-79114968D01*
X135970000Y-79110574D01*
X135970000Y-80073760D01*
X136166317Y-80021157D01*
X136166326Y-80021153D01*
X136372482Y-79925022D01*
X136558820Y-79794545D01*
X136719657Y-79633708D01*
X136850134Y-79447370D01*
X136946265Y-79241214D01*
X136946269Y-79241205D01*
X136998872Y-79044888D01*
X136035686Y-79044888D01*
X136040080Y-79040494D01*
X136092741Y-78949282D01*
X136120000Y-78847549D01*
X136120000Y-78742227D01*
X136092741Y-78640494D01*
X136040080Y-78549282D01*
X136035686Y-78544888D01*
X136998872Y-78544888D01*
X136998872Y-78544887D01*
X136946269Y-78348570D01*
X136946265Y-78348561D01*
X136850134Y-78142405D01*
X136719657Y-77956067D01*
X136558820Y-77795230D01*
X136372482Y-77664753D01*
X136166328Y-77568622D01*
X135970000Y-77516015D01*
X135970000Y-78479202D01*
X135965606Y-78474808D01*
X135874394Y-78422147D01*
X135772661Y-78394888D01*
X135667339Y-78394888D01*
X135565606Y-78422147D01*
X135474394Y-78474808D01*
X135470000Y-78479202D01*
X135470000Y-77516015D01*
X135273671Y-77568622D01*
X135067517Y-77664753D01*
X134881179Y-77795230D01*
X134720342Y-77956067D01*
X134589865Y-78142405D01*
X134493734Y-78348561D01*
X134493730Y-78348570D01*
X134441127Y-78544887D01*
X121250500Y-78544887D01*
X121250500Y-75809999D01*
X126471127Y-75809999D01*
X126471128Y-75810000D01*
X127434314Y-75810000D01*
X127429920Y-75814394D01*
X127377259Y-75905606D01*
X127350000Y-76007339D01*
X127350000Y-76112661D01*
X127377259Y-76214394D01*
X127429920Y-76305606D01*
X127434314Y-76310000D01*
X126471128Y-76310000D01*
X126523730Y-76506317D01*
X126523734Y-76506326D01*
X126619865Y-76712482D01*
X126750342Y-76898820D01*
X126911179Y-77059657D01*
X127097517Y-77190134D01*
X127303673Y-77286265D01*
X127303682Y-77286269D01*
X127499999Y-77338872D01*
X127500000Y-77338871D01*
X127500000Y-76375686D01*
X127504394Y-76380080D01*
X127595606Y-76432741D01*
X127697339Y-76460000D01*
X127802661Y-76460000D01*
X127904394Y-76432741D01*
X127995606Y-76380080D01*
X128000000Y-76375686D01*
X128000000Y-77338872D01*
X128196317Y-77286269D01*
X128196326Y-77286265D01*
X128402482Y-77190134D01*
X128588820Y-77059657D01*
X128749657Y-76898820D01*
X128880134Y-76712482D01*
X128976265Y-76506326D01*
X128976269Y-76506317D01*
X129028872Y-76310000D01*
X128065686Y-76310000D01*
X128070080Y-76305606D01*
X128122741Y-76214394D01*
X128150000Y-76112661D01*
X128150000Y-76007339D01*
X128122741Y-75905606D01*
X128070080Y-75814394D01*
X128065686Y-75810000D01*
X129028872Y-75810000D01*
X129028872Y-75809999D01*
X128976269Y-75613682D01*
X128976265Y-75613673D01*
X128880134Y-75407517D01*
X128749657Y-75221179D01*
X128588820Y-75060342D01*
X128402482Y-74929865D01*
X128196328Y-74833734D01*
X128000000Y-74781127D01*
X128000000Y-75744314D01*
X127995606Y-75739920D01*
X127904394Y-75687259D01*
X127802661Y-75660000D01*
X127697339Y-75660000D01*
X127595606Y-75687259D01*
X127504394Y-75739920D01*
X127500000Y-75744314D01*
X127500000Y-74781127D01*
X127303671Y-74833734D01*
X127097517Y-74929865D01*
X126911179Y-75060342D01*
X126750342Y-75221179D01*
X126619865Y-75407517D01*
X126523734Y-75613673D01*
X126523730Y-75613682D01*
X126471127Y-75809999D01*
X121250500Y-75809999D01*
X121250500Y-73794886D01*
X134414532Y-73794886D01*
X134414532Y-73794889D01*
X134434364Y-74021574D01*
X134434366Y-74021585D01*
X134493258Y-74241376D01*
X134493261Y-74241385D01*
X134589431Y-74447620D01*
X134589432Y-74447622D01*
X134719954Y-74634029D01*
X134880858Y-74794933D01*
X134918177Y-74821064D01*
X135067266Y-74925456D01*
X135273504Y-75021627D01*
X135493308Y-75080523D01*
X135655230Y-75094689D01*
X135719998Y-75100356D01*
X135720000Y-75100356D01*
X135720002Y-75100356D01*
X135776673Y-75095397D01*
X135946692Y-75080523D01*
X136166496Y-75021627D01*
X136372734Y-74925456D01*
X136559139Y-74794935D01*
X136720047Y-74634027D01*
X136850568Y-74447622D01*
X136946739Y-74241384D01*
X137005635Y-74021580D01*
X137025468Y-73794888D01*
X137005635Y-73568196D01*
X136946739Y-73348392D01*
X136850568Y-73142154D01*
X136724263Y-72961770D01*
X136720045Y-72955746D01*
X136559141Y-72794842D01*
X136372734Y-72664320D01*
X136372732Y-72664319D01*
X136166497Y-72568149D01*
X136166488Y-72568146D01*
X135946697Y-72509254D01*
X135946693Y-72509253D01*
X135946692Y-72509253D01*
X135946691Y-72509252D01*
X135946686Y-72509252D01*
X135720002Y-72489420D01*
X135719998Y-72489420D01*
X135493313Y-72509252D01*
X135493302Y-72509254D01*
X135273511Y-72568146D01*
X135273502Y-72568149D01*
X135067267Y-72664319D01*
X135067265Y-72664320D01*
X134880858Y-72794842D01*
X134719954Y-72955746D01*
X134589432Y-73142153D01*
X134589431Y-73142155D01*
X134493261Y-73348390D01*
X134493258Y-73348399D01*
X134434366Y-73568190D01*
X134434364Y-73568201D01*
X134414532Y-73794886D01*
X121250500Y-73794886D01*
X121250500Y-68439998D01*
X126444532Y-68439998D01*
X126444532Y-68440001D01*
X126464364Y-68666686D01*
X126464366Y-68666697D01*
X126523258Y-68886488D01*
X126523261Y-68886497D01*
X126619431Y-69092732D01*
X126619432Y-69092734D01*
X126749954Y-69279141D01*
X126910858Y-69440045D01*
X126910861Y-69440047D01*
X127097266Y-69570568D01*
X127303504Y-69666739D01*
X127523308Y-69725635D01*
X127685230Y-69739801D01*
X127749998Y-69745468D01*
X127750000Y-69745468D01*
X127750002Y-69745468D01*
X127806673Y-69740509D01*
X127976692Y-69725635D01*
X128196496Y-69666739D01*
X128402734Y-69570568D01*
X128589139Y-69440047D01*
X128750047Y-69279139D01*
X128880568Y-69092734D01*
X128976739Y-68886496D01*
X129035635Y-68666692D01*
X129050219Y-68499997D01*
X130400147Y-68499997D01*
X130400147Y-68500002D01*
X130419971Y-68726599D01*
X130419973Y-68726610D01*
X130478843Y-68946317D01*
X130478848Y-68946331D01*
X130574976Y-69152478D01*
X130626087Y-69225472D01*
X131305113Y-68546446D01*
X131305113Y-68552661D01*
X131332372Y-68654394D01*
X131385033Y-68745606D01*
X131459507Y-68820080D01*
X131550719Y-68872741D01*
X131652452Y-68900000D01*
X131658666Y-68900000D01*
X130979639Y-69579025D01*
X131052626Y-69630132D01*
X131052634Y-69630136D01*
X131258781Y-69726264D01*
X131258795Y-69726269D01*
X131478502Y-69785139D01*
X131478513Y-69785141D01*
X131705111Y-69804966D01*
X131705115Y-69804966D01*
X131931712Y-69785141D01*
X131931723Y-69785139D01*
X132151430Y-69726269D01*
X132151444Y-69726264D01*
X132357591Y-69630136D01*
X132430584Y-69579024D01*
X131751560Y-68900000D01*
X131757774Y-68900000D01*
X131859507Y-68872741D01*
X131950719Y-68820080D01*
X132025193Y-68745606D01*
X132077854Y-68654394D01*
X132105113Y-68552661D01*
X132105113Y-68546447D01*
X132789310Y-69230644D01*
X132838305Y-69240491D01*
X132888488Y-69289106D01*
X132903162Y-69344632D01*
X132904212Y-69344576D01*
X132904259Y-69344571D01*
X132904259Y-69344573D01*
X132904437Y-69344564D01*
X132904614Y-69347876D01*
X132911021Y-69407483D01*
X132961315Y-69542328D01*
X132961319Y-69542335D01*
X133047565Y-69657544D01*
X133047568Y-69657547D01*
X133162777Y-69743793D01*
X133162784Y-69743797D01*
X133297630Y-69794091D01*
X133297629Y-69794091D01*
X133304557Y-69794835D01*
X133357240Y-69800500D01*
X135052985Y-69800499D01*
X135112596Y-69794091D01*
X135247444Y-69743796D01*
X135362659Y-69657546D01*
X135448909Y-69542331D01*
X135499204Y-69407483D01*
X135505613Y-69347873D01*
X135505612Y-68499997D01*
X139195034Y-68499997D01*
X139195034Y-68500002D01*
X139214858Y-68726599D01*
X139214860Y-68726610D01*
X139273730Y-68946317D01*
X139273735Y-68946331D01*
X139369863Y-69152478D01*
X139420974Y-69225472D01*
X140100000Y-68546446D01*
X140100000Y-68552661D01*
X140127259Y-68654394D01*
X140179920Y-68745606D01*
X140254394Y-68820080D01*
X140345606Y-68872741D01*
X140447339Y-68900000D01*
X140453553Y-68900000D01*
X139774526Y-69579025D01*
X139847513Y-69630132D01*
X139847521Y-69630136D01*
X140053668Y-69726264D01*
X140053682Y-69726269D01*
X140273389Y-69785139D01*
X140273400Y-69785141D01*
X140499998Y-69804966D01*
X140500002Y-69804966D01*
X140726599Y-69785141D01*
X140726610Y-69785139D01*
X140946317Y-69726269D01*
X140946331Y-69726264D01*
X141152478Y-69630136D01*
X141225471Y-69579024D01*
X140546447Y-68900000D01*
X140552661Y-68900000D01*
X140654394Y-68872741D01*
X140745606Y-68820080D01*
X140820080Y-68745606D01*
X140872741Y-68654394D01*
X140900000Y-68552661D01*
X140900000Y-68546447D01*
X141584197Y-69230644D01*
X141633192Y-69240491D01*
X141683375Y-69289106D01*
X141698049Y-69344632D01*
X141699099Y-69344576D01*
X141699146Y-69344571D01*
X141699146Y-69344573D01*
X141699324Y-69344564D01*
X141699501Y-69347876D01*
X141705908Y-69407483D01*
X141756202Y-69542328D01*
X141756206Y-69542335D01*
X141842452Y-69657544D01*
X141842455Y-69657547D01*
X141957664Y-69743793D01*
X141957671Y-69743797D01*
X142002618Y-69760561D01*
X142092517Y-69794091D01*
X142152127Y-69800500D01*
X142275500Y-69800499D01*
X142342539Y-69820183D01*
X142388294Y-69872987D01*
X142399500Y-69924499D01*
X142399500Y-72844839D01*
X142379815Y-72911878D01*
X142363181Y-72932520D01*
X142339954Y-72955746D01*
X142209432Y-73142153D01*
X142209431Y-73142155D01*
X142113261Y-73348390D01*
X142113258Y-73348399D01*
X142054366Y-73568190D01*
X142054364Y-73568201D01*
X142034532Y-73794886D01*
X142034532Y-73794889D01*
X142054364Y-74021574D01*
X142054366Y-74021585D01*
X142113258Y-74241376D01*
X142113261Y-74241385D01*
X142209431Y-74447620D01*
X142209432Y-74447622D01*
X142339954Y-74634029D01*
X142500858Y-74794933D01*
X142500861Y-74794935D01*
X142686624Y-74925006D01*
X142730248Y-74979581D01*
X142739500Y-75026580D01*
X142739500Y-77563194D01*
X142719815Y-77630233D01*
X142686623Y-77664769D01*
X142500859Y-77794841D01*
X142339954Y-77955746D01*
X142209432Y-78142153D01*
X142209431Y-78142155D01*
X142113261Y-78348390D01*
X142113258Y-78348399D01*
X142054366Y-78568190D01*
X142054364Y-78568201D01*
X142034532Y-78794886D01*
X142034532Y-78794889D01*
X142054364Y-79021574D01*
X142054366Y-79021585D01*
X142113258Y-79241376D01*
X142113261Y-79241385D01*
X142209431Y-79447620D01*
X142209432Y-79447622D01*
X142339954Y-79634029D01*
X142500858Y-79794933D01*
X142500861Y-79794935D01*
X142687266Y-79925456D01*
X142893504Y-80021627D01*
X143113308Y-80080523D01*
X143275230Y-80094689D01*
X143339998Y-80100356D01*
X143340000Y-80100356D01*
X143340002Y-80100356D01*
X143396673Y-80095397D01*
X143566692Y-80080523D01*
X143786496Y-80021627D01*
X143992734Y-79925456D01*
X144179139Y-79794935D01*
X144340047Y-79634027D01*
X144470568Y-79447622D01*
X144566739Y-79241384D01*
X144625635Y-79021580D01*
X144645468Y-78794888D01*
X144625635Y-78568196D01*
X144566739Y-78348392D01*
X144470568Y-78142154D01*
X144340047Y-77955749D01*
X144340045Y-77955746D01*
X144179140Y-77794841D01*
X143993377Y-77664769D01*
X143949752Y-77610192D01*
X143940500Y-77563194D01*
X143940500Y-75026580D01*
X143960185Y-74959541D01*
X143993374Y-74925007D01*
X144179139Y-74794935D01*
X144340047Y-74634027D01*
X144470118Y-74448263D01*
X144524693Y-74404640D01*
X144571692Y-74395388D01*
X146928443Y-74395388D01*
X146928459Y-74395389D01*
X146938265Y-74395389D01*
X146940905Y-74396164D01*
X146943823Y-74396346D01*
X146943831Y-74396347D01*
X146943749Y-74396999D01*
X147005304Y-74415074D01*
X147051059Y-74467878D01*
X147061003Y-74537036D01*
X147031978Y-74600592D01*
X147009388Y-74620964D01*
X146910858Y-74689954D01*
X146749954Y-74850858D01*
X146619432Y-75037265D01*
X146619431Y-75037267D01*
X146523261Y-75243502D01*
X146523258Y-75243511D01*
X146464366Y-75463302D01*
X146464364Y-75463313D01*
X146444532Y-75689998D01*
X146444532Y-75690001D01*
X146464364Y-75916686D01*
X146464366Y-75916697D01*
X146523258Y-76136488D01*
X146523261Y-76136497D01*
X146619431Y-76342732D01*
X146619432Y-76342734D01*
X146749954Y-76529141D01*
X146910858Y-76690045D01*
X146910861Y-76690047D01*
X147097266Y-76820568D01*
X147303504Y-76916739D01*
X147523308Y-76975635D01*
X147685230Y-76989801D01*
X147749998Y-76995468D01*
X147750000Y-76995468D01*
X147750002Y-76995468D01*
X147806673Y-76990509D01*
X147976692Y-76975635D01*
X148196496Y-76916739D01*
X148402734Y-76820568D01*
X148589139Y-76690047D01*
X148750047Y-76529139D01*
X148880568Y-76342734D01*
X148976739Y-76136496D01*
X149035635Y-75916692D01*
X149050219Y-75749998D01*
X150194532Y-75749998D01*
X150194532Y-75750001D01*
X150214364Y-75976686D01*
X150214366Y-75976697D01*
X150273258Y-76196488D01*
X150273261Y-76196497D01*
X150369431Y-76402732D01*
X150369432Y-76402734D01*
X150499954Y-76589141D01*
X150660858Y-76750045D01*
X150660861Y-76750047D01*
X150847266Y-76880568D01*
X151053504Y-76976739D01*
X151273308Y-77035635D01*
X151435230Y-77049801D01*
X151499998Y-77055468D01*
X151500000Y-77055468D01*
X151500002Y-77055468D01*
X151556673Y-77050509D01*
X151726692Y-77035635D01*
X151946496Y-76976739D01*
X152152734Y-76880568D01*
X152339139Y-76750047D01*
X152500047Y-76589139D01*
X152630568Y-76402734D01*
X152726739Y-76196496D01*
X152785635Y-75976692D01*
X152805468Y-75750000D01*
X152800218Y-75689998D01*
X152785635Y-75523313D01*
X152785635Y-75523308D01*
X152726739Y-75303504D01*
X152630568Y-75097266D01*
X152513354Y-74929865D01*
X152500045Y-74910858D01*
X152339141Y-74749954D01*
X152152734Y-74619432D01*
X152152732Y-74619431D01*
X151946497Y-74523261D01*
X151946488Y-74523258D01*
X151726697Y-74464366D01*
X151726693Y-74464365D01*
X151726692Y-74464365D01*
X151726691Y-74464364D01*
X151726686Y-74464364D01*
X151500002Y-74444532D01*
X151499998Y-74444532D01*
X151273313Y-74464364D01*
X151273302Y-74464366D01*
X151053511Y-74523258D01*
X151053502Y-74523261D01*
X150847267Y-74619431D01*
X150847265Y-74619432D01*
X150660858Y-74749954D01*
X150499954Y-74910858D01*
X150369432Y-75097265D01*
X150369431Y-75097267D01*
X150273261Y-75303502D01*
X150273258Y-75303511D01*
X150214366Y-75523302D01*
X150214364Y-75523313D01*
X150194532Y-75749998D01*
X149050219Y-75749998D01*
X149055468Y-75690000D01*
X149035635Y-75463308D01*
X148976739Y-75243504D01*
X148880568Y-75037266D01*
X148750047Y-74850861D01*
X148750045Y-74850858D01*
X148589141Y-74689954D01*
X148402734Y-74559432D01*
X148402732Y-74559431D01*
X148332624Y-74526739D01*
X148248220Y-74487380D01*
X148195783Y-74441210D01*
X148176631Y-74374016D01*
X148196847Y-74307135D01*
X148248220Y-74262619D01*
X148402734Y-74190568D01*
X148589139Y-74060047D01*
X148750047Y-73899139D01*
X148880568Y-73712734D01*
X148976739Y-73506496D01*
X149035635Y-73286692D01*
X149055468Y-73060000D01*
X149035635Y-72833308D01*
X148976739Y-72613504D01*
X148880568Y-72407266D01*
X148750047Y-72220861D01*
X148750045Y-72220858D01*
X148589141Y-72059954D01*
X148402734Y-71929432D01*
X148402732Y-71929431D01*
X148196497Y-71833261D01*
X148196488Y-71833258D01*
X147976697Y-71774366D01*
X147976693Y-71774365D01*
X147976692Y-71774365D01*
X147976691Y-71774364D01*
X147976686Y-71774364D01*
X147750002Y-71754532D01*
X147749998Y-71754532D01*
X147523313Y-71774364D01*
X147523302Y-71774366D01*
X147303511Y-71833258D01*
X147303502Y-71833261D01*
X147097267Y-71929431D01*
X147097265Y-71929432D01*
X146910858Y-72059954D01*
X146749954Y-72220858D01*
X146619432Y-72407265D01*
X146619431Y-72407267D01*
X146523261Y-72613502D01*
X146523258Y-72613511D01*
X146464366Y-72833302D01*
X146464364Y-72833313D01*
X146444532Y-73059998D01*
X146444532Y-73065414D01*
X146443324Y-73065414D01*
X146430726Y-73128084D01*
X146382109Y-73178266D01*
X146320967Y-73194388D01*
X144571692Y-73194388D01*
X144504653Y-73174703D01*
X144470119Y-73141513D01*
X144344263Y-72961770D01*
X144340045Y-72955746D01*
X144179141Y-72794842D01*
X143992734Y-72664320D01*
X143992732Y-72664319D01*
X143786495Y-72568148D01*
X143692405Y-72542936D01*
X143632745Y-72506571D01*
X143602217Y-72443723D01*
X143600500Y-72423162D01*
X143600500Y-71499998D01*
X151944532Y-71499998D01*
X151944532Y-71500001D01*
X151964364Y-71726686D01*
X151964366Y-71726697D01*
X152023258Y-71946488D01*
X152023261Y-71946497D01*
X152119431Y-72152732D01*
X152119432Y-72152734D01*
X152249954Y-72339141D01*
X152410858Y-72500045D01*
X152410861Y-72500047D01*
X152597266Y-72630568D01*
X152803504Y-72726739D01*
X153023308Y-72785635D01*
X153185230Y-72799801D01*
X153249998Y-72805468D01*
X153250000Y-72805468D01*
X153250002Y-72805468D01*
X153306673Y-72800509D01*
X153476692Y-72785635D01*
X153696496Y-72726739D01*
X153902734Y-72630568D01*
X154089139Y-72500047D01*
X154250047Y-72339139D01*
X154380568Y-72152734D01*
X154476739Y-71946496D01*
X154535635Y-71726692D01*
X154555468Y-71500000D01*
X154535635Y-71273308D01*
X154476739Y-71053504D01*
X154380568Y-70847266D01*
X154250047Y-70660861D01*
X154250045Y-70660858D01*
X154089141Y-70499954D01*
X153902734Y-70369432D01*
X153902732Y-70369431D01*
X153696497Y-70273261D01*
X153696488Y-70273258D01*
X153476697Y-70214366D01*
X153476693Y-70214365D01*
X153476692Y-70214365D01*
X153476691Y-70214364D01*
X153476686Y-70214364D01*
X153250002Y-70194532D01*
X153249998Y-70194532D01*
X153023313Y-70214364D01*
X153023302Y-70214366D01*
X152803511Y-70273258D01*
X152803502Y-70273261D01*
X152597267Y-70369431D01*
X152597265Y-70369432D01*
X152410858Y-70499954D01*
X152249954Y-70660858D01*
X152119432Y-70847265D01*
X152119431Y-70847267D01*
X152023261Y-71053502D01*
X152023258Y-71053511D01*
X151964366Y-71273302D01*
X151964364Y-71273313D01*
X151944532Y-71499998D01*
X143600500Y-71499998D01*
X143600500Y-69924499D01*
X143620185Y-69857460D01*
X143672989Y-69811705D01*
X143724500Y-69800499D01*
X143847871Y-69800499D01*
X143847872Y-69800499D01*
X143907483Y-69794091D01*
X144042331Y-69743796D01*
X144157546Y-69657546D01*
X144243796Y-69542331D01*
X144294091Y-69407483D01*
X144300500Y-69347873D01*
X144300499Y-67652128D01*
X144294091Y-67592517D01*
X144289058Y-67579024D01*
X144243797Y-67457671D01*
X144243793Y-67457664D01*
X144157547Y-67342455D01*
X144157544Y-67342452D01*
X144042335Y-67256206D01*
X144042328Y-67256202D01*
X143907482Y-67205908D01*
X143907483Y-67205908D01*
X143847883Y-67199501D01*
X143847881Y-67199500D01*
X143847873Y-67199500D01*
X143847864Y-67199500D01*
X142152129Y-67199500D01*
X142152123Y-67199501D01*
X142092516Y-67205908D01*
X141957671Y-67256202D01*
X141957664Y-67256206D01*
X141842455Y-67342452D01*
X141842452Y-67342455D01*
X141756206Y-67457664D01*
X141756202Y-67457671D01*
X141705908Y-67592517D01*
X141701864Y-67630136D01*
X141699501Y-67652123D01*
X141699322Y-67655452D01*
X141697847Y-67655372D01*
X141679815Y-67716784D01*
X141627011Y-67762539D01*
X141583522Y-67770029D01*
X140900000Y-68453551D01*
X140900000Y-68447339D01*
X140872741Y-68345606D01*
X140820080Y-68254394D01*
X140745606Y-68179920D01*
X140654394Y-68127259D01*
X140552661Y-68100000D01*
X140546445Y-68100000D01*
X141225472Y-67420974D01*
X141152478Y-67369863D01*
X140946331Y-67273735D01*
X140946317Y-67273730D01*
X140726610Y-67214860D01*
X140726599Y-67214858D01*
X140500002Y-67195034D01*
X140499998Y-67195034D01*
X140273400Y-67214858D01*
X140273389Y-67214860D01*
X140053682Y-67273730D01*
X140053673Y-67273734D01*
X139847516Y-67369866D01*
X139847512Y-67369868D01*
X139774526Y-67420973D01*
X139774526Y-67420974D01*
X140453553Y-68100000D01*
X140447339Y-68100000D01*
X140345606Y-68127259D01*
X140254394Y-68179920D01*
X140179920Y-68254394D01*
X140127259Y-68345606D01*
X140100000Y-68447339D01*
X140100000Y-68453552D01*
X139420974Y-67774526D01*
X139420973Y-67774526D01*
X139369868Y-67847512D01*
X139369866Y-67847516D01*
X139273734Y-68053673D01*
X139273730Y-68053682D01*
X139214860Y-68273389D01*
X139214858Y-68273400D01*
X139195034Y-68499997D01*
X135505612Y-68499997D01*
X135505612Y-67652128D01*
X135499204Y-67592517D01*
X135494171Y-67579024D01*
X135448910Y-67457671D01*
X135448906Y-67457664D01*
X135362660Y-67342455D01*
X135362657Y-67342452D01*
X135247448Y-67256206D01*
X135247441Y-67256202D01*
X135112595Y-67205908D01*
X135112596Y-67205908D01*
X135052996Y-67199501D01*
X135052994Y-67199500D01*
X135052986Y-67199500D01*
X135052977Y-67199500D01*
X133357242Y-67199500D01*
X133357236Y-67199501D01*
X133297629Y-67205908D01*
X133162784Y-67256202D01*
X133162777Y-67256206D01*
X133047568Y-67342452D01*
X133047565Y-67342455D01*
X132961319Y-67457664D01*
X132961315Y-67457671D01*
X132911021Y-67592517D01*
X132906977Y-67630136D01*
X132904614Y-67652123D01*
X132904435Y-67655452D01*
X132902960Y-67655372D01*
X132884928Y-67716784D01*
X132832124Y-67762539D01*
X132788635Y-67770029D01*
X132105113Y-68453551D01*
X132105113Y-68447339D01*
X132077854Y-68345606D01*
X132025193Y-68254394D01*
X131950719Y-68179920D01*
X131859507Y-68127259D01*
X131757774Y-68100000D01*
X131751558Y-68100000D01*
X132430585Y-67420974D01*
X132357591Y-67369863D01*
X132151444Y-67273735D01*
X132151430Y-67273730D01*
X131931723Y-67214860D01*
X131931712Y-67214858D01*
X131705115Y-67195034D01*
X131705111Y-67195034D01*
X131478513Y-67214858D01*
X131478502Y-67214860D01*
X131258795Y-67273730D01*
X131258786Y-67273734D01*
X131052629Y-67369866D01*
X131052625Y-67369868D01*
X130979639Y-67420973D01*
X130979639Y-67420974D01*
X131658666Y-68100000D01*
X131652452Y-68100000D01*
X131550719Y-68127259D01*
X131459507Y-68179920D01*
X131385033Y-68254394D01*
X131332372Y-68345606D01*
X131305113Y-68447339D01*
X131305113Y-68453552D01*
X130626087Y-67774526D01*
X130626086Y-67774526D01*
X130574981Y-67847512D01*
X130574979Y-67847516D01*
X130478847Y-68053673D01*
X130478843Y-68053682D01*
X130419973Y-68273389D01*
X130419971Y-68273400D01*
X130400147Y-68499997D01*
X129050219Y-68499997D01*
X129055468Y-68440000D01*
X129035635Y-68213308D01*
X128976739Y-67993504D01*
X128880568Y-67787266D01*
X128750047Y-67600861D01*
X128750045Y-67600858D01*
X128589141Y-67439954D01*
X128402734Y-67309432D01*
X128402732Y-67309431D01*
X128196497Y-67213261D01*
X128196488Y-67213258D01*
X127976697Y-67154366D01*
X127976693Y-67154365D01*
X127976692Y-67154365D01*
X127976691Y-67154364D01*
X127976686Y-67154364D01*
X127750002Y-67134532D01*
X127749998Y-67134532D01*
X127523313Y-67154364D01*
X127523302Y-67154366D01*
X127303511Y-67213258D01*
X127303502Y-67213261D01*
X127097267Y-67309431D01*
X127097265Y-67309432D01*
X126910858Y-67439954D01*
X126749954Y-67600858D01*
X126619432Y-67787265D01*
X126619431Y-67787267D01*
X126523261Y-67993502D01*
X126523258Y-67993511D01*
X126464366Y-68213302D01*
X126464364Y-68213313D01*
X126444532Y-68439998D01*
X121250500Y-68439998D01*
X121250500Y-65439998D01*
X146444532Y-65439998D01*
X146444532Y-65440001D01*
X146464364Y-65666686D01*
X146464366Y-65666697D01*
X146523258Y-65886488D01*
X146523261Y-65886497D01*
X146619431Y-66092732D01*
X146619432Y-66092734D01*
X146749954Y-66279141D01*
X146910858Y-66440045D01*
X146910861Y-66440047D01*
X147097266Y-66570568D01*
X147303504Y-66666739D01*
X147523308Y-66725635D01*
X147685230Y-66739801D01*
X147749998Y-66745468D01*
X147750000Y-66745468D01*
X147750002Y-66745468D01*
X147806673Y-66740509D01*
X147976692Y-66725635D01*
X148196496Y-66666739D01*
X148402734Y-66570568D01*
X148503521Y-66499997D01*
X151945034Y-66499997D01*
X151945034Y-66500002D01*
X151964858Y-66726599D01*
X151964860Y-66726610D01*
X152023730Y-66946317D01*
X152023735Y-66946331D01*
X152119863Y-67152478D01*
X152170974Y-67225472D01*
X152850000Y-66546446D01*
X152850000Y-66552661D01*
X152877259Y-66654394D01*
X152929920Y-66745606D01*
X153004394Y-66820080D01*
X153095606Y-66872741D01*
X153197339Y-66900000D01*
X153203553Y-66900000D01*
X152524526Y-67579025D01*
X152597513Y-67630132D01*
X152597521Y-67630136D01*
X152803668Y-67726264D01*
X152803682Y-67726269D01*
X153023389Y-67785139D01*
X153023400Y-67785141D01*
X153249998Y-67804966D01*
X153250002Y-67804966D01*
X153476599Y-67785141D01*
X153476610Y-67785139D01*
X153696317Y-67726269D01*
X153696331Y-67726264D01*
X153902478Y-67630136D01*
X153975471Y-67579024D01*
X153296447Y-66900000D01*
X153302661Y-66900000D01*
X153404394Y-66872741D01*
X153495606Y-66820080D01*
X153570080Y-66745606D01*
X153622741Y-66654394D01*
X153650000Y-66552661D01*
X153650000Y-66546447D01*
X154329024Y-67225471D01*
X154380136Y-67152478D01*
X154476264Y-66946331D01*
X154476269Y-66946317D01*
X154535139Y-66726610D01*
X154535141Y-66726599D01*
X154554966Y-66500002D01*
X154554966Y-66499997D01*
X154535141Y-66273400D01*
X154535139Y-66273389D01*
X154476269Y-66053682D01*
X154476264Y-66053668D01*
X154380136Y-65847521D01*
X154380132Y-65847513D01*
X154329025Y-65774526D01*
X153650000Y-66453551D01*
X153650000Y-66447339D01*
X153622741Y-66345606D01*
X153570080Y-66254394D01*
X153495606Y-66179920D01*
X153404394Y-66127259D01*
X153302661Y-66100000D01*
X153296445Y-66100000D01*
X153975472Y-65420974D01*
X153902478Y-65369863D01*
X153696331Y-65273735D01*
X153696317Y-65273730D01*
X153476610Y-65214860D01*
X153476599Y-65214858D01*
X153250002Y-65195034D01*
X153249998Y-65195034D01*
X153023400Y-65214858D01*
X153023389Y-65214860D01*
X152803682Y-65273730D01*
X152803673Y-65273734D01*
X152597516Y-65369866D01*
X152597512Y-65369868D01*
X152524526Y-65420973D01*
X152524526Y-65420974D01*
X153203553Y-66100000D01*
X153197339Y-66100000D01*
X153095606Y-66127259D01*
X153004394Y-66179920D01*
X152929920Y-66254394D01*
X152877259Y-66345606D01*
X152850000Y-66447339D01*
X152850000Y-66453552D01*
X152170974Y-65774526D01*
X152170973Y-65774526D01*
X152119868Y-65847512D01*
X152119866Y-65847516D01*
X152023734Y-66053673D01*
X152023730Y-66053682D01*
X151964860Y-66273389D01*
X151964858Y-66273400D01*
X151945034Y-66499997D01*
X148503521Y-66499997D01*
X148589139Y-66440047D01*
X148750047Y-66279139D01*
X148880568Y-66092734D01*
X148976739Y-65886496D01*
X149035635Y-65666692D01*
X149055468Y-65440000D01*
X149053803Y-65420974D01*
X149042006Y-65286128D01*
X149035635Y-65213308D01*
X148976739Y-64993504D01*
X148880568Y-64787266D01*
X148750047Y-64600861D01*
X148750045Y-64600858D01*
X148589141Y-64439954D01*
X148402734Y-64309432D01*
X148402732Y-64309431D01*
X148196497Y-64213261D01*
X148196488Y-64213258D01*
X147976697Y-64154366D01*
X147976693Y-64154365D01*
X147976692Y-64154365D01*
X147976691Y-64154364D01*
X147976686Y-64154364D01*
X147750002Y-64134532D01*
X147749998Y-64134532D01*
X147523313Y-64154364D01*
X147523302Y-64154366D01*
X147303511Y-64213258D01*
X147303502Y-64213261D01*
X147097267Y-64309431D01*
X147097265Y-64309432D01*
X146910858Y-64439954D01*
X146749954Y-64600858D01*
X146619432Y-64787265D01*
X146619431Y-64787267D01*
X146523261Y-64993502D01*
X146523258Y-64993511D01*
X146464366Y-65213302D01*
X146464364Y-65213313D01*
X146444532Y-65439998D01*
X121250500Y-65439998D01*
X121250500Y-63749998D01*
X124444532Y-63749998D01*
X124444532Y-63750001D01*
X124464364Y-63976686D01*
X124464366Y-63976697D01*
X124523258Y-64196488D01*
X124523261Y-64196497D01*
X124619431Y-64402732D01*
X124619432Y-64402734D01*
X124749954Y-64589141D01*
X124910858Y-64750045D01*
X124910861Y-64750047D01*
X125097266Y-64880568D01*
X125303504Y-64976739D01*
X125523308Y-65035635D01*
X125685230Y-65049801D01*
X125749998Y-65055468D01*
X125750000Y-65055468D01*
X125750002Y-65055468D01*
X125806673Y-65050509D01*
X125976692Y-65035635D01*
X126196496Y-64976739D01*
X126402734Y-64880568D01*
X126589139Y-64750047D01*
X126750047Y-64589139D01*
X126880568Y-64402734D01*
X126976739Y-64196496D01*
X127035635Y-63976692D01*
X127055468Y-63750000D01*
X127055468Y-63749998D01*
X129444532Y-63749998D01*
X129444532Y-63750001D01*
X129464364Y-63976686D01*
X129464366Y-63976697D01*
X129523258Y-64196488D01*
X129523261Y-64196497D01*
X129619431Y-64402732D01*
X129619432Y-64402734D01*
X129749954Y-64589141D01*
X129910858Y-64750045D01*
X129910861Y-64750047D01*
X130097266Y-64880568D01*
X130303504Y-64976739D01*
X130523308Y-65035635D01*
X130685230Y-65049801D01*
X130749998Y-65055468D01*
X130750000Y-65055468D01*
X130750002Y-65055468D01*
X130806673Y-65050509D01*
X130976692Y-65035635D01*
X131196496Y-64976739D01*
X131402734Y-64880568D01*
X131589139Y-64750047D01*
X131750047Y-64589139D01*
X131880568Y-64402734D01*
X131976739Y-64196496D01*
X132035635Y-63976692D01*
X132055468Y-63750000D01*
X132035635Y-63523308D01*
X131976739Y-63303504D01*
X131880568Y-63097266D01*
X131750047Y-62910861D01*
X131750045Y-62910858D01*
X131589141Y-62749954D01*
X131402734Y-62619432D01*
X131402732Y-62619431D01*
X131196497Y-62523261D01*
X131196488Y-62523258D01*
X130976697Y-62464366D01*
X130976693Y-62464365D01*
X130976692Y-62464365D01*
X130976691Y-62464364D01*
X130976686Y-62464364D01*
X130750002Y-62444532D01*
X130749998Y-62444532D01*
X130523313Y-62464364D01*
X130523302Y-62464366D01*
X130303511Y-62523258D01*
X130303502Y-62523261D01*
X130097267Y-62619431D01*
X130097265Y-62619432D01*
X129910858Y-62749954D01*
X129749954Y-62910858D01*
X129619432Y-63097265D01*
X129619431Y-63097267D01*
X129523261Y-63303502D01*
X129523258Y-63303511D01*
X129464366Y-63523302D01*
X129464364Y-63523313D01*
X129444532Y-63749998D01*
X127055468Y-63749998D01*
X127035635Y-63523308D01*
X126976739Y-63303504D01*
X126880568Y-63097266D01*
X126750047Y-62910861D01*
X126750045Y-62910858D01*
X126589141Y-62749954D01*
X126402734Y-62619432D01*
X126402732Y-62619431D01*
X126196497Y-62523261D01*
X126196488Y-62523258D01*
X125976697Y-62464366D01*
X125976693Y-62464365D01*
X125976692Y-62464365D01*
X125976691Y-62464364D01*
X125976686Y-62464364D01*
X125750002Y-62444532D01*
X125749998Y-62444532D01*
X125523313Y-62464364D01*
X125523302Y-62464366D01*
X125303511Y-62523258D01*
X125303502Y-62523261D01*
X125097267Y-62619431D01*
X125097265Y-62619432D01*
X124910858Y-62749954D01*
X124749954Y-62910858D01*
X124619432Y-63097265D01*
X124619431Y-63097267D01*
X124523261Y-63303502D01*
X124523258Y-63303511D01*
X124464366Y-63523302D01*
X124464364Y-63523313D01*
X124444532Y-63749998D01*
X121250500Y-63749998D01*
X121250500Y-62369998D01*
X134444532Y-62369998D01*
X134444532Y-62370001D01*
X134464364Y-62596686D01*
X134464366Y-62596697D01*
X134523258Y-62816488D01*
X134523261Y-62816497D01*
X134619431Y-63022732D01*
X134619432Y-63022734D01*
X134749954Y-63209141D01*
X134910858Y-63370045D01*
X134910861Y-63370047D01*
X135097266Y-63500568D01*
X135303504Y-63596739D01*
X135523308Y-63655635D01*
X135685230Y-63669801D01*
X135749998Y-63675468D01*
X135750000Y-63675468D01*
X135750002Y-63675468D01*
X135806673Y-63670509D01*
X135976692Y-63655635D01*
X136196496Y-63596739D01*
X136402734Y-63500568D01*
X136589139Y-63370047D01*
X136750047Y-63209139D01*
X136880568Y-63022734D01*
X136976739Y-62816496D01*
X137035635Y-62596692D01*
X137055468Y-62370000D01*
X137050218Y-62309998D01*
X137035635Y-62143313D01*
X137035635Y-62143308D01*
X136976739Y-61923504D01*
X136880568Y-61717266D01*
X136750047Y-61530861D01*
X136750045Y-61530858D01*
X136589141Y-61369954D01*
X136402734Y-61239432D01*
X136402732Y-61239431D01*
X136196497Y-61143261D01*
X136196488Y-61143258D01*
X135976697Y-61084366D01*
X135976693Y-61084365D01*
X135976692Y-61084365D01*
X135976691Y-61084364D01*
X135976686Y-61084364D01*
X135750002Y-61064532D01*
X135749998Y-61064532D01*
X135523313Y-61084364D01*
X135523302Y-61084366D01*
X135303511Y-61143258D01*
X135303502Y-61143261D01*
X135097267Y-61239431D01*
X135097265Y-61239432D01*
X134910858Y-61369954D01*
X134749954Y-61530858D01*
X134619432Y-61717265D01*
X134619431Y-61717267D01*
X134523261Y-61923502D01*
X134523258Y-61923511D01*
X134464366Y-62143302D01*
X134464364Y-62143313D01*
X134444532Y-62369998D01*
X121250500Y-62369998D01*
X121250500Y-58749998D01*
X121634532Y-58749998D01*
X121634532Y-58750001D01*
X121654364Y-58976686D01*
X121654366Y-58976697D01*
X121713258Y-59196488D01*
X121713261Y-59196497D01*
X121809431Y-59402732D01*
X121809432Y-59402734D01*
X121939954Y-59589141D01*
X122100858Y-59750045D01*
X122100861Y-59750047D01*
X122287266Y-59880568D01*
X122493504Y-59976739D01*
X122713308Y-60035635D01*
X122875230Y-60049801D01*
X122939998Y-60055468D01*
X122940000Y-60055468D01*
X122940002Y-60055468D01*
X122996673Y-60050509D01*
X123166692Y-60035635D01*
X123386496Y-59976739D01*
X123592734Y-59880568D01*
X123779139Y-59750047D01*
X123940047Y-59589139D01*
X124070568Y-59402734D01*
X124166739Y-59196496D01*
X124225635Y-58976692D01*
X124245468Y-58750000D01*
X124245468Y-58749998D01*
X129254532Y-58749998D01*
X129254532Y-58750001D01*
X129274364Y-58976686D01*
X129274366Y-58976697D01*
X129333258Y-59196488D01*
X129333261Y-59196497D01*
X129429431Y-59402732D01*
X129429432Y-59402734D01*
X129559954Y-59589141D01*
X129720858Y-59750045D01*
X129720861Y-59750047D01*
X129907266Y-59880568D01*
X130113504Y-59976739D01*
X130333308Y-60035635D01*
X130495230Y-60049801D01*
X130559998Y-60055468D01*
X130560000Y-60055468D01*
X130560002Y-60055468D01*
X130616673Y-60050509D01*
X130786692Y-60035635D01*
X131006496Y-59976739D01*
X131212734Y-59880568D01*
X131399139Y-59750047D01*
X131560047Y-59589139D01*
X131690568Y-59402734D01*
X131786739Y-59196496D01*
X131845635Y-58976692D01*
X131865468Y-58750000D01*
X131845635Y-58523308D01*
X131786739Y-58303504D01*
X131690568Y-58097266D01*
X131560047Y-57910861D01*
X131560045Y-57910858D01*
X131438960Y-57789773D01*
X140446198Y-57789773D01*
X140446198Y-57789776D01*
X140466030Y-58016461D01*
X140466032Y-58016472D01*
X140524924Y-58236263D01*
X140524927Y-58236272D01*
X140621097Y-58442507D01*
X140621098Y-58442509D01*
X140751620Y-58628916D01*
X140912524Y-58789820D01*
X140912527Y-58789822D01*
X141098932Y-58920343D01*
X141305170Y-59016514D01*
X141524974Y-59075410D01*
X141686896Y-59089576D01*
X141751664Y-59095243D01*
X141751666Y-59095243D01*
X141751668Y-59095243D01*
X141808339Y-59090284D01*
X141978358Y-59075410D01*
X142198162Y-59016514D01*
X142404400Y-58920343D01*
X142590805Y-58789822D01*
X142751713Y-58628914D01*
X142815748Y-58537461D01*
X142870321Y-58493838D01*
X142939820Y-58486644D01*
X143002175Y-58518166D01*
X143005002Y-58520905D01*
X146461390Y-61977293D01*
X146494875Y-62038616D01*
X146493484Y-62097067D01*
X146467698Y-62193302D01*
X146467696Y-62193313D01*
X146447864Y-62419998D01*
X146447864Y-62420001D01*
X146467696Y-62646686D01*
X146467698Y-62646697D01*
X146526590Y-62866488D01*
X146526593Y-62866497D01*
X146622763Y-63072732D01*
X146622764Y-63072734D01*
X146753286Y-63259141D01*
X146914190Y-63420045D01*
X146914193Y-63420047D01*
X147100598Y-63550568D01*
X147306836Y-63646739D01*
X147526640Y-63705635D01*
X147688562Y-63719801D01*
X147753330Y-63725468D01*
X147753332Y-63725468D01*
X147753334Y-63725468D01*
X147810005Y-63720509D01*
X147980024Y-63705635D01*
X148199828Y-63646739D01*
X148406066Y-63550568D01*
X148592471Y-63420047D01*
X148753379Y-63259139D01*
X148883900Y-63072734D01*
X148980071Y-62866496D01*
X149038967Y-62646692D01*
X149058800Y-62420000D01*
X149038967Y-62193308D01*
X148980071Y-61973504D01*
X148883900Y-61767266D01*
X148753379Y-61580861D01*
X148753377Y-61580858D01*
X148592473Y-61419954D01*
X148406066Y-61289432D01*
X148406064Y-61289431D01*
X148199829Y-61193261D01*
X148199820Y-61193258D01*
X147980029Y-61134366D01*
X147980025Y-61134365D01*
X147980024Y-61134365D01*
X147980023Y-61134364D01*
X147980018Y-61134364D01*
X147753334Y-61114532D01*
X147753330Y-61114532D01*
X147526645Y-61134364D01*
X147526634Y-61134366D01*
X147430399Y-61160152D01*
X147360549Y-61158489D01*
X147310625Y-61128058D01*
X143610697Y-57428130D01*
X143610695Y-57428127D01*
X143491824Y-57309256D01*
X143491823Y-57309255D01*
X143405011Y-57259135D01*
X143405011Y-57259134D01*
X143405007Y-57259133D01*
X143354892Y-57230198D01*
X143202164Y-57189274D01*
X143044050Y-57189274D01*
X143036454Y-57189274D01*
X143036438Y-57189275D01*
X142983358Y-57189275D01*
X142916319Y-57169590D01*
X142881785Y-57136400D01*
X142751713Y-56950636D01*
X142751711Y-56950633D01*
X142594579Y-56793501D01*
X142561094Y-56732178D01*
X142566078Y-56662486D01*
X142607950Y-56606553D01*
X142653744Y-56585143D01*
X142659146Y-56583866D01*
X142659149Y-56583866D01*
X142793997Y-56533571D01*
X142909212Y-56447321D01*
X142995462Y-56332106D01*
X143045757Y-56197258D01*
X143052166Y-56137648D01*
X143052165Y-54441903D01*
X143045757Y-54382292D01*
X143035022Y-54353511D01*
X142995463Y-54247446D01*
X142995459Y-54247439D01*
X142909213Y-54132230D01*
X142909210Y-54132227D01*
X142794001Y-54045981D01*
X142793994Y-54045977D01*
X142659148Y-53995683D01*
X142659149Y-53995683D01*
X142599549Y-53989276D01*
X142599547Y-53989275D01*
X142599539Y-53989275D01*
X142599530Y-53989275D01*
X140903795Y-53989275D01*
X140903789Y-53989276D01*
X140844182Y-53995683D01*
X140709337Y-54045977D01*
X140709330Y-54045981D01*
X140594121Y-54132227D01*
X140594118Y-54132230D01*
X140507872Y-54247439D01*
X140507868Y-54247446D01*
X140457574Y-54382292D01*
X140451370Y-54440000D01*
X140451167Y-54441898D01*
X140451166Y-54441910D01*
X140451166Y-56137645D01*
X140451167Y-56137651D01*
X140457574Y-56197258D01*
X140507868Y-56332103D01*
X140507872Y-56332110D01*
X140594118Y-56447319D01*
X140594121Y-56447322D01*
X140709330Y-56533568D01*
X140709337Y-56533572D01*
X140762593Y-56553435D01*
X140844183Y-56583866D01*
X140844193Y-56583867D01*
X140849579Y-56585140D01*
X140910297Y-56619710D01*
X140942687Y-56681618D01*
X140936465Y-56751210D01*
X140908754Y-56793500D01*
X140751617Y-56950637D01*
X140621098Y-57137040D01*
X140621097Y-57137042D01*
X140524927Y-57343277D01*
X140524924Y-57343286D01*
X140466032Y-57563077D01*
X140466030Y-57563088D01*
X140446198Y-57789773D01*
X131438960Y-57789773D01*
X131399141Y-57749954D01*
X131212734Y-57619432D01*
X131212732Y-57619431D01*
X131006497Y-57523261D01*
X131006488Y-57523258D01*
X130786697Y-57464366D01*
X130786693Y-57464365D01*
X130786692Y-57464365D01*
X130786691Y-57464364D01*
X130786686Y-57464364D01*
X130560002Y-57444532D01*
X130559998Y-57444532D01*
X130333313Y-57464364D01*
X130333302Y-57464366D01*
X130113511Y-57523258D01*
X130113502Y-57523261D01*
X129907267Y-57619431D01*
X129907265Y-57619432D01*
X129720858Y-57749954D01*
X129559954Y-57910858D01*
X129429432Y-58097265D01*
X129429431Y-58097267D01*
X129333261Y-58303502D01*
X129333258Y-58303511D01*
X129274366Y-58523302D01*
X129274364Y-58523313D01*
X129254532Y-58749998D01*
X124245468Y-58749998D01*
X124225635Y-58523308D01*
X124166739Y-58303504D01*
X124070568Y-58097266D01*
X123940047Y-57910861D01*
X123940045Y-57910858D01*
X123779141Y-57749954D01*
X123592734Y-57619432D01*
X123592732Y-57619431D01*
X123386497Y-57523261D01*
X123386488Y-57523258D01*
X123166697Y-57464366D01*
X123166693Y-57464365D01*
X123166692Y-57464365D01*
X123166691Y-57464364D01*
X123166686Y-57464364D01*
X122940002Y-57444532D01*
X122939998Y-57444532D01*
X122713313Y-57464364D01*
X122713302Y-57464366D01*
X122493511Y-57523258D01*
X122493502Y-57523261D01*
X122287267Y-57619431D01*
X122287265Y-57619432D01*
X122100858Y-57749954D01*
X121939954Y-57910858D01*
X121809432Y-58097265D01*
X121809431Y-58097267D01*
X121713261Y-58303502D01*
X121713258Y-58303511D01*
X121654366Y-58523302D01*
X121654364Y-58523313D01*
X121634532Y-58749998D01*
X121250500Y-58749998D01*
X121250500Y-53749999D01*
X121851127Y-53749999D01*
X121851128Y-53750000D01*
X122814314Y-53750000D01*
X122809920Y-53754394D01*
X122757259Y-53845606D01*
X122730000Y-53947339D01*
X122730000Y-54052661D01*
X122757259Y-54154394D01*
X122809920Y-54245606D01*
X122814314Y-54250000D01*
X121851128Y-54250000D01*
X121903730Y-54446317D01*
X121903734Y-54446326D01*
X121999865Y-54652482D01*
X122130342Y-54838820D01*
X122291179Y-54999657D01*
X122477517Y-55130134D01*
X122683673Y-55226265D01*
X122683682Y-55226269D01*
X122879999Y-55278872D01*
X122880000Y-55278871D01*
X122880000Y-54315686D01*
X122884394Y-54320080D01*
X122975606Y-54372741D01*
X123077339Y-54400000D01*
X123182661Y-54400000D01*
X123284394Y-54372741D01*
X123375606Y-54320080D01*
X123380000Y-54315686D01*
X123380000Y-55278872D01*
X123576317Y-55226269D01*
X123576326Y-55226265D01*
X123782482Y-55130134D01*
X123968820Y-54999657D01*
X124129657Y-54838820D01*
X124260134Y-54652482D01*
X124356265Y-54446326D01*
X124356269Y-54446317D01*
X124408872Y-54250000D01*
X123445686Y-54250000D01*
X123450080Y-54245606D01*
X123502741Y-54154394D01*
X123530000Y-54052661D01*
X123530000Y-53999998D01*
X129444532Y-53999998D01*
X129444532Y-54000001D01*
X129464364Y-54226686D01*
X129464366Y-54226697D01*
X129523258Y-54446488D01*
X129523261Y-54446497D01*
X129619431Y-54652732D01*
X129619432Y-54652734D01*
X129749954Y-54839141D01*
X129910858Y-55000045D01*
X129910861Y-55000047D01*
X130097266Y-55130568D01*
X130303504Y-55226739D01*
X130523308Y-55285635D01*
X130685230Y-55299801D01*
X130749998Y-55305468D01*
X130750000Y-55305468D01*
X130750002Y-55305468D01*
X130806673Y-55300509D01*
X130976692Y-55285635D01*
X131196496Y-55226739D01*
X131402734Y-55130568D01*
X131589139Y-55000047D01*
X131750047Y-54839139D01*
X131812464Y-54749998D01*
X134444532Y-54749998D01*
X134444532Y-54750001D01*
X134464364Y-54976686D01*
X134464366Y-54976697D01*
X134523258Y-55196488D01*
X134523261Y-55196497D01*
X134619431Y-55402732D01*
X134619432Y-55402734D01*
X134749954Y-55589141D01*
X134910858Y-55750045D01*
X134910861Y-55750047D01*
X135097266Y-55880568D01*
X135303504Y-55976739D01*
X135523308Y-56035635D01*
X135685230Y-56049801D01*
X135749998Y-56055468D01*
X135750000Y-56055468D01*
X135750002Y-56055468D01*
X135806673Y-56050509D01*
X135976692Y-56035635D01*
X136196496Y-55976739D01*
X136402734Y-55880568D01*
X136589139Y-55750047D01*
X136750047Y-55589139D01*
X136880568Y-55402734D01*
X136976739Y-55196496D01*
X137035635Y-54976692D01*
X137055468Y-54750000D01*
X137035635Y-54523308D01*
X136976739Y-54303504D01*
X136880568Y-54097266D01*
X136750047Y-53910861D01*
X136750045Y-53910858D01*
X136589141Y-53749954D01*
X136402734Y-53619432D01*
X136402732Y-53619431D01*
X136196497Y-53523261D01*
X136196488Y-53523258D01*
X135976697Y-53464366D01*
X135976693Y-53464365D01*
X135976692Y-53464365D01*
X135976691Y-53464364D01*
X135976686Y-53464364D01*
X135750002Y-53444532D01*
X135749998Y-53444532D01*
X135523313Y-53464364D01*
X135523302Y-53464366D01*
X135303511Y-53523258D01*
X135303502Y-53523261D01*
X135097267Y-53619431D01*
X135097265Y-53619432D01*
X134910858Y-53749954D01*
X134749954Y-53910858D01*
X134619432Y-54097265D01*
X134619431Y-54097267D01*
X134523261Y-54303502D01*
X134523258Y-54303511D01*
X134464366Y-54523302D01*
X134464364Y-54523313D01*
X134444532Y-54749998D01*
X131812464Y-54749998D01*
X131880568Y-54652734D01*
X131976739Y-54446496D01*
X132035635Y-54226692D01*
X132055468Y-54000000D01*
X132055090Y-53995684D01*
X132035635Y-53773313D01*
X132035635Y-53773308D01*
X131982032Y-53573258D01*
X131976741Y-53553511D01*
X131976738Y-53553502D01*
X131962635Y-53523258D01*
X131880568Y-53347266D01*
X131750047Y-53160861D01*
X131750045Y-53160858D01*
X131589141Y-52999954D01*
X131402734Y-52869432D01*
X131402732Y-52869431D01*
X131196497Y-52773261D01*
X131196488Y-52773258D01*
X130976697Y-52714366D01*
X130976693Y-52714365D01*
X130976692Y-52714365D01*
X130976691Y-52714364D01*
X130976686Y-52714364D01*
X130750002Y-52694532D01*
X130749998Y-52694532D01*
X130523313Y-52714364D01*
X130523302Y-52714366D01*
X130303511Y-52773258D01*
X130303502Y-52773261D01*
X130097267Y-52869431D01*
X130097265Y-52869432D01*
X129910858Y-52999954D01*
X129749954Y-53160858D01*
X129619432Y-53347265D01*
X129619431Y-53347267D01*
X129523261Y-53553502D01*
X129523258Y-53553511D01*
X129464366Y-53773302D01*
X129464364Y-53773313D01*
X129444532Y-53999998D01*
X123530000Y-53999998D01*
X123530000Y-53947339D01*
X123502741Y-53845606D01*
X123450080Y-53754394D01*
X123445686Y-53750000D01*
X124408872Y-53750000D01*
X124408872Y-53749999D01*
X124356269Y-53553682D01*
X124356265Y-53553673D01*
X124260134Y-53347517D01*
X124129657Y-53161179D01*
X123968820Y-53000342D01*
X123782482Y-52869865D01*
X123576328Y-52773734D01*
X123380000Y-52721127D01*
X123380000Y-53684314D01*
X123375606Y-53679920D01*
X123284394Y-53627259D01*
X123182661Y-53600000D01*
X123077339Y-53600000D01*
X122975606Y-53627259D01*
X122884394Y-53679920D01*
X122880000Y-53684314D01*
X122880000Y-52721127D01*
X122683671Y-52773734D01*
X122477517Y-52869865D01*
X122291179Y-53000342D01*
X122130342Y-53161179D01*
X121999865Y-53347517D01*
X121903734Y-53553673D01*
X121903730Y-53553682D01*
X121851127Y-53749999D01*
X121250500Y-53749999D01*
X121250500Y-50499998D01*
X152884532Y-50499998D01*
X152884532Y-50500001D01*
X152904364Y-50726686D01*
X152904366Y-50726697D01*
X152963258Y-50946488D01*
X152963261Y-50946497D01*
X153059431Y-51152732D01*
X153059432Y-51152734D01*
X153189954Y-51339141D01*
X153350858Y-51500045D01*
X153350861Y-51500047D01*
X153537266Y-51630568D01*
X153743504Y-51726739D01*
X153963308Y-51785635D01*
X154125230Y-51799801D01*
X154189998Y-51805468D01*
X154190000Y-51805468D01*
X154190002Y-51805468D01*
X154246673Y-51800509D01*
X154416692Y-51785635D01*
X154636496Y-51726739D01*
X154842734Y-51630568D01*
X155029139Y-51500047D01*
X155190047Y-51339139D01*
X155320568Y-51152734D01*
X155416739Y-50946496D01*
X155475635Y-50726692D01*
X155495468Y-50500000D01*
X155495468Y-50499998D01*
X160504532Y-50499998D01*
X160504532Y-50500001D01*
X160524364Y-50726686D01*
X160524366Y-50726697D01*
X160583258Y-50946488D01*
X160583261Y-50946497D01*
X160679431Y-51152732D01*
X160679432Y-51152734D01*
X160809954Y-51339141D01*
X160970858Y-51500045D01*
X160970861Y-51500047D01*
X161157266Y-51630568D01*
X161363504Y-51726739D01*
X161583308Y-51785635D01*
X161745230Y-51799801D01*
X161809998Y-51805468D01*
X161810000Y-51805468D01*
X161810002Y-51805468D01*
X161866673Y-51800509D01*
X162036692Y-51785635D01*
X162256496Y-51726739D01*
X162462734Y-51630568D01*
X162649139Y-51500047D01*
X162810047Y-51339139D01*
X162940568Y-51152734D01*
X163036739Y-50946496D01*
X163095635Y-50726692D01*
X163115468Y-50500000D01*
X163095635Y-50273308D01*
X163036739Y-50053504D01*
X162940568Y-49847266D01*
X162810047Y-49660861D01*
X162810045Y-49660858D01*
X162649141Y-49499954D01*
X162462734Y-49369432D01*
X162462732Y-49369431D01*
X162256497Y-49273261D01*
X162256488Y-49273258D01*
X162036697Y-49214366D01*
X162036693Y-49214365D01*
X162036692Y-49214365D01*
X162036691Y-49214364D01*
X162036686Y-49214364D01*
X161810002Y-49194532D01*
X161809998Y-49194532D01*
X161583313Y-49214364D01*
X161583302Y-49214366D01*
X161363511Y-49273258D01*
X161363502Y-49273261D01*
X161157267Y-49369431D01*
X161157265Y-49369432D01*
X160970858Y-49499954D01*
X160809954Y-49660858D01*
X160679432Y-49847265D01*
X160679431Y-49847267D01*
X160583261Y-50053502D01*
X160583258Y-50053511D01*
X160524366Y-50273302D01*
X160524364Y-50273313D01*
X160504532Y-50499998D01*
X155495468Y-50499998D01*
X155475635Y-50273308D01*
X155416739Y-50053504D01*
X155320568Y-49847266D01*
X155190047Y-49660861D01*
X155190045Y-49660858D01*
X155029140Y-49499953D01*
X154843377Y-49369881D01*
X154799752Y-49315304D01*
X154790500Y-49268306D01*
X154790500Y-47309999D01*
X160721127Y-47309999D01*
X160721128Y-47310000D01*
X161684314Y-47310000D01*
X161679920Y-47314394D01*
X161627259Y-47405606D01*
X161600000Y-47507339D01*
X161600000Y-47612661D01*
X161627259Y-47714394D01*
X161679920Y-47805606D01*
X161684314Y-47810000D01*
X160721128Y-47810000D01*
X160773730Y-48006317D01*
X160773734Y-48006326D01*
X160869865Y-48212482D01*
X161000342Y-48398820D01*
X161161179Y-48559657D01*
X161347517Y-48690134D01*
X161553673Y-48786265D01*
X161553682Y-48786269D01*
X161749999Y-48838872D01*
X161750000Y-48838871D01*
X161750000Y-47875686D01*
X161754394Y-47880080D01*
X161845606Y-47932741D01*
X161947339Y-47960000D01*
X162052661Y-47960000D01*
X162154394Y-47932741D01*
X162245606Y-47880080D01*
X162250000Y-47875686D01*
X162250000Y-48838872D01*
X162446317Y-48786269D01*
X162446326Y-48786265D01*
X162652482Y-48690134D01*
X162838820Y-48559657D01*
X162999657Y-48398820D01*
X163130134Y-48212482D01*
X163226265Y-48006326D01*
X163226269Y-48006317D01*
X163278872Y-47810000D01*
X162315686Y-47810000D01*
X162320080Y-47805606D01*
X162372741Y-47714394D01*
X162400000Y-47612661D01*
X162400000Y-47507339D01*
X162372741Y-47405606D01*
X162320080Y-47314394D01*
X162315686Y-47310000D01*
X163278872Y-47310000D01*
X163278872Y-47309999D01*
X163226269Y-47113682D01*
X163226265Y-47113673D01*
X163130134Y-46907517D01*
X162999657Y-46721179D01*
X162838820Y-46560342D01*
X162652482Y-46429865D01*
X162446328Y-46333734D01*
X162250000Y-46281127D01*
X162250000Y-47244314D01*
X162245606Y-47239920D01*
X162154394Y-47187259D01*
X162052661Y-47160000D01*
X161947339Y-47160000D01*
X161845606Y-47187259D01*
X161754394Y-47239920D01*
X161750000Y-47244314D01*
X161750000Y-46281127D01*
X161553671Y-46333734D01*
X161347517Y-46429865D01*
X161161179Y-46560342D01*
X161000342Y-46721179D01*
X160869865Y-46907517D01*
X160773734Y-47113673D01*
X160773730Y-47113682D01*
X160721127Y-47309999D01*
X154790500Y-47309999D01*
X154790500Y-39939998D01*
X160694532Y-39939998D01*
X160694532Y-39940001D01*
X160714364Y-40166686D01*
X160714366Y-40166697D01*
X160773258Y-40386488D01*
X160773261Y-40386497D01*
X160869431Y-40592732D01*
X160869432Y-40592734D01*
X160999954Y-40779141D01*
X161160858Y-40940045D01*
X161160861Y-40940047D01*
X161347266Y-41070568D01*
X161553504Y-41166739D01*
X161773308Y-41225635D01*
X161935230Y-41239801D01*
X161999998Y-41245468D01*
X162000000Y-41245468D01*
X162000002Y-41245468D01*
X162056673Y-41240509D01*
X162226692Y-41225635D01*
X162446496Y-41166739D01*
X162652734Y-41070568D01*
X162839139Y-40940047D01*
X163000047Y-40779139D01*
X163130568Y-40592734D01*
X163226739Y-40386496D01*
X163285635Y-40166692D01*
X163305468Y-39940000D01*
X163285635Y-39713308D01*
X163226739Y-39493504D01*
X163130568Y-39287266D01*
X163000047Y-39100861D01*
X163000045Y-39100858D01*
X162839141Y-38939954D01*
X162652734Y-38809432D01*
X162652732Y-38809431D01*
X162446497Y-38713261D01*
X162446488Y-38713258D01*
X162226697Y-38654366D01*
X162226693Y-38654365D01*
X162226692Y-38654365D01*
X162226691Y-38654364D01*
X162226686Y-38654364D01*
X162000002Y-38634532D01*
X161999998Y-38634532D01*
X161773313Y-38654364D01*
X161773302Y-38654366D01*
X161553511Y-38713258D01*
X161553502Y-38713261D01*
X161347267Y-38809431D01*
X161347265Y-38809432D01*
X161160858Y-38939954D01*
X160999954Y-39100858D01*
X160869432Y-39287265D01*
X160869431Y-39287267D01*
X160773261Y-39493502D01*
X160773258Y-39493511D01*
X160714366Y-39713302D01*
X160714364Y-39713313D01*
X160694532Y-39939998D01*
X154790500Y-39939998D01*
X154790500Y-38565208D01*
X154810185Y-38498169D01*
X154826815Y-38477531D01*
X155012406Y-38291939D01*
X155073727Y-38258456D01*
X155132178Y-38259847D01*
X155151716Y-38265082D01*
X155228420Y-38285635D01*
X155390342Y-38299801D01*
X155455110Y-38305468D01*
X155455112Y-38305468D01*
X155455114Y-38305468D01*
X155511919Y-38300498D01*
X155681804Y-38285635D01*
X155901608Y-38226739D01*
X156107846Y-38130568D01*
X156294251Y-38000047D01*
X156451386Y-37842911D01*
X156512708Y-37809428D01*
X156582399Y-37814412D01*
X156638333Y-37856283D01*
X156659741Y-37902070D01*
X156661020Y-37907480D01*
X156711314Y-38042328D01*
X156711318Y-38042335D01*
X156797564Y-38157544D01*
X156797567Y-38157547D01*
X156912776Y-38243793D01*
X156912783Y-38243797D01*
X157047629Y-38294091D01*
X157047628Y-38294091D01*
X157054556Y-38294835D01*
X157107239Y-38300500D01*
X158802984Y-38300499D01*
X158862595Y-38294091D01*
X158997443Y-38243796D01*
X159112658Y-38157546D01*
X159198908Y-38042331D01*
X159249203Y-37907483D01*
X159255612Y-37847873D01*
X159255611Y-36152128D01*
X159249203Y-36092517D01*
X159234651Y-36053502D01*
X159198909Y-35957671D01*
X159198905Y-35957664D01*
X159112659Y-35842455D01*
X159112656Y-35842452D01*
X158997447Y-35756206D01*
X158997440Y-35756202D01*
X158862594Y-35705908D01*
X158862595Y-35705908D01*
X158802995Y-35699501D01*
X158802993Y-35699500D01*
X158802985Y-35699500D01*
X158802976Y-35699500D01*
X157107241Y-35699500D01*
X157107235Y-35699501D01*
X157047628Y-35705908D01*
X156912783Y-35756202D01*
X156912776Y-35756206D01*
X156797567Y-35842452D01*
X156797564Y-35842455D01*
X156711318Y-35957664D01*
X156711314Y-35957671D01*
X156661021Y-36092513D01*
X156659744Y-36097922D01*
X156625170Y-36158638D01*
X156563259Y-36191023D01*
X156493668Y-36184796D01*
X156451386Y-36157087D01*
X156294253Y-35999954D01*
X156107846Y-35869432D01*
X156107844Y-35869431D01*
X155901609Y-35773261D01*
X155901600Y-35773258D01*
X155681809Y-35714366D01*
X155681805Y-35714365D01*
X155681804Y-35714365D01*
X155681803Y-35714364D01*
X155681798Y-35714364D01*
X155455114Y-35694532D01*
X155455110Y-35694532D01*
X155228425Y-35714364D01*
X155228414Y-35714366D01*
X155008623Y-35773258D01*
X155008614Y-35773261D01*
X154802379Y-35869431D01*
X154802377Y-35869432D01*
X154615970Y-35999954D01*
X154455066Y-36160858D01*
X154324544Y-36347265D01*
X154324543Y-36347267D01*
X154228373Y-36553502D01*
X154228370Y-36553511D01*
X154169478Y-36773302D01*
X154169476Y-36773313D01*
X154149644Y-36999998D01*
X154149644Y-37000001D01*
X154169476Y-37226686D01*
X154169478Y-37226697D01*
X154195264Y-37322931D01*
X154193601Y-37392781D01*
X154163170Y-37442705D01*
X153821286Y-37784590D01*
X153709481Y-37896394D01*
X153709479Y-37896397D01*
X153659361Y-37983206D01*
X153659359Y-37983208D01*
X153630425Y-38033321D01*
X153630424Y-38033322D01*
X153630423Y-38033327D01*
X153589499Y-38186055D01*
X153589499Y-38186057D01*
X153589499Y-38354158D01*
X153589500Y-38354171D01*
X153589500Y-49268306D01*
X153569815Y-49335345D01*
X153536623Y-49369881D01*
X153350859Y-49499953D01*
X153189954Y-49660858D01*
X153059432Y-49847265D01*
X153059431Y-49847267D01*
X152963261Y-50053502D01*
X152963258Y-50053511D01*
X152904366Y-50273302D01*
X152904364Y-50273313D01*
X152884532Y-50499998D01*
X121250500Y-50499998D01*
X121250500Y-43749999D01*
X122161127Y-43749999D01*
X122161128Y-43750000D01*
X123124314Y-43750000D01*
X123119920Y-43754394D01*
X123067259Y-43845606D01*
X123040000Y-43947339D01*
X123040000Y-44052661D01*
X123067259Y-44154394D01*
X123119920Y-44245606D01*
X123124314Y-44250000D01*
X122161128Y-44250000D01*
X122213730Y-44446317D01*
X122213734Y-44446326D01*
X122309865Y-44652482D01*
X122440342Y-44838820D01*
X122601179Y-44999657D01*
X122787517Y-45130134D01*
X122993673Y-45226265D01*
X122993682Y-45226269D01*
X123189999Y-45278872D01*
X123190000Y-45278871D01*
X123190000Y-44315686D01*
X123194394Y-44320080D01*
X123285606Y-44372741D01*
X123387339Y-44400000D01*
X123492661Y-44400000D01*
X123594394Y-44372741D01*
X123685606Y-44320080D01*
X123690000Y-44315686D01*
X123690000Y-45278872D01*
X123886317Y-45226269D01*
X123886326Y-45226265D01*
X124092482Y-45130134D01*
X124278820Y-44999657D01*
X124439657Y-44838820D01*
X124570134Y-44652482D01*
X124666265Y-44446326D01*
X124666269Y-44446317D01*
X124718872Y-44250000D01*
X123755686Y-44250000D01*
X123760080Y-44245606D01*
X123812741Y-44154394D01*
X123840000Y-44052661D01*
X123840000Y-43999998D01*
X129754532Y-43999998D01*
X129754532Y-44000001D01*
X129774364Y-44226686D01*
X129774366Y-44226697D01*
X129833258Y-44446488D01*
X129833261Y-44446497D01*
X129929431Y-44652732D01*
X129929432Y-44652734D01*
X130059954Y-44839141D01*
X130220858Y-45000045D01*
X130220861Y-45000047D01*
X130407266Y-45130568D01*
X130613504Y-45226739D01*
X130833308Y-45285635D01*
X130995230Y-45299801D01*
X131059998Y-45305468D01*
X131060000Y-45305468D01*
X131060002Y-45305468D01*
X131116673Y-45300509D01*
X131286692Y-45285635D01*
X131506496Y-45226739D01*
X131712734Y-45130568D01*
X131899139Y-45000047D01*
X132060047Y-44839139D01*
X132190568Y-44652734D01*
X132286739Y-44446496D01*
X132345635Y-44226692D01*
X132365468Y-44000000D01*
X132345635Y-43773308D01*
X132286739Y-43553504D01*
X132190568Y-43347266D01*
X132060047Y-43160861D01*
X132060045Y-43160858D01*
X131899141Y-42999954D01*
X131712734Y-42869432D01*
X131712732Y-42869431D01*
X131506497Y-42773261D01*
X131506488Y-42773258D01*
X131286697Y-42714366D01*
X131286693Y-42714365D01*
X131286692Y-42714365D01*
X131286691Y-42714364D01*
X131286686Y-42714364D01*
X131060002Y-42694532D01*
X131059998Y-42694532D01*
X130833313Y-42714364D01*
X130833302Y-42714366D01*
X130613511Y-42773258D01*
X130613502Y-42773261D01*
X130407267Y-42869431D01*
X130407265Y-42869432D01*
X130220858Y-42999954D01*
X130059954Y-43160858D01*
X129929432Y-43347265D01*
X129929431Y-43347267D01*
X129833261Y-43553502D01*
X129833258Y-43553511D01*
X129774366Y-43773302D01*
X129774364Y-43773313D01*
X129754532Y-43999998D01*
X123840000Y-43999998D01*
X123840000Y-43947339D01*
X123812741Y-43845606D01*
X123760080Y-43754394D01*
X123755686Y-43750000D01*
X124718872Y-43750000D01*
X124718872Y-43749999D01*
X124666269Y-43553682D01*
X124666265Y-43553673D01*
X124570134Y-43347517D01*
X124439657Y-43161179D01*
X124278820Y-43000342D01*
X124092482Y-42869865D01*
X123886328Y-42773734D01*
X123690000Y-42721127D01*
X123690000Y-43684314D01*
X123685606Y-43679920D01*
X123594394Y-43627259D01*
X123492661Y-43600000D01*
X123387339Y-43600000D01*
X123285606Y-43627259D01*
X123194394Y-43679920D01*
X123190000Y-43684314D01*
X123190000Y-42721127D01*
X122993671Y-42773734D01*
X122787517Y-42869865D01*
X122601179Y-43000342D01*
X122440342Y-43161179D01*
X122309865Y-43347517D01*
X122213734Y-43553673D01*
X122213730Y-43553682D01*
X122161127Y-43749999D01*
X121250500Y-43749999D01*
X121250500Y-35652135D01*
X126994388Y-35652135D01*
X126994388Y-37347870D01*
X126994389Y-37347876D01*
X127000796Y-37407483D01*
X127051090Y-37542328D01*
X127051094Y-37542335D01*
X127137340Y-37657544D01*
X127137343Y-37657547D01*
X127252552Y-37743793D01*
X127252559Y-37743797D01*
X127387405Y-37794091D01*
X127387404Y-37794091D01*
X127394332Y-37794835D01*
X127447015Y-37800500D01*
X129142760Y-37800499D01*
X129202371Y-37794091D01*
X129337219Y-37743796D01*
X129452434Y-37657546D01*
X129538684Y-37542331D01*
X129588979Y-37407483D01*
X129588980Y-37407472D01*
X129590253Y-37402088D01*
X129624821Y-37341369D01*
X129686729Y-37308978D01*
X129756321Y-37315199D01*
X129798613Y-37342912D01*
X129955746Y-37500045D01*
X129955749Y-37500047D01*
X130142154Y-37630568D01*
X130348392Y-37726739D01*
X130568196Y-37785635D01*
X130730118Y-37799801D01*
X130794886Y-37805468D01*
X130794888Y-37805468D01*
X130794890Y-37805468D01*
X130851695Y-37800498D01*
X131021580Y-37785635D01*
X131241384Y-37726739D01*
X131447622Y-37630568D01*
X131634027Y-37500047D01*
X131794935Y-37339139D01*
X131925456Y-37152734D01*
X132021627Y-36946496D01*
X132080523Y-36726692D01*
X132100356Y-36500000D01*
X132099926Y-36495090D01*
X132094689Y-36435230D01*
X132080523Y-36273308D01*
X132021627Y-36053504D01*
X131925456Y-35847266D01*
X131821990Y-35699500D01*
X131794933Y-35660858D01*
X131634029Y-35499954D01*
X131447622Y-35369432D01*
X131447620Y-35369431D01*
X131241385Y-35273261D01*
X131241376Y-35273258D01*
X131021585Y-35214366D01*
X131021581Y-35214365D01*
X131021580Y-35214365D01*
X131021579Y-35214364D01*
X131021574Y-35214364D01*
X130794890Y-35194532D01*
X130794886Y-35194532D01*
X130568201Y-35214364D01*
X130568190Y-35214366D01*
X130348399Y-35273258D01*
X130348390Y-35273261D01*
X130142155Y-35369431D01*
X130142153Y-35369432D01*
X129955750Y-35499951D01*
X129798614Y-35657087D01*
X129737291Y-35690571D01*
X129667599Y-35685587D01*
X129611666Y-35643715D01*
X129590257Y-35597923D01*
X129588979Y-35592518D01*
X129538685Y-35457671D01*
X129538681Y-35457664D01*
X129452435Y-35342455D01*
X129452432Y-35342452D01*
X129337223Y-35256206D01*
X129337216Y-35256202D01*
X129202370Y-35205908D01*
X129202371Y-35205908D01*
X129142771Y-35199501D01*
X129142769Y-35199500D01*
X129142761Y-35199500D01*
X129142752Y-35199500D01*
X127447017Y-35199500D01*
X127447011Y-35199501D01*
X127387404Y-35205908D01*
X127252559Y-35256202D01*
X127252552Y-35256206D01*
X127137343Y-35342452D01*
X127137340Y-35342455D01*
X127051094Y-35457664D01*
X127051090Y-35457671D01*
X127000796Y-35592517D01*
X126994389Y-35652116D01*
X126994388Y-35652135D01*
X121250500Y-35652135D01*
X121250500Y-29952135D01*
X135999500Y-29952135D01*
X135999500Y-33047870D01*
X135999501Y-33047876D01*
X136005908Y-33107483D01*
X136056202Y-33242328D01*
X136056206Y-33242335D01*
X136142452Y-33357544D01*
X136142455Y-33357547D01*
X136257664Y-33443793D01*
X136257671Y-33443797D01*
X136392517Y-33494091D01*
X136392516Y-33494091D01*
X136399444Y-33494835D01*
X136452127Y-33500500D01*
X139547872Y-33500499D01*
X139607483Y-33494091D01*
X139742331Y-33443796D01*
X139857546Y-33357546D01*
X139943796Y-33242331D01*
X139994091Y-33107483D01*
X140000500Y-33047873D01*
X140000499Y-31499998D01*
X140994390Y-31499998D01*
X140994390Y-31500001D01*
X141014804Y-31785433D01*
X141075628Y-32065037D01*
X141075630Y-32065043D01*
X141075631Y-32065046D01*
X141175557Y-32332958D01*
X141175635Y-32333166D01*
X141312770Y-32584309D01*
X141312775Y-32584317D01*
X141484254Y-32813387D01*
X141484270Y-32813405D01*
X141686594Y-33015729D01*
X141686612Y-33015745D01*
X141915682Y-33187224D01*
X141915690Y-33187229D01*
X142166833Y-33324364D01*
X142166832Y-33324364D01*
X142166836Y-33324365D01*
X142166839Y-33324367D01*
X142434954Y-33424369D01*
X142434960Y-33424370D01*
X142434962Y-33424371D01*
X142714566Y-33485195D01*
X142714568Y-33485195D01*
X142714572Y-33485196D01*
X142968220Y-33503337D01*
X142999999Y-33505610D01*
X143000000Y-33505610D01*
X143000001Y-33505610D01*
X143028595Y-33503564D01*
X143285428Y-33485196D01*
X143475742Y-33443796D01*
X143565037Y-33424371D01*
X143565037Y-33424370D01*
X143565046Y-33424369D01*
X143833161Y-33324367D01*
X144084315Y-33187226D01*
X144313395Y-33015739D01*
X144515739Y-32813395D01*
X144687226Y-32584315D01*
X144824367Y-32333161D01*
X144924369Y-32065046D01*
X144985196Y-31785428D01*
X145005610Y-31500000D01*
X145005610Y-31499998D01*
X145994891Y-31499998D01*
X145994891Y-31500001D01*
X146015300Y-31785362D01*
X146076109Y-32064895D01*
X146176091Y-32332958D01*
X146313191Y-32584038D01*
X146313196Y-32584046D01*
X146419882Y-32726562D01*
X146419883Y-32726563D01*
X147435387Y-31711059D01*
X147440889Y-31731591D01*
X147519881Y-31868408D01*
X147631592Y-31980119D01*
X147768409Y-32059111D01*
X147788940Y-32064612D01*
X146773435Y-33080115D01*
X146773436Y-33080116D01*
X146915953Y-33186803D01*
X146915961Y-33186808D01*
X147167042Y-33323908D01*
X147167041Y-33323908D01*
X147435104Y-33423890D01*
X147714637Y-33484699D01*
X147999999Y-33505109D01*
X148000001Y-33505109D01*
X148285362Y-33484699D01*
X148564895Y-33423890D01*
X148832958Y-33323908D01*
X149084038Y-33186808D01*
X149084039Y-33186807D01*
X149226563Y-33080115D01*
X148211059Y-32064612D01*
X148231591Y-32059111D01*
X148368408Y-31980119D01*
X148480119Y-31868408D01*
X148559111Y-31731591D01*
X148564612Y-31711059D01*
X149580115Y-32726563D01*
X149686807Y-32584039D01*
X149686808Y-32584038D01*
X149823908Y-32332958D01*
X149923890Y-32064895D01*
X149984699Y-31785362D01*
X150005109Y-31500001D01*
X150005109Y-31499998D01*
X149984699Y-31214637D01*
X149923890Y-30935104D01*
X149823908Y-30667041D01*
X149686808Y-30415961D01*
X149686803Y-30415953D01*
X149580116Y-30273436D01*
X149580115Y-30273435D01*
X148564612Y-31288939D01*
X148559111Y-31268409D01*
X148480119Y-31131592D01*
X148368408Y-31019881D01*
X148231591Y-30940889D01*
X148211058Y-30935387D01*
X149226563Y-29919883D01*
X149226562Y-29919882D01*
X149084046Y-29813196D01*
X149084038Y-29813191D01*
X148832957Y-29676091D01*
X148832958Y-29676091D01*
X148564895Y-29576109D01*
X148285362Y-29515300D01*
X148000001Y-29494891D01*
X147999999Y-29494891D01*
X147714637Y-29515300D01*
X147435104Y-29576109D01*
X147167041Y-29676091D01*
X146915961Y-29813191D01*
X146915953Y-29813196D01*
X146773435Y-29919882D01*
X147788941Y-30935387D01*
X147768409Y-30940889D01*
X147631592Y-31019881D01*
X147519881Y-31131592D01*
X147440889Y-31268409D01*
X147435387Y-31288940D01*
X146419882Y-30273435D01*
X146313196Y-30415953D01*
X146313191Y-30415961D01*
X146176091Y-30667041D01*
X146076109Y-30935104D01*
X146015300Y-31214637D01*
X145994891Y-31499998D01*
X145005610Y-31499998D01*
X144985196Y-31214572D01*
X144924369Y-30934954D01*
X144824367Y-30666839D01*
X144687372Y-30415953D01*
X144687229Y-30415690D01*
X144687224Y-30415682D01*
X144515745Y-30186612D01*
X144515729Y-30186594D01*
X144313405Y-29984270D01*
X144313387Y-29984254D01*
X144084317Y-29812775D01*
X144084309Y-29812770D01*
X143833166Y-29675635D01*
X143833167Y-29675635D01*
X143725915Y-29635632D01*
X143565046Y-29575631D01*
X143565043Y-29575630D01*
X143565037Y-29575628D01*
X143285433Y-29514804D01*
X143000001Y-29494390D01*
X142999999Y-29494390D01*
X142714566Y-29514804D01*
X142434962Y-29575628D01*
X142166833Y-29675635D01*
X141915690Y-29812770D01*
X141915682Y-29812775D01*
X141686612Y-29984254D01*
X141686594Y-29984270D01*
X141484270Y-30186594D01*
X141484254Y-30186612D01*
X141312775Y-30415682D01*
X141312770Y-30415690D01*
X141175635Y-30666833D01*
X141075628Y-30934962D01*
X141014804Y-31214566D01*
X140994390Y-31499998D01*
X140000499Y-31499998D01*
X140000499Y-29952128D01*
X139994091Y-29892517D01*
X139964506Y-29813196D01*
X139943797Y-29757671D01*
X139943793Y-29757664D01*
X139857547Y-29642455D01*
X139857544Y-29642452D01*
X139742335Y-29556206D01*
X139742328Y-29556202D01*
X139607482Y-29505908D01*
X139607483Y-29505908D01*
X139547883Y-29499501D01*
X139547881Y-29499500D01*
X139547873Y-29499500D01*
X139547864Y-29499500D01*
X136452129Y-29499500D01*
X136452123Y-29499501D01*
X136392516Y-29505908D01*
X136257671Y-29556202D01*
X136257664Y-29556206D01*
X136142455Y-29642452D01*
X136142452Y-29642455D01*
X136056206Y-29757664D01*
X136056202Y-29757671D01*
X136005908Y-29892517D01*
X135999501Y-29952116D01*
X135999501Y-29952123D01*
X135999500Y-29952135D01*
X121250500Y-29952135D01*
X121250500Y-27856797D01*
X121270185Y-27789758D01*
X121322989Y-27744003D01*
X121392147Y-27734059D01*
X121455703Y-27763084D01*
X121492431Y-27818479D01*
X121514125Y-27885247D01*
X121514127Y-27885252D01*
X121642704Y-28158491D01*
X121642707Y-28158497D01*
X121804516Y-28413469D01*
X121885311Y-28511133D01*
X122813708Y-27582736D01*
X122910967Y-27716602D01*
X123033398Y-27839033D01*
X123167262Y-27936290D01*
X122236564Y-28866987D01*
X122236565Y-28866989D01*
X122461461Y-29030385D01*
X122461479Y-29030397D01*
X122726109Y-29175878D01*
X122726117Y-29175882D01*
X123006889Y-29287047D01*
X123006892Y-29287048D01*
X123299399Y-29362150D01*
X123598995Y-29399999D01*
X123599007Y-29400000D01*
X123900993Y-29400000D01*
X123901004Y-29399999D01*
X124200600Y-29362150D01*
X124493107Y-29287048D01*
X124493110Y-29287047D01*
X124773882Y-29175882D01*
X124773890Y-29175878D01*
X125038520Y-29030397D01*
X125038530Y-29030390D01*
X125263433Y-28866987D01*
X125263434Y-28866987D01*
X124332737Y-27936290D01*
X124466602Y-27839033D01*
X124589033Y-27716602D01*
X124686290Y-27582737D01*
X125614687Y-28511134D01*
X125695486Y-28413464D01*
X125857292Y-28158497D01*
X125857295Y-28158491D01*
X125985872Y-27885252D01*
X125985874Y-27885247D01*
X126079194Y-27598040D01*
X126135783Y-27301390D01*
X126135784Y-27301383D01*
X126154745Y-27000005D01*
X126154745Y-26999994D01*
X159845255Y-26999994D01*
X159845255Y-27000005D01*
X159864215Y-27301383D01*
X159864216Y-27301390D01*
X159920805Y-27598040D01*
X160014125Y-27885247D01*
X160014127Y-27885252D01*
X160142704Y-28158491D01*
X160142707Y-28158497D01*
X160304516Y-28413469D01*
X160385311Y-28511133D01*
X161313708Y-27582736D01*
X161410967Y-27716602D01*
X161533398Y-27839033D01*
X161667262Y-27936290D01*
X160736564Y-28866987D01*
X160736565Y-28866989D01*
X160961461Y-29030385D01*
X160961479Y-29030397D01*
X161226109Y-29175878D01*
X161226117Y-29175882D01*
X161506889Y-29287047D01*
X161506892Y-29287048D01*
X161799399Y-29362150D01*
X162098995Y-29399999D01*
X162099007Y-29400000D01*
X162400993Y-29400000D01*
X162401004Y-29399999D01*
X162700600Y-29362150D01*
X162993107Y-29287048D01*
X162993110Y-29287047D01*
X163273882Y-29175882D01*
X163273890Y-29175878D01*
X163538520Y-29030397D01*
X163538530Y-29030390D01*
X163763433Y-28866987D01*
X163763434Y-28866987D01*
X162832737Y-27936290D01*
X162966602Y-27839033D01*
X163089033Y-27716602D01*
X163186290Y-27582737D01*
X164114687Y-28511134D01*
X164195486Y-28413464D01*
X164357292Y-28158497D01*
X164357295Y-28158491D01*
X164485872Y-27885252D01*
X164485874Y-27885247D01*
X164579194Y-27598040D01*
X164635783Y-27301390D01*
X164635784Y-27301383D01*
X164654745Y-27000005D01*
X164654745Y-26999994D01*
X164635784Y-26698616D01*
X164635783Y-26698609D01*
X164579194Y-26401959D01*
X164485874Y-26114752D01*
X164485872Y-26114747D01*
X164357295Y-25841508D01*
X164357292Y-25841502D01*
X164195483Y-25586530D01*
X164114686Y-25488864D01*
X163186289Y-26417261D01*
X163089033Y-26283398D01*
X162966602Y-26160967D01*
X162832736Y-26063709D01*
X163763434Y-25133011D01*
X163763433Y-25133009D01*
X163538538Y-24969614D01*
X163538520Y-24969602D01*
X163273890Y-24824121D01*
X163273882Y-24824117D01*
X162993110Y-24712952D01*
X162993107Y-24712951D01*
X162700600Y-24637849D01*
X162401004Y-24600000D01*
X162098995Y-24600000D01*
X161799399Y-24637849D01*
X161506892Y-24712951D01*
X161506889Y-24712952D01*
X161226117Y-24824117D01*
X161226109Y-24824121D01*
X160961476Y-24969604D01*
X160961471Y-24969607D01*
X160736565Y-25133010D01*
X160736564Y-25133011D01*
X161667262Y-26063709D01*
X161533398Y-26160967D01*
X161410967Y-26283398D01*
X161313709Y-26417262D01*
X160385311Y-25488864D01*
X160304520Y-25586525D01*
X160304518Y-25586528D01*
X160142707Y-25841502D01*
X160142704Y-25841508D01*
X160014127Y-26114747D01*
X160014125Y-26114752D01*
X159920805Y-26401959D01*
X159864216Y-26698609D01*
X159864215Y-26698616D01*
X159845255Y-26999994D01*
X126154745Y-26999994D01*
X126135784Y-26698616D01*
X126135783Y-26698609D01*
X126079194Y-26401959D01*
X125985874Y-26114752D01*
X125985872Y-26114747D01*
X125857295Y-25841508D01*
X125857292Y-25841502D01*
X125695483Y-25586530D01*
X125614686Y-25488864D01*
X124686289Y-26417261D01*
X124589033Y-26283398D01*
X124466602Y-26160967D01*
X124332736Y-26063709D01*
X125263434Y-25133011D01*
X125263433Y-25133009D01*
X125038538Y-24969614D01*
X125038520Y-24969602D01*
X124773890Y-24824121D01*
X124773882Y-24824117D01*
X124493110Y-24712952D01*
X124493107Y-24712951D01*
X124200600Y-24637849D01*
X123901004Y-24600000D01*
X123598995Y-24600000D01*
X123299399Y-24637849D01*
X123006892Y-24712951D01*
X123006889Y-24712952D01*
X122726117Y-24824117D01*
X122726109Y-24824121D01*
X122461476Y-24969604D01*
X122461471Y-24969607D01*
X122236565Y-25133010D01*
X122236564Y-25133011D01*
X123167262Y-26063709D01*
X123033398Y-26160967D01*
X122910967Y-26283398D01*
X122813709Y-26417262D01*
X121885311Y-25488864D01*
X121804520Y-25586525D01*
X121804518Y-25586528D01*
X121642707Y-25841502D01*
X121642704Y-25841508D01*
X121514127Y-26114747D01*
X121514125Y-26114752D01*
X121492431Y-26181520D01*
X121452993Y-26239196D01*
X121388635Y-26266394D01*
X121319788Y-26254479D01*
X121268313Y-26207235D01*
X121250500Y-26143202D01*
X121250500Y-23374500D01*
X121270185Y-23307461D01*
X121322989Y-23261706D01*
X121374500Y-23250500D01*
X164875500Y-23250500D01*
X164942539Y-23270185D01*
G37*
%TD.AperFunction*%
%TD*%
M02*
