%TF.GenerationSoftware,KiCad,Pcbnew,8.0.7-1.fc41*%
%TF.CreationDate,2025-01-30T18:34:33-08:00*%
%TF.ProjectId,EP-Booster,45502d42-6f6f-4737-9465-722e6b696361,rev?*%
%TF.SameCoordinates,Original*%
%TF.FileFunction,Copper,L2,Bot*%
%TF.FilePolarity,Positive*%
%FSLAX46Y46*%
G04 Gerber Fmt 4.6, Leading zero omitted, Abs format (unit mm)*
G04 Created by KiCad (PCBNEW 8.0.7-1.fc41) date 2025-01-30 18:34:33*
%MOMM*%
%LPD*%
G01*
G04 APERTURE LIST*
%TA.AperFunction,ComponentPad*%
%ADD10C,2.600000*%
%TD*%
%TA.AperFunction,ConnectorPad*%
%ADD11C,3.800000*%
%TD*%
%TA.AperFunction,ComponentPad*%
%ADD12C,1.600000*%
%TD*%
%TA.AperFunction,ComponentPad*%
%ADD13O,1.600000X1.600000*%
%TD*%
%TA.AperFunction,ComponentPad*%
%ADD14R,2.200000X2.200000*%
%TD*%
%TA.AperFunction,ComponentPad*%
%ADD15O,2.200000X2.200000*%
%TD*%
%TA.AperFunction,ComponentPad*%
%ADD16R,1.600000X1.600000*%
%TD*%
%TA.AperFunction,ComponentPad*%
%ADD17R,3.000000X3.000000*%
%TD*%
%TA.AperFunction,ComponentPad*%
%ADD18C,3.000000*%
%TD*%
%TA.AperFunction,Conductor*%
%ADD19C,0.200000*%
%TD*%
G04 APERTURE END LIST*
D10*
%TO.P,H2,1,1*%
%TO.N,Net-(C3-Pad1)*%
X121000000Y-82700000D03*
D11*
X121000000Y-82700000D03*
%TD*%
D10*
%TO.P,H3,1,1*%
%TO.N,/SWB2*%
X166000000Y-97000000D03*
D11*
X166000000Y-97000000D03*
%TD*%
D10*
%TO.P,H8,1,1*%
%TO.N,Earth*%
X132000000Y-92000000D03*
D11*
X132000000Y-92000000D03*
%TD*%
D12*
%TO.P,R14,1*%
%TO.N,Net-(C6-Pad2)*%
X166000000Y-73390000D03*
D13*
%TO.P,R14,2*%
%TO.N,/SWB1*%
X166000000Y-81010000D03*
%TD*%
D12*
%TO.P,C3,1*%
%TO.N,Net-(C3-Pad1)*%
X121000000Y-71200000D03*
%TO.P,C3,2*%
%TO.N,Net-(C3-Pad2)*%
X126000000Y-71200000D03*
%TD*%
D10*
%TO.P,H1,1,1*%
%TO.N,Net-(D2-K)*%
X132000000Y-84604888D03*
D11*
X132000000Y-84604888D03*
%TD*%
D12*
%TO.P,R6,1*%
%TO.N,Net-(C3-Pad2)*%
X120690000Y-66450000D03*
D13*
%TO.P,R6,2*%
%TO.N,Net-(Q1-Pad3)*%
X128310000Y-66450000D03*
%TD*%
D12*
%TO.P,R2,1*%
%TO.N,/VA*%
X147600000Y-84410000D03*
D13*
%TO.P,R2,2*%
%TO.N,Net-(D1-K)*%
X147600000Y-92030000D03*
%TD*%
D14*
%TO.P,D2,1,K*%
%TO.N,Net-(D2-K)*%
X137600000Y-84060000D03*
D15*
%TO.P,D2,2,A*%
%TO.N,Net-(D2-A)*%
X137600000Y-91680000D03*
%TD*%
D12*
%TO.P,R15,1*%
%TO.N,/SWB1*%
X166000000Y-84390000D03*
D13*
%TO.P,R15,2*%
%TO.N,/SWB2*%
X166000000Y-92010000D03*
%TD*%
D16*
%TO.P,C2,1*%
%TO.N,/VB*%
X143000000Y-68500000D03*
D12*
%TO.P,C2,2*%
%TO.N,Earth*%
X140500000Y-68500000D03*
%TD*%
D10*
%TO.P,H5,1,1*%
%TO.N,Earth*%
X121000000Y-88500000D03*
D11*
X121000000Y-88500000D03*
%TD*%
D10*
%TO.P,H7,1,1*%
%TO.N,+9V*%
X152500000Y-97000000D03*
D11*
X152500000Y-97000000D03*
%TD*%
D12*
%TO.P,R12,1*%
%TO.N,/VB*%
X147500000Y-81560000D03*
D13*
%TO.P,R12,2*%
%TO.N,/SWA2*%
X147500000Y-73940000D03*
%TD*%
D12*
%TO.P,R13,1*%
%TO.N,Net-(Q2-E)*%
X162500000Y-54500000D03*
D13*
%TO.P,R13,2*%
%TO.N,Earth*%
X162500000Y-62120000D03*
%TD*%
D12*
%TO.P,R3,1*%
%TO.N,/VA*%
X135720000Y-73794888D03*
D13*
%TO.P,R3,2*%
%TO.N,/VB*%
X143340000Y-73794888D03*
%TD*%
D12*
%TO.P,R9,1*%
%TO.N,/VA*%
X135750000Y-62370000D03*
D13*
%TO.P,R9,2*%
%TO.N,Net-(C4-Pad1)*%
X135750000Y-54750000D03*
%TD*%
D12*
%TO.P,R1,1*%
%TO.N,/VA*%
X142400000Y-84360000D03*
D13*
%TO.P,R1,2*%
%TO.N,Net-(D2-A)*%
X142400000Y-91980000D03*
%TD*%
D16*
%TO.P,SW1,1*%
%TO.N,/SWA2*%
X157750000Y-92000000D03*
D13*
%TO.P,SW1,2*%
%TO.N,/SWB1*%
X160290000Y-92000000D03*
%TO.P,SW1,3*%
%TO.N,/SWB2*%
X160290000Y-84380000D03*
%TO.P,SW1,4*%
%TO.N,/SWA1*%
X157750000Y-84380000D03*
%TD*%
D16*
%TO.P,C4,1*%
%TO.N,Net-(C4-Pad1)*%
X141751666Y-55289775D03*
D12*
%TO.P,C4,2*%
%TO.N,Net-(C4-Pad2)*%
X141751666Y-57789775D03*
%TD*%
%TO.P,R11,1*%
%TO.N,/SWA1*%
X152800000Y-54800000D03*
D13*
%TO.P,R11,2*%
%TO.N,/SWA2*%
X152800000Y-62420000D03*
%TD*%
D12*
%TO.P,R4,1*%
%TO.N,/VB*%
X143340000Y-78794888D03*
D13*
%TO.P,R4,2*%
%TO.N,Earth*%
X135720000Y-78794888D03*
%TD*%
D16*
%TO.P,C7,1*%
%TO.N,Net-(C7-Pad1)*%
X123130000Y-43500000D03*
D12*
%TO.P,C7,2*%
%TO.N,Net-(C7-Pad2)*%
X125630000Y-43500000D03*
%TD*%
%TO.P,R10,1*%
%TO.N,Net-(C4-Pad2)*%
X147753332Y-62420000D03*
D13*
%TO.P,R10,2*%
%TO.N,/SWA1*%
X147753332Y-54800000D03*
%TD*%
D12*
%TO.P,R8,1*%
%TO.N,Net-(C7-Pad1)*%
X128250000Y-50000000D03*
D13*
%TO.P,R8,2*%
%TO.N,Earth*%
X120630000Y-50000000D03*
%TD*%
D12*
%TO.P,R5,1*%
%TO.N,Net-(C3-Pad1)*%
X120880000Y-75950000D03*
D13*
%TO.P,R5,2*%
%TO.N,Earth*%
X128500000Y-75950000D03*
%TD*%
D10*
%TO.P,H6,1,1*%
%TO.N,Earth*%
X147000000Y-97000000D03*
D11*
X147000000Y-97000000D03*
%TD*%
D14*
%TO.P,D1,1,K*%
%TO.N,Net-(D1-K)*%
X152400000Y-81520000D03*
D15*
%TO.P,D1,2,A*%
%TO.N,+9V*%
X152400000Y-91680000D03*
%TD*%
D10*
%TO.P,H4,1,1*%
%TO.N,Earth*%
X166000000Y-102500000D03*
D11*
X166000000Y-102500000D03*
%TD*%
D12*
%TO.P,R7,1*%
%TO.N,Net-(Q1-Pad3)*%
X128310000Y-61950000D03*
D13*
%TO.P,R7,2*%
%TO.N,Earth*%
X120690000Y-61950000D03*
%TD*%
D16*
%TO.P,C6,1*%
%TO.N,Net-(Q2-E)*%
X162500000Y-50705112D03*
D12*
%TO.P,C6,2*%
%TO.N,Net-(C6-Pad2)*%
X162500000Y-48205112D03*
%TD*%
D16*
%TO.P,C1,1*%
%TO.N,/VA*%
X134205113Y-68500000D03*
D12*
%TO.P,C1,2*%
%TO.N,Earth*%
X131705113Y-68500000D03*
%TD*%
D17*
%TO.P,RV1,1,1*%
%TO.N,Net-(C7-Pad2)*%
X148500000Y-43050000D03*
D18*
%TO.P,RV1,2,2*%
X143500000Y-43050000D03*
%TO.P,RV1,3,3*%
%TO.N,Earth*%
X138500000Y-43050000D03*
%TD*%
D12*
%TO.P,C5,1*%
%TO.N,/SWA2*%
X152500000Y-78200000D03*
%TO.P,C5,2*%
%TO.N,Earth*%
X152500000Y-73200000D03*
%TD*%
%TO.P,R16,1*%
%TO.N,/SWB2*%
X160500000Y-80700000D03*
D13*
%TO.P,R16,2*%
%TO.N,Earth*%
X160500000Y-73080000D03*
%TD*%
D19*
%TO.N,Net-(C4-Pad2)*%
X143123107Y-57789775D02*
X147753332Y-62420000D01*
X141751666Y-57789775D02*
X143123107Y-57789775D01*
%TO.N,/SWA1*%
X157750000Y-61821068D02*
X157750000Y-84380000D01*
X152800000Y-54800000D02*
X156285534Y-58285534D01*
X157750000Y-61821068D02*
G75*
G03*
X156285518Y-58285550I-5000000J-32D01*
G01*
%TO.N,/SWB1*%
X160290000Y-90100000D02*
X166000000Y-84390000D01*
X160290000Y-92000000D02*
X160290000Y-90100000D01*
%TD*%
%TA.AperFunction,Conductor*%
%TO.N,Earth*%
G36*
X169192539Y-21770185D02*
G01*
X169238294Y-21822989D01*
X169249500Y-21874500D01*
X169249500Y-106625500D01*
X169229815Y-106692539D01*
X169177011Y-106738294D01*
X169125500Y-106749500D01*
X117374500Y-106749500D01*
X117307461Y-106729815D01*
X117261706Y-106677011D01*
X117250500Y-106625500D01*
X117250500Y-102499994D01*
X163595255Y-102499994D01*
X163595255Y-102500005D01*
X163614215Y-102801383D01*
X163614216Y-102801390D01*
X163670805Y-103098040D01*
X163764125Y-103385247D01*
X163764127Y-103385252D01*
X163892704Y-103658491D01*
X163892707Y-103658497D01*
X164054516Y-103913469D01*
X164135311Y-104011133D01*
X165322421Y-102824024D01*
X165335359Y-102855258D01*
X165417437Y-102978097D01*
X165521903Y-103082563D01*
X165644742Y-103164641D01*
X165675975Y-103177578D01*
X164486564Y-104366987D01*
X164486565Y-104366989D01*
X164711461Y-104530385D01*
X164711479Y-104530397D01*
X164976109Y-104675878D01*
X164976117Y-104675882D01*
X165256889Y-104787047D01*
X165256892Y-104787048D01*
X165549399Y-104862150D01*
X165848995Y-104899999D01*
X165849007Y-104900000D01*
X166150993Y-104900000D01*
X166151004Y-104899999D01*
X166450600Y-104862150D01*
X166743107Y-104787048D01*
X166743110Y-104787047D01*
X167023882Y-104675882D01*
X167023890Y-104675878D01*
X167288520Y-104530397D01*
X167288530Y-104530390D01*
X167513433Y-104366987D01*
X167513434Y-104366987D01*
X166324024Y-103177578D01*
X166355258Y-103164641D01*
X166478097Y-103082563D01*
X166582563Y-102978097D01*
X166664641Y-102855258D01*
X166677578Y-102824025D01*
X167864687Y-104011134D01*
X167945486Y-103913464D01*
X168107292Y-103658497D01*
X168107295Y-103658491D01*
X168235872Y-103385252D01*
X168235874Y-103385247D01*
X168329194Y-103098040D01*
X168385783Y-102801390D01*
X168385784Y-102801383D01*
X168404745Y-102500005D01*
X168404745Y-102499994D01*
X168385784Y-102198616D01*
X168385783Y-102198609D01*
X168329194Y-101901959D01*
X168235874Y-101614752D01*
X168235872Y-101614747D01*
X168107295Y-101341508D01*
X168107292Y-101341502D01*
X167945483Y-101086530D01*
X167864686Y-100988864D01*
X166677577Y-102175974D01*
X166664641Y-102144742D01*
X166582563Y-102021903D01*
X166478097Y-101917437D01*
X166355258Y-101835359D01*
X166324024Y-101822421D01*
X167513434Y-100633011D01*
X167513433Y-100633009D01*
X167288538Y-100469614D01*
X167288520Y-100469602D01*
X167023890Y-100324121D01*
X167023882Y-100324117D01*
X166743110Y-100212952D01*
X166743107Y-100212951D01*
X166450600Y-100137849D01*
X166151004Y-100100000D01*
X165848995Y-100100000D01*
X165549399Y-100137849D01*
X165256892Y-100212951D01*
X165256889Y-100212952D01*
X164976117Y-100324117D01*
X164976109Y-100324121D01*
X164711476Y-100469604D01*
X164711471Y-100469607D01*
X164486565Y-100633010D01*
X164486564Y-100633011D01*
X165675975Y-101822421D01*
X165644742Y-101835359D01*
X165521903Y-101917437D01*
X165417437Y-102021903D01*
X165335359Y-102144742D01*
X165322421Y-102175974D01*
X164135311Y-100988864D01*
X164054520Y-101086525D01*
X164054518Y-101086528D01*
X163892707Y-101341502D01*
X163892704Y-101341508D01*
X163764127Y-101614747D01*
X163764125Y-101614752D01*
X163670805Y-101901959D01*
X163614216Y-102198609D01*
X163614215Y-102198616D01*
X163595255Y-102499994D01*
X117250500Y-102499994D01*
X117250500Y-96999994D01*
X144595255Y-96999994D01*
X144595255Y-97000005D01*
X144614215Y-97301383D01*
X144614216Y-97301390D01*
X144670805Y-97598040D01*
X144764125Y-97885247D01*
X144764127Y-97885252D01*
X144892704Y-98158491D01*
X144892707Y-98158497D01*
X145054516Y-98413469D01*
X145135311Y-98511133D01*
X146322421Y-97324024D01*
X146335359Y-97355258D01*
X146417437Y-97478097D01*
X146521903Y-97582563D01*
X146644742Y-97664641D01*
X146675975Y-97677578D01*
X145486564Y-98866987D01*
X145486565Y-98866989D01*
X145711461Y-99030385D01*
X145711479Y-99030397D01*
X145976109Y-99175878D01*
X145976117Y-99175882D01*
X146256889Y-99287047D01*
X146256892Y-99287048D01*
X146549399Y-99362150D01*
X146848995Y-99399999D01*
X146849007Y-99400000D01*
X147150993Y-99400000D01*
X147151004Y-99399999D01*
X147450600Y-99362150D01*
X147743107Y-99287048D01*
X147743110Y-99287047D01*
X148023882Y-99175882D01*
X148023890Y-99175878D01*
X148288520Y-99030397D01*
X148288530Y-99030390D01*
X148513433Y-98866987D01*
X148513434Y-98866987D01*
X147324024Y-97677578D01*
X147355258Y-97664641D01*
X147478097Y-97582563D01*
X147582563Y-97478097D01*
X147664641Y-97355258D01*
X147677578Y-97324025D01*
X148864687Y-98511134D01*
X148945486Y-98413464D01*
X149107292Y-98158497D01*
X149107295Y-98158491D01*
X149235872Y-97885252D01*
X149235874Y-97885247D01*
X149329194Y-97598040D01*
X149385783Y-97301390D01*
X149385784Y-97301383D01*
X149404745Y-97000005D01*
X149404745Y-96999994D01*
X150094754Y-96999994D01*
X150094754Y-97000005D01*
X150113718Y-97301446D01*
X150113719Y-97301453D01*
X150170320Y-97598164D01*
X150263659Y-97885431D01*
X150263661Y-97885436D01*
X150392265Y-98158732D01*
X150392268Y-98158738D01*
X150554111Y-98413763D01*
X150746652Y-98646505D01*
X150966836Y-98853272D01*
X150966846Y-98853280D01*
X151211193Y-99030808D01*
X151211198Y-99030810D01*
X151211205Y-99030816D01*
X151475896Y-99176332D01*
X151475901Y-99176334D01*
X151475903Y-99176335D01*
X151475904Y-99176336D01*
X151756734Y-99287524D01*
X151756737Y-99287525D01*
X151854259Y-99312564D01*
X152049302Y-99362642D01*
X152196039Y-99381179D01*
X152348963Y-99400499D01*
X152348969Y-99400499D01*
X152348973Y-99400500D01*
X152348975Y-99400500D01*
X152651025Y-99400500D01*
X152651027Y-99400500D01*
X152651032Y-99400499D01*
X152651036Y-99400499D01*
X152730591Y-99390448D01*
X152950698Y-99362642D01*
X153243262Y-99287525D01*
X153244467Y-99287048D01*
X153524095Y-99176336D01*
X153524096Y-99176335D01*
X153524094Y-99176335D01*
X153524104Y-99176332D01*
X153788795Y-99030816D01*
X154033162Y-98853274D01*
X154253349Y-98646504D01*
X154445885Y-98413768D01*
X154607733Y-98158736D01*
X154736341Y-97885430D01*
X154829681Y-97598160D01*
X154886280Y-97301457D01*
X154886281Y-97301446D01*
X154905246Y-97000005D01*
X154905246Y-96999994D01*
X163594754Y-96999994D01*
X163594754Y-97000005D01*
X163613718Y-97301446D01*
X163613719Y-97301453D01*
X163670320Y-97598164D01*
X163763659Y-97885431D01*
X163763661Y-97885436D01*
X163892265Y-98158732D01*
X163892268Y-98158738D01*
X164054111Y-98413763D01*
X164246652Y-98646505D01*
X164466836Y-98853272D01*
X164466846Y-98853280D01*
X164711193Y-99030808D01*
X164711198Y-99030810D01*
X164711205Y-99030816D01*
X164975896Y-99176332D01*
X164975901Y-99176334D01*
X164975903Y-99176335D01*
X164975904Y-99176336D01*
X165256734Y-99287524D01*
X165256737Y-99287525D01*
X165354259Y-99312564D01*
X165549302Y-99362642D01*
X165696039Y-99381179D01*
X165848963Y-99400499D01*
X165848969Y-99400499D01*
X165848973Y-99400500D01*
X165848975Y-99400500D01*
X166151025Y-99400500D01*
X166151027Y-99400500D01*
X166151032Y-99400499D01*
X166151036Y-99400499D01*
X166230591Y-99390448D01*
X166450698Y-99362642D01*
X166743262Y-99287525D01*
X166744467Y-99287048D01*
X167024095Y-99176336D01*
X167024096Y-99176335D01*
X167024094Y-99176335D01*
X167024104Y-99176332D01*
X167288795Y-99030816D01*
X167533162Y-98853274D01*
X167753349Y-98646504D01*
X167945885Y-98413768D01*
X168107733Y-98158736D01*
X168236341Y-97885430D01*
X168329681Y-97598160D01*
X168386280Y-97301457D01*
X168386281Y-97301446D01*
X168405246Y-97000005D01*
X168405246Y-96999994D01*
X168386281Y-96698553D01*
X168386280Y-96698546D01*
X168386280Y-96698543D01*
X168329681Y-96401840D01*
X168236341Y-96114570D01*
X168107733Y-95841264D01*
X168079828Y-95797293D01*
X167945888Y-95586236D01*
X167753347Y-95353494D01*
X167533163Y-95146727D01*
X167533153Y-95146719D01*
X167288806Y-94969191D01*
X167288799Y-94969186D01*
X167288795Y-94969184D01*
X167024104Y-94823668D01*
X167024101Y-94823666D01*
X167024096Y-94823664D01*
X167024095Y-94823663D01*
X166743265Y-94712475D01*
X166743262Y-94712474D01*
X166450695Y-94637357D01*
X166151036Y-94599500D01*
X166151027Y-94599500D01*
X165848973Y-94599500D01*
X165848963Y-94599500D01*
X165549304Y-94637357D01*
X165256737Y-94712474D01*
X165256734Y-94712475D01*
X164975904Y-94823663D01*
X164975903Y-94823664D01*
X164711205Y-94969184D01*
X164711193Y-94969191D01*
X164466846Y-95146719D01*
X164466836Y-95146727D01*
X164246652Y-95353494D01*
X164054111Y-95586236D01*
X163892268Y-95841261D01*
X163892265Y-95841267D01*
X163763661Y-96114563D01*
X163763659Y-96114568D01*
X163670320Y-96401835D01*
X163613719Y-96698546D01*
X163613718Y-96698553D01*
X163594754Y-96999994D01*
X154905246Y-96999994D01*
X154886281Y-96698553D01*
X154886280Y-96698546D01*
X154886280Y-96698543D01*
X154829681Y-96401840D01*
X154736341Y-96114570D01*
X154607733Y-95841264D01*
X154579828Y-95797293D01*
X154445888Y-95586236D01*
X154253347Y-95353494D01*
X154033163Y-95146727D01*
X154033153Y-95146719D01*
X153788806Y-94969191D01*
X153788799Y-94969186D01*
X153788795Y-94969184D01*
X153524104Y-94823668D01*
X153524101Y-94823666D01*
X153524096Y-94823664D01*
X153524095Y-94823663D01*
X153243265Y-94712475D01*
X153243262Y-94712474D01*
X152950695Y-94637357D01*
X152651036Y-94599500D01*
X152651027Y-94599500D01*
X152348973Y-94599500D01*
X152348963Y-94599500D01*
X152049304Y-94637357D01*
X151756737Y-94712474D01*
X151756734Y-94712475D01*
X151475904Y-94823663D01*
X151475903Y-94823664D01*
X151211205Y-94969184D01*
X151211193Y-94969191D01*
X150966846Y-95146719D01*
X150966836Y-95146727D01*
X150746652Y-95353494D01*
X150554111Y-95586236D01*
X150392268Y-95841261D01*
X150392265Y-95841267D01*
X150263661Y-96114563D01*
X150263659Y-96114568D01*
X150170320Y-96401835D01*
X150113719Y-96698546D01*
X150113718Y-96698553D01*
X150094754Y-96999994D01*
X149404745Y-96999994D01*
X149385784Y-96698616D01*
X149385783Y-96698609D01*
X149329194Y-96401959D01*
X149235874Y-96114752D01*
X149235872Y-96114747D01*
X149107295Y-95841508D01*
X149107292Y-95841502D01*
X148945483Y-95586530D01*
X148864686Y-95488864D01*
X147677577Y-96675974D01*
X147664641Y-96644742D01*
X147582563Y-96521903D01*
X147478097Y-96417437D01*
X147355258Y-96335359D01*
X147324024Y-96322421D01*
X148513434Y-95133011D01*
X148513433Y-95133009D01*
X148288538Y-94969614D01*
X148288520Y-94969602D01*
X148023890Y-94824121D01*
X148023882Y-94824117D01*
X147743110Y-94712952D01*
X147743107Y-94712951D01*
X147450600Y-94637849D01*
X147151004Y-94600000D01*
X146848995Y-94600000D01*
X146549399Y-94637849D01*
X146256892Y-94712951D01*
X146256889Y-94712952D01*
X145976117Y-94824117D01*
X145976109Y-94824121D01*
X145711476Y-94969604D01*
X145711471Y-94969607D01*
X145486565Y-95133010D01*
X145486564Y-95133011D01*
X146675975Y-96322421D01*
X146644742Y-96335359D01*
X146521903Y-96417437D01*
X146417437Y-96521903D01*
X146335359Y-96644742D01*
X146322421Y-96675974D01*
X145135311Y-95488864D01*
X145054520Y-95586525D01*
X145054518Y-95586528D01*
X144892707Y-95841502D01*
X144892704Y-95841508D01*
X144764127Y-96114747D01*
X144764125Y-96114752D01*
X144670805Y-96401959D01*
X144614216Y-96698609D01*
X144614215Y-96698616D01*
X144595255Y-96999994D01*
X117250500Y-96999994D01*
X117250500Y-91999994D01*
X129595255Y-91999994D01*
X129595255Y-92000005D01*
X129614215Y-92301383D01*
X129614216Y-92301390D01*
X129670805Y-92598040D01*
X129764125Y-92885247D01*
X129764127Y-92885252D01*
X129892704Y-93158491D01*
X129892707Y-93158497D01*
X130054516Y-93413469D01*
X130135311Y-93511133D01*
X131322421Y-92324024D01*
X131335359Y-92355258D01*
X131417437Y-92478097D01*
X131521903Y-92582563D01*
X131644742Y-92664641D01*
X131675975Y-92677578D01*
X130486564Y-93866987D01*
X130486565Y-93866989D01*
X130711461Y-94030385D01*
X130711479Y-94030397D01*
X130976109Y-94175878D01*
X130976117Y-94175882D01*
X131256889Y-94287047D01*
X131256892Y-94287048D01*
X131549399Y-94362150D01*
X131848995Y-94399999D01*
X131849007Y-94400000D01*
X132150993Y-94400000D01*
X132151004Y-94399999D01*
X132450600Y-94362150D01*
X132743107Y-94287048D01*
X132743110Y-94287047D01*
X133023882Y-94175882D01*
X133023890Y-94175878D01*
X133288520Y-94030397D01*
X133288530Y-94030390D01*
X133513433Y-93866987D01*
X133513434Y-93866987D01*
X132324024Y-92677578D01*
X132355258Y-92664641D01*
X132478097Y-92582563D01*
X132582563Y-92478097D01*
X132664641Y-92355258D01*
X132677578Y-92324025D01*
X133864687Y-93511134D01*
X133945486Y-93413464D01*
X134107292Y-93158497D01*
X134107295Y-93158491D01*
X134235872Y-92885252D01*
X134235874Y-92885247D01*
X134329194Y-92598040D01*
X134385783Y-92301390D01*
X134385784Y-92301383D01*
X134404745Y-92000005D01*
X134404745Y-91999994D01*
X134385784Y-91698616D01*
X134385783Y-91698609D01*
X134382233Y-91680000D01*
X135994551Y-91680000D01*
X136014317Y-91931151D01*
X136073126Y-92176110D01*
X136169533Y-92408859D01*
X136301160Y-92623653D01*
X136301161Y-92623656D01*
X136334537Y-92662734D01*
X136464776Y-92815224D01*
X136572801Y-92907486D01*
X136656343Y-92978838D01*
X136656346Y-92978839D01*
X136871140Y-93110466D01*
X136992096Y-93160567D01*
X137103889Y-93206873D01*
X137348852Y-93265683D01*
X137600000Y-93285449D01*
X137851148Y-93265683D01*
X138096111Y-93206873D01*
X138328859Y-93110466D01*
X138543659Y-92978836D01*
X138735224Y-92815224D01*
X138898836Y-92623659D01*
X139030466Y-92408859D01*
X139126873Y-92176111D01*
X139173955Y-91979998D01*
X141094532Y-91979998D01*
X141094532Y-91980001D01*
X141114364Y-92206686D01*
X141114366Y-92206697D01*
X141173258Y-92426488D01*
X141173261Y-92426497D01*
X141269431Y-92632732D01*
X141269432Y-92632734D01*
X141399954Y-92819141D01*
X141560858Y-92980045D01*
X141560861Y-92980047D01*
X141747266Y-93110568D01*
X141953504Y-93206739D01*
X142173308Y-93265635D01*
X142335230Y-93279801D01*
X142399998Y-93285468D01*
X142400000Y-93285468D01*
X142400002Y-93285468D01*
X142456673Y-93280509D01*
X142626692Y-93265635D01*
X142846496Y-93206739D01*
X143052734Y-93110568D01*
X143239139Y-92980047D01*
X143400047Y-92819139D01*
X143530568Y-92632734D01*
X143626739Y-92426496D01*
X143685635Y-92206692D01*
X143701094Y-92029998D01*
X146294532Y-92029998D01*
X146294532Y-92030001D01*
X146314364Y-92256686D01*
X146314366Y-92256697D01*
X146373258Y-92476488D01*
X146373261Y-92476497D01*
X146469431Y-92682732D01*
X146469432Y-92682734D01*
X146599954Y-92869141D01*
X146760858Y-93030045D01*
X146778410Y-93042335D01*
X146947266Y-93160568D01*
X147153504Y-93256739D01*
X147153509Y-93256740D01*
X147153511Y-93256741D01*
X147206415Y-93270916D01*
X147373308Y-93315635D01*
X147535230Y-93329801D01*
X147599998Y-93335468D01*
X147600000Y-93335468D01*
X147600002Y-93335468D01*
X147656673Y-93330509D01*
X147826692Y-93315635D01*
X148046496Y-93256739D01*
X148252734Y-93160568D01*
X148439139Y-93030047D01*
X148600047Y-92869139D01*
X148730568Y-92682734D01*
X148826739Y-92476496D01*
X148885635Y-92256692D01*
X148905468Y-92030000D01*
X148902843Y-92000001D01*
X148896820Y-91931151D01*
X148885635Y-91803308D01*
X148852595Y-91680000D01*
X150794551Y-91680000D01*
X150814317Y-91931151D01*
X150873126Y-92176110D01*
X150969533Y-92408859D01*
X151101160Y-92623653D01*
X151101161Y-92623656D01*
X151134537Y-92662734D01*
X151264776Y-92815224D01*
X151372801Y-92907486D01*
X151456343Y-92978838D01*
X151456346Y-92978839D01*
X151671140Y-93110466D01*
X151792096Y-93160567D01*
X151903889Y-93206873D01*
X152148852Y-93265683D01*
X152400000Y-93285449D01*
X152651148Y-93265683D01*
X152896111Y-93206873D01*
X153128859Y-93110466D01*
X153343659Y-92978836D01*
X153535224Y-92815224D01*
X153698836Y-92623659D01*
X153830466Y-92408859D01*
X153926873Y-92176111D01*
X153985683Y-91931148D01*
X154005449Y-91680000D01*
X153985683Y-91428852D01*
X153926873Y-91183889D01*
X153913720Y-91152135D01*
X156449500Y-91152135D01*
X156449500Y-92847870D01*
X156449501Y-92847876D01*
X156455908Y-92907483D01*
X156506202Y-93042328D01*
X156506206Y-93042335D01*
X156592452Y-93157544D01*
X156592455Y-93157547D01*
X156707664Y-93243793D01*
X156707671Y-93243797D01*
X156842517Y-93294091D01*
X156842516Y-93294091D01*
X156849444Y-93294835D01*
X156902127Y-93300500D01*
X158597872Y-93300499D01*
X158657483Y-93294091D01*
X158792331Y-93243796D01*
X158907546Y-93157546D01*
X158993796Y-93042331D01*
X159044091Y-92907483D01*
X159047862Y-92872401D01*
X159074599Y-92807855D01*
X159131990Y-92768006D01*
X159201816Y-92765511D01*
X159261905Y-92801163D01*
X159272726Y-92814536D01*
X159289956Y-92839143D01*
X159450858Y-93000045D01*
X159450861Y-93000047D01*
X159637266Y-93130568D01*
X159843504Y-93226739D01*
X160063308Y-93285635D01*
X160225230Y-93299801D01*
X160289998Y-93305468D01*
X160290000Y-93305468D01*
X160290002Y-93305468D01*
X160346807Y-93300498D01*
X160516692Y-93285635D01*
X160736496Y-93226739D01*
X160942734Y-93130568D01*
X161129139Y-93000047D01*
X161290047Y-92839139D01*
X161420568Y-92652734D01*
X161516739Y-92446496D01*
X161575635Y-92226692D01*
X161594593Y-92009998D01*
X164694532Y-92009998D01*
X164694532Y-92010001D01*
X164714364Y-92236686D01*
X164714366Y-92236697D01*
X164773258Y-92456488D01*
X164773261Y-92456497D01*
X164869431Y-92662732D01*
X164869432Y-92662734D01*
X164999954Y-92849141D01*
X165160858Y-93010045D01*
X165160861Y-93010047D01*
X165347266Y-93140568D01*
X165553504Y-93236739D01*
X165773308Y-93295635D01*
X165935230Y-93309801D01*
X165999998Y-93315468D01*
X166000000Y-93315468D01*
X166000002Y-93315468D01*
X166056673Y-93310509D01*
X166226692Y-93295635D01*
X166446496Y-93236739D01*
X166652734Y-93140568D01*
X166839139Y-93010047D01*
X167000047Y-92849139D01*
X167130568Y-92662734D01*
X167226739Y-92456496D01*
X167285635Y-92236692D01*
X167305468Y-92010000D01*
X167302843Y-91980001D01*
X167287385Y-91803313D01*
X167285635Y-91783308D01*
X167226739Y-91563504D01*
X167130568Y-91357266D01*
X167000047Y-91170861D01*
X167000045Y-91170858D01*
X166839141Y-91009954D01*
X166652734Y-90879432D01*
X166652732Y-90879431D01*
X166446497Y-90783261D01*
X166446488Y-90783258D01*
X166226697Y-90724366D01*
X166226693Y-90724365D01*
X166226692Y-90724365D01*
X166226691Y-90724364D01*
X166226686Y-90724364D01*
X166000002Y-90704532D01*
X165999998Y-90704532D01*
X165773313Y-90724364D01*
X165773302Y-90724366D01*
X165553511Y-90783258D01*
X165553502Y-90783261D01*
X165347267Y-90879431D01*
X165347265Y-90879432D01*
X165160858Y-91009954D01*
X164999954Y-91170858D01*
X164869432Y-91357265D01*
X164869431Y-91357267D01*
X164773261Y-91563502D01*
X164773258Y-91563511D01*
X164714366Y-91783302D01*
X164714364Y-91783313D01*
X164694532Y-92009998D01*
X161594593Y-92009998D01*
X161595468Y-92000000D01*
X161595467Y-91999994D01*
X161578260Y-91803313D01*
X161575635Y-91773308D01*
X161519420Y-91563511D01*
X161516741Y-91553511D01*
X161516738Y-91553502D01*
X161458612Y-91428852D01*
X161420568Y-91347266D01*
X161290047Y-91160861D01*
X161290045Y-91160858D01*
X161129140Y-90999953D01*
X160943377Y-90869881D01*
X160899752Y-90815304D01*
X160890500Y-90768306D01*
X160890500Y-90400096D01*
X160910185Y-90333057D01*
X160926814Y-90312420D01*
X165557294Y-85681939D01*
X165618615Y-85648456D01*
X165677066Y-85649847D01*
X165692905Y-85654091D01*
X165773308Y-85675635D01*
X165935230Y-85689801D01*
X165999998Y-85695468D01*
X166000000Y-85695468D01*
X166000002Y-85695468D01*
X166056673Y-85690509D01*
X166226692Y-85675635D01*
X166446496Y-85616739D01*
X166652734Y-85520568D01*
X166839139Y-85390047D01*
X167000047Y-85229139D01*
X167130568Y-85042734D01*
X167226739Y-84836496D01*
X167285635Y-84616692D01*
X167305468Y-84390000D01*
X167302843Y-84360001D01*
X167287385Y-84183313D01*
X167285635Y-84163308D01*
X167226739Y-83943504D01*
X167130568Y-83737266D01*
X167000047Y-83550861D01*
X167000045Y-83550858D01*
X166839141Y-83389954D01*
X166652734Y-83259432D01*
X166652732Y-83259431D01*
X166446497Y-83163261D01*
X166446488Y-83163258D01*
X166226697Y-83104366D01*
X166226693Y-83104365D01*
X166226692Y-83104365D01*
X166226691Y-83104364D01*
X166226686Y-83104364D01*
X166000002Y-83084532D01*
X165999998Y-83084532D01*
X165773313Y-83104364D01*
X165773302Y-83104366D01*
X165553511Y-83163258D01*
X165553502Y-83163261D01*
X165347267Y-83259431D01*
X165347265Y-83259432D01*
X165160858Y-83389954D01*
X164999954Y-83550858D01*
X164869432Y-83737265D01*
X164869431Y-83737267D01*
X164773261Y-83943502D01*
X164773258Y-83943511D01*
X164714366Y-84163302D01*
X164714364Y-84163313D01*
X164694532Y-84389998D01*
X164694532Y-84390001D01*
X164714364Y-84616686D01*
X164714366Y-84616697D01*
X164740152Y-84712931D01*
X164738489Y-84782781D01*
X164708058Y-84832705D01*
X159921286Y-89619478D01*
X159809481Y-89731282D01*
X159809479Y-89731285D01*
X159759361Y-89818094D01*
X159759359Y-89818096D01*
X159730425Y-89868209D01*
X159730424Y-89868210D01*
X159730423Y-89868215D01*
X159689499Y-90020943D01*
X159689499Y-90020945D01*
X159689499Y-90189046D01*
X159689500Y-90189059D01*
X159689500Y-90768306D01*
X159669815Y-90835345D01*
X159636623Y-90869881D01*
X159450859Y-90999953D01*
X159289954Y-91160858D01*
X159272725Y-91185464D01*
X159218147Y-91229088D01*
X159148648Y-91236280D01*
X159086294Y-91204757D01*
X159050882Y-91144526D01*
X159047861Y-91127591D01*
X159046480Y-91114747D01*
X159044091Y-91092517D01*
X159002107Y-90979953D01*
X158993797Y-90957671D01*
X158993793Y-90957664D01*
X158907547Y-90842455D01*
X158907544Y-90842452D01*
X158792335Y-90756206D01*
X158792328Y-90756202D01*
X158657482Y-90705908D01*
X158657483Y-90705908D01*
X158597883Y-90699501D01*
X158597881Y-90699500D01*
X158597873Y-90699500D01*
X158597864Y-90699500D01*
X156902129Y-90699500D01*
X156902123Y-90699501D01*
X156842516Y-90705908D01*
X156707671Y-90756202D01*
X156707664Y-90756206D01*
X156592455Y-90842452D01*
X156592452Y-90842455D01*
X156506206Y-90957664D01*
X156506202Y-90957671D01*
X156455908Y-91092517D01*
X156449501Y-91152116D01*
X156449500Y-91152135D01*
X153913720Y-91152135D01*
X153889025Y-91092516D01*
X153830466Y-90951140D01*
X153703753Y-90744365D01*
X153698838Y-90736345D01*
X153698838Y-90736343D01*
X153570885Y-90586530D01*
X153535224Y-90544776D01*
X153365826Y-90400096D01*
X153343656Y-90381161D01*
X153343653Y-90381160D01*
X153128859Y-90249533D01*
X152896110Y-90153126D01*
X152651151Y-90094317D01*
X152400000Y-90074551D01*
X152148848Y-90094317D01*
X151903889Y-90153126D01*
X151671140Y-90249533D01*
X151456346Y-90381160D01*
X151456343Y-90381161D01*
X151264776Y-90544776D01*
X151101161Y-90736343D01*
X151101160Y-90736346D01*
X150969533Y-90951140D01*
X150873126Y-91183889D01*
X150814317Y-91428848D01*
X150794551Y-91680000D01*
X148852595Y-91680000D01*
X148826739Y-91583504D01*
X148730568Y-91377266D01*
X148600047Y-91190861D01*
X148600045Y-91190858D01*
X148439141Y-91029954D01*
X148252734Y-90899432D01*
X148252732Y-90899431D01*
X148046497Y-90803261D01*
X148046488Y-90803258D01*
X147826697Y-90744366D01*
X147826693Y-90744365D01*
X147826692Y-90744365D01*
X147826691Y-90744364D01*
X147826686Y-90744364D01*
X147600002Y-90724532D01*
X147599998Y-90724532D01*
X147373313Y-90744364D01*
X147373302Y-90744366D01*
X147153511Y-90803258D01*
X147153502Y-90803261D01*
X146947267Y-90899431D01*
X146947265Y-90899432D01*
X146760858Y-91029954D01*
X146599954Y-91190858D01*
X146469432Y-91377265D01*
X146469431Y-91377267D01*
X146373261Y-91583502D01*
X146373258Y-91583511D01*
X146314366Y-91803302D01*
X146314364Y-91803313D01*
X146294532Y-92029998D01*
X143701094Y-92029998D01*
X143705468Y-91980000D01*
X143685635Y-91753308D01*
X143626739Y-91533504D01*
X143530568Y-91327266D01*
X143407936Y-91152128D01*
X143400045Y-91140858D01*
X143239141Y-90979954D01*
X143052734Y-90849432D01*
X143052732Y-90849431D01*
X142846497Y-90753261D01*
X142846488Y-90753258D01*
X142626697Y-90694366D01*
X142626693Y-90694365D01*
X142626692Y-90694365D01*
X142626691Y-90694364D01*
X142626686Y-90694364D01*
X142400002Y-90674532D01*
X142399998Y-90674532D01*
X142173313Y-90694364D01*
X142173302Y-90694366D01*
X141953511Y-90753258D01*
X141953502Y-90753261D01*
X141747267Y-90849431D01*
X141747265Y-90849432D01*
X141560858Y-90979954D01*
X141399954Y-91140858D01*
X141269432Y-91327265D01*
X141269431Y-91327267D01*
X141173261Y-91533502D01*
X141173258Y-91533511D01*
X141114366Y-91753302D01*
X141114364Y-91753313D01*
X141094532Y-91979998D01*
X139173955Y-91979998D01*
X139185683Y-91931148D01*
X139205449Y-91680000D01*
X139185683Y-91428852D01*
X139126873Y-91183889D01*
X139089025Y-91092516D01*
X139030466Y-90951140D01*
X138903753Y-90744365D01*
X138898838Y-90736345D01*
X138898838Y-90736343D01*
X138770885Y-90586530D01*
X138735224Y-90544776D01*
X138565826Y-90400096D01*
X138543656Y-90381161D01*
X138543653Y-90381160D01*
X138328859Y-90249533D01*
X138096110Y-90153126D01*
X137851151Y-90094317D01*
X137600000Y-90074551D01*
X137348848Y-90094317D01*
X137103889Y-90153126D01*
X136871140Y-90249533D01*
X136656346Y-90381160D01*
X136656343Y-90381161D01*
X136464776Y-90544776D01*
X136301161Y-90736343D01*
X136301160Y-90736346D01*
X136169533Y-90951140D01*
X136073126Y-91183889D01*
X136014317Y-91428848D01*
X135994551Y-91680000D01*
X134382233Y-91680000D01*
X134329194Y-91401959D01*
X134235874Y-91114752D01*
X134235872Y-91114747D01*
X134107295Y-90841508D01*
X134107292Y-90841502D01*
X133945483Y-90586530D01*
X133864686Y-90488864D01*
X132677577Y-91675973D01*
X132664641Y-91644742D01*
X132582563Y-91521903D01*
X132478097Y-91417437D01*
X132355258Y-91335359D01*
X132324024Y-91322421D01*
X133513434Y-90133011D01*
X133513433Y-90133009D01*
X133288538Y-89969614D01*
X133288520Y-89969602D01*
X133023890Y-89824121D01*
X133023882Y-89824117D01*
X132743110Y-89712952D01*
X132743107Y-89712951D01*
X132450600Y-89637849D01*
X132151004Y-89600000D01*
X131848995Y-89600000D01*
X131549399Y-89637849D01*
X131256892Y-89712951D01*
X131256889Y-89712952D01*
X130976117Y-89824117D01*
X130976109Y-89824121D01*
X130711476Y-89969604D01*
X130711471Y-89969607D01*
X130486565Y-90133010D01*
X130486564Y-90133011D01*
X131675975Y-91322421D01*
X131644742Y-91335359D01*
X131521903Y-91417437D01*
X131417437Y-91521903D01*
X131335359Y-91644742D01*
X131322421Y-91675974D01*
X130135311Y-90488864D01*
X130054520Y-90586525D01*
X130054518Y-90586528D01*
X129892707Y-90841502D01*
X129892704Y-90841508D01*
X129764127Y-91114747D01*
X129764125Y-91114752D01*
X129670805Y-91401959D01*
X129614216Y-91698609D01*
X129614215Y-91698616D01*
X129595255Y-91999994D01*
X117250500Y-91999994D01*
X117250500Y-88499994D01*
X118595255Y-88499994D01*
X118595255Y-88500005D01*
X118614215Y-88801383D01*
X118614216Y-88801390D01*
X118670805Y-89098040D01*
X118764125Y-89385247D01*
X118764127Y-89385252D01*
X118892704Y-89658491D01*
X118892707Y-89658497D01*
X119054516Y-89913469D01*
X119135311Y-90011133D01*
X120322421Y-88824024D01*
X120335359Y-88855258D01*
X120417437Y-88978097D01*
X120521903Y-89082563D01*
X120644742Y-89164641D01*
X120675975Y-89177578D01*
X119486564Y-90366987D01*
X119486565Y-90366989D01*
X119711461Y-90530385D01*
X119711479Y-90530397D01*
X119976109Y-90675878D01*
X119976117Y-90675882D01*
X120256889Y-90787047D01*
X120256892Y-90787048D01*
X120549399Y-90862150D01*
X120848995Y-90899999D01*
X120849007Y-90900000D01*
X121150993Y-90900000D01*
X121151004Y-90899999D01*
X121450600Y-90862150D01*
X121743107Y-90787048D01*
X121743110Y-90787047D01*
X122023882Y-90675882D01*
X122023890Y-90675878D01*
X122288520Y-90530397D01*
X122288530Y-90530390D01*
X122513433Y-90366987D01*
X122513434Y-90366987D01*
X121324024Y-89177578D01*
X121355258Y-89164641D01*
X121478097Y-89082563D01*
X121582563Y-88978097D01*
X121664641Y-88855258D01*
X121677578Y-88824025D01*
X122864687Y-90011134D01*
X122945486Y-89913464D01*
X123107292Y-89658497D01*
X123107295Y-89658491D01*
X123235872Y-89385252D01*
X123235874Y-89385247D01*
X123329194Y-89098040D01*
X123385783Y-88801390D01*
X123385784Y-88801383D01*
X123404745Y-88500005D01*
X123404745Y-88499994D01*
X123385784Y-88198616D01*
X123385783Y-88198609D01*
X123329194Y-87901959D01*
X123235874Y-87614752D01*
X123235872Y-87614747D01*
X123107295Y-87341508D01*
X123107292Y-87341502D01*
X122945483Y-87086530D01*
X122864686Y-86988864D01*
X121677577Y-88175974D01*
X121664641Y-88144742D01*
X121582563Y-88021903D01*
X121478097Y-87917437D01*
X121355258Y-87835359D01*
X121324024Y-87822421D01*
X122513434Y-86633011D01*
X122513433Y-86633009D01*
X122288538Y-86469614D01*
X122288520Y-86469602D01*
X122023890Y-86324121D01*
X122023882Y-86324117D01*
X121743110Y-86212952D01*
X121743107Y-86212951D01*
X121450600Y-86137849D01*
X121151004Y-86100000D01*
X120848995Y-86100000D01*
X120549399Y-86137849D01*
X120256892Y-86212951D01*
X120256889Y-86212952D01*
X119976117Y-86324117D01*
X119976109Y-86324121D01*
X119711476Y-86469604D01*
X119711471Y-86469607D01*
X119486565Y-86633010D01*
X119486564Y-86633011D01*
X120675975Y-87822421D01*
X120644742Y-87835359D01*
X120521903Y-87917437D01*
X120417437Y-88021903D01*
X120335359Y-88144742D01*
X120322421Y-88175974D01*
X119135311Y-86988864D01*
X119054520Y-87086525D01*
X119054518Y-87086528D01*
X118892707Y-87341502D01*
X118892704Y-87341508D01*
X118764127Y-87614747D01*
X118764125Y-87614752D01*
X118670805Y-87901959D01*
X118614216Y-88198609D01*
X118614215Y-88198616D01*
X118595255Y-88499994D01*
X117250500Y-88499994D01*
X117250500Y-82699994D01*
X118594754Y-82699994D01*
X118594754Y-82700005D01*
X118613718Y-83001446D01*
X118613719Y-83001453D01*
X118634979Y-83112902D01*
X118666746Y-83279432D01*
X118670320Y-83298164D01*
X118763659Y-83585431D01*
X118763661Y-83585436D01*
X118892265Y-83858732D01*
X118892268Y-83858738D01*
X119054111Y-84113763D01*
X119054114Y-84113767D01*
X119054115Y-84113768D01*
X119211020Y-84303434D01*
X119246652Y-84346505D01*
X119466836Y-84553272D01*
X119466846Y-84553280D01*
X119711193Y-84730808D01*
X119711198Y-84730810D01*
X119711205Y-84730816D01*
X119975896Y-84876332D01*
X119975901Y-84876334D01*
X119975903Y-84876335D01*
X119975904Y-84876336D01*
X120256734Y-84987524D01*
X120256737Y-84987525D01*
X120354259Y-85012564D01*
X120549302Y-85062642D01*
X120696039Y-85081179D01*
X120848963Y-85100499D01*
X120848969Y-85100499D01*
X120848973Y-85100500D01*
X120848975Y-85100500D01*
X121151025Y-85100500D01*
X121151027Y-85100500D01*
X121151032Y-85100499D01*
X121151036Y-85100499D01*
X121230591Y-85090448D01*
X121450698Y-85062642D01*
X121743262Y-84987525D01*
X121743265Y-84987524D01*
X122024095Y-84876336D01*
X122024096Y-84876335D01*
X122024094Y-84876335D01*
X122024104Y-84876332D01*
X122288795Y-84730816D01*
X122462129Y-84604882D01*
X129594754Y-84604882D01*
X129594754Y-84604893D01*
X129613718Y-84906334D01*
X129613719Y-84906341D01*
X129616963Y-84923348D01*
X129669573Y-85199139D01*
X129670320Y-85203052D01*
X129763659Y-85490319D01*
X129763661Y-85490324D01*
X129892265Y-85763620D01*
X129892268Y-85763626D01*
X130054111Y-86018651D01*
X130246652Y-86251393D01*
X130466836Y-86458160D01*
X130466846Y-86458168D01*
X130711193Y-86635696D01*
X130711198Y-86635698D01*
X130711205Y-86635704D01*
X130975896Y-86781220D01*
X130975901Y-86781222D01*
X130975903Y-86781223D01*
X130975904Y-86781224D01*
X131256734Y-86892412D01*
X131256737Y-86892413D01*
X131354259Y-86917452D01*
X131549302Y-86967530D01*
X131696039Y-86986067D01*
X131848963Y-87005387D01*
X131848969Y-87005387D01*
X131848973Y-87005388D01*
X131848975Y-87005388D01*
X132151025Y-87005388D01*
X132151027Y-87005388D01*
X132151032Y-87005387D01*
X132151036Y-87005387D01*
X132281825Y-86988864D01*
X132450698Y-86967530D01*
X132743262Y-86892413D01*
X132743265Y-86892412D01*
X133024095Y-86781224D01*
X133024096Y-86781223D01*
X133024094Y-86781223D01*
X133024104Y-86781220D01*
X133288795Y-86635704D01*
X133533162Y-86458162D01*
X133753349Y-86251392D01*
X133945885Y-86018656D01*
X134107733Y-85763624D01*
X134236341Y-85490318D01*
X134329681Y-85203048D01*
X134386280Y-84906345D01*
X134388168Y-84876335D01*
X134405246Y-84604893D01*
X134405246Y-84604882D01*
X134386281Y-84303441D01*
X134386280Y-84303434D01*
X134386280Y-84303431D01*
X134329681Y-84006728D01*
X134236341Y-83719458D01*
X134230604Y-83707267D01*
X134173272Y-83585430D01*
X134107733Y-83446152D01*
X134013815Y-83298160D01*
X133945888Y-83191124D01*
X133922838Y-83163261D01*
X133753349Y-82958384D01*
X133704099Y-82912135D01*
X135999500Y-82912135D01*
X135999500Y-85207870D01*
X135999501Y-85207876D01*
X136005908Y-85267483D01*
X136056202Y-85402328D01*
X136056206Y-85402335D01*
X136142452Y-85517544D01*
X136142455Y-85517547D01*
X136257664Y-85603793D01*
X136257671Y-85603797D01*
X136392517Y-85654091D01*
X136392516Y-85654091D01*
X136399444Y-85654835D01*
X136452127Y-85660500D01*
X138747872Y-85660499D01*
X138807483Y-85654091D01*
X138942331Y-85603796D01*
X139057546Y-85517546D01*
X139143796Y-85402331D01*
X139194091Y-85267483D01*
X139200500Y-85207873D01*
X139200500Y-84359998D01*
X141094532Y-84359998D01*
X141094532Y-84360001D01*
X141114364Y-84586686D01*
X141114366Y-84586697D01*
X141173258Y-84806488D01*
X141173261Y-84806497D01*
X141269431Y-85012732D01*
X141269432Y-85012734D01*
X141399954Y-85199141D01*
X141560858Y-85360045D01*
X141560861Y-85360047D01*
X141747266Y-85490568D01*
X141953504Y-85586739D01*
X142173308Y-85645635D01*
X142335230Y-85659801D01*
X142399998Y-85665468D01*
X142400000Y-85665468D01*
X142400002Y-85665468D01*
X142456807Y-85660498D01*
X142626692Y-85645635D01*
X142846496Y-85586739D01*
X143052734Y-85490568D01*
X143239139Y-85360047D01*
X143400047Y-85199139D01*
X143530568Y-85012734D01*
X143626739Y-84806496D01*
X143685635Y-84586692D01*
X143701094Y-84409998D01*
X146294532Y-84409998D01*
X146294532Y-84410001D01*
X146314364Y-84636686D01*
X146314366Y-84636697D01*
X146373258Y-84856488D01*
X146373261Y-84856497D01*
X146469431Y-85062732D01*
X146469432Y-85062734D01*
X146599954Y-85249141D01*
X146760858Y-85410045D01*
X146760861Y-85410047D01*
X146947266Y-85540568D01*
X147153504Y-85636739D01*
X147373308Y-85695635D01*
X147535230Y-85709801D01*
X147599998Y-85715468D01*
X147600000Y-85715468D01*
X147600002Y-85715468D01*
X147656673Y-85710509D01*
X147826692Y-85695635D01*
X148046496Y-85636739D01*
X148252734Y-85540568D01*
X148439139Y-85410047D01*
X148600047Y-85249139D01*
X148730568Y-85062734D01*
X148826739Y-84856496D01*
X148885635Y-84636692D01*
X148905468Y-84410000D01*
X148902843Y-84380001D01*
X148885635Y-84183313D01*
X148885635Y-84183308D01*
X148826739Y-83963504D01*
X148730568Y-83757266D01*
X148632839Y-83617693D01*
X148600045Y-83570858D01*
X148439141Y-83409954D01*
X148252734Y-83279432D01*
X148252732Y-83279431D01*
X148046497Y-83183261D01*
X148046488Y-83183258D01*
X147826697Y-83124366D01*
X147826687Y-83124364D01*
X147595674Y-83104153D01*
X147558518Y-83089618D01*
X147517949Y-83110943D01*
X147504325Y-83112902D01*
X147373312Y-83124364D01*
X147373302Y-83124366D01*
X147153511Y-83183258D01*
X147153502Y-83183261D01*
X146947267Y-83279431D01*
X146947265Y-83279432D01*
X146760858Y-83409954D01*
X146599954Y-83570858D01*
X146469432Y-83757265D01*
X146469431Y-83757267D01*
X146373261Y-83963502D01*
X146373258Y-83963511D01*
X146314366Y-84183302D01*
X146314364Y-84183313D01*
X146294532Y-84409998D01*
X143701094Y-84409998D01*
X143705468Y-84360000D01*
X143685635Y-84133308D01*
X143626739Y-83913504D01*
X143530568Y-83707266D01*
X143400047Y-83520861D01*
X143400045Y-83520858D01*
X143239141Y-83359954D01*
X143052734Y-83229432D01*
X143052732Y-83229431D01*
X142846497Y-83133261D01*
X142846488Y-83133258D01*
X142626697Y-83074366D01*
X142626693Y-83074365D01*
X142626692Y-83074365D01*
X142626691Y-83074364D01*
X142626686Y-83074364D01*
X142400002Y-83054532D01*
X142399998Y-83054532D01*
X142173313Y-83074364D01*
X142173302Y-83074366D01*
X141953511Y-83133258D01*
X141953502Y-83133261D01*
X141747267Y-83229431D01*
X141747265Y-83229432D01*
X141560858Y-83359954D01*
X141399954Y-83520858D01*
X141269432Y-83707265D01*
X141269431Y-83707267D01*
X141173261Y-83913502D01*
X141173258Y-83913511D01*
X141114366Y-84133302D01*
X141114364Y-84133313D01*
X141094532Y-84359998D01*
X139200500Y-84359998D01*
X139200499Y-82912128D01*
X139194091Y-82852517D01*
X139191524Y-82845635D01*
X139143797Y-82717671D01*
X139143793Y-82717664D01*
X139057547Y-82602455D01*
X139057544Y-82602452D01*
X138942335Y-82516206D01*
X138942328Y-82516202D01*
X138807482Y-82465908D01*
X138807483Y-82465908D01*
X138747883Y-82459501D01*
X138747881Y-82459500D01*
X138747873Y-82459500D01*
X138747864Y-82459500D01*
X136452129Y-82459500D01*
X136452123Y-82459501D01*
X136392516Y-82465908D01*
X136257671Y-82516202D01*
X136257664Y-82516206D01*
X136142455Y-82602452D01*
X136142452Y-82602455D01*
X136056206Y-82717664D01*
X136056202Y-82717671D01*
X136005908Y-82852517D01*
X136002913Y-82880379D01*
X135999501Y-82912123D01*
X135999500Y-82912135D01*
X133704099Y-82912135D01*
X133704090Y-82912127D01*
X133533163Y-82751615D01*
X133533153Y-82751607D01*
X133288806Y-82574079D01*
X133288799Y-82574074D01*
X133288795Y-82574072D01*
X133024104Y-82428556D01*
X133024101Y-82428554D01*
X133024096Y-82428552D01*
X133024095Y-82428551D01*
X132743265Y-82317363D01*
X132743262Y-82317362D01*
X132450695Y-82242245D01*
X132151036Y-82204388D01*
X132151027Y-82204388D01*
X131848973Y-82204388D01*
X131848963Y-82204388D01*
X131549304Y-82242245D01*
X131256737Y-82317362D01*
X131256734Y-82317363D01*
X130975904Y-82428551D01*
X130975903Y-82428552D01*
X130711205Y-82574072D01*
X130711193Y-82574079D01*
X130466846Y-82751607D01*
X130466836Y-82751615D01*
X130246652Y-82958382D01*
X130054111Y-83191124D01*
X129892268Y-83446149D01*
X129892265Y-83446155D01*
X129763661Y-83719451D01*
X129763659Y-83719456D01*
X129670320Y-84006723D01*
X129613719Y-84303434D01*
X129613718Y-84303441D01*
X129594754Y-84604882D01*
X122462129Y-84604882D01*
X122533162Y-84553274D01*
X122753349Y-84346504D01*
X122945885Y-84113768D01*
X123107733Y-83858736D01*
X123236341Y-83585430D01*
X123329681Y-83298160D01*
X123386280Y-83001457D01*
X123386281Y-83001446D01*
X123405246Y-82700005D01*
X123405246Y-82699994D01*
X123386281Y-82398553D01*
X123386280Y-82398546D01*
X123386280Y-82398543D01*
X123329681Y-82101840D01*
X123236341Y-81814570D01*
X123116549Y-81559998D01*
X146194532Y-81559998D01*
X146194532Y-81560001D01*
X146214364Y-81786686D01*
X146214366Y-81786697D01*
X146273258Y-82006488D01*
X146273261Y-82006497D01*
X146369431Y-82212732D01*
X146369432Y-82212734D01*
X146499954Y-82399141D01*
X146660858Y-82560045D01*
X146660861Y-82560047D01*
X146847266Y-82690568D01*
X147053504Y-82786739D01*
X147273308Y-82845635D01*
X147500000Y-82865468D01*
X147500001Y-82865467D01*
X147504324Y-82865846D01*
X147541480Y-82880379D01*
X147582050Y-82859056D01*
X147595665Y-82857098D01*
X147726692Y-82845635D01*
X147946496Y-82786739D01*
X148152734Y-82690568D01*
X148339139Y-82560047D01*
X148500047Y-82399139D01*
X148630568Y-82212734D01*
X148726739Y-82006496D01*
X148785635Y-81786692D01*
X148805468Y-81560000D01*
X148785635Y-81333308D01*
X148726739Y-81113504D01*
X148630568Y-80907266D01*
X148500047Y-80720861D01*
X148500045Y-80720858D01*
X148339141Y-80559954D01*
X148152734Y-80429432D01*
X148152732Y-80429431D01*
X148029862Y-80372135D01*
X150799500Y-80372135D01*
X150799500Y-82667870D01*
X150799501Y-82667876D01*
X150805908Y-82727483D01*
X150856202Y-82862328D01*
X150856206Y-82862335D01*
X150942452Y-82977544D01*
X150942455Y-82977547D01*
X151057664Y-83063793D01*
X151057671Y-83063797D01*
X151192517Y-83114091D01*
X151192516Y-83114091D01*
X151199444Y-83114835D01*
X151252127Y-83120500D01*
X153547872Y-83120499D01*
X153607483Y-83114091D01*
X153742331Y-83063796D01*
X153857546Y-82977546D01*
X153943796Y-82862331D01*
X153994091Y-82727483D01*
X154000500Y-82667873D01*
X154000499Y-80372128D01*
X153994091Y-80312517D01*
X153979861Y-80274365D01*
X153943797Y-80177671D01*
X153943793Y-80177664D01*
X153857547Y-80062455D01*
X153857544Y-80062452D01*
X153742335Y-79976206D01*
X153742328Y-79976202D01*
X153607482Y-79925908D01*
X153607483Y-79925908D01*
X153547883Y-79919501D01*
X153547881Y-79919500D01*
X153547873Y-79919500D01*
X153547864Y-79919500D01*
X151252129Y-79919500D01*
X151252123Y-79919501D01*
X151192516Y-79925908D01*
X151057671Y-79976202D01*
X151057664Y-79976206D01*
X150942455Y-80062452D01*
X150942452Y-80062455D01*
X150856206Y-80177664D01*
X150856202Y-80177671D01*
X150805908Y-80312517D01*
X150799501Y-80372116D01*
X150799501Y-80372123D01*
X150799500Y-80372135D01*
X148029862Y-80372135D01*
X147946497Y-80333261D01*
X147946488Y-80333258D01*
X147726697Y-80274366D01*
X147726693Y-80274365D01*
X147726692Y-80274365D01*
X147726691Y-80274364D01*
X147726686Y-80274364D01*
X147500002Y-80254532D01*
X147499998Y-80254532D01*
X147273313Y-80274364D01*
X147273302Y-80274366D01*
X147053511Y-80333258D01*
X147053502Y-80333261D01*
X146847267Y-80429431D01*
X146847265Y-80429432D01*
X146660858Y-80559954D01*
X146499954Y-80720858D01*
X146369432Y-80907265D01*
X146369431Y-80907267D01*
X146273261Y-81113502D01*
X146273258Y-81113511D01*
X146214366Y-81333302D01*
X146214364Y-81333313D01*
X146194532Y-81559998D01*
X123116549Y-81559998D01*
X123107733Y-81541264D01*
X123053933Y-81456488D01*
X122945888Y-81286236D01*
X122830285Y-81146496D01*
X122753349Y-81053496D01*
X122707028Y-81009998D01*
X122533163Y-80846727D01*
X122533153Y-80846719D01*
X122288806Y-80669191D01*
X122288799Y-80669186D01*
X122288795Y-80669184D01*
X122024104Y-80523668D01*
X122024101Y-80523666D01*
X122024096Y-80523664D01*
X122024095Y-80523663D01*
X121743265Y-80412475D01*
X121743262Y-80412474D01*
X121450695Y-80337357D01*
X121151036Y-80299500D01*
X121151027Y-80299500D01*
X120848973Y-80299500D01*
X120848963Y-80299500D01*
X120549304Y-80337357D01*
X120256737Y-80412474D01*
X120256734Y-80412475D01*
X119975904Y-80523663D01*
X119975903Y-80523664D01*
X119711205Y-80669184D01*
X119711193Y-80669191D01*
X119466846Y-80846719D01*
X119466836Y-80846727D01*
X119246652Y-81053494D01*
X119054111Y-81286236D01*
X118892268Y-81541261D01*
X118892265Y-81541267D01*
X118763661Y-81814563D01*
X118763659Y-81814568D01*
X118670320Y-82101835D01*
X118613719Y-82398546D01*
X118613718Y-82398553D01*
X118594754Y-82699994D01*
X117250500Y-82699994D01*
X117250500Y-78544887D01*
X134441127Y-78544887D01*
X134441128Y-78544888D01*
X135404314Y-78544888D01*
X135399920Y-78549282D01*
X135347259Y-78640494D01*
X135320000Y-78742227D01*
X135320000Y-78847549D01*
X135347259Y-78949282D01*
X135399920Y-79040494D01*
X135404314Y-79044888D01*
X134441128Y-79044888D01*
X134493730Y-79241205D01*
X134493734Y-79241214D01*
X134589865Y-79447370D01*
X134720342Y-79633708D01*
X134881179Y-79794545D01*
X135067517Y-79925022D01*
X135273673Y-80021153D01*
X135273682Y-80021157D01*
X135469999Y-80073760D01*
X135470000Y-80073759D01*
X135470000Y-79110574D01*
X135474394Y-79114968D01*
X135565606Y-79167629D01*
X135667339Y-79194888D01*
X135772661Y-79194888D01*
X135874394Y-79167629D01*
X135965606Y-79114968D01*
X135970000Y-79110574D01*
X135970000Y-80073760D01*
X136166317Y-80021157D01*
X136166326Y-80021153D01*
X136372482Y-79925022D01*
X136558820Y-79794545D01*
X136719657Y-79633708D01*
X136850134Y-79447370D01*
X136946265Y-79241214D01*
X136946269Y-79241205D01*
X136998872Y-79044888D01*
X136035686Y-79044888D01*
X136040080Y-79040494D01*
X136092741Y-78949282D01*
X136120000Y-78847549D01*
X136120000Y-78794886D01*
X142034532Y-78794886D01*
X142034532Y-78794889D01*
X142054364Y-79021574D01*
X142054366Y-79021585D01*
X142113258Y-79241376D01*
X142113261Y-79241385D01*
X142209431Y-79447620D01*
X142209432Y-79447622D01*
X142339954Y-79634029D01*
X142500858Y-79794933D01*
X142500861Y-79794935D01*
X142687266Y-79925456D01*
X142893504Y-80021627D01*
X143113308Y-80080523D01*
X143275230Y-80094689D01*
X143339998Y-80100356D01*
X143340000Y-80100356D01*
X143340002Y-80100356D01*
X143396673Y-80095397D01*
X143566692Y-80080523D01*
X143786496Y-80021627D01*
X143992734Y-79925456D01*
X144179139Y-79794935D01*
X144340047Y-79634027D01*
X144470568Y-79447622D01*
X144566739Y-79241384D01*
X144625635Y-79021580D01*
X144645468Y-78794888D01*
X144625635Y-78568196D01*
X144566739Y-78348392D01*
X144497541Y-78199998D01*
X151194532Y-78199998D01*
X151194532Y-78200001D01*
X151214364Y-78426686D01*
X151214366Y-78426697D01*
X151273258Y-78646488D01*
X151273261Y-78646497D01*
X151369431Y-78852732D01*
X151369432Y-78852734D01*
X151499954Y-79039141D01*
X151660858Y-79200045D01*
X151660861Y-79200047D01*
X151847266Y-79330568D01*
X152053504Y-79426739D01*
X152273308Y-79485635D01*
X152435230Y-79499801D01*
X152499998Y-79505468D01*
X152500000Y-79505468D01*
X152500002Y-79505468D01*
X152556673Y-79500509D01*
X152726692Y-79485635D01*
X152946496Y-79426739D01*
X153152734Y-79330568D01*
X153339139Y-79200047D01*
X153500047Y-79039139D01*
X153630568Y-78852734D01*
X153726739Y-78646496D01*
X153785635Y-78426692D01*
X153805468Y-78200000D01*
X153785635Y-77973308D01*
X153726739Y-77753504D01*
X153630568Y-77547266D01*
X153500047Y-77360861D01*
X153500045Y-77360858D01*
X153339141Y-77199954D01*
X153152734Y-77069432D01*
X153152732Y-77069431D01*
X152946497Y-76973261D01*
X152946488Y-76973258D01*
X152726697Y-76914366D01*
X152726693Y-76914365D01*
X152726692Y-76914365D01*
X152726691Y-76914364D01*
X152726686Y-76914364D01*
X152500002Y-76894532D01*
X152499998Y-76894532D01*
X152273313Y-76914364D01*
X152273302Y-76914366D01*
X152053511Y-76973258D01*
X152053502Y-76973261D01*
X151847267Y-77069431D01*
X151847265Y-77069432D01*
X151660858Y-77199954D01*
X151499954Y-77360858D01*
X151369432Y-77547265D01*
X151369431Y-77547267D01*
X151273261Y-77753502D01*
X151273258Y-77753511D01*
X151214366Y-77973302D01*
X151214364Y-77973313D01*
X151194532Y-78199998D01*
X144497541Y-78199998D01*
X144470568Y-78142154D01*
X144340047Y-77955749D01*
X144340045Y-77955746D01*
X144179141Y-77794842D01*
X143992734Y-77664320D01*
X143992732Y-77664319D01*
X143786497Y-77568149D01*
X143786488Y-77568146D01*
X143566697Y-77509254D01*
X143566693Y-77509253D01*
X143566692Y-77509253D01*
X143566691Y-77509252D01*
X143566686Y-77509252D01*
X143340002Y-77489420D01*
X143339998Y-77489420D01*
X143113313Y-77509252D01*
X143113302Y-77509254D01*
X142893511Y-77568146D01*
X142893502Y-77568149D01*
X142687267Y-77664319D01*
X142687265Y-77664320D01*
X142500858Y-77794842D01*
X142339954Y-77955746D01*
X142209432Y-78142153D01*
X142209431Y-78142155D01*
X142113261Y-78348390D01*
X142113258Y-78348399D01*
X142054366Y-78568190D01*
X142054364Y-78568201D01*
X142034532Y-78794886D01*
X136120000Y-78794886D01*
X136120000Y-78742227D01*
X136092741Y-78640494D01*
X136040080Y-78549282D01*
X136035686Y-78544888D01*
X136998872Y-78544888D01*
X136998872Y-78544887D01*
X136946269Y-78348570D01*
X136946265Y-78348561D01*
X136850134Y-78142405D01*
X136719657Y-77956067D01*
X136558820Y-77795230D01*
X136372482Y-77664753D01*
X136166328Y-77568622D01*
X135970000Y-77516015D01*
X135970000Y-78479202D01*
X135965606Y-78474808D01*
X135874394Y-78422147D01*
X135772661Y-78394888D01*
X135667339Y-78394888D01*
X135565606Y-78422147D01*
X135474394Y-78474808D01*
X135470000Y-78479202D01*
X135470000Y-77516015D01*
X135273671Y-77568622D01*
X135067517Y-77664753D01*
X134881179Y-77795230D01*
X134720342Y-77956067D01*
X134589865Y-78142405D01*
X134493734Y-78348561D01*
X134493730Y-78348570D01*
X134441127Y-78544887D01*
X117250500Y-78544887D01*
X117250500Y-75949998D01*
X119574532Y-75949998D01*
X119574532Y-75950001D01*
X119594364Y-76176686D01*
X119594366Y-76176697D01*
X119653258Y-76396488D01*
X119653261Y-76396497D01*
X119749431Y-76602732D01*
X119749432Y-76602734D01*
X119879954Y-76789141D01*
X120040858Y-76950045D01*
X120040861Y-76950047D01*
X120227266Y-77080568D01*
X120433504Y-77176739D01*
X120653308Y-77235635D01*
X120815230Y-77249801D01*
X120879998Y-77255468D01*
X120880000Y-77255468D01*
X120880002Y-77255468D01*
X120936673Y-77250509D01*
X121106692Y-77235635D01*
X121326496Y-77176739D01*
X121532734Y-77080568D01*
X121719139Y-76950047D01*
X121880047Y-76789139D01*
X122010568Y-76602734D01*
X122106739Y-76396496D01*
X122165635Y-76176692D01*
X122185468Y-75950000D01*
X122165635Y-75723308D01*
X122159389Y-75699999D01*
X127221127Y-75699999D01*
X127221128Y-75700000D01*
X128184314Y-75700000D01*
X128179920Y-75704394D01*
X128127259Y-75795606D01*
X128100000Y-75897339D01*
X128100000Y-76002661D01*
X128127259Y-76104394D01*
X128179920Y-76195606D01*
X128184314Y-76200000D01*
X127221128Y-76200000D01*
X127273730Y-76396317D01*
X127273734Y-76396326D01*
X127369865Y-76602482D01*
X127500342Y-76788820D01*
X127661179Y-76949657D01*
X127847517Y-77080134D01*
X128053673Y-77176265D01*
X128053682Y-77176269D01*
X128249999Y-77228872D01*
X128250000Y-77228871D01*
X128250000Y-76265686D01*
X128254394Y-76270080D01*
X128345606Y-76322741D01*
X128447339Y-76350000D01*
X128552661Y-76350000D01*
X128654394Y-76322741D01*
X128745606Y-76270080D01*
X128750000Y-76265686D01*
X128750000Y-77228872D01*
X128946317Y-77176269D01*
X128946326Y-77176265D01*
X129152482Y-77080134D01*
X129338820Y-76949657D01*
X129499657Y-76788820D01*
X129630134Y-76602482D01*
X129726265Y-76396326D01*
X129726269Y-76396317D01*
X129778872Y-76200000D01*
X128815686Y-76200000D01*
X128820080Y-76195606D01*
X128872741Y-76104394D01*
X128900000Y-76002661D01*
X128900000Y-75897339D01*
X128872741Y-75795606D01*
X128820080Y-75704394D01*
X128815686Y-75700000D01*
X129778872Y-75700000D01*
X129778872Y-75699999D01*
X129726269Y-75503682D01*
X129726265Y-75503673D01*
X129630134Y-75297517D01*
X129499657Y-75111179D01*
X129338820Y-74950342D01*
X129152482Y-74819865D01*
X128946328Y-74723734D01*
X128750000Y-74671127D01*
X128750000Y-75634314D01*
X128745606Y-75629920D01*
X128654394Y-75577259D01*
X128552661Y-75550000D01*
X128447339Y-75550000D01*
X128345606Y-75577259D01*
X128254394Y-75629920D01*
X128250000Y-75634314D01*
X128250000Y-74671127D01*
X128053671Y-74723734D01*
X127847517Y-74819865D01*
X127661179Y-74950342D01*
X127500342Y-75111179D01*
X127369865Y-75297517D01*
X127273734Y-75503673D01*
X127273730Y-75503682D01*
X127221127Y-75699999D01*
X122159389Y-75699999D01*
X122106739Y-75503504D01*
X122010568Y-75297266D01*
X121880047Y-75110861D01*
X121880045Y-75110858D01*
X121719141Y-74949954D01*
X121532734Y-74819432D01*
X121532732Y-74819431D01*
X121326497Y-74723261D01*
X121326488Y-74723258D01*
X121106697Y-74664366D01*
X121106693Y-74664365D01*
X121106692Y-74664365D01*
X121106691Y-74664364D01*
X121106686Y-74664364D01*
X120880002Y-74644532D01*
X120879998Y-74644532D01*
X120653313Y-74664364D01*
X120653302Y-74664366D01*
X120433511Y-74723258D01*
X120433502Y-74723261D01*
X120227267Y-74819431D01*
X120227265Y-74819432D01*
X120040858Y-74949954D01*
X119879954Y-75110858D01*
X119749432Y-75297265D01*
X119749431Y-75297267D01*
X119653261Y-75503502D01*
X119653258Y-75503511D01*
X119594366Y-75723302D01*
X119594364Y-75723313D01*
X119574532Y-75949998D01*
X117250500Y-75949998D01*
X117250500Y-73794886D01*
X134414532Y-73794886D01*
X134414532Y-73794889D01*
X134434364Y-74021574D01*
X134434366Y-74021585D01*
X134493258Y-74241376D01*
X134493261Y-74241385D01*
X134589431Y-74447620D01*
X134589432Y-74447622D01*
X134719954Y-74634029D01*
X134880858Y-74794933D01*
X134880861Y-74794935D01*
X135067266Y-74925456D01*
X135273504Y-75021627D01*
X135493308Y-75080523D01*
X135655230Y-75094689D01*
X135719998Y-75100356D01*
X135720000Y-75100356D01*
X135720002Y-75100356D01*
X135776673Y-75095397D01*
X135946692Y-75080523D01*
X136166496Y-75021627D01*
X136372734Y-74925456D01*
X136559139Y-74794935D01*
X136720047Y-74634027D01*
X136850568Y-74447622D01*
X136946739Y-74241384D01*
X137005635Y-74021580D01*
X137025468Y-73794888D01*
X137025468Y-73794886D01*
X142034532Y-73794886D01*
X142034532Y-73794889D01*
X142054364Y-74021574D01*
X142054366Y-74021585D01*
X142113258Y-74241376D01*
X142113261Y-74241385D01*
X142209431Y-74447620D01*
X142209432Y-74447622D01*
X142339954Y-74634029D01*
X142500858Y-74794933D01*
X142500861Y-74794935D01*
X142687266Y-74925456D01*
X142893504Y-75021627D01*
X143113308Y-75080523D01*
X143275230Y-75094689D01*
X143339998Y-75100356D01*
X143340000Y-75100356D01*
X143340002Y-75100356D01*
X143396673Y-75095397D01*
X143566692Y-75080523D01*
X143786496Y-75021627D01*
X143992734Y-74925456D01*
X144179139Y-74794935D01*
X144340047Y-74634027D01*
X144470568Y-74447622D01*
X144566739Y-74241384D01*
X144625635Y-74021580D01*
X144632773Y-73939998D01*
X146194532Y-73939998D01*
X146194532Y-73940001D01*
X146214364Y-74166686D01*
X146214366Y-74166697D01*
X146273258Y-74386488D01*
X146273261Y-74386497D01*
X146369431Y-74592732D01*
X146369432Y-74592734D01*
X146499954Y-74779141D01*
X146660858Y-74940045D01*
X146660861Y-74940047D01*
X146847266Y-75070568D01*
X147053504Y-75166739D01*
X147273308Y-75225635D01*
X147435230Y-75239801D01*
X147499998Y-75245468D01*
X147500000Y-75245468D01*
X147500002Y-75245468D01*
X147556673Y-75240509D01*
X147726692Y-75225635D01*
X147946496Y-75166739D01*
X148152734Y-75070568D01*
X148339139Y-74940047D01*
X148500047Y-74779139D01*
X148630568Y-74592734D01*
X148726739Y-74386496D01*
X148785635Y-74166692D01*
X148805468Y-73940000D01*
X148785635Y-73713308D01*
X148726739Y-73493504D01*
X148630568Y-73287266D01*
X148569462Y-73199997D01*
X151195034Y-73199997D01*
X151195034Y-73200002D01*
X151214858Y-73426599D01*
X151214860Y-73426610D01*
X151273730Y-73646317D01*
X151273735Y-73646331D01*
X151369863Y-73852478D01*
X151420974Y-73925472D01*
X152100000Y-73246446D01*
X152100000Y-73252661D01*
X152127259Y-73354394D01*
X152179920Y-73445606D01*
X152254394Y-73520080D01*
X152345606Y-73572741D01*
X152447339Y-73600000D01*
X152453553Y-73600000D01*
X151774526Y-74279025D01*
X151847513Y-74330132D01*
X151847521Y-74330136D01*
X152053668Y-74426264D01*
X152053682Y-74426269D01*
X152273389Y-74485139D01*
X152273400Y-74485141D01*
X152499998Y-74504966D01*
X152500002Y-74504966D01*
X152726599Y-74485141D01*
X152726610Y-74485139D01*
X152946317Y-74426269D01*
X152946331Y-74426264D01*
X153152478Y-74330136D01*
X153225471Y-74279024D01*
X152546447Y-73600000D01*
X152552661Y-73600000D01*
X152654394Y-73572741D01*
X152745606Y-73520080D01*
X152820080Y-73445606D01*
X152872741Y-73354394D01*
X152900000Y-73252661D01*
X152900000Y-73246447D01*
X153579024Y-73925471D01*
X153630136Y-73852478D01*
X153726264Y-73646331D01*
X153726269Y-73646317D01*
X153785139Y-73426610D01*
X153785141Y-73426599D01*
X153804966Y-73200002D01*
X153804966Y-73199997D01*
X153785141Y-72973400D01*
X153785139Y-72973389D01*
X153726269Y-72753682D01*
X153726264Y-72753668D01*
X153630136Y-72547521D01*
X153630132Y-72547513D01*
X153579025Y-72474526D01*
X152900000Y-73153551D01*
X152900000Y-73147339D01*
X152872741Y-73045606D01*
X152820080Y-72954394D01*
X152745606Y-72879920D01*
X152654394Y-72827259D01*
X152552661Y-72800000D01*
X152546445Y-72800000D01*
X153225472Y-72120974D01*
X153152478Y-72069863D01*
X152946331Y-71973735D01*
X152946317Y-71973730D01*
X152726610Y-71914860D01*
X152726599Y-71914858D01*
X152500002Y-71895034D01*
X152499998Y-71895034D01*
X152273400Y-71914858D01*
X152273389Y-71914860D01*
X152053682Y-71973730D01*
X152053673Y-71973734D01*
X151847516Y-72069866D01*
X151847512Y-72069868D01*
X151774526Y-72120973D01*
X151774526Y-72120974D01*
X152453553Y-72800000D01*
X152447339Y-72800000D01*
X152345606Y-72827259D01*
X152254394Y-72879920D01*
X152179920Y-72954394D01*
X152127259Y-73045606D01*
X152100000Y-73147339D01*
X152100000Y-73153552D01*
X151420974Y-72474526D01*
X151420973Y-72474526D01*
X151369868Y-72547512D01*
X151369866Y-72547516D01*
X151273734Y-72753673D01*
X151273730Y-72753682D01*
X151214860Y-72973389D01*
X151214858Y-72973400D01*
X151195034Y-73199997D01*
X148569462Y-73199997D01*
X148500047Y-73100861D01*
X148500045Y-73100858D01*
X148339141Y-72939954D01*
X148152734Y-72809432D01*
X148152732Y-72809431D01*
X147946497Y-72713261D01*
X147946488Y-72713258D01*
X147726697Y-72654366D01*
X147726693Y-72654365D01*
X147726692Y-72654365D01*
X147726691Y-72654364D01*
X147726686Y-72654364D01*
X147500002Y-72634532D01*
X147499998Y-72634532D01*
X147273313Y-72654364D01*
X147273302Y-72654366D01*
X147053511Y-72713258D01*
X147053502Y-72713261D01*
X146847267Y-72809431D01*
X146847265Y-72809432D01*
X146660858Y-72939954D01*
X146499954Y-73100858D01*
X146369432Y-73287265D01*
X146369431Y-73287267D01*
X146273261Y-73493502D01*
X146273258Y-73493511D01*
X146214366Y-73713302D01*
X146214364Y-73713313D01*
X146194532Y-73939998D01*
X144632773Y-73939998D01*
X144645468Y-73794888D01*
X144625635Y-73568196D01*
X144566739Y-73348392D01*
X144470568Y-73142154D01*
X144340047Y-72955749D01*
X144340045Y-72955746D01*
X144179141Y-72794842D01*
X143992734Y-72664320D01*
X143992732Y-72664319D01*
X143786497Y-72568149D01*
X143786488Y-72568146D01*
X143566697Y-72509254D01*
X143566693Y-72509253D01*
X143566692Y-72509253D01*
X143566691Y-72509252D01*
X143566686Y-72509252D01*
X143340002Y-72489420D01*
X143339998Y-72489420D01*
X143113313Y-72509252D01*
X143113302Y-72509254D01*
X142893511Y-72568146D01*
X142893502Y-72568149D01*
X142687267Y-72664319D01*
X142687265Y-72664320D01*
X142500858Y-72794842D01*
X142339954Y-72955746D01*
X142209432Y-73142153D01*
X142209431Y-73142155D01*
X142113261Y-73348390D01*
X142113258Y-73348399D01*
X142054366Y-73568190D01*
X142054364Y-73568201D01*
X142034532Y-73794886D01*
X137025468Y-73794886D01*
X137005635Y-73568196D01*
X136946739Y-73348392D01*
X136850568Y-73142154D01*
X136720047Y-72955749D01*
X136720045Y-72955746D01*
X136559141Y-72794842D01*
X136372734Y-72664320D01*
X136372732Y-72664319D01*
X136166497Y-72568149D01*
X136166488Y-72568146D01*
X135946697Y-72509254D01*
X135946693Y-72509253D01*
X135946692Y-72509253D01*
X135946691Y-72509252D01*
X135946686Y-72509252D01*
X135720002Y-72489420D01*
X135719998Y-72489420D01*
X135493313Y-72509252D01*
X135493302Y-72509254D01*
X135273511Y-72568146D01*
X135273502Y-72568149D01*
X135067267Y-72664319D01*
X135067265Y-72664320D01*
X134880858Y-72794842D01*
X134719954Y-72955746D01*
X134589432Y-73142153D01*
X134589431Y-73142155D01*
X134493261Y-73348390D01*
X134493258Y-73348399D01*
X134434366Y-73568190D01*
X134434364Y-73568201D01*
X134414532Y-73794886D01*
X117250500Y-73794886D01*
X117250500Y-71199998D01*
X119694532Y-71199998D01*
X119694532Y-71200001D01*
X119714364Y-71426686D01*
X119714366Y-71426697D01*
X119773258Y-71646488D01*
X119773261Y-71646497D01*
X119869431Y-71852732D01*
X119869432Y-71852734D01*
X119999954Y-72039141D01*
X120160858Y-72200045D01*
X120160861Y-72200047D01*
X120347266Y-72330568D01*
X120553504Y-72426739D01*
X120553509Y-72426740D01*
X120553511Y-72426741D01*
X120606415Y-72440916D01*
X120773308Y-72485635D01*
X120935230Y-72499801D01*
X120999998Y-72505468D01*
X121000000Y-72505468D01*
X121000002Y-72505468D01*
X121056673Y-72500509D01*
X121226692Y-72485635D01*
X121446496Y-72426739D01*
X121652734Y-72330568D01*
X121839139Y-72200047D01*
X122000047Y-72039139D01*
X122130568Y-71852734D01*
X122226739Y-71646496D01*
X122285635Y-71426692D01*
X122305468Y-71200000D01*
X122305468Y-71199998D01*
X124694532Y-71199998D01*
X124694532Y-71200001D01*
X124714364Y-71426686D01*
X124714366Y-71426697D01*
X124773258Y-71646488D01*
X124773261Y-71646497D01*
X124869431Y-71852732D01*
X124869432Y-71852734D01*
X124999954Y-72039141D01*
X125160858Y-72200045D01*
X125160861Y-72200047D01*
X125347266Y-72330568D01*
X125553504Y-72426739D01*
X125553509Y-72426740D01*
X125553511Y-72426741D01*
X125606415Y-72440916D01*
X125773308Y-72485635D01*
X125935230Y-72499801D01*
X125999998Y-72505468D01*
X126000000Y-72505468D01*
X126000002Y-72505468D01*
X126056673Y-72500509D01*
X126226692Y-72485635D01*
X126446496Y-72426739D01*
X126652734Y-72330568D01*
X126839139Y-72200047D01*
X127000047Y-72039139D01*
X127130568Y-71852734D01*
X127226739Y-71646496D01*
X127285635Y-71426692D01*
X127305468Y-71200000D01*
X127285635Y-70973308D01*
X127226739Y-70753504D01*
X127130568Y-70547266D01*
X127000047Y-70360861D01*
X127000045Y-70360858D01*
X126839141Y-70199954D01*
X126652734Y-70069432D01*
X126652732Y-70069431D01*
X126446497Y-69973261D01*
X126446488Y-69973258D01*
X126226697Y-69914366D01*
X126226693Y-69914365D01*
X126226692Y-69914365D01*
X126226691Y-69914364D01*
X126226686Y-69914364D01*
X126000002Y-69894532D01*
X125999998Y-69894532D01*
X125773313Y-69914364D01*
X125773302Y-69914366D01*
X125553511Y-69973258D01*
X125553502Y-69973261D01*
X125347267Y-70069431D01*
X125347265Y-70069432D01*
X125160858Y-70199954D01*
X124999954Y-70360858D01*
X124869432Y-70547265D01*
X124869431Y-70547267D01*
X124773261Y-70753502D01*
X124773258Y-70753511D01*
X124714366Y-70973302D01*
X124714364Y-70973313D01*
X124694532Y-71199998D01*
X122305468Y-71199998D01*
X122285635Y-70973308D01*
X122226739Y-70753504D01*
X122130568Y-70547266D01*
X122000047Y-70360861D01*
X122000045Y-70360858D01*
X121839141Y-70199954D01*
X121652734Y-70069432D01*
X121652732Y-70069431D01*
X121446497Y-69973261D01*
X121446488Y-69973258D01*
X121226697Y-69914366D01*
X121226693Y-69914365D01*
X121226692Y-69914365D01*
X121226691Y-69914364D01*
X121226686Y-69914364D01*
X121000002Y-69894532D01*
X120999998Y-69894532D01*
X120773313Y-69914364D01*
X120773302Y-69914366D01*
X120553511Y-69973258D01*
X120553502Y-69973261D01*
X120347267Y-70069431D01*
X120347265Y-70069432D01*
X120160858Y-70199954D01*
X119999954Y-70360858D01*
X119869432Y-70547265D01*
X119869431Y-70547267D01*
X119773261Y-70753502D01*
X119773258Y-70753511D01*
X119714366Y-70973302D01*
X119714364Y-70973313D01*
X119694532Y-71199998D01*
X117250500Y-71199998D01*
X117250500Y-68499997D01*
X130400147Y-68499997D01*
X130400147Y-68500002D01*
X130419971Y-68726599D01*
X130419973Y-68726610D01*
X130478843Y-68946317D01*
X130478848Y-68946331D01*
X130574976Y-69152478D01*
X130626087Y-69225472D01*
X131305113Y-68546446D01*
X131305113Y-68552661D01*
X131332372Y-68654394D01*
X131385033Y-68745606D01*
X131459507Y-68820080D01*
X131550719Y-68872741D01*
X131652452Y-68900000D01*
X131658666Y-68900000D01*
X130979639Y-69579025D01*
X131052626Y-69630132D01*
X131052634Y-69630136D01*
X131258781Y-69726264D01*
X131258795Y-69726269D01*
X131478502Y-69785139D01*
X131478513Y-69785141D01*
X131705111Y-69804966D01*
X131705115Y-69804966D01*
X131931712Y-69785141D01*
X131931723Y-69785139D01*
X132151430Y-69726269D01*
X132151444Y-69726264D01*
X132357591Y-69630136D01*
X132430584Y-69579024D01*
X131751560Y-68900000D01*
X131757774Y-68900000D01*
X131859507Y-68872741D01*
X131950719Y-68820080D01*
X132025193Y-68745606D01*
X132077854Y-68654394D01*
X132105113Y-68552661D01*
X132105113Y-68546447D01*
X132789310Y-69230644D01*
X132838305Y-69240491D01*
X132888488Y-69289106D01*
X132903162Y-69344632D01*
X132904212Y-69344576D01*
X132904259Y-69344571D01*
X132904259Y-69344573D01*
X132904437Y-69344564D01*
X132904614Y-69347876D01*
X132911021Y-69407483D01*
X132961315Y-69542328D01*
X132961319Y-69542335D01*
X133047565Y-69657544D01*
X133047568Y-69657547D01*
X133162777Y-69743793D01*
X133162784Y-69743797D01*
X133297630Y-69794091D01*
X133297629Y-69794091D01*
X133304557Y-69794835D01*
X133357240Y-69800500D01*
X135052985Y-69800499D01*
X135112596Y-69794091D01*
X135247444Y-69743796D01*
X135362659Y-69657546D01*
X135448909Y-69542331D01*
X135499204Y-69407483D01*
X135505613Y-69347873D01*
X135505612Y-68499997D01*
X139195034Y-68499997D01*
X139195034Y-68500002D01*
X139214858Y-68726599D01*
X139214860Y-68726610D01*
X139273730Y-68946317D01*
X139273735Y-68946331D01*
X139369863Y-69152478D01*
X139420974Y-69225472D01*
X140100000Y-68546446D01*
X140100000Y-68552661D01*
X140127259Y-68654394D01*
X140179920Y-68745606D01*
X140254394Y-68820080D01*
X140345606Y-68872741D01*
X140447339Y-68900000D01*
X140453553Y-68900000D01*
X139774526Y-69579025D01*
X139847513Y-69630132D01*
X139847521Y-69630136D01*
X140053668Y-69726264D01*
X140053682Y-69726269D01*
X140273389Y-69785139D01*
X140273400Y-69785141D01*
X140499998Y-69804966D01*
X140500002Y-69804966D01*
X140726599Y-69785141D01*
X140726610Y-69785139D01*
X140946317Y-69726269D01*
X140946331Y-69726264D01*
X141152478Y-69630136D01*
X141225471Y-69579024D01*
X140546447Y-68900000D01*
X140552661Y-68900000D01*
X140654394Y-68872741D01*
X140745606Y-68820080D01*
X140820080Y-68745606D01*
X140872741Y-68654394D01*
X140900000Y-68552661D01*
X140900000Y-68546447D01*
X141584197Y-69230644D01*
X141633192Y-69240491D01*
X141683375Y-69289106D01*
X141698049Y-69344632D01*
X141699099Y-69344576D01*
X141699146Y-69344571D01*
X141699146Y-69344573D01*
X141699324Y-69344564D01*
X141699501Y-69347876D01*
X141705908Y-69407483D01*
X141756202Y-69542328D01*
X141756206Y-69542335D01*
X141842452Y-69657544D01*
X141842455Y-69657547D01*
X141957664Y-69743793D01*
X141957671Y-69743797D01*
X142092517Y-69794091D01*
X142092516Y-69794091D01*
X142099444Y-69794835D01*
X142152127Y-69800500D01*
X143847872Y-69800499D01*
X143907483Y-69794091D01*
X144042331Y-69743796D01*
X144157546Y-69657546D01*
X144243796Y-69542331D01*
X144294091Y-69407483D01*
X144300500Y-69347873D01*
X144300499Y-67652128D01*
X144294091Y-67592517D01*
X144289634Y-67580568D01*
X144243797Y-67457671D01*
X144243793Y-67457664D01*
X144157547Y-67342455D01*
X144157544Y-67342452D01*
X144042335Y-67256206D01*
X144042328Y-67256202D01*
X143907482Y-67205908D01*
X143907483Y-67205908D01*
X143847883Y-67199501D01*
X143847881Y-67199500D01*
X143847873Y-67199500D01*
X143847864Y-67199500D01*
X142152129Y-67199500D01*
X142152123Y-67199501D01*
X142092516Y-67205908D01*
X141957671Y-67256202D01*
X141957664Y-67256206D01*
X141842455Y-67342452D01*
X141842452Y-67342455D01*
X141756206Y-67457664D01*
X141756202Y-67457671D01*
X141705908Y-67592517D01*
X141699501Y-67652116D01*
X141699501Y-67652123D01*
X141699322Y-67655452D01*
X141697847Y-67655372D01*
X141679815Y-67716784D01*
X141627011Y-67762539D01*
X141583522Y-67770029D01*
X140900000Y-68453551D01*
X140900000Y-68447339D01*
X140872741Y-68345606D01*
X140820080Y-68254394D01*
X140745606Y-68179920D01*
X140654394Y-68127259D01*
X140552661Y-68100000D01*
X140546445Y-68100000D01*
X141225472Y-67420974D01*
X141152478Y-67369863D01*
X140946331Y-67273735D01*
X140946317Y-67273730D01*
X140726610Y-67214860D01*
X140726599Y-67214858D01*
X140500002Y-67195034D01*
X140499998Y-67195034D01*
X140273400Y-67214858D01*
X140273389Y-67214860D01*
X140053682Y-67273730D01*
X140053673Y-67273734D01*
X139847516Y-67369866D01*
X139847512Y-67369868D01*
X139774526Y-67420973D01*
X139774526Y-67420974D01*
X140453553Y-68100000D01*
X140447339Y-68100000D01*
X140345606Y-68127259D01*
X140254394Y-68179920D01*
X140179920Y-68254394D01*
X140127259Y-68345606D01*
X140100000Y-68447339D01*
X140100000Y-68453552D01*
X139420974Y-67774526D01*
X139420973Y-67774526D01*
X139369868Y-67847512D01*
X139369866Y-67847516D01*
X139273734Y-68053673D01*
X139273730Y-68053682D01*
X139214860Y-68273389D01*
X139214858Y-68273400D01*
X139195034Y-68499997D01*
X135505612Y-68499997D01*
X135505612Y-67652128D01*
X135499204Y-67592517D01*
X135494747Y-67580568D01*
X135448910Y-67457671D01*
X135448906Y-67457664D01*
X135362660Y-67342455D01*
X135362657Y-67342452D01*
X135247448Y-67256206D01*
X135247441Y-67256202D01*
X135112595Y-67205908D01*
X135112596Y-67205908D01*
X135052996Y-67199501D01*
X135052994Y-67199500D01*
X135052986Y-67199500D01*
X135052977Y-67199500D01*
X133357242Y-67199500D01*
X133357236Y-67199501D01*
X133297629Y-67205908D01*
X133162784Y-67256202D01*
X133162777Y-67256206D01*
X133047568Y-67342452D01*
X133047565Y-67342455D01*
X132961319Y-67457664D01*
X132961315Y-67457671D01*
X132911021Y-67592517D01*
X132904614Y-67652116D01*
X132904614Y-67652123D01*
X132904435Y-67655452D01*
X132902960Y-67655372D01*
X132884928Y-67716784D01*
X132832124Y-67762539D01*
X132788635Y-67770029D01*
X132105113Y-68453551D01*
X132105113Y-68447339D01*
X132077854Y-68345606D01*
X132025193Y-68254394D01*
X131950719Y-68179920D01*
X131859507Y-68127259D01*
X131757774Y-68100000D01*
X131751558Y-68100000D01*
X132430585Y-67420974D01*
X132357591Y-67369863D01*
X132151444Y-67273735D01*
X132151430Y-67273730D01*
X131931723Y-67214860D01*
X131931712Y-67214858D01*
X131705115Y-67195034D01*
X131705111Y-67195034D01*
X131478513Y-67214858D01*
X131478502Y-67214860D01*
X131258795Y-67273730D01*
X131258786Y-67273734D01*
X131052629Y-67369866D01*
X131052625Y-67369868D01*
X130979639Y-67420973D01*
X130979639Y-67420974D01*
X131658666Y-68100000D01*
X131652452Y-68100000D01*
X131550719Y-68127259D01*
X131459507Y-68179920D01*
X131385033Y-68254394D01*
X131332372Y-68345606D01*
X131305113Y-68447339D01*
X131305113Y-68453552D01*
X130626087Y-67774526D01*
X130626086Y-67774526D01*
X130574981Y-67847512D01*
X130574979Y-67847516D01*
X130478847Y-68053673D01*
X130478843Y-68053682D01*
X130419973Y-68273389D01*
X130419971Y-68273400D01*
X130400147Y-68499997D01*
X117250500Y-68499997D01*
X117250500Y-66449998D01*
X119384532Y-66449998D01*
X119384532Y-66450001D01*
X119404364Y-66676686D01*
X119404366Y-66676697D01*
X119463258Y-66896488D01*
X119463261Y-66896497D01*
X119559431Y-67102732D01*
X119559432Y-67102734D01*
X119689954Y-67289141D01*
X119850858Y-67450045D01*
X119850861Y-67450047D01*
X120037266Y-67580568D01*
X120243504Y-67676739D01*
X120463308Y-67735635D01*
X120625230Y-67749801D01*
X120689998Y-67755468D01*
X120690000Y-67755468D01*
X120690002Y-67755468D01*
X120746673Y-67750509D01*
X120916692Y-67735635D01*
X121136496Y-67676739D01*
X121342734Y-67580568D01*
X121529139Y-67450047D01*
X121690047Y-67289139D01*
X121820568Y-67102734D01*
X121916739Y-66896496D01*
X121975635Y-66676692D01*
X121995468Y-66450000D01*
X121995468Y-66449998D01*
X127004532Y-66449998D01*
X127004532Y-66450001D01*
X127024364Y-66676686D01*
X127024366Y-66676697D01*
X127083258Y-66896488D01*
X127083261Y-66896497D01*
X127179431Y-67102732D01*
X127179432Y-67102734D01*
X127309954Y-67289141D01*
X127470858Y-67450045D01*
X127470861Y-67450047D01*
X127657266Y-67580568D01*
X127863504Y-67676739D01*
X128083308Y-67735635D01*
X128245230Y-67749801D01*
X128309998Y-67755468D01*
X128310000Y-67755468D01*
X128310002Y-67755468D01*
X128366673Y-67750509D01*
X128536692Y-67735635D01*
X128756496Y-67676739D01*
X128962734Y-67580568D01*
X129149139Y-67450047D01*
X129310047Y-67289139D01*
X129440568Y-67102734D01*
X129536739Y-66896496D01*
X129595635Y-66676692D01*
X129615468Y-66450000D01*
X129595635Y-66223308D01*
X129536739Y-66003504D01*
X129440568Y-65797266D01*
X129310047Y-65610861D01*
X129310045Y-65610858D01*
X129149141Y-65449954D01*
X128962734Y-65319432D01*
X128962732Y-65319431D01*
X128756497Y-65223261D01*
X128756488Y-65223258D01*
X128536697Y-65164366D01*
X128536693Y-65164365D01*
X128536692Y-65164365D01*
X128536691Y-65164364D01*
X128536686Y-65164364D01*
X128310002Y-65144532D01*
X128309998Y-65144532D01*
X128083313Y-65164364D01*
X128083302Y-65164366D01*
X127863511Y-65223258D01*
X127863502Y-65223261D01*
X127657267Y-65319431D01*
X127657265Y-65319432D01*
X127470858Y-65449954D01*
X127309954Y-65610858D01*
X127179432Y-65797265D01*
X127179431Y-65797267D01*
X127083261Y-66003502D01*
X127083258Y-66003511D01*
X127024366Y-66223302D01*
X127024364Y-66223313D01*
X127004532Y-66449998D01*
X121995468Y-66449998D01*
X121975635Y-66223308D01*
X121916739Y-66003504D01*
X121820568Y-65797266D01*
X121690047Y-65610861D01*
X121690045Y-65610858D01*
X121529141Y-65449954D01*
X121342734Y-65319432D01*
X121342732Y-65319431D01*
X121136497Y-65223261D01*
X121136488Y-65223258D01*
X120916697Y-65164366D01*
X120916693Y-65164365D01*
X120916692Y-65164365D01*
X120916691Y-65164364D01*
X120916686Y-65164364D01*
X120690002Y-65144532D01*
X120689998Y-65144532D01*
X120463313Y-65164364D01*
X120463302Y-65164366D01*
X120243511Y-65223258D01*
X120243502Y-65223261D01*
X120037267Y-65319431D01*
X120037265Y-65319432D01*
X119850858Y-65449954D01*
X119689954Y-65610858D01*
X119559432Y-65797265D01*
X119559431Y-65797267D01*
X119463261Y-66003502D01*
X119463258Y-66003511D01*
X119404366Y-66223302D01*
X119404364Y-66223313D01*
X119384532Y-66449998D01*
X117250500Y-66449998D01*
X117250500Y-61699999D01*
X119411127Y-61699999D01*
X119411128Y-61700000D01*
X120374314Y-61700000D01*
X120369920Y-61704394D01*
X120317259Y-61795606D01*
X120290000Y-61897339D01*
X120290000Y-62002661D01*
X120317259Y-62104394D01*
X120369920Y-62195606D01*
X120374314Y-62200000D01*
X119411128Y-62200000D01*
X119463730Y-62396317D01*
X119463734Y-62396326D01*
X119559865Y-62602482D01*
X119690342Y-62788820D01*
X119851179Y-62949657D01*
X120037517Y-63080134D01*
X120243673Y-63176265D01*
X120243682Y-63176269D01*
X120439999Y-63228872D01*
X120440000Y-63228871D01*
X120440000Y-62265686D01*
X120444394Y-62270080D01*
X120535606Y-62322741D01*
X120637339Y-62350000D01*
X120742661Y-62350000D01*
X120844394Y-62322741D01*
X120935606Y-62270080D01*
X120940000Y-62265686D01*
X120940000Y-63228872D01*
X121136317Y-63176269D01*
X121136326Y-63176265D01*
X121342482Y-63080134D01*
X121528820Y-62949657D01*
X121689657Y-62788820D01*
X121820134Y-62602482D01*
X121916265Y-62396326D01*
X121916269Y-62396317D01*
X121968872Y-62200000D01*
X121005686Y-62200000D01*
X121010080Y-62195606D01*
X121062741Y-62104394D01*
X121090000Y-62002661D01*
X121090000Y-61949998D01*
X127004532Y-61949998D01*
X127004532Y-61950001D01*
X127024364Y-62176686D01*
X127024366Y-62176697D01*
X127083258Y-62396488D01*
X127083261Y-62396497D01*
X127179431Y-62602732D01*
X127179432Y-62602734D01*
X127309954Y-62789141D01*
X127470858Y-62950045D01*
X127470861Y-62950047D01*
X127657266Y-63080568D01*
X127863504Y-63176739D01*
X128083308Y-63235635D01*
X128245230Y-63249801D01*
X128309998Y-63255468D01*
X128310000Y-63255468D01*
X128310002Y-63255468D01*
X128370968Y-63250134D01*
X128536692Y-63235635D01*
X128756496Y-63176739D01*
X128962734Y-63080568D01*
X129149139Y-62950047D01*
X129310047Y-62789139D01*
X129440568Y-62602734D01*
X129536739Y-62396496D01*
X129543839Y-62369998D01*
X134444532Y-62369998D01*
X134444532Y-62370000D01*
X134464364Y-62596686D01*
X134464366Y-62596697D01*
X134523258Y-62816488D01*
X134523261Y-62816497D01*
X134619431Y-63022732D01*
X134619432Y-63022734D01*
X134749954Y-63209141D01*
X134910858Y-63370045D01*
X134910861Y-63370047D01*
X135097266Y-63500568D01*
X135303504Y-63596739D01*
X135523308Y-63655635D01*
X135685230Y-63669801D01*
X135749998Y-63675468D01*
X135750000Y-63675468D01*
X135750002Y-63675468D01*
X135806673Y-63670509D01*
X135976692Y-63655635D01*
X136196496Y-63596739D01*
X136402734Y-63500568D01*
X136589139Y-63370047D01*
X136750047Y-63209139D01*
X136880568Y-63022734D01*
X136976739Y-62816496D01*
X137035635Y-62596692D01*
X137055468Y-62370000D01*
X137035635Y-62143308D01*
X136976739Y-61923504D01*
X136880568Y-61717266D01*
X136750047Y-61530861D01*
X136750045Y-61530858D01*
X136589141Y-61369954D01*
X136402734Y-61239432D01*
X136402732Y-61239431D01*
X136196497Y-61143261D01*
X136196488Y-61143258D01*
X135976697Y-61084366D01*
X135976693Y-61084365D01*
X135976692Y-61084365D01*
X135976691Y-61084364D01*
X135976686Y-61084364D01*
X135750002Y-61064532D01*
X135749998Y-61064532D01*
X135523313Y-61084364D01*
X135523302Y-61084366D01*
X135303511Y-61143258D01*
X135303502Y-61143261D01*
X135097267Y-61239431D01*
X135097265Y-61239432D01*
X134910858Y-61369954D01*
X134749954Y-61530858D01*
X134619432Y-61717265D01*
X134619431Y-61717267D01*
X134523261Y-61923502D01*
X134523258Y-61923511D01*
X134464366Y-62143302D01*
X134464364Y-62143313D01*
X134444532Y-62369998D01*
X129543839Y-62369998D01*
X129595635Y-62176692D01*
X129615468Y-61950000D01*
X129595635Y-61723308D01*
X129544069Y-61530861D01*
X129536741Y-61503511D01*
X129536738Y-61503502D01*
X129519958Y-61467517D01*
X129440568Y-61297266D01*
X129316686Y-61120342D01*
X129310045Y-61110858D01*
X129149141Y-60949954D01*
X128962734Y-60819432D01*
X128962732Y-60819431D01*
X128756497Y-60723261D01*
X128756488Y-60723258D01*
X128536697Y-60664366D01*
X128536693Y-60664365D01*
X128536692Y-60664365D01*
X128536691Y-60664364D01*
X128536686Y-60664364D01*
X128310002Y-60644532D01*
X128309998Y-60644532D01*
X128083313Y-60664364D01*
X128083302Y-60664366D01*
X127863511Y-60723258D01*
X127863502Y-60723261D01*
X127657267Y-60819431D01*
X127657265Y-60819432D01*
X127470858Y-60949954D01*
X127309954Y-61110858D01*
X127179432Y-61297265D01*
X127179431Y-61297267D01*
X127083261Y-61503502D01*
X127083258Y-61503511D01*
X127024366Y-61723302D01*
X127024364Y-61723313D01*
X127004532Y-61949998D01*
X121090000Y-61949998D01*
X121090000Y-61897339D01*
X121062741Y-61795606D01*
X121010080Y-61704394D01*
X121005686Y-61700000D01*
X121968872Y-61700000D01*
X121968872Y-61699999D01*
X121916269Y-61503682D01*
X121916265Y-61503673D01*
X121820134Y-61297517D01*
X121689657Y-61111179D01*
X121528820Y-60950342D01*
X121342482Y-60819865D01*
X121136328Y-60723734D01*
X120940000Y-60671127D01*
X120940000Y-61634314D01*
X120935606Y-61629920D01*
X120844394Y-61577259D01*
X120742661Y-61550000D01*
X120637339Y-61550000D01*
X120535606Y-61577259D01*
X120444394Y-61629920D01*
X120440000Y-61634314D01*
X120440000Y-60671127D01*
X120243671Y-60723734D01*
X120037517Y-60819865D01*
X119851179Y-60950342D01*
X119690342Y-61111179D01*
X119559865Y-61297517D01*
X119463734Y-61503673D01*
X119463730Y-61503682D01*
X119411127Y-61699999D01*
X117250500Y-61699999D01*
X117250500Y-57789773D01*
X140446198Y-57789773D01*
X140446198Y-57789776D01*
X140466030Y-58016461D01*
X140466032Y-58016472D01*
X140524924Y-58236263D01*
X140524927Y-58236272D01*
X140621097Y-58442507D01*
X140621098Y-58442509D01*
X140751620Y-58628916D01*
X140912524Y-58789820D01*
X140912527Y-58789822D01*
X141098932Y-58920343D01*
X141305170Y-59016514D01*
X141524974Y-59075410D01*
X141686896Y-59089576D01*
X141751664Y-59095243D01*
X141751666Y-59095243D01*
X141751668Y-59095243D01*
X141808339Y-59090284D01*
X141978358Y-59075410D01*
X142198162Y-59016514D01*
X142404400Y-58920343D01*
X142590805Y-58789822D01*
X142751713Y-58628914D01*
X142815748Y-58537461D01*
X142870321Y-58493838D01*
X142939820Y-58486644D01*
X143002175Y-58518166D01*
X143005002Y-58520905D01*
X146461390Y-61977293D01*
X146494875Y-62038616D01*
X146493484Y-62097067D01*
X146467698Y-62193302D01*
X146467696Y-62193313D01*
X146447864Y-62419998D01*
X146447864Y-62420001D01*
X146467696Y-62646686D01*
X146467698Y-62646697D01*
X146526590Y-62866488D01*
X146526593Y-62866497D01*
X146622763Y-63072732D01*
X146622764Y-63072734D01*
X146753286Y-63259141D01*
X146914190Y-63420045D01*
X146914193Y-63420047D01*
X147100598Y-63550568D01*
X147306836Y-63646739D01*
X147526640Y-63705635D01*
X147688562Y-63719801D01*
X147753330Y-63725468D01*
X147753332Y-63725468D01*
X147753334Y-63725468D01*
X147810005Y-63720509D01*
X147980024Y-63705635D01*
X148199828Y-63646739D01*
X148406066Y-63550568D01*
X148592471Y-63420047D01*
X148753379Y-63259139D01*
X148883900Y-63072734D01*
X148980071Y-62866496D01*
X149038967Y-62646692D01*
X149058800Y-62420000D01*
X149058800Y-62419998D01*
X151494532Y-62419998D01*
X151494532Y-62420001D01*
X151514364Y-62646686D01*
X151514366Y-62646697D01*
X151573258Y-62866488D01*
X151573261Y-62866497D01*
X151669431Y-63072732D01*
X151669432Y-63072734D01*
X151799954Y-63259141D01*
X151960858Y-63420045D01*
X151960861Y-63420047D01*
X152147266Y-63550568D01*
X152353504Y-63646739D01*
X152573308Y-63705635D01*
X152735230Y-63719801D01*
X152799998Y-63725468D01*
X152800000Y-63725468D01*
X152800002Y-63725468D01*
X152856673Y-63720509D01*
X153026692Y-63705635D01*
X153246496Y-63646739D01*
X153452734Y-63550568D01*
X153639139Y-63420047D01*
X153800047Y-63259139D01*
X153930568Y-63072734D01*
X154026739Y-62866496D01*
X154085635Y-62646692D01*
X154105468Y-62420000D01*
X154085635Y-62193308D01*
X154026739Y-61973504D01*
X153930568Y-61767266D01*
X153814162Y-61601020D01*
X153800045Y-61580858D01*
X153639141Y-61419954D01*
X153452734Y-61289432D01*
X153452732Y-61289431D01*
X153246497Y-61193261D01*
X153246488Y-61193258D01*
X153026697Y-61134366D01*
X153026693Y-61134365D01*
X153026692Y-61134365D01*
X153026691Y-61134364D01*
X153026686Y-61134364D01*
X152800002Y-61114532D01*
X152799998Y-61114532D01*
X152573313Y-61134364D01*
X152573302Y-61134366D01*
X152353511Y-61193258D01*
X152353502Y-61193261D01*
X152147267Y-61289431D01*
X152147265Y-61289432D01*
X151960858Y-61419954D01*
X151799954Y-61580858D01*
X151669432Y-61767265D01*
X151669431Y-61767267D01*
X151573261Y-61973502D01*
X151573258Y-61973511D01*
X151514366Y-62193302D01*
X151514364Y-62193313D01*
X151494532Y-62419998D01*
X149058800Y-62419998D01*
X149038967Y-62193308D01*
X148980071Y-61973504D01*
X148883900Y-61767266D01*
X148767494Y-61601020D01*
X148753377Y-61580858D01*
X148592473Y-61419954D01*
X148406066Y-61289432D01*
X148406064Y-61289431D01*
X148199829Y-61193261D01*
X148199820Y-61193258D01*
X147980029Y-61134366D01*
X147980025Y-61134365D01*
X147980024Y-61134365D01*
X147980023Y-61134364D01*
X147980018Y-61134364D01*
X147753334Y-61114532D01*
X147753330Y-61114532D01*
X147526645Y-61134364D01*
X147526634Y-61134366D01*
X147430399Y-61160152D01*
X147360549Y-61158489D01*
X147310625Y-61128058D01*
X143610697Y-57428130D01*
X143610695Y-57428127D01*
X143491824Y-57309256D01*
X143491823Y-57309255D01*
X143405011Y-57259135D01*
X143405011Y-57259134D01*
X143405007Y-57259133D01*
X143354892Y-57230198D01*
X143202164Y-57189274D01*
X143044050Y-57189274D01*
X143036454Y-57189274D01*
X143036438Y-57189275D01*
X142983358Y-57189275D01*
X142916319Y-57169590D01*
X142881785Y-57136400D01*
X142751713Y-56950636D01*
X142751711Y-56950633D01*
X142594579Y-56793501D01*
X142561094Y-56732178D01*
X142566078Y-56662486D01*
X142607950Y-56606553D01*
X142653744Y-56585143D01*
X142659146Y-56583866D01*
X142659149Y-56583866D01*
X142793997Y-56533571D01*
X142909212Y-56447321D01*
X142995462Y-56332106D01*
X143045757Y-56197258D01*
X143052166Y-56137648D01*
X143052165Y-54799998D01*
X146447864Y-54799998D01*
X146447864Y-54800001D01*
X146467696Y-55026686D01*
X146467698Y-55026697D01*
X146526590Y-55246488D01*
X146526593Y-55246497D01*
X146622763Y-55452732D01*
X146622764Y-55452734D01*
X146753286Y-55639141D01*
X146914190Y-55800045D01*
X146914193Y-55800047D01*
X147100598Y-55930568D01*
X147306836Y-56026739D01*
X147526640Y-56085635D01*
X147688562Y-56099801D01*
X147753330Y-56105468D01*
X147753332Y-56105468D01*
X147753334Y-56105468D01*
X147810005Y-56100509D01*
X147980024Y-56085635D01*
X148199828Y-56026739D01*
X148406066Y-55930568D01*
X148592471Y-55800047D01*
X148753379Y-55639139D01*
X148883900Y-55452734D01*
X148980071Y-55246496D01*
X149038967Y-55026692D01*
X149058800Y-54800000D01*
X149058800Y-54799998D01*
X151494532Y-54799998D01*
X151494532Y-54800001D01*
X151514364Y-55026686D01*
X151514366Y-55026697D01*
X151573258Y-55246488D01*
X151573261Y-55246497D01*
X151669431Y-55452732D01*
X151669432Y-55452734D01*
X151799954Y-55639141D01*
X151960858Y-55800045D01*
X151960861Y-55800047D01*
X152147266Y-55930568D01*
X152353504Y-56026739D01*
X152573308Y-56085635D01*
X152735230Y-56099801D01*
X152799998Y-56105468D01*
X152800000Y-56105468D01*
X152800002Y-56105468D01*
X152856673Y-56100509D01*
X153026692Y-56085635D01*
X153122932Y-56059847D01*
X153192781Y-56061510D01*
X153242706Y-56091941D01*
X155809362Y-58658597D01*
X155858995Y-58708231D01*
X155862735Y-58712137D01*
X156116562Y-58989138D01*
X156123512Y-58997421D01*
X156198574Y-59095243D01*
X156350566Y-59293321D01*
X156356771Y-59302182D01*
X156557178Y-59616754D01*
X156562587Y-59626123D01*
X156734809Y-59956955D01*
X156739381Y-59966759D01*
X156882117Y-60311348D01*
X156885817Y-60321513D01*
X156997976Y-60677230D01*
X157000775Y-60687679D01*
X157081507Y-61051824D01*
X157083386Y-61062477D01*
X157132071Y-61432259D01*
X157133014Y-61443035D01*
X157149382Y-61817865D01*
X157149500Y-61823275D01*
X157149500Y-83148306D01*
X157129815Y-83215345D01*
X157096623Y-83249881D01*
X156910859Y-83379953D01*
X156749954Y-83540858D01*
X156619432Y-83727265D01*
X156619431Y-83727267D01*
X156523261Y-83933502D01*
X156523258Y-83933511D01*
X156464366Y-84153302D01*
X156464364Y-84153313D01*
X156444532Y-84379998D01*
X156444532Y-84380001D01*
X156464364Y-84606686D01*
X156464366Y-84606697D01*
X156523258Y-84826488D01*
X156523261Y-84826497D01*
X156619431Y-85032732D01*
X156619432Y-85032734D01*
X156749954Y-85219141D01*
X156910858Y-85380045D01*
X156910861Y-85380047D01*
X157097266Y-85510568D01*
X157303504Y-85606739D01*
X157523308Y-85665635D01*
X157685230Y-85679801D01*
X157749998Y-85685468D01*
X157750000Y-85685468D01*
X157750002Y-85685468D01*
X157806673Y-85680509D01*
X157976692Y-85665635D01*
X158196496Y-85606739D01*
X158402734Y-85510568D01*
X158589139Y-85380047D01*
X158750047Y-85219139D01*
X158880568Y-85032734D01*
X158907618Y-84974724D01*
X158953790Y-84922285D01*
X159020983Y-84903133D01*
X159087865Y-84923348D01*
X159132382Y-84974725D01*
X159159429Y-85032728D01*
X159159432Y-85032734D01*
X159289954Y-85219141D01*
X159450858Y-85380045D01*
X159450861Y-85380047D01*
X159637266Y-85510568D01*
X159843504Y-85606739D01*
X160063308Y-85665635D01*
X160225230Y-85679801D01*
X160289998Y-85685468D01*
X160290000Y-85685468D01*
X160290002Y-85685468D01*
X160346673Y-85680509D01*
X160516692Y-85665635D01*
X160736496Y-85606739D01*
X160942734Y-85510568D01*
X161129139Y-85380047D01*
X161290047Y-85219139D01*
X161420568Y-85032734D01*
X161516739Y-84826496D01*
X161575635Y-84606692D01*
X161595468Y-84380000D01*
X161592537Y-84346504D01*
X161578260Y-84183313D01*
X161575635Y-84153308D01*
X161519420Y-83943511D01*
X161516741Y-83933511D01*
X161516738Y-83933502D01*
X161447618Y-83785275D01*
X161420568Y-83727266D01*
X161290047Y-83540861D01*
X161290045Y-83540858D01*
X161129141Y-83379954D01*
X160942734Y-83249432D01*
X160942732Y-83249431D01*
X160736497Y-83153261D01*
X160736488Y-83153258D01*
X160516697Y-83094366D01*
X160516693Y-83094365D01*
X160516692Y-83094365D01*
X160516691Y-83094364D01*
X160516686Y-83094364D01*
X160290002Y-83074532D01*
X160289998Y-83074532D01*
X160063313Y-83094364D01*
X160063302Y-83094366D01*
X159843511Y-83153258D01*
X159843502Y-83153261D01*
X159637267Y-83249431D01*
X159637265Y-83249432D01*
X159450858Y-83379954D01*
X159289954Y-83540858D01*
X159159432Y-83727265D01*
X159159431Y-83727267D01*
X159132382Y-83785275D01*
X159086209Y-83837714D01*
X159019016Y-83856866D01*
X158952135Y-83836650D01*
X158907618Y-83785275D01*
X158880568Y-83727266D01*
X158750047Y-83540861D01*
X158750045Y-83540858D01*
X158589140Y-83379953D01*
X158403377Y-83249881D01*
X158359752Y-83195304D01*
X158350500Y-83148306D01*
X158350500Y-80699998D01*
X159194532Y-80699998D01*
X159194532Y-80700001D01*
X159214364Y-80926686D01*
X159214366Y-80926697D01*
X159273258Y-81146488D01*
X159273261Y-81146497D01*
X159369431Y-81352732D01*
X159369432Y-81352734D01*
X159499954Y-81539141D01*
X159660858Y-81700045D01*
X159660861Y-81700047D01*
X159847266Y-81830568D01*
X160053504Y-81926739D01*
X160273308Y-81985635D01*
X160435230Y-81999801D01*
X160499998Y-82005468D01*
X160500000Y-82005468D01*
X160500002Y-82005468D01*
X160556673Y-82000509D01*
X160726692Y-81985635D01*
X160946496Y-81926739D01*
X161152734Y-81830568D01*
X161339139Y-81700047D01*
X161500047Y-81539139D01*
X161630568Y-81352734D01*
X161726739Y-81146496D01*
X161763313Y-81009998D01*
X164694532Y-81009998D01*
X164694532Y-81010001D01*
X164714364Y-81236686D01*
X164714366Y-81236697D01*
X164773258Y-81456488D01*
X164773261Y-81456497D01*
X164869431Y-81662732D01*
X164869432Y-81662734D01*
X164999954Y-81849141D01*
X165160858Y-82010045D01*
X165160861Y-82010047D01*
X165347266Y-82140568D01*
X165553504Y-82236739D01*
X165553509Y-82236740D01*
X165553511Y-82236741D01*
X165606415Y-82250916D01*
X165773308Y-82295635D01*
X165935230Y-82309801D01*
X165999998Y-82315468D01*
X166000000Y-82315468D01*
X166000002Y-82315468D01*
X166056673Y-82310509D01*
X166226692Y-82295635D01*
X166446496Y-82236739D01*
X166652734Y-82140568D01*
X166839139Y-82010047D01*
X167000047Y-81849139D01*
X167130568Y-81662734D01*
X167226739Y-81456496D01*
X167285635Y-81236692D01*
X167305468Y-81010000D01*
X167285635Y-80783308D01*
X167226739Y-80563504D01*
X167130568Y-80357266D01*
X167004814Y-80177669D01*
X167000045Y-80170858D01*
X166839141Y-80009954D01*
X166652734Y-79879432D01*
X166652732Y-79879431D01*
X166446497Y-79783261D01*
X166446488Y-79783258D01*
X166226697Y-79724366D01*
X166226693Y-79724365D01*
X166226692Y-79724365D01*
X166226691Y-79724364D01*
X166226686Y-79724364D01*
X166000002Y-79704532D01*
X165999998Y-79704532D01*
X165773313Y-79724364D01*
X165773302Y-79724366D01*
X165553511Y-79783258D01*
X165553502Y-79783261D01*
X165347267Y-79879431D01*
X165347265Y-79879432D01*
X165160858Y-80009954D01*
X164999954Y-80170858D01*
X164869432Y-80357265D01*
X164869431Y-80357267D01*
X164773261Y-80563502D01*
X164773258Y-80563511D01*
X164714366Y-80783302D01*
X164714364Y-80783313D01*
X164694532Y-81009998D01*
X161763313Y-81009998D01*
X161785635Y-80926692D01*
X161805468Y-80700000D01*
X161785635Y-80473308D01*
X161732328Y-80274364D01*
X161726741Y-80253511D01*
X161726738Y-80253502D01*
X161691374Y-80177664D01*
X161630568Y-80047266D01*
X161500047Y-79860861D01*
X161500045Y-79860858D01*
X161339141Y-79699954D01*
X161152734Y-79569432D01*
X161152732Y-79569431D01*
X160946497Y-79473261D01*
X160946488Y-79473258D01*
X160726697Y-79414366D01*
X160726693Y-79414365D01*
X160726692Y-79414365D01*
X160726691Y-79414364D01*
X160726686Y-79414364D01*
X160500002Y-79394532D01*
X160499998Y-79394532D01*
X160273313Y-79414364D01*
X160273302Y-79414366D01*
X160053511Y-79473258D01*
X160053502Y-79473261D01*
X159847267Y-79569431D01*
X159847265Y-79569432D01*
X159660858Y-79699954D01*
X159499954Y-79860858D01*
X159369432Y-80047265D01*
X159369431Y-80047267D01*
X159273261Y-80253502D01*
X159273258Y-80253511D01*
X159214366Y-80473302D01*
X159214364Y-80473313D01*
X159194532Y-80699998D01*
X158350500Y-80699998D01*
X158350500Y-72829999D01*
X159221127Y-72829999D01*
X159221128Y-72830000D01*
X160184314Y-72830000D01*
X160179920Y-72834394D01*
X160127259Y-72925606D01*
X160100000Y-73027339D01*
X160100000Y-73132661D01*
X160127259Y-73234394D01*
X160179920Y-73325606D01*
X160184314Y-73330000D01*
X159221128Y-73330000D01*
X159273730Y-73526317D01*
X159273734Y-73526326D01*
X159369865Y-73732482D01*
X159500342Y-73918820D01*
X159661179Y-74079657D01*
X159847517Y-74210134D01*
X160053673Y-74306265D01*
X160053682Y-74306269D01*
X160249999Y-74358872D01*
X160250000Y-74358871D01*
X160250000Y-73395686D01*
X160254394Y-73400080D01*
X160345606Y-73452741D01*
X160447339Y-73480000D01*
X160552661Y-73480000D01*
X160654394Y-73452741D01*
X160745606Y-73400080D01*
X160750000Y-73395686D01*
X160750000Y-74358872D01*
X160946317Y-74306269D01*
X160946326Y-74306265D01*
X161152482Y-74210134D01*
X161338820Y-74079657D01*
X161499657Y-73918820D01*
X161630134Y-73732482D01*
X161726265Y-73526326D01*
X161726269Y-73526317D01*
X161762796Y-73389998D01*
X164694532Y-73389998D01*
X164694532Y-73390001D01*
X164714364Y-73616686D01*
X164714366Y-73616697D01*
X164773258Y-73836488D01*
X164773261Y-73836497D01*
X164869431Y-74042732D01*
X164869432Y-74042734D01*
X164999954Y-74229141D01*
X165160858Y-74390045D01*
X165160861Y-74390047D01*
X165347266Y-74520568D01*
X165553504Y-74616739D01*
X165773308Y-74675635D01*
X165935230Y-74689801D01*
X165999998Y-74695468D01*
X166000000Y-74695468D01*
X166000002Y-74695468D01*
X166056673Y-74690509D01*
X166226692Y-74675635D01*
X166446496Y-74616739D01*
X166652734Y-74520568D01*
X166839139Y-74390047D01*
X167000047Y-74229139D01*
X167130568Y-74042734D01*
X167226739Y-73836496D01*
X167285635Y-73616692D01*
X167305468Y-73390000D01*
X167285635Y-73163308D01*
X167226739Y-72943504D01*
X167130568Y-72737266D01*
X167000047Y-72550861D01*
X167000045Y-72550858D01*
X166839141Y-72389954D01*
X166652734Y-72259432D01*
X166652732Y-72259431D01*
X166446497Y-72163261D01*
X166446488Y-72163258D01*
X166226697Y-72104366D01*
X166226693Y-72104365D01*
X166226692Y-72104365D01*
X166226691Y-72104364D01*
X166226686Y-72104364D01*
X166000002Y-72084532D01*
X165999998Y-72084532D01*
X165773313Y-72104364D01*
X165773302Y-72104366D01*
X165553511Y-72163258D01*
X165553502Y-72163261D01*
X165347267Y-72259431D01*
X165347265Y-72259432D01*
X165160858Y-72389954D01*
X164999954Y-72550858D01*
X164869432Y-72737265D01*
X164869431Y-72737267D01*
X164773261Y-72943502D01*
X164773258Y-72943511D01*
X164714366Y-73163302D01*
X164714364Y-73163313D01*
X164694532Y-73389998D01*
X161762796Y-73389998D01*
X161778872Y-73330000D01*
X160815686Y-73330000D01*
X160820080Y-73325606D01*
X160872741Y-73234394D01*
X160900000Y-73132661D01*
X160900000Y-73027339D01*
X160872741Y-72925606D01*
X160820080Y-72834394D01*
X160815686Y-72830000D01*
X161778872Y-72830000D01*
X161778872Y-72829999D01*
X161726269Y-72633682D01*
X161726265Y-72633673D01*
X161630134Y-72427517D01*
X161499657Y-72241179D01*
X161338820Y-72080342D01*
X161152482Y-71949865D01*
X160946328Y-71853734D01*
X160750000Y-71801127D01*
X160750000Y-72764314D01*
X160745606Y-72759920D01*
X160654394Y-72707259D01*
X160552661Y-72680000D01*
X160447339Y-72680000D01*
X160345606Y-72707259D01*
X160254394Y-72759920D01*
X160250000Y-72764314D01*
X160250000Y-71801127D01*
X160053671Y-71853734D01*
X159847517Y-71949865D01*
X159661179Y-72080342D01*
X159500342Y-72241179D01*
X159369865Y-72427517D01*
X159273734Y-72633673D01*
X159273730Y-72633682D01*
X159221127Y-72829999D01*
X158350500Y-72829999D01*
X158350500Y-61872448D01*
X158350521Y-61872373D01*
X158350521Y-61869999D01*
X161221127Y-61869999D01*
X161221128Y-61870000D01*
X162184314Y-61870000D01*
X162179920Y-61874394D01*
X162127259Y-61965606D01*
X162100000Y-62067339D01*
X162100000Y-62172661D01*
X162127259Y-62274394D01*
X162179920Y-62365606D01*
X162184314Y-62370000D01*
X161221128Y-62370000D01*
X161273730Y-62566317D01*
X161273734Y-62566326D01*
X161369865Y-62772482D01*
X161500342Y-62958820D01*
X161661179Y-63119657D01*
X161847517Y-63250134D01*
X162053673Y-63346265D01*
X162053682Y-63346269D01*
X162249999Y-63398872D01*
X162250000Y-63398871D01*
X162250000Y-62435686D01*
X162254394Y-62440080D01*
X162345606Y-62492741D01*
X162447339Y-62520000D01*
X162552661Y-62520000D01*
X162654394Y-62492741D01*
X162745606Y-62440080D01*
X162750000Y-62435686D01*
X162750000Y-63398872D01*
X162946317Y-63346269D01*
X162946326Y-63346265D01*
X163152482Y-63250134D01*
X163338820Y-63119657D01*
X163499657Y-62958820D01*
X163630134Y-62772482D01*
X163726265Y-62566326D01*
X163726269Y-62566317D01*
X163778872Y-62370000D01*
X162815686Y-62370000D01*
X162820080Y-62365606D01*
X162872741Y-62274394D01*
X162900000Y-62172661D01*
X162900000Y-62067339D01*
X162872741Y-61965606D01*
X162820080Y-61874394D01*
X162815686Y-61870000D01*
X163778872Y-61870000D01*
X163778872Y-61869999D01*
X163726269Y-61673682D01*
X163726265Y-61673673D01*
X163630134Y-61467517D01*
X163499657Y-61281179D01*
X163338820Y-61120342D01*
X163152482Y-60989865D01*
X162946328Y-60893734D01*
X162750000Y-60841127D01*
X162750000Y-61804314D01*
X162745606Y-61799920D01*
X162654394Y-61747259D01*
X162552661Y-61720000D01*
X162447339Y-61720000D01*
X162345606Y-61747259D01*
X162254394Y-61799920D01*
X162250000Y-61804314D01*
X162250000Y-60841127D01*
X162053671Y-60893734D01*
X161847517Y-60989865D01*
X161661179Y-61120342D01*
X161500342Y-61281179D01*
X161369865Y-61467517D01*
X161273734Y-61673673D01*
X161273730Y-61673682D01*
X161221127Y-61869999D01*
X158350521Y-61869999D01*
X158350521Y-61821064D01*
X158350522Y-61821064D01*
X158350520Y-61601020D01*
X158315989Y-61162287D01*
X158247141Y-60727617D01*
X158144402Y-60299688D01*
X158008404Y-59881139D01*
X157839987Y-59474551D01*
X157640189Y-59082429D01*
X157412056Y-58710154D01*
X157410247Y-58707202D01*
X157410243Y-58707197D01*
X157410241Y-58707193D01*
X157151561Y-58351154D01*
X156986310Y-58157671D01*
X156865750Y-58016514D01*
X156768736Y-57919501D01*
X156768732Y-57919494D01*
X156684370Y-57835135D01*
X156684370Y-57835134D01*
X156684368Y-57835133D01*
X154091941Y-55242706D01*
X154058456Y-55181383D01*
X154059847Y-55122931D01*
X154085635Y-55026692D01*
X154105468Y-54800000D01*
X154085635Y-54573308D01*
X154065992Y-54499998D01*
X161194532Y-54499998D01*
X161194532Y-54500001D01*
X161214364Y-54726686D01*
X161214366Y-54726697D01*
X161273258Y-54946488D01*
X161273261Y-54946497D01*
X161369431Y-55152732D01*
X161369432Y-55152734D01*
X161499954Y-55339141D01*
X161660858Y-55500045D01*
X161660861Y-55500047D01*
X161847266Y-55630568D01*
X162053504Y-55726739D01*
X162273308Y-55785635D01*
X162435230Y-55799801D01*
X162499998Y-55805468D01*
X162500000Y-55805468D01*
X162500002Y-55805468D01*
X162561985Y-55800045D01*
X162726692Y-55785635D01*
X162946496Y-55726739D01*
X163152734Y-55630568D01*
X163339139Y-55500047D01*
X163500047Y-55339139D01*
X163630568Y-55152734D01*
X163726739Y-54946496D01*
X163785635Y-54726692D01*
X163805468Y-54500000D01*
X163785635Y-54273308D01*
X163726739Y-54053504D01*
X163630568Y-53847266D01*
X163532839Y-53707693D01*
X163500045Y-53660858D01*
X163339141Y-53499954D01*
X163152734Y-53369432D01*
X163152732Y-53369431D01*
X162946497Y-53273261D01*
X162946488Y-53273258D01*
X162726697Y-53214366D01*
X162726693Y-53214365D01*
X162726692Y-53214365D01*
X162726691Y-53214364D01*
X162726686Y-53214364D01*
X162500002Y-53194532D01*
X162499998Y-53194532D01*
X162273313Y-53214364D01*
X162273302Y-53214366D01*
X162053511Y-53273258D01*
X162053502Y-53273261D01*
X161847267Y-53369431D01*
X161847265Y-53369432D01*
X161660858Y-53499954D01*
X161499954Y-53660858D01*
X161369432Y-53847265D01*
X161369431Y-53847267D01*
X161273261Y-54053502D01*
X161273258Y-54053511D01*
X161214366Y-54273302D01*
X161214364Y-54273313D01*
X161194532Y-54499998D01*
X154065992Y-54499998D01*
X154026739Y-54353504D01*
X153930568Y-54147266D01*
X153800047Y-53960861D01*
X153800045Y-53960858D01*
X153639141Y-53799954D01*
X153452734Y-53669432D01*
X153452732Y-53669431D01*
X153246497Y-53573261D01*
X153246488Y-53573258D01*
X153026697Y-53514366D01*
X153026693Y-53514365D01*
X153026692Y-53514365D01*
X153026691Y-53514364D01*
X153026686Y-53514364D01*
X152800002Y-53494532D01*
X152799998Y-53494532D01*
X152573313Y-53514364D01*
X152573302Y-53514366D01*
X152353511Y-53573258D01*
X152353502Y-53573261D01*
X152147267Y-53669431D01*
X152147265Y-53669432D01*
X151960858Y-53799954D01*
X151799954Y-53960858D01*
X151669432Y-54147265D01*
X151669431Y-54147267D01*
X151573261Y-54353502D01*
X151573258Y-54353511D01*
X151514366Y-54573302D01*
X151514364Y-54573313D01*
X151494532Y-54799998D01*
X149058800Y-54799998D01*
X149038967Y-54573308D01*
X148980071Y-54353504D01*
X148883900Y-54147266D01*
X148753379Y-53960861D01*
X148753377Y-53960858D01*
X148592473Y-53799954D01*
X148406066Y-53669432D01*
X148406064Y-53669431D01*
X148199829Y-53573261D01*
X148199820Y-53573258D01*
X147980029Y-53514366D01*
X147980025Y-53514365D01*
X147980024Y-53514365D01*
X147980023Y-53514364D01*
X147980018Y-53514364D01*
X147753334Y-53494532D01*
X147753330Y-53494532D01*
X147526645Y-53514364D01*
X147526634Y-53514366D01*
X147306843Y-53573258D01*
X147306834Y-53573261D01*
X147100599Y-53669431D01*
X147100597Y-53669432D01*
X146914190Y-53799954D01*
X146753286Y-53960858D01*
X146622764Y-54147265D01*
X146622763Y-54147267D01*
X146526593Y-54353502D01*
X146526590Y-54353511D01*
X146467698Y-54573302D01*
X146467696Y-54573313D01*
X146447864Y-54799998D01*
X143052165Y-54799998D01*
X143052165Y-54441903D01*
X143045757Y-54382292D01*
X143035022Y-54353511D01*
X142995463Y-54247446D01*
X142995459Y-54247439D01*
X142909213Y-54132230D01*
X142909210Y-54132227D01*
X142794001Y-54045981D01*
X142793994Y-54045977D01*
X142659148Y-53995683D01*
X142659149Y-53995683D01*
X142599549Y-53989276D01*
X142599547Y-53989275D01*
X142599539Y-53989275D01*
X142599530Y-53989275D01*
X140903795Y-53989275D01*
X140903789Y-53989276D01*
X140844182Y-53995683D01*
X140709337Y-54045977D01*
X140709330Y-54045981D01*
X140594121Y-54132227D01*
X140594118Y-54132230D01*
X140507872Y-54247439D01*
X140507868Y-54247446D01*
X140457574Y-54382292D01*
X140451167Y-54441891D01*
X140451167Y-54441898D01*
X140451166Y-54441910D01*
X140451166Y-56137645D01*
X140451167Y-56137651D01*
X140457574Y-56197258D01*
X140507868Y-56332103D01*
X140507872Y-56332110D01*
X140594118Y-56447319D01*
X140594121Y-56447322D01*
X140709330Y-56533568D01*
X140709337Y-56533572D01*
X140762593Y-56553435D01*
X140844183Y-56583866D01*
X140844193Y-56583867D01*
X140849579Y-56585140D01*
X140910297Y-56619710D01*
X140942687Y-56681618D01*
X140936465Y-56751210D01*
X140908754Y-56793500D01*
X140751617Y-56950637D01*
X140621098Y-57137040D01*
X140621097Y-57137042D01*
X140524927Y-57343277D01*
X140524924Y-57343286D01*
X140466032Y-57563077D01*
X140466030Y-57563088D01*
X140446198Y-57789773D01*
X117250500Y-57789773D01*
X117250500Y-54749998D01*
X134444532Y-54749998D01*
X134444532Y-54750001D01*
X134464364Y-54976686D01*
X134464366Y-54976697D01*
X134523258Y-55196488D01*
X134523261Y-55196497D01*
X134619431Y-55402732D01*
X134619432Y-55402734D01*
X134749954Y-55589141D01*
X134910858Y-55750045D01*
X134910861Y-55750047D01*
X135097266Y-55880568D01*
X135303504Y-55976739D01*
X135523308Y-56035635D01*
X135685230Y-56049801D01*
X135749998Y-56055468D01*
X135750000Y-56055468D01*
X135750002Y-56055468D01*
X135806673Y-56050509D01*
X135976692Y-56035635D01*
X136196496Y-55976739D01*
X136402734Y-55880568D01*
X136589139Y-55750047D01*
X136750047Y-55589139D01*
X136880568Y-55402734D01*
X136976739Y-55196496D01*
X137035635Y-54976692D01*
X137055468Y-54750000D01*
X137035635Y-54523308D01*
X136976739Y-54303504D01*
X136880568Y-54097266D01*
X136750047Y-53910861D01*
X136750045Y-53910858D01*
X136589141Y-53749954D01*
X136402734Y-53619432D01*
X136402732Y-53619431D01*
X136196497Y-53523261D01*
X136196488Y-53523258D01*
X135976697Y-53464366D01*
X135976693Y-53464365D01*
X135976692Y-53464365D01*
X135976691Y-53464364D01*
X135976686Y-53464364D01*
X135750002Y-53444532D01*
X135749998Y-53444532D01*
X135523313Y-53464364D01*
X135523302Y-53464366D01*
X135303511Y-53523258D01*
X135303502Y-53523261D01*
X135097267Y-53619431D01*
X135097265Y-53619432D01*
X134910858Y-53749954D01*
X134749954Y-53910858D01*
X134619432Y-54097265D01*
X134619431Y-54097267D01*
X134523261Y-54303502D01*
X134523258Y-54303511D01*
X134464366Y-54523302D01*
X134464364Y-54523313D01*
X134444532Y-54749998D01*
X117250500Y-54749998D01*
X117250500Y-49749999D01*
X119351127Y-49749999D01*
X119351128Y-49750000D01*
X120314314Y-49750000D01*
X120309920Y-49754394D01*
X120257259Y-49845606D01*
X120230000Y-49947339D01*
X120230000Y-50052661D01*
X120257259Y-50154394D01*
X120309920Y-50245606D01*
X120314314Y-50250000D01*
X119351128Y-50250000D01*
X119403730Y-50446317D01*
X119403734Y-50446326D01*
X119499865Y-50652482D01*
X119630342Y-50838820D01*
X119791179Y-50999657D01*
X119977517Y-51130134D01*
X120183673Y-51226265D01*
X120183682Y-51226269D01*
X120379999Y-51278872D01*
X120380000Y-51278871D01*
X120380000Y-50315686D01*
X120384394Y-50320080D01*
X120475606Y-50372741D01*
X120577339Y-50400000D01*
X120682661Y-50400000D01*
X120784394Y-50372741D01*
X120875606Y-50320080D01*
X120880000Y-50315686D01*
X120880000Y-51278872D01*
X121076317Y-51226269D01*
X121076326Y-51226265D01*
X121282482Y-51130134D01*
X121468820Y-50999657D01*
X121629657Y-50838820D01*
X121760134Y-50652482D01*
X121856265Y-50446326D01*
X121856269Y-50446317D01*
X121908872Y-50250000D01*
X120945686Y-50250000D01*
X120950080Y-50245606D01*
X121002741Y-50154394D01*
X121030000Y-50052661D01*
X121030000Y-49999998D01*
X126944532Y-49999998D01*
X126944532Y-50000001D01*
X126964364Y-50226686D01*
X126964366Y-50226697D01*
X127023258Y-50446488D01*
X127023261Y-50446497D01*
X127119431Y-50652732D01*
X127119432Y-50652734D01*
X127249954Y-50839141D01*
X127410858Y-51000045D01*
X127410861Y-51000047D01*
X127597266Y-51130568D01*
X127803504Y-51226739D01*
X128023308Y-51285635D01*
X128185230Y-51299801D01*
X128249998Y-51305468D01*
X128250000Y-51305468D01*
X128250002Y-51305468D01*
X128306673Y-51300509D01*
X128476692Y-51285635D01*
X128696496Y-51226739D01*
X128902734Y-51130568D01*
X129089139Y-51000047D01*
X129250047Y-50839139D01*
X129380568Y-50652734D01*
X129476739Y-50446496D01*
X129535635Y-50226692D01*
X129555468Y-50000000D01*
X129535635Y-49773308D01*
X129476739Y-49553504D01*
X129380568Y-49347266D01*
X129250047Y-49160861D01*
X129250045Y-49160858D01*
X129089141Y-48999954D01*
X128902734Y-48869432D01*
X128902732Y-48869431D01*
X128696497Y-48773261D01*
X128696488Y-48773258D01*
X128476697Y-48714366D01*
X128476693Y-48714365D01*
X128476692Y-48714365D01*
X128476691Y-48714364D01*
X128476686Y-48714364D01*
X128250002Y-48694532D01*
X128249998Y-48694532D01*
X128023313Y-48714364D01*
X128023302Y-48714366D01*
X127803511Y-48773258D01*
X127803502Y-48773261D01*
X127597267Y-48869431D01*
X127597265Y-48869432D01*
X127410858Y-48999954D01*
X127249954Y-49160858D01*
X127119432Y-49347265D01*
X127119431Y-49347267D01*
X127023261Y-49553502D01*
X127023258Y-49553511D01*
X126964366Y-49773302D01*
X126964364Y-49773313D01*
X126944532Y-49999998D01*
X121030000Y-49999998D01*
X121030000Y-49947339D01*
X121002741Y-49845606D01*
X120950080Y-49754394D01*
X120945686Y-49750000D01*
X121908872Y-49750000D01*
X121908872Y-49749999D01*
X121856269Y-49553682D01*
X121856265Y-49553673D01*
X121760134Y-49347517D01*
X121629657Y-49161179D01*
X121468820Y-49000342D01*
X121282482Y-48869865D01*
X121076328Y-48773734D01*
X120880000Y-48721127D01*
X120880000Y-49684314D01*
X120875606Y-49679920D01*
X120784394Y-49627259D01*
X120682661Y-49600000D01*
X120577339Y-49600000D01*
X120475606Y-49627259D01*
X120384394Y-49679920D01*
X120380000Y-49684314D01*
X120380000Y-48721127D01*
X120183671Y-48773734D01*
X119977517Y-48869865D01*
X119791179Y-49000342D01*
X119630342Y-49161179D01*
X119499865Y-49347517D01*
X119403734Y-49553673D01*
X119403730Y-49553682D01*
X119351127Y-49749999D01*
X117250500Y-49749999D01*
X117250500Y-48205110D01*
X161194532Y-48205110D01*
X161194532Y-48205113D01*
X161214364Y-48431798D01*
X161214366Y-48431809D01*
X161273258Y-48651600D01*
X161273261Y-48651609D01*
X161369431Y-48857844D01*
X161369432Y-48857846D01*
X161499954Y-49044253D01*
X161657086Y-49201385D01*
X161690571Y-49262708D01*
X161685587Y-49332400D01*
X161643715Y-49388333D01*
X161597932Y-49409740D01*
X161592522Y-49411018D01*
X161457671Y-49461314D01*
X161457664Y-49461318D01*
X161342455Y-49547564D01*
X161342452Y-49547567D01*
X161256206Y-49662776D01*
X161256202Y-49662783D01*
X161205908Y-49797629D01*
X161199501Y-49857228D01*
X161199501Y-49857235D01*
X161199500Y-49857247D01*
X161199500Y-51552982D01*
X161199501Y-51552988D01*
X161205908Y-51612595D01*
X161256202Y-51747440D01*
X161256206Y-51747447D01*
X161342452Y-51862656D01*
X161342455Y-51862659D01*
X161457664Y-51948905D01*
X161457671Y-51948909D01*
X161592517Y-51999203D01*
X161592516Y-51999203D01*
X161599444Y-51999947D01*
X161652127Y-52005612D01*
X163347872Y-52005611D01*
X163407483Y-51999203D01*
X163542331Y-51948908D01*
X163657546Y-51862658D01*
X163743796Y-51747443D01*
X163794091Y-51612595D01*
X163800500Y-51552985D01*
X163800499Y-49857240D01*
X163794091Y-49797629D01*
X163777965Y-49754394D01*
X163743797Y-49662783D01*
X163743793Y-49662776D01*
X163657547Y-49547567D01*
X163657544Y-49547564D01*
X163542335Y-49461318D01*
X163542328Y-49461314D01*
X163407483Y-49411020D01*
X163402079Y-49409744D01*
X163341363Y-49375172D01*
X163308976Y-49313261D01*
X163315202Y-49243670D01*
X163342910Y-49201387D01*
X163500047Y-49044251D01*
X163630568Y-48857846D01*
X163726739Y-48651608D01*
X163785635Y-48431804D01*
X163805468Y-48205112D01*
X163785635Y-47978420D01*
X163726739Y-47758616D01*
X163630568Y-47552378D01*
X163500047Y-47365973D01*
X163500045Y-47365970D01*
X163339141Y-47205066D01*
X163152734Y-47074544D01*
X163152732Y-47074543D01*
X162946497Y-46978373D01*
X162946488Y-46978370D01*
X162726697Y-46919478D01*
X162726693Y-46919477D01*
X162726692Y-46919477D01*
X162726691Y-46919476D01*
X162726686Y-46919476D01*
X162500002Y-46899644D01*
X162499998Y-46899644D01*
X162273313Y-46919476D01*
X162273302Y-46919478D01*
X162053511Y-46978370D01*
X162053502Y-46978373D01*
X161847267Y-47074543D01*
X161847265Y-47074544D01*
X161660858Y-47205066D01*
X161499954Y-47365970D01*
X161369432Y-47552377D01*
X161369431Y-47552379D01*
X161273261Y-47758614D01*
X161273258Y-47758623D01*
X161214366Y-47978414D01*
X161214364Y-47978425D01*
X161194532Y-48205110D01*
X117250500Y-48205110D01*
X117250500Y-42652135D01*
X121829500Y-42652135D01*
X121829500Y-44347870D01*
X121829501Y-44347876D01*
X121835908Y-44407483D01*
X121886202Y-44542328D01*
X121886206Y-44542335D01*
X121972452Y-44657544D01*
X121972455Y-44657547D01*
X122087664Y-44743793D01*
X122087671Y-44743797D01*
X122222517Y-44794091D01*
X122222516Y-44794091D01*
X122229444Y-44794835D01*
X122282127Y-44800500D01*
X123977872Y-44800499D01*
X124037483Y-44794091D01*
X124172331Y-44743796D01*
X124287546Y-44657546D01*
X124373796Y-44542331D01*
X124424091Y-44407483D01*
X124424092Y-44407472D01*
X124425365Y-44402088D01*
X124459933Y-44341369D01*
X124521841Y-44308978D01*
X124591433Y-44315199D01*
X124633725Y-44342912D01*
X124790858Y-44500045D01*
X124790861Y-44500047D01*
X124977266Y-44630568D01*
X125183504Y-44726739D01*
X125183509Y-44726740D01*
X125183511Y-44726741D01*
X125221078Y-44736807D01*
X125403308Y-44785635D01*
X125565230Y-44799801D01*
X125629998Y-44805468D01*
X125630000Y-44805468D01*
X125630002Y-44805468D01*
X125686807Y-44800498D01*
X125856692Y-44785635D01*
X126076496Y-44726739D01*
X126282734Y-44630568D01*
X126469139Y-44500047D01*
X126630047Y-44339139D01*
X126760568Y-44152734D01*
X126856739Y-43946496D01*
X126915635Y-43726692D01*
X126935468Y-43500000D01*
X126915635Y-43273308D01*
X126856739Y-43053504D01*
X126855104Y-43049998D01*
X136494891Y-43049998D01*
X136494891Y-43050001D01*
X136515300Y-43335362D01*
X136576109Y-43614895D01*
X136676091Y-43882958D01*
X136813191Y-44134038D01*
X136813196Y-44134046D01*
X136919882Y-44276562D01*
X136919883Y-44276563D01*
X137935387Y-43261059D01*
X137940889Y-43281591D01*
X138019881Y-43418408D01*
X138131592Y-43530119D01*
X138268409Y-43609111D01*
X138288940Y-43614612D01*
X137273435Y-44630115D01*
X137273436Y-44630116D01*
X137415953Y-44736803D01*
X137415961Y-44736808D01*
X137667042Y-44873908D01*
X137667041Y-44873908D01*
X137935104Y-44973890D01*
X138214637Y-45034699D01*
X138499999Y-45055109D01*
X138500001Y-45055109D01*
X138785362Y-45034699D01*
X139064895Y-44973890D01*
X139332958Y-44873908D01*
X139584038Y-44736808D01*
X139584039Y-44736807D01*
X139726563Y-44630115D01*
X138711059Y-43614612D01*
X138731591Y-43609111D01*
X138868408Y-43530119D01*
X138980119Y-43418408D01*
X139059111Y-43281591D01*
X139064612Y-43261059D01*
X140080115Y-44276563D01*
X140186807Y-44134039D01*
X140186808Y-44134038D01*
X140323908Y-43882958D01*
X140423890Y-43614895D01*
X140484699Y-43335362D01*
X140505109Y-43050001D01*
X140505109Y-43049998D01*
X141494390Y-43049998D01*
X141494390Y-43050001D01*
X141514804Y-43335433D01*
X141575628Y-43615037D01*
X141575630Y-43615043D01*
X141575631Y-43615046D01*
X141617271Y-43726686D01*
X141675635Y-43883166D01*
X141812770Y-44134309D01*
X141812775Y-44134317D01*
X141984254Y-44363387D01*
X141984270Y-44363405D01*
X142186594Y-44565729D01*
X142186612Y-44565745D01*
X142415682Y-44737224D01*
X142415690Y-44737229D01*
X142666833Y-44874364D01*
X142666832Y-44874364D01*
X142666836Y-44874365D01*
X142666839Y-44874367D01*
X142934954Y-44974369D01*
X142934960Y-44974370D01*
X142934962Y-44974371D01*
X143214566Y-45035195D01*
X143214568Y-45035195D01*
X143214572Y-45035196D01*
X143468220Y-45053337D01*
X143499999Y-45055610D01*
X143500000Y-45055610D01*
X143500001Y-45055610D01*
X143528595Y-45053564D01*
X143785428Y-45035196D01*
X143975742Y-44993796D01*
X144065037Y-44974371D01*
X144065037Y-44974370D01*
X144065046Y-44974369D01*
X144333161Y-44874367D01*
X144584315Y-44737226D01*
X144813395Y-44565739D01*
X145015739Y-44363395D01*
X145187226Y-44134315D01*
X145324367Y-43883161D01*
X145424369Y-43615046D01*
X145485196Y-43335428D01*
X145505610Y-43050000D01*
X145485196Y-42764572D01*
X145462634Y-42660858D01*
X145424371Y-42484962D01*
X145424370Y-42484960D01*
X145424369Y-42484954D01*
X145324367Y-42216839D01*
X145312186Y-42194532D01*
X145187229Y-41965690D01*
X145187224Y-41965682D01*
X145015745Y-41736612D01*
X145015729Y-41736594D01*
X144813405Y-41534270D01*
X144813387Y-41534254D01*
X144770481Y-41502135D01*
X146499500Y-41502135D01*
X146499500Y-44597870D01*
X146499501Y-44597876D01*
X146505908Y-44657483D01*
X146556202Y-44792328D01*
X146556206Y-44792335D01*
X146642452Y-44907544D01*
X146642455Y-44907547D01*
X146757664Y-44993793D01*
X146757671Y-44993797D01*
X146892517Y-45044091D01*
X146892516Y-45044091D01*
X146899444Y-45044835D01*
X146952127Y-45050500D01*
X150047872Y-45050499D01*
X150107483Y-45044091D01*
X150242331Y-44993796D01*
X150357546Y-44907546D01*
X150443796Y-44792331D01*
X150494091Y-44657483D01*
X150500500Y-44597873D01*
X150500499Y-41502128D01*
X150494091Y-41442517D01*
X150464506Y-41363196D01*
X150443797Y-41307671D01*
X150443793Y-41307664D01*
X150357547Y-41192455D01*
X150357544Y-41192452D01*
X150242335Y-41106206D01*
X150242328Y-41106202D01*
X150107482Y-41055908D01*
X150107483Y-41055908D01*
X150047883Y-41049501D01*
X150047881Y-41049500D01*
X150047873Y-41049500D01*
X150047864Y-41049500D01*
X146952129Y-41049500D01*
X146952123Y-41049501D01*
X146892516Y-41055908D01*
X146757671Y-41106202D01*
X146757664Y-41106206D01*
X146642455Y-41192452D01*
X146642452Y-41192455D01*
X146556206Y-41307664D01*
X146556202Y-41307671D01*
X146505908Y-41442517D01*
X146499501Y-41502116D01*
X146499501Y-41502123D01*
X146499500Y-41502135D01*
X144770481Y-41502135D01*
X144584317Y-41362775D01*
X144584309Y-41362770D01*
X144333166Y-41225635D01*
X144333167Y-41225635D01*
X144225915Y-41185632D01*
X144065046Y-41125631D01*
X144065043Y-41125630D01*
X144065037Y-41125628D01*
X143785433Y-41064804D01*
X143500001Y-41044390D01*
X143499999Y-41044390D01*
X143214566Y-41064804D01*
X142934962Y-41125628D01*
X142666833Y-41225635D01*
X142415690Y-41362770D01*
X142415682Y-41362775D01*
X142186612Y-41534254D01*
X142186594Y-41534270D01*
X141984270Y-41736594D01*
X141984254Y-41736612D01*
X141812775Y-41965682D01*
X141812770Y-41965690D01*
X141675635Y-42216833D01*
X141575628Y-42484962D01*
X141514804Y-42764566D01*
X141494390Y-43049998D01*
X140505109Y-43049998D01*
X140484699Y-42764637D01*
X140423890Y-42485104D01*
X140323908Y-42217041D01*
X140186808Y-41965961D01*
X140186803Y-41965953D01*
X140080116Y-41823436D01*
X140080115Y-41823435D01*
X139064612Y-42838939D01*
X139059111Y-42818409D01*
X138980119Y-42681592D01*
X138868408Y-42569881D01*
X138731591Y-42490889D01*
X138711058Y-42485387D01*
X139726563Y-41469883D01*
X139726562Y-41469882D01*
X139584046Y-41363196D01*
X139584038Y-41363191D01*
X139332957Y-41226091D01*
X139332958Y-41226091D01*
X139064895Y-41126109D01*
X138785362Y-41065300D01*
X138500001Y-41044891D01*
X138499999Y-41044891D01*
X138214637Y-41065300D01*
X137935104Y-41126109D01*
X137667041Y-41226091D01*
X137415961Y-41363191D01*
X137415953Y-41363196D01*
X137273435Y-41469882D01*
X138288941Y-42485387D01*
X138268409Y-42490889D01*
X138131592Y-42569881D01*
X138019881Y-42681592D01*
X137940889Y-42818409D01*
X137935387Y-42838940D01*
X136919882Y-41823435D01*
X136813196Y-41965953D01*
X136813191Y-41965961D01*
X136676091Y-42217041D01*
X136576109Y-42485104D01*
X136515300Y-42764637D01*
X136494891Y-43049998D01*
X126855104Y-43049998D01*
X126760568Y-42847266D01*
X126630047Y-42660861D01*
X126630045Y-42660858D01*
X126469141Y-42499954D01*
X126282734Y-42369432D01*
X126282732Y-42369431D01*
X126076497Y-42273261D01*
X126076488Y-42273258D01*
X125856697Y-42214366D01*
X125856693Y-42214365D01*
X125856692Y-42214365D01*
X125856691Y-42214364D01*
X125856686Y-42214364D01*
X125630002Y-42194532D01*
X125629998Y-42194532D01*
X125403313Y-42214364D01*
X125403302Y-42214366D01*
X125183511Y-42273258D01*
X125183502Y-42273261D01*
X124977267Y-42369431D01*
X124977265Y-42369432D01*
X124790862Y-42499951D01*
X124633726Y-42657087D01*
X124572403Y-42690571D01*
X124502711Y-42685587D01*
X124446778Y-42643715D01*
X124425369Y-42597923D01*
X124424091Y-42592518D01*
X124373797Y-42457671D01*
X124373793Y-42457664D01*
X124287547Y-42342455D01*
X124287544Y-42342452D01*
X124172335Y-42256206D01*
X124172328Y-42256202D01*
X124037482Y-42205908D01*
X124037483Y-42205908D01*
X123977883Y-42199501D01*
X123977881Y-42199500D01*
X123977873Y-42199500D01*
X123977864Y-42199500D01*
X122282129Y-42199500D01*
X122282123Y-42199501D01*
X122222516Y-42205908D01*
X122087671Y-42256202D01*
X122087664Y-42256206D01*
X121972455Y-42342452D01*
X121972452Y-42342455D01*
X121886206Y-42457664D01*
X121886202Y-42457671D01*
X121835908Y-42592517D01*
X121829501Y-42652116D01*
X121829500Y-42652135D01*
X117250500Y-42652135D01*
X117250500Y-21874500D01*
X117270185Y-21807461D01*
X117322989Y-21761706D01*
X117374500Y-21750500D01*
X169125500Y-21750500D01*
X169192539Y-21770185D01*
G37*
%TD.AperFunction*%
%TD*%
M02*
