%TF.GenerationSoftware,KiCad,Pcbnew,8.0.7-1.fc41*%
%TF.CreationDate,2025-01-30T18:34:34-08:00*%
%TF.ProjectId,EP-Booster,45502d42-6f6f-4737-9465-722e6b696361,rev?*%
%TF.SameCoordinates,Original*%
%TF.FileFunction,Soldermask,Top*%
%TF.FilePolarity,Negative*%
%FSLAX46Y46*%
G04 Gerber Fmt 4.6, Leading zero omitted, Abs format (unit mm)*
G04 Created by KiCad (PCBNEW 8.0.7-1.fc41) date 2025-01-30 18:34:34*
%MOMM*%
%LPD*%
G01*
G04 APERTURE LIST*
G04 Aperture macros list*
%AMRoundRect*
0 Rectangle with rounded corners*
0 $1 Rounding radius*
0 $2 $3 $4 $5 $6 $7 $8 $9 X,Y pos of 4 corners*
0 Add a 4 corners polygon primitive as box body*
4,1,4,$2,$3,$4,$5,$6,$7,$8,$9,$2,$3,0*
0 Add four circle primitives for the rounded corners*
1,1,$1+$1,$2,$3*
1,1,$1+$1,$4,$5*
1,1,$1+$1,$6,$7*
1,1,$1+$1,$8,$9*
0 Add four rect primitives between the rounded corners*
20,1,$1+$1,$2,$3,$4,$5,0*
20,1,$1+$1,$4,$5,$6,$7,0*
20,1,$1+$1,$6,$7,$8,$9,0*
20,1,$1+$1,$8,$9,$2,$3,0*%
G04 Aperture macros list end*
%ADD10C,2.600000*%
%ADD11C,3.800000*%
%ADD12RoundRect,0.150000X0.587500X0.150000X-0.587500X0.150000X-0.587500X-0.150000X0.587500X-0.150000X0*%
%ADD13C,1.600000*%
%ADD14O,1.600000X1.600000*%
%ADD15R,2.200000X2.200000*%
%ADD16O,2.200000X2.200000*%
%ADD17R,1.600000X1.600000*%
%ADD18RoundRect,0.102000X0.500000X0.700000X-0.500000X0.700000X-0.500000X-0.700000X0.500000X-0.700000X0*%
%ADD19R,3.000000X3.000000*%
%ADD20C,3.000000*%
G04 APERTURE END LIST*
D10*
%TO.C,H2*%
X121000000Y-82700000D03*
D11*
X121000000Y-82700000D03*
%TD*%
D10*
%TO.C,H3*%
X166000000Y-97000000D03*
D11*
X166000000Y-97000000D03*
%TD*%
D12*
%TO.C,Q2*%
X158475000Y-56350000D03*
X158475000Y-54450000D03*
X156600000Y-55400000D03*
%TD*%
D10*
%TO.C,H8*%
X132000000Y-92000000D03*
D11*
X132000000Y-92000000D03*
%TD*%
D13*
%TO.C,R14*%
X166000000Y-73390000D03*
D14*
X166000000Y-81010000D03*
%TD*%
D13*
%TO.C,C3*%
X121000000Y-71200000D03*
X126000000Y-71200000D03*
%TD*%
D10*
%TO.C,H1*%
X132000000Y-84604888D03*
D11*
X132000000Y-84604888D03*
%TD*%
D13*
%TO.C,R6*%
X120690000Y-66450000D03*
D14*
X128310000Y-66450000D03*
%TD*%
D13*
%TO.C,R2*%
X147600000Y-84410000D03*
D14*
X147600000Y-92030000D03*
%TD*%
D15*
%TO.C,D2*%
X137600000Y-84060000D03*
D16*
X137600000Y-91680000D03*
%TD*%
D13*
%TO.C,R15*%
X166000000Y-84390000D03*
D14*
X166000000Y-92010000D03*
%TD*%
D17*
%TO.C,C2*%
X143000000Y-68500000D03*
D13*
X140500000Y-68500000D03*
%TD*%
D10*
%TO.C,H5*%
X121000000Y-88500000D03*
D11*
X121000000Y-88500000D03*
%TD*%
D10*
%TO.C,H7*%
X152500000Y-97000000D03*
D11*
X152500000Y-97000000D03*
%TD*%
D13*
%TO.C,R12*%
X147500000Y-81560000D03*
D14*
X147500000Y-73940000D03*
%TD*%
D13*
%TO.C,R13*%
X162500000Y-54500000D03*
D14*
X162500000Y-62120000D03*
%TD*%
D13*
%TO.C,R3*%
X135720000Y-73794888D03*
D14*
X143340000Y-73794888D03*
%TD*%
D13*
%TO.C,R9*%
X135750000Y-62370000D03*
D14*
X135750000Y-54750000D03*
%TD*%
D13*
%TO.C,R1*%
X142400000Y-84360000D03*
D14*
X142400000Y-91980000D03*
%TD*%
D17*
%TO.C,SW1*%
X157750000Y-92000000D03*
D14*
X160290000Y-92000000D03*
X160290000Y-84380000D03*
X157750000Y-84380000D03*
%TD*%
D17*
%TO.C,C4*%
X141751666Y-55289775D03*
D13*
X141751666Y-57789775D03*
%TD*%
%TO.C,R11*%
X152800000Y-54800000D03*
D14*
X152800000Y-62420000D03*
%TD*%
D13*
%TO.C,R4*%
X143340000Y-78794888D03*
D14*
X135720000Y-78794888D03*
%TD*%
D18*
%TO.C,Q1*%
X129200000Y-55600000D03*
X127300000Y-55600000D03*
X128250000Y-57800000D03*
%TD*%
D17*
%TO.C,C7*%
X123130000Y-43500000D03*
D13*
X125630000Y-43500000D03*
%TD*%
%TO.C,R10*%
X147753332Y-62420000D03*
D14*
X147753332Y-54800000D03*
%TD*%
D13*
%TO.C,R8*%
X128250000Y-50000000D03*
D14*
X120630000Y-50000000D03*
%TD*%
D13*
%TO.C,R5*%
X120880000Y-75950000D03*
D14*
X128500000Y-75950000D03*
%TD*%
D10*
%TO.C,H6*%
X147000000Y-97000000D03*
D11*
X147000000Y-97000000D03*
%TD*%
D15*
%TO.C,D1*%
X152400000Y-81520000D03*
D16*
X152400000Y-91680000D03*
%TD*%
D10*
%TO.C,H4*%
X166000000Y-102500000D03*
D11*
X166000000Y-102500000D03*
%TD*%
D13*
%TO.C,R7*%
X128310000Y-61950000D03*
D14*
X120690000Y-61950000D03*
%TD*%
D17*
%TO.C,C6*%
X162500000Y-50705112D03*
D13*
X162500000Y-48205112D03*
%TD*%
D17*
%TO.C,C1*%
X134205113Y-68500000D03*
D13*
X131705113Y-68500000D03*
%TD*%
D19*
%TO.C,RV1*%
X148500000Y-43050000D03*
D20*
X143500000Y-43050000D03*
X138500000Y-43050000D03*
%TD*%
D13*
%TO.C,C5*%
X152500000Y-78200000D03*
X152500000Y-73200000D03*
%TD*%
%TO.C,R16*%
X160500000Y-80700000D03*
D14*
X160500000Y-73080000D03*
%TD*%
M02*
