M48
; DRILL file {KiCad 8.0.7-1.fc41} date 2025-04-02T21:11:03-0700
; FORMAT={-:-/ absolute / inch / decimal}
; #@! TF.CreationDate,2025-04-02T21:11:03-07:00
; #@! TF.GenerationSoftware,Kicad,Pcbnew,8.0.7-1.fc41
; #@! TF.FileFunction,Plated,1,2,PTH
FMAT,2
INCH
; #@! TA.AperFunction,Plated,PTH,ComponentDrill
T1C0.0315
; #@! TA.AperFunction,Plated,PTH,ComponentDrill
T2C0.0433
; #@! TA.AperFunction,Plated,PTH,ComponentDrill
T3C0.0472
; #@! TA.AperFunction,Plated,PTH,ComponentDrill
T4C0.0591
; #@! TA.AperFunction,Plated,PTH,ComponentDrill
T5C0.0866
%
G90
G05
T1
X4.8402Y-2.313
X4.8476Y-2.126
X4.8598Y-1.7323
X4.9508Y-2.5098
X5.0295Y-2.6945
X5.0295Y-2.9945
X5.051Y-1.437
X5.1402Y-2.313
X5.1476Y-2.126
X5.1476Y-2.5098
X5.1494Y-1.437
X5.1598Y-1.7323
X5.1852Y-2.6969
X5.2837Y-2.6969
X5.3433Y-2.9053
X5.3433Y-3.1022
X5.3445Y-2.1555
X5.3445Y-2.4555
X5.5315Y-2.6969
X5.5808Y-2.1768
X5.5808Y-2.2752
X5.6299Y-2.6969
X5.6433Y-2.9053
X5.6433Y-3.1022
X5.8169Y-2.5764
X5.8169Y-2.8764
X5.8169Y-2.9799
X5.8169Y-3.2799
X5.8171Y-2.1575
X5.8171Y-2.4575
X5.9646Y-2.9823
X5.9646Y-3.2823
X6.0157Y-2.1575
X6.0157Y-2.4575
X6.0335Y-2.6181
X6.0335Y-2.815
X6.0705Y-1.9882
X6.1203Y-1.4567
X6.1811Y-2.1531
X6.1811Y-2.4531
X6.2187Y-1.4567
X6.2303Y-2.5858
X6.2303Y-2.8858
X6.3303Y-2.5858
X6.3303Y-2.8858
X6.3681Y-2.1555
X6.3681Y-2.4555
X6.3705Y-1.9882
X6.378Y-1.5724
X6.378Y-1.8724
T2
X5.3299Y-3.2677
X5.4429Y-3.4744
X5.6299Y-3.2677
X5.8429Y-3.4744
T3
X5.4331Y-1.2402
X5.6299Y-1.2402
X5.8268Y-1.2402
T4
X4.9606Y-3.8189
X5.1589Y-3.8189
X5.3571Y-3.8189
X5.5554Y-3.8189
X5.7537Y-3.8189
X5.9519Y-3.8189
X6.1502Y-3.8189
X6.3484Y-3.8189
T5
X4.872Y-1.063
X4.872Y-3.4941
X6.3878Y-1.063
X6.3878Y-3.4941
M30
