%TF.GenerationSoftware,KiCad,Pcbnew,8.0.7-1.fc41*%
%TF.CreationDate,2025-01-30T18:36:41-08:00*%
%TF.ProjectId,EP-Booster,45502d42-6f6f-4737-9465-722e6b696361,rev?*%
%TF.SameCoordinates,Original*%
%TF.FileFunction,Plated,1,2,PTH,Drill*%
%TF.FilePolarity,Positive*%
%FSLAX46Y46*%
G04 Gerber Fmt 4.6, Leading zero omitted, Abs format (unit mm)*
G04 Created by KiCad (PCBNEW 8.0.7-1.fc41) date 2025-01-30 18:36:41*
%MOMM*%
%LPD*%
G01*
G04 APERTURE LIST*
%TA.AperFunction,ComponentDrill*%
%ADD10C,0.800000*%
%TD*%
%TA.AperFunction,ComponentDrill*%
%ADD11C,1.100000*%
%TD*%
%TA.AperFunction,ComponentDrill*%
%ADD12C,1.200000*%
%TD*%
%TA.AperFunction,ComponentDrill*%
%ADD13C,1.500000*%
%TD*%
G04 APERTURE END LIST*
D10*
%TO.C,R8*%
X120630000Y-50000000D03*
%TO.C,R7*%
X120690000Y-61950000D03*
%TO.C,R6*%
X120690000Y-66450000D03*
%TO.C,R5*%
X120880000Y-75950000D03*
%TO.C,C3*%
X121000000Y-71200000D03*
%TO.C,C7*%
X123130000Y-43500000D03*
X125630000Y-43500000D03*
%TO.C,C3*%
X126000000Y-71200000D03*
%TO.C,R8*%
X128250000Y-50000000D03*
%TO.C,R7*%
X128310000Y-61950000D03*
%TO.C,R6*%
X128310000Y-66450000D03*
%TO.C,R5*%
X128500000Y-75950000D03*
%TO.C,C1*%
X131705113Y-68500000D03*
X134205113Y-68500000D03*
%TO.C,R3*%
X135720000Y-73794888D03*
%TO.C,R4*%
X135720000Y-78794888D03*
%TO.C,R9*%
X135750000Y-54750000D03*
X135750000Y-62370000D03*
%TO.C,C2*%
X140500000Y-68500000D03*
%TO.C,C4*%
X141751666Y-55289775D03*
X141751666Y-57789775D03*
%TO.C,R1*%
X142400000Y-84360000D03*
X142400000Y-91980000D03*
%TO.C,C2*%
X143000000Y-68500000D03*
%TO.C,R3*%
X143340000Y-73794888D03*
%TO.C,R4*%
X143340000Y-78794888D03*
%TO.C,R12*%
X147500000Y-73940000D03*
X147500000Y-81560000D03*
%TO.C,R2*%
X147600000Y-84410000D03*
X147600000Y-92030000D03*
%TO.C,R10*%
X147753332Y-54800000D03*
X147753332Y-62420000D03*
%TO.C,C5*%
X152500000Y-73200000D03*
X152500000Y-78200000D03*
%TO.C,R11*%
X152800000Y-54800000D03*
X152800000Y-62420000D03*
%TO.C,SW1*%
X157750000Y-84380000D03*
X157750000Y-92000000D03*
X160290000Y-84380000D03*
X160290000Y-92000000D03*
%TO.C,R16*%
X160500000Y-73080000D03*
X160500000Y-80700000D03*
%TO.C,C6*%
X162500000Y-48205112D03*
X162500000Y-50705112D03*
%TO.C,R13*%
X162500000Y-54500000D03*
X162500000Y-62120000D03*
%TO.C,R14*%
X166000000Y-73390000D03*
X166000000Y-81010000D03*
%TO.C,R15*%
X166000000Y-84390000D03*
X166000000Y-92010000D03*
D11*
%TO.C,D2*%
X137600000Y-84060000D03*
X137600000Y-91680000D03*
%TO.C,D1*%
X152400000Y-81520000D03*
X152400000Y-91680000D03*
D12*
%TO.C,RV1*%
X138500000Y-43050000D03*
X143500000Y-43050000D03*
X148500000Y-43050000D03*
D13*
%TO.C,H2*%
X121000000Y-82700000D03*
%TO.C,H5*%
X121000000Y-88500000D03*
%TO.C,H1*%
X132000000Y-84604888D03*
%TO.C,H8*%
X132000000Y-92000000D03*
%TO.C,H6*%
X147000000Y-97000000D03*
%TO.C,H7*%
X152500000Y-97000000D03*
%TO.C,H3*%
X166000000Y-97000000D03*
%TO.C,H4*%
X166000000Y-102500000D03*
M02*
